<svg xmlns="http://www.w3.org/2000/svg" viewBox="0 0 108.08 81.85"><defs><style>.cls-1{fill:#ff7f00;}.cls-2{fill:#e66b2a;}.cls-3{fill:#ecc24f;}</style></defs><title>Asset 3</title><g id="Layer_2" data-name="Layer 2"><g id="Layer_2-2" data-name="Layer 2"><circle class="cls-1" cx="57.35" cy="18.23" r="6.67"/><path class="cls-2" d="M53,17.19s-1.73,6.44,5.14,7.71C58.12,24.9,54.44,22.83,53,17.19Z"/><path class="cls-3" d="M53.33,19.25s1.09,3.37,3,4.5A4.6,4.6,0,0,1,53.33,19.25Z"/><path class="cls-2" d="M62,16a5.78,5.78,0,0,0-7.66-.54A13,13,0,0,1,62,16Z"/><path class="cls-3" d="M60.5,15.32A9.82,9.82,0,0,0,56,15,4.7,4.7,0,0,1,60.5,15.32Z"/><circle class="cls-1" cx="68.77" cy="8.76" r="6.67"/><path class="cls-2" d="M64.41,7.71s-1.73,6.44,5.14,7.71C69.54,15.42,65.86,13.35,64.41,7.71Z"/><path class="cls-3" d="M64.76,9.77s1.09,3.37,3,4.5A4.6,4.6,0,0,1,64.76,9.77Z"/><path class="cls-2" d="M73.42,6.51A5.78,5.78,0,0,0,65.76,6,13,13,0,0,1,73.42,6.51Z"/><path class="cls-3" d="M71.92,5.85a9.82,9.82,0,0,0-4.49-.3A4.7,4.7,0,0,1,71.92,5.85Z"/><circle class="cls-1" cx="54.19" cy="29.8" r="6.67"/><path class="cls-2" d="M49.83,28.76S48.1,35.2,55,36.47C55,36.47,51.28,34.4,49.83,28.76Z"/><path class="cls-3" d="M50.18,30.82s1.09,3.37,3,4.5A4.6,4.6,0,0,1,50.18,30.82Z"/><path class="cls-2" d="M58.84,27.56A5.78,5.78,0,0,0,51.18,27,13,13,0,0,1,58.84,27.56Z"/><path class="cls-3" d="M57.35,26.89a9.82,9.82,0,0,0-4.49-.3A4.7,4.7,0,0,1,57.35,26.89Z"/><circle class="cls-1" cx="70.11" cy="26.89" r="6.67"/><path class="cls-2" d="M65.74,25.85S64,32.29,70.88,33.56C70.88,33.56,67.2,31.49,65.74,25.85Z"/><path class="cls-3" d="M66.09,27.91s1.09,3.37,3,4.5A4.6,4.6,0,0,1,66.09,27.91Z"/><path class="cls-2" d="M74.75,24.65a5.78,5.78,0,0,0-7.66-.54A13,13,0,0,1,74.75,24.65Z"/><path class="cls-3" d="M73.26,24a9.82,9.82,0,0,0-4.49-.3A4.7,4.7,0,0,1,73.26,24Z"/><circle class="cls-1" cx="74.75" cy="19.25" r="6.67"/><path class="cls-2" d="M70.38,18.2s-1.73,6.44,5.14,7.71C75.52,25.91,71.84,23.84,70.38,18.2Z"/><path class="cls-3" d="M70.74,20.26s1.09,3.37,3,4.5A4.6,4.6,0,0,1,70.74,20.26Z"/><path class="cls-2" d="M79.39,17a5.78,5.78,0,0,0-7.66-.54A13,13,0,0,1,79.39,17Z"/><path class="cls-3" d="M77.9,16.34a9.82,9.82,0,0,0-4.49-.3A4.7,4.7,0,0,1,77.9,16.34Z"/><circle class="cls-1" cx="55.82" cy="6.67" r="6.67"/><path class="cls-2" d="M51.46,5.62s-1.73,6.44,5.14,7.71C56.59,13.33,52.91,11.26,51.46,5.62Z"/><path class="cls-3" d="M51.81,7.68s1.09,3.37,3,4.5A4.6,4.6,0,0,1,51.81,7.68Z"/><path class="cls-2" d="M60.47,4.42a5.78,5.78,0,0,0-7.66-.54A13,13,0,0,1,60.47,4.42Z"/><path class="cls-3" d="M59,3.76a9.82,9.82,0,0,0-4.49-.3A4.7,4.7,0,0,1,59,3.76Z"/><circle class="cls-1" cx="47.53" cy="18.2" r="6.67"/><path class="cls-2" d="M43.16,17.16s-1.73,6.44,5.14,7.71C48.3,24.87,44.62,22.79,43.16,17.16Z"/><path class="cls-3" d="M43.51,19.21s1.09,3.37,3,4.5A4.6,4.6,0,0,1,43.51,19.21Z"/><path class="cls-2" d="M52.17,16a5.78,5.78,0,0,0-7.66-.54A13,13,0,0,1,52.17,16Z"/><path class="cls-3" d="M50.68,15.29a9.82,9.82,0,0,0-4.49-.3A4.7,4.7,0,0,1,50.68,15.29Z"/><circle class="cls-1" cx="40.86" cy="7.51" r="6.67"/><path class="cls-2" d="M36.5,6.46s-1.73,6.44,5.14,7.71C41.63,14.18,38,12.1,36.5,6.46Z"/><path class="cls-3" d="M36.85,8.52s1.09,3.37,3,4.5A4.6,4.6,0,0,1,36.85,8.52Z"/><path class="cls-2" d="M45.51,5.26a5.78,5.78,0,0,0-7.66-.54A13,13,0,0,1,45.51,5.26Z"/><path class="cls-3" d="M44,4.6a9.82,9.82,0,0,0-4.49-.3A4.7,4.7,0,0,1,44,4.6Z"/><circle class="cls-1" cx="39.88" cy="29.8" r="6.67"/><path class="cls-2" d="M35.52,28.76s-1.73,6.44,5.14,7.71C40.65,36.47,37,34.4,35.52,28.76Z"/><path class="cls-3" d="M35.87,30.82s1.09,3.37,3,4.5A4.6,4.6,0,0,1,35.87,30.82Z"/><path class="cls-2" d="M44.53,27.56A5.78,5.78,0,0,0,36.87,27,13,13,0,0,1,44.53,27.56Z"/><path class="cls-3" d="M43,26.89a9.82,9.82,0,0,0-4.49-.3A4.7,4.7,0,0,1,43,26.89Z"/><circle class="cls-1" cx="31.7" cy="19.21" r="6.67"/><path class="cls-2" d="M27.33,18.17s-1.73,6.44,5.14,7.71C32.47,25.88,28.79,23.81,27.33,18.17Z"/><path class="cls-3" d="M27.68,20.23s1.09,3.37,3,4.5A4.6,4.6,0,0,1,27.68,20.23Z"/><path class="cls-2" d="M36.34,17a5.78,5.78,0,0,0-7.66-.54A13,13,0,0,1,36.34,17Z"/><path class="cls-3" d="M34.85,16.31a9.82,9.82,0,0,0-4.49-.3A4.7,4.7,0,0,1,34.85,16.31Z"/><circle class="cls-1" cx="30.72" cy="8.76" r="6.67"/><path class="cls-2" d="M26.35,7.71s-1.73,6.44,5.14,7.71C31.49,15.42,27.81,13.35,26.35,7.71Z"/><path class="cls-3" d="M26.71,9.77s1.09,3.37,3,4.5A4.6,4.6,0,0,1,26.71,9.77Z"/><path class="cls-2" d="M35.36,6.51A5.78,5.78,0,0,0,27.7,6,13,13,0,0,1,35.36,6.51Z"/><path class="cls-3" d="M33.87,5.85a9.82,9.82,0,0,0-4.49-.3A4.7,4.7,0,0,1,33.87,5.85Z"/><circle class="cls-1" cx="64.21" cy="33.56" r="6.67"/><path class="cls-2" d="M59.85,32.52S58.12,39,65,40.23C65,40.23,61.3,38.15,59.85,32.52Z"/><path class="cls-3" d="M60.2,34.57s1.09,3.37,3,4.5A4.6,4.6,0,0,1,60.2,34.57Z"/><path class="cls-2" d="M68.86,31.31a5.78,5.78,0,0,0-7.66-.54A13,13,0,0,1,68.86,31.31Z"/><path class="cls-3" d="M67.36,30.65a9.82,9.82,0,0,0-4.49-.3A4.7,4.7,0,0,1,67.36,30.65Z"/><circle class="cls-1" cx="45.63" cy="36.82" r="6.67"/><path class="cls-2" d="M41.27,35.78s-1.73,6.44,5.14,7.71C46.4,43.49,42.72,41.42,41.27,35.78Z"/><path class="cls-3" d="M41.62,37.84s1.09,3.37,3,4.5A4.6,4.6,0,0,1,41.62,37.84Z"/><path class="cls-2" d="M50.28,34.58A5.78,5.78,0,0,0,42.62,34,13,13,0,0,1,50.28,34.58Z"/><path class="cls-3" d="M48.78,33.91a9.82,9.82,0,0,0-4.49-.3A4.7,4.7,0,0,1,48.78,33.91Z"/><circle class="cls-1" cx="84" cy="56.6" r="6.67"/><path class="cls-2" d="M79.64,55.55S77.91,62,84.78,63.26C84.78,63.26,81.09,61.19,79.64,55.55Z"/><path class="cls-3" d="M80,57.61s1.09,3.37,3,4.5A4.6,4.6,0,0,1,80,57.61Z"/><path class="cls-2" d="M88.65,54.35A5.78,5.78,0,0,0,81,53.81,13,13,0,0,1,88.65,54.35Z"/><path class="cls-3" d="M87.16,53.69a9.82,9.82,0,0,0-4.49-.3A4.7,4.7,0,0,1,87.16,53.69Z"/><circle class="cls-1" cx="95.43" cy="47.12" r="6.67"/><path class="cls-2" d="M91.07,46.07s-1.73,6.44,5.14,7.71C96.2,53.79,92.52,51.71,91.07,46.07Z"/><path class="cls-3" d="M91.42,48.13s1.09,3.37,3,4.5A4.6,4.6,0,0,1,91.42,48.13Z"/><path class="cls-2" d="M100.08,44.87a5.78,5.78,0,0,0-7.66-.54A13,13,0,0,1,100.08,44.87Z"/><path class="cls-3" d="M98.58,44.21a9.82,9.82,0,0,0-4.49-.3A4.7,4.7,0,0,1,98.58,44.21Z"/><circle class="cls-1" cx="80.85" cy="68.17" r="6.67"/><path class="cls-2" d="M76.49,67.12s-1.73,6.44,5.14,7.71C81.62,74.83,77.94,72.76,76.49,67.12Z"/><path class="cls-3" d="M76.84,69.18s1.09,3.37,3,4.5A4.6,4.6,0,0,1,76.84,69.18Z"/><path class="cls-2" d="M85.5,65.92a5.78,5.78,0,0,0-7.66-.54A13,13,0,0,1,85.5,65.92Z"/><path class="cls-3" d="M84,65.26a9.82,9.82,0,0,0-4.49-.3A4.7,4.7,0,0,1,84,65.26Z"/><circle class="cls-1" cx="96.76" cy="65.26" r="6.67"/><path class="cls-2" d="M92.4,64.21s-1.73,6.44,5.14,7.71C97.54,71.92,93.85,69.85,92.4,64.21Z"/><path class="cls-3" d="M92.75,66.27s1.09,3.37,3,4.5A4.6,4.6,0,0,1,92.75,66.27Z"/><path class="cls-2" d="M101.41,63a5.78,5.78,0,0,0-7.66-.54A13,13,0,0,1,101.41,63Z"/><path class="cls-3" d="M99.92,62.35a9.82,9.82,0,0,0-4.49-.3A4.7,4.7,0,0,1,99.92,62.35Z"/><circle class="cls-1" cx="101.41" cy="57.61" r="6.67"/><path class="cls-2" d="M97,56.57s-1.73,6.44,5.14,7.71C102.18,64.28,98.5,62.2,97,56.57Z"/><path class="cls-3" d="M97.39,58.62s1.09,3.37,3,4.5A4.6,4.6,0,0,1,97.39,58.62Z"/><path class="cls-2" d="M106.05,55.36a5.78,5.78,0,0,0-7.66-.54A13,13,0,0,1,106.05,55.36Z"/><path class="cls-3" d="M104.56,54.7a9.82,9.82,0,0,0-4.49-.3A4.7,4.7,0,0,1,104.56,54.7Z"/><circle class="cls-1" cx="82.48" cy="45.03" r="6.67"/><path class="cls-2" d="M78.12,44s-1.73,6.44,5.14,7.71C83.25,51.7,79.57,49.62,78.12,44Z"/><path class="cls-3" d="M78.47,46s1.09,3.37,3,4.5A4.6,4.6,0,0,1,78.47,46Z"/><path class="cls-2" d="M87.13,42.78a5.78,5.78,0,0,0-7.66-.54A13,13,0,0,1,87.13,42.78Z"/><path class="cls-3" d="M85.63,42.12a9.82,9.82,0,0,0-4.49-.3A4.7,4.7,0,0,1,85.63,42.12Z"/><circle class="cls-1" cx="74.19" cy="56.57" r="6.67"/><path class="cls-2" d="M69.82,55.52S68.09,62,75,63.23C75,63.23,71.28,61.16,69.82,55.52Z"/><path class="cls-3" d="M70.17,57.58s1.09,3.37,3,4.5A4.6,4.6,0,0,1,70.17,57.58Z"/><path class="cls-2" d="M78.83,54.32a5.78,5.78,0,0,0-7.66-.54A13,13,0,0,1,78.83,54.32Z"/><path class="cls-3" d="M77.34,53.66a9.82,9.82,0,0,0-4.49-.3A4.7,4.7,0,0,1,77.34,53.66Z"/><circle class="cls-1" cx="67.52" cy="45.87" r="6.67"/><path class="cls-2" d="M63.15,44.83s-1.73,6.44,5.14,7.71C68.29,52.54,64.61,50.47,63.15,44.83Z"/><path class="cls-3" d="M63.51,46.89s1.09,3.37,3,4.5A4.6,4.6,0,0,1,63.51,46.89Z"/><path class="cls-2" d="M72.16,43.63a5.78,5.78,0,0,0-7.66-.54A13,13,0,0,1,72.16,43.63Z"/><path class="cls-3" d="M70.67,43a9.82,9.82,0,0,0-4.49-.3A4.7,4.7,0,0,1,70.67,43Z"/><circle class="cls-1" cx="66.54" cy="68.17" r="6.67"/><path class="cls-2" d="M62.18,67.12s-1.73,6.44,5.14,7.71C67.31,74.83,63.63,72.76,62.18,67.12Z"/><path class="cls-3" d="M62.53,69.18s1.09,3.37,3,4.5A4.6,4.6,0,0,1,62.53,69.18Z"/><path class="cls-2" d="M71.19,65.92a5.78,5.78,0,0,0-7.66-.54A13,13,0,0,1,71.19,65.92Z"/><path class="cls-3" d="M69.69,65.26A9.82,9.82,0,0,0,65.2,65,4.7,4.7,0,0,1,69.69,65.26Z"/><circle class="cls-1" cx="58.36" cy="57.58" r="6.67"/><path class="cls-2" d="M54,56.53S52.26,63,59.13,64.24C59.13,64.24,55.45,62.17,54,56.53Z"/><path class="cls-3" d="M54.34,58.59s1.09,3.37,3,4.5A4.6,4.6,0,0,1,54.34,58.59Z"/><path class="cls-2" d="M63,55.33a5.78,5.78,0,0,0-7.66-.54A13,13,0,0,1,63,55.33Z"/><path class="cls-3" d="M61.51,54.67a9.82,9.82,0,0,0-4.49-.3A4.7,4.7,0,0,1,61.51,54.67Z"/><circle class="cls-1" cx="57.38" cy="47.12" r="6.67"/><path class="cls-2" d="M53,46.07s-1.73,6.44,5.14,7.71C58.15,53.79,54.47,51.71,53,46.07Z"/><path class="cls-3" d="M53.37,48.13s1.09,3.37,3,4.5A4.6,4.6,0,0,1,53.37,48.13Z"/><path class="cls-2" d="M62,44.87a5.78,5.78,0,0,0-7.66-.54A13,13,0,0,1,62,44.87Z"/><path class="cls-3" d="M60.53,44.21a9.82,9.82,0,0,0-4.49-.3A4.7,4.7,0,0,1,60.53,44.21Z"/><circle class="cls-1" cx="90.87" cy="71.92" r="6.67"/><path class="cls-2" d="M86.51,70.88s-1.73,6.44,5.14,7.71C91.64,78.59,88,76.52,86.51,70.88Z"/><path class="cls-3" d="M86.86,72.94s1.09,3.37,3,4.5A4.6,4.6,0,0,1,86.86,72.94Z"/><path class="cls-2" d="M95.52,69.68a5.78,5.78,0,0,0-7.66-.54A13,13,0,0,1,95.52,69.68Z"/><path class="cls-3" d="M94,69a9.82,9.82,0,0,0-4.49-.3A4.7,4.7,0,0,1,94,69Z"/><circle class="cls-1" cx="72.29" cy="75.19" r="6.67"/><path class="cls-2" d="M67.93,74.14s-1.73,6.44,5.14,7.71C73.06,81.85,69.38,79.78,67.93,74.14Z"/><path class="cls-3" d="M68.28,76.2s1.09,3.37,3,4.5A4.6,4.6,0,0,1,68.28,76.2Z"/><path class="cls-2" d="M76.94,72.94a5.78,5.78,0,0,0-7.66-.54A13,13,0,0,1,76.94,72.94Z"/><path class="cls-3" d="M75.44,72.28A9.82,9.82,0,0,0,71,72,4.7,4.7,0,0,1,75.44,72.28Z"/><circle class="cls-1" cx="33.29" cy="52.01" r="6.67"/><path class="cls-2" d="M28.93,51s-1.73,6.44,5.14,7.71C34.06,58.68,30.38,56.6,28.93,51Z"/><path class="cls-3" d="M29.28,53s1.09,3.37,3,4.5A4.6,4.6,0,0,1,29.28,53Z"/><path class="cls-2" d="M37.94,49.76a5.78,5.78,0,0,0-7.66-.54A13,13,0,0,1,37.94,49.76Z"/><path class="cls-3" d="M36.44,49.1a9.82,9.82,0,0,0-4.49-.3A4.7,4.7,0,0,1,36.44,49.1Z"/><circle class="cls-1" cx="44.72" cy="42.53" r="6.67"/><path class="cls-2" d="M40.35,41.49s-1.73,6.44,5.14,7.71C45.49,49.2,41.81,47.12,40.35,41.49Z"/><path class="cls-3" d="M40.7,43.54s1.09,3.37,3,4.5A4.6,4.6,0,0,1,40.7,43.54Z"/><path class="cls-2" d="M49.36,40.28a5.78,5.78,0,0,0-7.66-.54A13,13,0,0,1,49.36,40.28Z"/><path class="cls-3" d="M47.87,39.62a9.82,9.82,0,0,0-4.49-.3A4.7,4.7,0,0,1,47.87,39.62Z"/><circle class="cls-1" cx="30.14" cy="63.58" r="6.67"/><path class="cls-2" d="M25.78,62.53S24,69,30.91,70.24C30.91,70.24,27.23,68.17,25.78,62.53Z"/><path class="cls-3" d="M26.13,64.59s1.09,3.37,3,4.5A4.6,4.6,0,0,1,26.13,64.59Z"/><path class="cls-2" d="M34.79,61.33a5.78,5.78,0,0,0-7.66-.54A13,13,0,0,1,34.79,61.33Z"/><path class="cls-3" d="M33.29,60.67a9.82,9.82,0,0,0-4.49-.3A4.7,4.7,0,0,1,33.29,60.67Z"/><circle class="cls-1" cx="46.05" cy="60.67" r="6.67"/><path class="cls-2" d="M41.69,59.62S40,66.07,46.82,67.34C46.82,67.34,43.14,65.26,41.69,59.62Z"/><path class="cls-3" d="M42,61.68s1.09,3.37,3,4.5A4.6,4.6,0,0,1,42,61.68Z"/><path class="cls-2" d="M50.7,58.42A5.78,5.78,0,0,0,43,57.88,13,13,0,0,1,50.7,58.42Z"/><path class="cls-3" d="M49.2,57.76a9.82,9.82,0,0,0-4.49-.3A4.7,4.7,0,0,1,49.2,57.76Z"/><circle class="cls-1" cx="50.7" cy="53.02" r="6.67"/><path class="cls-2" d="M46.33,52s-1.73,6.44,5.14,7.71C51.47,59.69,47.79,57.61,46.33,52Z"/><path class="cls-3" d="M46.68,54s1.09,3.37,3,4.5A4.6,4.6,0,0,1,46.68,54Z"/><path class="cls-2" d="M55.34,50.78a5.78,5.78,0,0,0-7.66-.54A13,13,0,0,1,55.34,50.78Z"/><path class="cls-3" d="M53.85,50.11a9.82,9.82,0,0,0-4.49-.3A4.7,4.7,0,0,1,53.85,50.11Z"/><circle class="cls-1" cx="31.77" cy="40.44" r="6.67"/><path class="cls-2" d="M27.4,39.4s-1.73,6.44,5.14,7.71C32.54,47.11,28.86,45,27.4,39.4Z"/><path class="cls-3" d="M27.76,41.46s1.09,3.37,3,4.5A4.6,4.6,0,0,1,27.76,41.46Z"/><path class="cls-2" d="M36.41,38.2a5.78,5.78,0,0,0-7.66-.54A13,13,0,0,1,36.41,38.2Z"/><path class="cls-3" d="M34.92,37.53a9.82,9.82,0,0,0-4.49-.3A4.7,4.7,0,0,1,34.92,37.53Z"/><circle class="cls-1" cx="23.47" cy="51.98" r="6.67"/><path class="cls-2" d="M19.11,50.93s-1.73,6.44,5.14,7.71C24.25,58.64,20.56,56.57,19.11,50.93Z"/><path class="cls-3" d="M19.46,53s1.09,3.37,3,4.5A4.6,4.6,0,0,1,19.46,53Z"/><path class="cls-2" d="M28.12,49.73a5.78,5.78,0,0,0-7.66-.54A13,13,0,0,1,28.12,49.73Z"/><path class="cls-3" d="M26.63,49.07a9.82,9.82,0,0,0-4.49-.3A4.7,4.7,0,0,1,26.63,49.07Z"/><circle class="cls-1" cx="16.81" cy="41.28" r="6.67"/><path class="cls-2" d="M12.44,40.24S10.71,46.69,17.58,48C17.58,48,13.9,45.88,12.44,40.24Z"/><path class="cls-3" d="M12.79,42.3s1.09,3.37,3,4.5A4.6,4.6,0,0,1,12.79,42.3Z"/><path class="cls-2" d="M21.45,39a5.78,5.78,0,0,0-7.66-.54A13,13,0,0,1,21.45,39Z"/><path class="cls-3" d="M20,38.38a9.82,9.82,0,0,0-4.49-.3A4.7,4.7,0,0,1,20,38.38Z"/><circle class="cls-1" cx="15.83" cy="63.58" r="6.67"/><path class="cls-2" d="M11.46,62.53S9.73,69,16.6,70.24C16.6,70.24,12.92,68.17,11.46,62.53Z"/><path class="cls-3" d="M11.82,64.59s1.09,3.37,3,4.5A4.6,4.6,0,0,1,11.82,64.59Z"/><path class="cls-2" d="M20.47,61.33a5.78,5.78,0,0,0-7.66-.54A13,13,0,0,1,20.47,61.33Z"/><path class="cls-3" d="M19,60.67a9.82,9.82,0,0,0-4.49-.3A4.7,4.7,0,0,1,19,60.67Z"/><circle class="cls-1" cx="7.64" cy="52.99" r="6.67"/><path class="cls-2" d="M3.28,51.95s-1.73,6.44,5.14,7.71C8.42,59.66,4.73,57.58,3.28,51.95Z"/><path class="cls-3" d="M3.63,54s1.09,3.37,3,4.5A4.6,4.6,0,0,1,3.63,54Z"/><path class="cls-2" d="M12.29,50.74a5.78,5.78,0,0,0-7.66-.54A13,13,0,0,1,12.29,50.74Z"/><path class="cls-3" d="M10.8,50.08a9.82,9.82,0,0,0-4.49-.3A4.7,4.7,0,0,1,10.8,50.08Z"/><circle class="cls-1" cx="6.67" cy="42.53" r="6.67"/><path class="cls-2" d="M2.3,41.49S.57,47.93,7.44,49.2C7.44,49.2,3.76,47.12,2.3,41.49Z"/><path class="cls-3" d="M2.65,43.54s1.09,3.37,3,4.5A4.6,4.6,0,0,1,2.65,43.54Z"/><path class="cls-2" d="M11.31,40.28a5.78,5.78,0,0,0-7.66-.54A13,13,0,0,1,11.31,40.28Z"/><path class="cls-3" d="M9.82,39.62a9.82,9.82,0,0,0-4.49-.3A4.7,4.7,0,0,1,9.82,39.62Z"/><circle class="cls-1" cx="40.16" cy="67.34" r="6.67"/><path class="cls-2" d="M35.79,66.29S34.06,72.74,40.93,74C40.93,74,37.25,71.93,35.79,66.29Z"/><path class="cls-3" d="M36.14,68.35s1.09,3.37,3,4.5A4.6,4.6,0,0,1,36.14,68.35Z"/><path class="cls-2" d="M44.8,65.09a5.78,5.78,0,0,0-7.66-.54A13,13,0,0,1,44.8,65.09Z"/><path class="cls-3" d="M43.31,64.43a9.82,9.82,0,0,0-4.49-.3A4.7,4.7,0,0,1,43.31,64.43Z"/><circle class="cls-1" cx="21.58" cy="70.6" r="6.67"/><path class="cls-2" d="M17.21,69.56S15.48,76,22.35,77.27C22.35,77.27,18.67,75.19,17.21,69.56Z"/><path class="cls-3" d="M17.57,71.61s1.09,3.37,3,4.5A4.6,4.6,0,0,1,17.57,71.61Z"/><path class="cls-2" d="M26.22,68.35a5.78,5.78,0,0,0-7.66-.54A13,13,0,0,1,26.22,68.35Z"/><path class="cls-3" d="M24.73,67.69a9.82,9.82,0,0,0-4.49-.3A4.7,4.7,0,0,1,24.73,67.69Z"/></g></g></svg>