<svg xmlns="http://www.w3.org/2000/svg" xmlns:xlink="http://www.w3.org/1999/xlink" viewBox="0 0 124.21 105.42"><defs><style>.cls-1{fill:url(#linear-gradient);}.cls-2{fill:#b4e8a3;}.cls-3{fill:#fcf50b;}.cls-4{fill:url(#linear-gradient-2);}.cls-5{fill:url(#linear-gradient-3);}.cls-6{fill:url(#linear-gradient-4);}.cls-7{fill:url(#linear-gradient-5);}.cls-8{fill:url(#linear-gradient-7);}.cls-9{fill:url(#linear-gradient-8);}.cls-10{fill:url(#linear-gradient-9);}.cls-11{fill:url(#linear-gradient-10);}</style><linearGradient id="linear-gradient" x1="49.34" y1="37.18" x2="78.74" y2="32.53" gradientUnits="userSpaceOnUse"><stop offset="0" stop-color="#94c554"/><stop offset="0.45" stop-color="#528c33"/><stop offset="0.77" stop-color="#3a6c11"/><stop offset="0.96" stop-color="#305f03"/></linearGradient><linearGradient id="linear-gradient-2" x1="65.74" y1="67.31" x2="95.14" y2="62.67" xlink:href="#linear-gradient"/><linearGradient id="linear-gradient-3" x1="40.82" y1="89.71" x2="70.22" y2="85.07" xlink:href="#linear-gradient"/><linearGradient id="linear-gradient-4" x1="90" y1="79.97" x2="119.39" y2="75.32" xlink:href="#linear-gradient"/><linearGradient id="linear-gradient-5" x1="2.04" y1="54.55" x2="31.44" y2="49.91" xlink:href="#linear-gradient"/><linearGradient id="linear-gradient-7" x1="19.42" y1="19.8" x2="48.81" y2="15.16" xlink:href="#linear-gradient"/><linearGradient id="linear-gradient-8" x1="8.44" y1="90.46" x2="37.84" y2="85.82" xlink:href="#linear-gradient"/><linearGradient id="linear-gradient-9" x1="34.97" y1="54.76" x2="64.37" y2="50.11" xlink:href="#linear-gradient"/><linearGradient id="linear-gradient-10" x1="91.49" y1="53.83" x2="120.89" y2="49.19" xlink:href="#linear-gradient"/></defs><title>Asset 2</title><g id="Layer_2" data-name="Layer 2"><g id="Layer_3" data-name="Layer 3"><circle class="cls-1" cx="64.68" cy="34.75" r="17.38"/><circle class="cls-2" cx="64.78" cy="34.93" r="15.01"/><ellipse class="cls-3" cx="64.86" cy="35.51" rx="0.7" ry="0.58" transform="translate(-4.11 8.85) rotate(-7.57)"/><ellipse class="cls-3" cx="59.52" cy="34.93" rx="0.7" ry="0.45" transform="translate(-4.1 8.18) rotate(-7.6)"/><ellipse class="cls-3" cx="65.48" cy="39.03" rx="0.7" ry="0.45" transform="translate(-4.59 9.01) rotate(-7.6)"/><ellipse class="cls-3" cx="71.08" cy="34.48" rx="0.7" ry="0.45" transform="translate(-3.94 9.71) rotate(-7.6)"/><ellipse class="cls-3" cx="64.78" cy="31.11" rx="0.7" ry="0.45" transform="translate(-3.55 8.84) rotate(-7.6)"/><ellipse class="cls-3" cx="59.08" cy="29.28" rx="0.7" ry="0.45" transform="translate(-3.35 8.07) rotate(-7.6)"/><ellipse class="cls-3" cx="70.64" cy="28.83" rx="0.7" ry="0.45" transform="translate(-3.19 9.6) rotate(-7.6)"/><ellipse class="cls-3" cx="64.34" cy="25.46" rx="0.7" ry="0.45" transform="translate(-2.8 8.74) rotate(-7.6)"/><ellipse class="cls-3" cx="70.64" cy="39.03" rx="0.7" ry="0.45" transform="translate(-5.15 11.29) rotate(-8.82)"/><ellipse class="cls-3" cx="57.68" cy="38.58" rx="0.7" ry="0.45" transform="translate(-5.23 9.3) rotate(-8.82)"/><ellipse class="cls-3" cx="62.34" cy="42.43" rx="0.7" ry="0.45" transform="translate(-5.77 10.06) rotate(-8.82)"/><ellipse class="cls-3" cx="55.46" cy="32.02" rx="0.7" ry="0.45" transform="translate(-3.75 7.62) rotate(-7.6)"/><ellipse class="cls-3" cx="64.8" cy="29.28" rx="0.7" ry="0.45" transform="translate(-3.3 8.83) rotate(-7.6)"/><ellipse class="cls-3" cx="58.49" cy="25.91" rx="0.7" ry="0.45" transform="translate(-2.91 7.97) rotate(-7.6)"/><circle class="cls-4" cx="81.08" cy="64.89" r="17.38"/><circle class="cls-2" cx="81.18" cy="65.07" r="15.01"/><ellipse class="cls-3" cx="81.26" cy="65.64" rx="0.7" ry="0.58" transform="translate(-7.94 11.27) rotate(-7.57)"/><ellipse class="cls-3" cx="75.92" cy="65.07" rx="0.7" ry="0.45" transform="translate(-7.94 10.62) rotate(-7.6)"/><ellipse class="cls-3" cx="81.88" cy="69.17" rx="0.7" ry="0.45" transform="translate(-8.43 11.44) rotate(-7.6)"/><ellipse class="cls-3" cx="87.48" cy="64.62" rx="0.7" ry="0.45" transform="translate(-7.78 12.14) rotate(-7.6)"/><ellipse class="cls-3" cx="81.18" cy="61.25" rx="0.7" ry="0.45" transform="translate(-7.39 11.28) rotate(-7.6)"/><ellipse class="cls-3" cx="75.48" cy="59.42" rx="0.7" ry="0.45" transform="translate(-7.2 10.51) rotate(-7.6)"/><ellipse class="cls-3" cx="87.04" cy="58.96" rx="0.7" ry="0.45" transform="translate(-7.04 12.03) rotate(-7.6)"/><ellipse class="cls-3" cx="80.74" cy="55.6" rx="0.7" ry="0.45" transform="translate(-6.65 11.17) rotate(-7.6)"/><ellipse class="cls-3" cx="87.04" cy="69.17" rx="0.7" ry="0.45" transform="translate(-9.57 14.16) rotate(-8.82)"/><ellipse class="cls-3" cx="74.09" cy="68.71" rx="0.7" ry="0.45" transform="translate(-9.66 12.17) rotate(-8.82)"/><ellipse class="cls-3" cx="78.74" cy="72.56" rx="0.7" ry="0.45" transform="translate(-10.19 12.93) rotate(-8.82)"/><ellipse class="cls-3" cx="71.87" cy="62.15" rx="0.7" ry="0.45" transform="translate(-7.59 10.05) rotate(-7.6)"/><ellipse class="cls-3" cx="81.2" cy="59.42" rx="0.7" ry="0.45" transform="translate(-7.15 11.27) rotate(-7.6)"/><ellipse class="cls-3" cx="74.9" cy="56.05" rx="0.7" ry="0.45" transform="translate(-6.76 10.4) rotate(-7.6)"/><circle class="cls-5" cx="56.16" cy="87.29" r="17.38"/><circle class="cls-2" cx="56.26" cy="87.47" r="15.01"/><ellipse class="cls-3" cx="56.34" cy="88.04" rx="0.7" ry="0.58" transform="translate(-11.1 8.19) rotate(-7.57)"/><ellipse class="cls-3" cx="51.01" cy="87.47" rx="0.7" ry="0.45" transform="translate(-11.12 7.52) rotate(-7.6)"/><ellipse class="cls-3" cx="56.96" cy="91.57" rx="0.7" ry="0.45" transform="translate(-11.61 8.34) rotate(-7.6)"/><ellipse class="cls-3" cx="62.57" cy="87.02" rx="0.7" ry="0.45" transform="translate(-10.96 9.04) rotate(-7.6)"/><ellipse class="cls-3" cx="56.26" cy="83.65" rx="0.7" ry="0.45" transform="translate(-10.57 8.18) rotate(-7.6)"/><ellipse class="cls-3" cx="50.56" cy="81.82" rx="0.7" ry="0.45" transform="translate(-10.38 7.41) rotate(-7.6)"/><ellipse class="cls-3" cx="62.12" cy="81.36" rx="0.7" ry="0.45" transform="translate(-10.22 8.93) rotate(-7.6)"/><ellipse class="cls-3" cx="55.82" cy="78" rx="0.7" ry="0.45" transform="translate(-9.83 8.07) rotate(-7.6)"/><ellipse class="cls-3" cx="62.12" cy="91.57" rx="0.7" ry="0.45" transform="translate(-13.3 10.6) rotate(-8.82)"/><ellipse class="cls-3" cx="49.17" cy="91.11" rx="0.7" ry="0.45" transform="translate(-13.38 8.61) rotate(-8.82)"/><ellipse class="cls-3" cx="53.83" cy="94.96" rx="0.7" ry="0.45" transform="translate(-13.92 9.37) rotate(-8.82)"/><ellipse class="cls-3" cx="46.95" cy="84.55" rx="0.7" ry="0.45" transform="translate(-10.77 6.95) rotate(-7.6)"/><ellipse class="cls-3" cx="56.28" cy="81.82" rx="0.7" ry="0.45" transform="translate(-10.33 8.17) rotate(-7.6)"/><ellipse class="cls-3" cx="49.98" cy="78.45" rx="0.7" ry="0.45" transform="translate(-9.94 7.3) rotate(-7.6)"/><circle class="cls-6" cx="105.34" cy="77.54" r="17.38"/><circle class="cls-2" cx="105.44" cy="77.72" r="15.01"/><ellipse class="cls-3" cx="105.51" cy="78.3" rx="0.7" ry="0.58" transform="translate(-9.39 14.58) rotate(-7.57)"/><ellipse class="cls-3" cx="100.18" cy="77.72" rx="0.7" ry="0.45" transform="translate(-9.4 13.94) rotate(-7.6)"/><ellipse class="cls-3" cx="106.13" cy="81.82" rx="0.7" ry="0.45" transform="translate(-9.89 14.76) rotate(-7.6)"/><ellipse class="cls-3" cx="111.74" cy="77.27" rx="0.7" ry="0.45" transform="translate(-9.24 15.46) rotate(-7.6)"/><ellipse class="cls-3" cx="105.44" cy="73.9" rx="0.7" ry="0.45" transform="translate(-8.85 14.6) rotate(-7.6)"/><ellipse class="cls-3" cx="99.73" cy="72.07" rx="0.7" ry="0.45" transform="translate(-8.66 13.83) rotate(-7.6)"/><ellipse class="cls-3" cx="111.29" cy="71.62" rx="0.7" ry="0.45" transform="translate(-8.5 15.35) rotate(-7.6)"/><ellipse class="cls-3" cx="104.99" cy="68.25" rx="0.7" ry="0.45" transform="translate(-8.11 14.49) rotate(-7.6)"/><ellipse class="cls-3" cx="111.29" cy="81.82" rx="0.7" ry="0.45" transform="translate(-11.23 18.02) rotate(-8.82)"/><ellipse class="cls-3" cx="98.34" cy="81.37" rx="0.7" ry="0.45" transform="translate(-11.31 16.03) rotate(-8.82)"/><ellipse class="cls-3" cx="103" cy="85.22" rx="0.7" ry="0.45" transform="translate(-11.84 16.79) rotate(-8.82)"/><ellipse class="cls-3" cx="96.12" cy="74.81" rx="0.7" ry="0.45" transform="translate(-9.05 13.37) rotate(-7.6)"/><ellipse class="cls-3" cx="105.45" cy="72.07" rx="0.7" ry="0.45" transform="translate(-8.61 14.59) rotate(-7.6)"/><ellipse class="cls-3" cx="99.15" cy="68.7" rx="0.7" ry="0.45" transform="translate(-8.22 13.72) rotate(-7.6)"/><circle class="cls-7" cx="17.38" cy="52.13" r="17.38"/><circle class="cls-2" cx="17.48" cy="52.31" r="15.01"/><ellipse class="cls-3" cx="17.56" cy="52.88" rx="0.7" ry="0.58" transform="translate(-6.81 2.77) rotate(-7.57)"/><ellipse class="cls-3" cx="12.22" cy="52.31" rx="0.7" ry="0.45" transform="translate(-6.81 2.08) rotate(-7.6)"/><ellipse class="cls-3" cx="18.18" cy="56.41" rx="0.7" ry="0.45" transform="translate(-7.3 2.9) rotate(-7.6)"/><ellipse class="cls-3" cx="23.78" cy="51.86" rx="0.7" ry="0.45" transform="translate(-6.65 3.6) rotate(-7.6)"/><ellipse class="cls-3" cx="17.48" cy="48.49" rx="0.7" ry="0.45" transform="translate(-6.26 2.74) rotate(-7.6)"/><ellipse class="cls-3" cx="11.78" cy="46.66" rx="0.7" ry="0.45" transform="translate(-6.07 1.97) rotate(-7.6)"/><ellipse class="cls-3" cx="23.34" cy="46.21" rx="0.7" ry="0.45" transform="translate(-5.91 3.49) rotate(-7.6)"/><ellipse class="cls-3" cx="17.03" cy="42.84" rx="0.7" ry="0.45" transform="translate(-5.52 2.63) rotate(-7.6)"/><ellipse class="cls-3" cx="23.34" cy="56.41" rx="0.7" ry="0.45" transform="translate(-8.37 4.24) rotate(-8.82)"/><ellipse class="cls-3" cx="10.38" cy="55.96" rx="0.7" ry="0.45" transform="translate(-8.45 2.25) rotate(-8.82)"/><ellipse class="cls-3" cx="15.04" cy="59.8" rx="0.7" ry="0.45" transform="translate(-8.99 3.01) rotate(-8.82)"/><ellipse class="cls-3" cx="8.16" cy="49.4" rx="0.7" ry="0.45" transform="translate(-6.46 1.51) rotate(-7.6)"/><ellipse class="cls-3" cx="17.5" cy="46.66" rx="0.7" ry="0.45" transform="translate(-6.02 2.72) rotate(-7.6)"/><ellipse class="cls-3" cx="11.19" cy="43.29" rx="0.7" ry="0.45" transform="translate(-5.63 1.86) rotate(-7.6)"/><circle class="cls-1" cx="64.68" cy="34.75" r="17.38"/><circle class="cls-2" cx="64.78" cy="34.93" r="15.01"/><ellipse class="cls-3" cx="64.86" cy="35.51" rx="0.7" ry="0.58" transform="translate(-4.11 8.85) rotate(-7.57)"/><ellipse class="cls-3" cx="59.52" cy="34.93" rx="0.7" ry="0.45" transform="translate(-4.1 8.18) rotate(-7.6)"/><ellipse class="cls-3" cx="65.48" cy="39.03" rx="0.7" ry="0.45" transform="translate(-4.59 9.01) rotate(-7.6)"/><ellipse class="cls-3" cx="71.08" cy="34.48" rx="0.7" ry="0.45" transform="translate(-3.94 9.71) rotate(-7.6)"/><ellipse class="cls-3" cx="64.78" cy="31.11" rx="0.7" ry="0.45" transform="translate(-3.55 8.84) rotate(-7.6)"/><ellipse class="cls-3" cx="59.08" cy="29.28" rx="0.7" ry="0.45" transform="translate(-3.35 8.07) rotate(-7.6)"/><ellipse class="cls-3" cx="70.64" cy="28.83" rx="0.7" ry="0.45" transform="translate(-3.19 9.6) rotate(-7.6)"/><ellipse class="cls-3" cx="64.34" cy="25.46" rx="0.7" ry="0.45" transform="translate(-2.8 8.74) rotate(-7.6)"/><ellipse class="cls-3" cx="70.64" cy="39.03" rx="0.7" ry="0.45" transform="translate(-5.15 11.29) rotate(-8.82)"/><ellipse class="cls-3" cx="57.68" cy="38.58" rx="0.7" ry="0.45" transform="translate(-5.23 9.3) rotate(-8.82)"/><ellipse class="cls-3" cx="62.34" cy="42.43" rx="0.7" ry="0.45" transform="translate(-5.77 10.06) rotate(-8.82)"/><ellipse class="cls-3" cx="55.46" cy="32.02" rx="0.7" ry="0.45" transform="translate(-3.75 7.62) rotate(-7.6)"/><ellipse class="cls-3" cx="64.8" cy="29.28" rx="0.7" ry="0.45" transform="translate(-3.3 8.83) rotate(-7.6)"/><ellipse class="cls-3" cx="58.49" cy="25.91" rx="0.7" ry="0.45" transform="translate(-2.91 7.97) rotate(-7.6)"/><circle class="cls-8" cx="34.75" cy="17.38" r="17.38"/><circle class="cls-2" cx="34.86" cy="17.56" r="15.01"/><ellipse class="cls-3" cx="34.93" cy="18.13" rx="0.7" ry="0.58" transform="translate(-2.08 4.76) rotate(-7.57)"/><ellipse class="cls-3" cx="29.6" cy="17.56" rx="0.7" ry="0.45" transform="translate(-2.06 4.07) rotate(-7.6)"/><ellipse class="cls-3" cx="35.55" cy="21.65" rx="0.7" ry="0.45" transform="translate(-2.55 4.89) rotate(-7.6)"/><ellipse class="cls-3" cx="41.16" cy="17.1" rx="0.7" ry="0.45" transform="translate(-1.9 5.6) rotate(-7.6)"/><ellipse class="cls-3" cx="34.86" cy="13.74" rx="0.7" ry="0.45" transform="translate(-1.51 4.73) rotate(-7.6)"/><ellipse class="cls-3" cx="29.15" cy="11.9" rx="0.7" ry="0.45" transform="translate(-1.32 3.96) rotate(-7.6)"/><ellipse class="cls-3" cx="40.71" cy="11.45" rx="0.7" ry="0.45" transform="translate(-1.16 5.49) rotate(-7.6)"/><ellipse class="cls-3" cx="34.41" cy="8.08" rx="0.7" ry="0.45" transform="translate(-0.77 4.62) rotate(-7.6)"/><ellipse class="cls-3" cx="40.71" cy="21.65" rx="0.7" ry="0.45" transform="translate(-2.84 6.5) rotate(-8.82)"/><ellipse class="cls-3" cx="27.76" cy="21.2" rx="0.7" ry="0.45" transform="translate(-2.92 4.51) rotate(-8.82)"/><ellipse class="cls-3" cx="32.42" cy="25.05" rx="0.7" ry="0.45" transform="translate(-3.46 5.26) rotate(-8.82)"/><ellipse class="cls-3" cx="25.54" cy="14.64" rx="0.7" ry="0.45" transform="translate(-1.71 3.51) rotate(-7.6)"/><ellipse class="cls-3" cx="34.87" cy="11.9" rx="0.7" ry="0.45" transform="translate(-1.27 4.72) rotate(-7.6)"/><ellipse class="cls-3" cx="28.57" cy="8.54" rx="0.7" ry="0.45" transform="translate(-0.88 3.86) rotate(-7.6)"/><circle class="cls-9" cx="23.78" cy="88.04" r="17.38"/><circle class="cls-2" cx="23.88" cy="88.22" r="15.01"/><ellipse class="cls-3" cx="23.96" cy="88.79" rx="0.7" ry="0.58" transform="translate(-11.48 3.93) rotate(-7.57)"/><ellipse class="cls-3" cx="18.63" cy="88.22" rx="0.7" ry="0.45" transform="translate(-11.51 3.24) rotate(-7.6)"/><ellipse class="cls-3" cx="24.58" cy="92.32" rx="0.7" ry="0.45" transform="translate(-12 4.06) rotate(-7.6)"/><ellipse class="cls-3" cx="30.19" cy="87.77" rx="0.7" ry="0.45" transform="translate(-11.35 4.77) rotate(-7.6)"/><ellipse class="cls-3" cx="23.88" cy="84.4" rx="0.7" ry="0.45" transform="translate(-10.96 3.9) rotate(-7.6)"/><ellipse class="cls-3" cx="18.18" cy="82.57" rx="0.7" ry="0.45" transform="translate(-10.76 3.13) rotate(-7.6)"/><ellipse class="cls-3" cx="29.74" cy="82.12" rx="0.7" ry="0.45" transform="translate(-10.6 4.66) rotate(-7.6)"/><ellipse class="cls-3" cx="23.44" cy="78.75" rx="0.7" ry="0.45" transform="translate(-10.21 3.79) rotate(-7.6)"/><ellipse class="cls-3" cx="29.74" cy="92.32" rx="0.7" ry="0.45" transform="translate(-13.8 5.65) rotate(-8.82)"/><ellipse class="cls-3" cx="16.79" cy="91.87" rx="0.7" ry="0.45" transform="translate(-13.88 3.66) rotate(-8.82)"/><ellipse class="cls-3" cx="21.44" cy="95.71" rx="0.7" ry="0.45" transform="translate(-14.42 4.42) rotate(-8.82)"/><ellipse class="cls-3" cx="14.57" cy="85.31" rx="0.7" ry="0.45" transform="translate(-11.16 2.68) rotate(-7.6)"/><ellipse class="cls-3" cx="23.9" cy="82.57" rx="0.7" ry="0.45" transform="translate(-10.71 3.89) rotate(-7.6)"/><ellipse class="cls-3" cx="17.6" cy="79.2" rx="0.7" ry="0.45" transform="translate(-10.32 3.02) rotate(-7.6)"/><circle class="cls-10" cx="50.31" cy="52.33" r="17.38"/><circle class="cls-2" cx="50.41" cy="52.51" r="15.01"/><ellipse class="cls-3" cx="50.49" cy="53.09" rx="0.7" ry="0.58" transform="translate(-6.55 7.11) rotate(-7.57)"/><ellipse class="cls-3" cx="45.15" cy="52.51" rx="0.7" ry="0.45" transform="translate(-6.55 6.44) rotate(-7.6)"/><ellipse class="cls-3" cx="51.11" cy="56.61" rx="0.7" ry="0.45" transform="translate(-7.04 7.26) rotate(-7.6)"/><ellipse class="cls-3" cx="56.71" cy="52.06" rx="0.7" ry="0.45" transform="translate(-6.39 7.96) rotate(-7.6)"/><ellipse class="cls-3" cx="50.41" cy="48.69" rx="0.7" ry="0.45" transform="translate(-6 7.1) rotate(-7.6)"/><ellipse class="cls-3" cx="44.71" cy="46.86" rx="0.7" ry="0.45" transform="translate(-5.81 6.33) rotate(-7.6)"/><ellipse class="cls-3" cx="56.27" cy="46.41" rx="0.7" ry="0.45" transform="translate(-5.65 7.85) rotate(-7.6)"/><ellipse class="cls-3" cx="49.97" cy="43.04" rx="0.7" ry="0.45" transform="translate(-5.26 6.99) rotate(-7.6)"/><ellipse class="cls-3" cx="56.27" cy="56.61" rx="0.7" ry="0.45" transform="translate(-8.01 9.29) rotate(-8.82)"/><ellipse class="cls-3" cx="43.32" cy="56.16" rx="0.7" ry="0.45" transform="translate(-8.1 7.3) rotate(-8.82)"/><ellipse class="cls-3" cx="47.97" cy="60.01" rx="0.7" ry="0.45" transform="translate(-8.63 8.06) rotate(-8.82)"/><ellipse class="cls-3" cx="41.1" cy="49.6" rx="0.7" ry="0.45" transform="translate(-6.2 5.87) rotate(-7.6)"/><ellipse class="cls-3" cx="50.43" cy="46.86" rx="0.7" ry="0.45" transform="translate(-5.76 7.08) rotate(-7.6)"/><ellipse class="cls-3" cx="44.13" cy="43.49" rx="0.7" ry="0.45" transform="translate(-5.37 6.22) rotate(-7.6)"/><circle class="cls-11" cx="106.83" cy="51.41" r="17.38"/><circle class="cls-2" cx="106.93" cy="51.59" r="15.01"/><ellipse class="cls-3" cx="107.01" cy="52.16" rx="0.7" ry="0.58" transform="translate(-5.94 14.55) rotate(-7.57)"/><ellipse class="cls-3" cx="101.68" cy="51.59" rx="0.7" ry="0.45" transform="translate(-5.93 13.91) rotate(-7.6)"/><ellipse class="cls-3" cx="107.63" cy="55.68" rx="0.7" ry="0.45" transform="translate(-6.42 14.73) rotate(-7.6)"/><ellipse class="cls-3" cx="113.24" cy="51.13" rx="0.7" ry="0.45" transform="translate(-5.77 15.43) rotate(-7.6)"/><ellipse class="cls-3" cx="106.93" cy="47.77" rx="0.7" ry="0.45" transform="translate(-5.38 14.57) rotate(-7.6)"/><ellipse class="cls-3" cx="101.23" cy="45.93" rx="0.7" ry="0.45" transform="translate(-5.19 13.8) rotate(-7.6)"/><ellipse class="cls-3" cx="112.79" cy="45.48" rx="0.7" ry="0.45" transform="translate(-5.03 15.32) rotate(-7.6)"/><ellipse class="cls-3" cx="106.49" cy="42.11" rx="0.7" ry="0.45" transform="translate(-4.64 14.46) rotate(-7.6)"/><ellipse class="cls-3" cx="112.79" cy="55.68" rx="0.7" ry="0.45" transform="translate(-7.2 17.95) rotate(-8.82)"/><ellipse class="cls-3" cx="99.84" cy="55.23" rx="0.7" ry="0.45" transform="translate(-7.29 15.95) rotate(-8.82)"/><ellipse class="cls-3" cx="104.5" cy="59.08" rx="0.7" ry="0.45" transform="translate(-7.82 16.71) rotate(-8.82)"/><ellipse class="cls-3" cx="97.62" cy="48.67" rx="0.7" ry="0.45" transform="translate(-5.58 13.34) rotate(-7.6)"/><ellipse class="cls-3" cx="106.95" cy="45.93" rx="0.7" ry="0.45" transform="translate(-5.14 14.55) rotate(-7.6)"/><ellipse class="cls-3" cx="100.65" cy="42.57" rx="0.7" ry="0.45" transform="translate(-4.75 13.69) rotate(-7.6)"/></g></g></svg>