<svg xmlns="http://www.w3.org/2000/svg" xmlns:xlink="http://www.w3.org/1999/xlink" viewBox="0 0 71.66 63.97"><defs><style>.cls-1,.cls-10,.cls-11,.cls-12,.cls-13,.cls-14,.cls-15,.cls-16,.cls-17,.cls-2,.cls-3,.cls-4,.cls-5,.cls-6,.cls-7,.cls-8,.cls-9{fill:#fdffa1;stroke-miterlimit:10;stroke-width:0.5px;}.cls-1{stroke:url(#linear-gradient);}.cls-2{stroke:url(#linear-gradient-2);}.cls-3{stroke:url(#linear-gradient-3);}.cls-4{stroke:url(#linear-gradient-4);}.cls-5{stroke:url(#linear-gradient-5);}.cls-6{stroke:url(#linear-gradient-6);}.cls-7{stroke:url(#linear-gradient-7);}.cls-8{stroke:url(#linear-gradient-8);}.cls-9{stroke:url(#linear-gradient-9);}.cls-10{stroke:url(#linear-gradient-10);}.cls-11{stroke:url(#linear-gradient-11);}.cls-12{stroke:url(#linear-gradient-12);}.cls-13{stroke:url(#linear-gradient-13);}.cls-14{stroke:url(#linear-gradient-14);}.cls-15{stroke:url(#linear-gradient-15);}.cls-16{stroke:url(#linear-gradient-16);}.cls-17{stroke:url(#linear-gradient-17);}</style><linearGradient id="linear-gradient" x1="21.12" y1="6.5" x2="34.13" y2="6.5" gradientUnits="userSpaceOnUse"><stop offset="0" stop-color="#409633"/><stop offset="0.13" stop-color="#60a949"/><stop offset="0.31" stop-color="#88c165"/><stop offset="0.49" stop-color="#a7d37a"/><stop offset="0.67" stop-color="#bde08a"/><stop offset="0.84" stop-color="#cae893"/><stop offset="0.99" stop-color="#cfeb96"/></linearGradient><linearGradient id="linear-gradient-2" x1="31.12" y1="35.5" x2="44.13" y2="35.5" xlink:href="#linear-gradient"/><linearGradient id="linear-gradient-3" x1="14.86" y1="32.5" x2="27.87" y2="32.5" xlink:href="#linear-gradient"/><linearGradient id="linear-gradient-4" x1="27.37" y1="20" x2="40.38" y2="20" xlink:href="#linear-gradient"/><linearGradient id="linear-gradient-5" x1="14.86" y1="23" x2="27.87" y2="23" xlink:href="#linear-gradient"/><linearGradient id="linear-gradient-6" x1="21.12" y1="39.49" x2="34.13" y2="39.49" xlink:href="#linear-gradient"/><linearGradient id="linear-gradient-7" x1="37.37" y1="6.5" x2="50.38" y2="6.5" xlink:href="#linear-gradient"/><linearGradient id="linear-gradient-8" x1="43.63" y1="29.25" x2="56.64" y2="29.25" xlink:href="#linear-gradient"/><linearGradient id="linear-gradient-9" x1="39.88" y1="41.76" x2="52.89" y2="41.76" xlink:href="#linear-gradient"/><linearGradient id="linear-gradient-10" x1="46.14" y1="16.74" x2="59.15" y2="16.74" xlink:href="#linear-gradient"/><linearGradient id="linear-gradient-11" x1="8.61" y1="12.76" x2="21.62" y2="12.76" xlink:href="#linear-gradient"/><linearGradient id="linear-gradient-12" x1="6.25" y1="48.01" x2="19.26" y2="48.01" xlink:href="#linear-gradient"/><linearGradient id="linear-gradient-13" x1="27.37" y1="57.47" x2="40.38" y2="57.47" xlink:href="#linear-gradient"/><linearGradient id="linear-gradient-14" x1="48.49" y1="54.27" x2="61.5" y2="54.27" xlink:href="#linear-gradient"/><linearGradient id="linear-gradient-15" x1="52.39" y1="39.49" x2="65.4" y2="39.49" xlink:href="#linear-gradient"/><linearGradient id="linear-gradient-16" x1="0" y1="33.23" x2="13.01" y2="33.23" xlink:href="#linear-gradient"/><linearGradient id="linear-gradient-17" x1="58.65" y1="29.25" x2="71.66" y2="29.25" xlink:href="#linear-gradient"/></defs><title>Asset 4</title><g id="Layer_2" data-name="Layer 2"><g id="Layer_2-2" data-name="Layer 2"><rect class="cls-1" x="21.37" y="0.25" width="12.51" height="12.51" rx="3" ry="3"/><rect class="cls-2" x="31.37" y="29.25" width="12.51" height="12.51" rx="3" ry="3"/><rect class="cls-3" x="15.11" y="26.25" width="12.51" height="12.51" rx="3" ry="3"/><rect class="cls-4" x="27.62" y="13.74" width="12.51" height="12.51" rx="3" ry="3"/><rect class="cls-5" x="15.11" y="16.74" width="12.51" height="12.51" rx="3" ry="3"/><rect class="cls-6" x="21.37" y="33.23" width="12.51" height="12.51" rx="3" ry="3"/><rect class="cls-7" x="37.62" y="0.25" width="12.51" height="12.51" rx="3" ry="3"/><rect class="cls-8" x="43.88" y="23" width="12.51" height="12.51" rx="3" ry="3"/><rect class="cls-9" x="40.13" y="35.5" width="12.51" height="12.51" rx="3" ry="3"/><rect class="cls-10" x="46.39" y="10.49" width="12.51" height="12.51" rx="3" ry="3"/><rect class="cls-11" x="8.86" y="6.5" width="12.51" height="12.51" rx="3" ry="3"/><rect class="cls-12" x="6.5" y="41.76" width="12.51" height="12.51" rx="3" ry="3"/><rect class="cls-13" x="27.62" y="51.21" width="12.51" height="12.51" rx="3" ry="3"/><rect class="cls-14" x="48.74" y="48.01" width="12.51" height="12.51" rx="3" ry="3"/><rect class="cls-15" x="52.64" y="33.23" width="12.51" height="12.51" rx="3" ry="3"/><rect class="cls-16" x="0.25" y="26.98" width="12.51" height="12.51" rx="3" ry="3"/><rect class="cls-17" x="58.9" y="23" width="12.51" height="12.51" rx="3" ry="3"/></g></g></svg>