<svg xmlns="http://www.w3.org/2000/svg" xmlns:xlink="http://www.w3.org/1999/xlink" viewBox="0 0 193.54 135.77"><defs><style>.cls-1,.cls-11,.cls-15,.cls-19,.cls-7{stroke:#8f0000;stroke-width:2.2px;}.cls-1{fill:url(#radial-gradient);}.cls-10,.cls-12,.cls-13,.cls-14,.cls-16,.cls-17,.cls-18,.cls-2,.cls-20,.cls-21,.cls-22,.cls-3,.cls-4,.cls-5,.cls-8,.cls-9{stroke:#bf0000;stroke-width:0.55px;}.cls-2{fill:url(#radial-gradient-2);}.cls-3{fill:url(#radial-gradient-3);}.cls-4{fill:url(#radial-gradient-4);}.cls-5{fill:url(#radial-gradient-5);}.cls-6{fill:#7c0404;}.cls-7{fill:url(#radial-gradient-6);}.cls-8{fill:url(#radial-gradient-7);}.cls-9{fill:url(#radial-gradient-8);}.cls-10{fill:url(#radial-gradient-9);}.cls-11{fill:url(#radial-gradient-10);}.cls-12{fill:url(#radial-gradient-11);}.cls-13{fill:url(#radial-gradient-12);}.cls-14{fill:url(#radial-gradient-13);}.cls-15{fill:url(#radial-gradient-14);}.cls-16{fill:url(#radial-gradient-15);}.cls-17{fill:url(#radial-gradient-16);}.cls-18{fill:url(#radial-gradient-17);}.cls-19{fill:url(#radial-gradient-18);}.cls-20{fill:url(#radial-gradient-19);}.cls-21{fill:url(#radial-gradient-20);}.cls-22{fill:url(#radial-gradient-21);}</style><radialGradient id="radial-gradient" cx="146.3" cy="86.65" r="13.68" gradientUnits="userSpaceOnUse"><stop offset="0.12" stop-color="red"/><stop offset="1" stop-color="#8f0000"/></radialGradient><radialGradient id="radial-gradient-2" cx="0.27" cy="0.07" r="0.07" gradientUnits="userSpaceOnUse"><stop offset="0" stop-color="#ce0000"/><stop offset="0.54" stop-color="red"/><stop offset="0.62" stop-color="#fa0000"/><stop offset="0.71" stop-color="#ec0000"/><stop offset="0.81" stop-color="#d40000"/><stop offset="0.91" stop-color="#b20000"/><stop offset="1" stop-color="#8f0000"/></radialGradient><radialGradient id="radial-gradient-3" cx="154.55" cy="101.68" r="18.37" xlink:href="#radial-gradient-2"/><radialGradient id="radial-gradient-4" cx="158.58" cy="59.8" r="21.23" xlink:href="#radial-gradient-2"/><radialGradient id="radial-gradient-5" cx="144.34" cy="54.46" r="21.67" xlink:href="#radial-gradient-2"/><radialGradient id="radial-gradient-6" cx="100.3" cy="96.65" r="13.68" xlink:href="#radial-gradient"/><radialGradient id="radial-gradient-7" cx="108.55" cy="111.68" r="18.37" xlink:href="#radial-gradient-2"/><radialGradient id="radial-gradient-8" cx="112.58" cy="69.8" r="21.23" xlink:href="#radial-gradient-2"/><radialGradient id="radial-gradient-9" cx="98.34" cy="64.46" r="21.67" xlink:href="#radial-gradient-2"/><radialGradient id="radial-gradient-10" cx="119.73" cy="64.6" r="13.68" xlink:href="#radial-gradient"/><radialGradient id="radial-gradient-11" cx="127.97" cy="79.64" r="18.37" xlink:href="#radial-gradient-2"/><radialGradient id="radial-gradient-12" cx="132" cy="37.76" r="21.23" xlink:href="#radial-gradient-2"/><radialGradient id="radial-gradient-13" cx="117.76" cy="32.41" r="21.67" xlink:href="#radial-gradient-2"/><radialGradient id="radial-gradient-14" cx="114.79" cy="146.27" r="13.68" gradientTransform="translate(233.68 -55.53) rotate(72.48)" xlink:href="#radial-gradient"/><radialGradient id="radial-gradient-15" cx="123.03" cy="161.3" r="18.37" gradientTransform="translate(233.68 -55.53) rotate(72.48)" xlink:href="#radial-gradient-2"/><radialGradient id="radial-gradient-16" cx="127.07" cy="119.42" r="21.23" gradientTransform="translate(233.68 -55.53) rotate(72.48)" xlink:href="#radial-gradient-2"/><radialGradient id="radial-gradient-17" cx="112.82" cy="114.08" r="21.67" gradientTransform="translate(233.68 -55.53) rotate(72.48)" xlink:href="#radial-gradient-2"/><radialGradient id="radial-gradient-18" cx="52.12" cy="86.06" r="13.68" gradientTransform="translate(154.79 -55.64) rotate(67.01)" xlink:href="#radial-gradient"/><radialGradient id="radial-gradient-19" cx="60.37" cy="101.1" r="18.37" gradientTransform="translate(154.79 -55.64) rotate(67.01)" xlink:href="#radial-gradient-2"/><radialGradient id="radial-gradient-20" cx="64.4" cy="59.22" r="21.23" gradientTransform="translate(154.79 -55.64) rotate(67.01)" xlink:href="#radial-gradient-2"/><radialGradient id="radial-gradient-21" cx="50.15" cy="53.87" r="21.67" gradientTransform="translate(154.79 -55.64) rotate(67.01)" xlink:href="#radial-gradient-2"/></defs><title>Asset 5</title><g id="Layer_2" data-name="Layer 2"><g id="Layer_2-2" data-name="Layer 2"><path class="cls-1" d="M140.41,76.21A17.21,17.21,0,0,0,139,85.75c.9,7.56,1.62,11.67,4.62,18.74-6.16-24.43,14.39-32,9.34-34.57C144.89,65.82,141.32,74.16,140.41,76.21Z"/><path class="cls-2" d="M.28,0c0,.05,0,.11,0,.16h0Z"/><path class="cls-3" d="M157.52,82.35c-2.79,14.16-4.58,29.17-1.26,43.36C154.63,111.25,157.49,96.8,157.52,82.35Z"/><path class="cls-4" d="M170.68,39.67c-2.22-.93-5.23,2-6.68,3.79-1.93,2.35-3.35,5.82-4.45,8.64-5,13,5.5,28.13,7.51,31.68A7.72,7.72,0,0,0,168,85C162.07,70.24,162,54.48,170.68,39.67Z"/><path class="cls-5" d="M152.36,34.24v.3A3.06,3.06,0,0,0,150.88,33c-8.66,14.81-8.62,30.57-2.72,45.36a11.41,11.41,0,0,0,3.58,2.67c0-.33-.07-.65-.1-1-2.06-8.81-2.15-17.94-1.25-27,0-1.27,0-2.53,0-3.81l.47,0c.54-4.24,1.27-8.46,2.08-12.6,0-.05,0-.11,0-.16v.15l.16-.81-.16.81v0h0q0,1.53,0,3.06a8.64,8.64,0,0,1,1.87-2.84A3.12,3.12,0,0,1,152.36,34.24Z"/><path class="cls-6" d="M149.37,90.74C185,67.74,187,45.06,188.21,40.41s.91-7.68,1.61-7.91,2.4,2.64,2.15,7.65-2.09,11.71-5.29,18.3A92.16,92.16,0,0,1,175.3,76.29a79.91,79.91,0,0,1-7.63,8.11,39.24,39.24,0,0,1-8.43,5.67C154.74,92.41,149.24,92.71,149.37,90.74Z"/><path class="cls-7" d="M94.41,86.21A17.21,17.21,0,0,0,93,95.75c.9,7.56,1.62,11.67,4.62,18.74C91.45,90.06,112,82.49,107,79.92,98.89,75.82,95.32,84.16,94.41,86.21Z"/><path class="cls-8" d="M111.52,92.35c-2.79,14.16-4.58,29.17-1.26,43.36C108.63,121.25,111.49,106.8,111.52,92.35Z"/><path class="cls-9" d="M124.68,49.67c-2.22-.93-5.23,2-6.68,3.79-1.93,2.35-3.35,5.82-4.45,8.64-5,13,5.5,28.13,7.51,31.68A7.72,7.72,0,0,0,122,95C116.07,80.24,116,64.48,124.68,49.67Z"/><path class="cls-10" d="M106.36,44.24v.3A3.06,3.06,0,0,0,104.88,43c-8.66,14.81-8.62,30.57-2.72,45.36a11.41,11.41,0,0,0,3.58,2.67c0-.33-.07-.65-.1-1-2.06-8.81-2.15-17.94-1.25-27,0-1.27,0-2.53,0-3.81l.47,0c.54-4.24,1.27-8.46,2.08-12.6,0-.05,0-.11,0-.16v.15l.16-.81-.16.81v0h0q0,1.53,0,3.06a8.64,8.64,0,0,1,1.87-2.84A3.12,3.12,0,0,1,106.36,44.24Z"/><path class="cls-6" d="M103.37,100.74C139,77.74,141,55.06,142.21,50.41s.91-7.68,1.61-7.91,2.4,2.64,2.15,7.65-2.09,11.71-5.29,18.3A92.16,92.16,0,0,1,129.3,86.29a79.91,79.91,0,0,1-7.63,8.11,39.24,39.24,0,0,1-8.43,5.67C108.74,102.41,103.24,102.71,103.37,100.74Z"/><path class="cls-11" d="M113.83,54.16a17.21,17.21,0,0,0-1.41,9.54c.9,7.56,1.62,11.67,4.62,18.74-6.16-24.43,14.39-32,9.34-34.57C118.31,43.77,114.74,52.12,113.83,54.16Z"/><path class="cls-12" d="M130.94,60.3c-2.79,14.16-4.58,29.17-1.26,43.36C128.05,89.21,130.92,74.75,130.94,60.3Z"/><path class="cls-13" d="M144.11,17.63c-2.22-.93-5.23,2-6.68,3.79-1.93,2.35-3.35,5.82-4.45,8.64-5,13,5.5,28.13,7.51,31.68a7.72,7.72,0,0,0,.89,1.24C135.49,48.19,135.45,32.44,144.11,17.63Z"/><path class="cls-14" d="M125.79,12.2v.3A3.06,3.06,0,0,0,124.31,11c-8.66,14.81-8.62,30.57-2.72,45.36A11.41,11.41,0,0,0,125.16,59c0-.33-.07-.65-.1-1-2.06-8.81-2.15-17.94-1.25-27,0-1.27,0-2.53,0-3.81l.47,0c.54-4.24,1.27-8.46,2.08-12.6,0-.05,0-.11,0-.16v.15l.16-.81-.16.81v0h0q0,1.53,0,3.06a8.64,8.64,0,0,1,1.87-2.84A3.12,3.12,0,0,1,125.79,12.2Z"/><path class="cls-6" d="M122.8,68.7c35.59-23,37.62-45.68,38.83-50.33s.91-7.68,1.61-7.91,2.4,2.64,2.15,7.65-2.09,11.71-5.29,18.3a92.16,92.16,0,0,1-11.39,17.84,79.91,79.91,0,0,1-7.63,8.11A39.24,39.24,0,0,1,132.66,68C128.17,70.36,122.66,70.67,122.8,68.7Z"/><path class="cls-15" d="M136.93,89.21a17.21,17.21,0,0,0-9.52,1.53c-6.94,3.14-10.64,5.06-16.48,10,21.44-13.23,34.85,4.09,35.78-1.5C148.19,90.35,139.16,89.46,136.93,89.21Z"/><path class="cls-16" d="M136.23,107.37C121.89,109,107,111.77,94.5,119.22,107.79,113.31,122.44,111.7,136.23,107.37Z"/><path class="cls-17" d="M180.89,107.08c.21-2.4-3.5-4.38-5.63-5.23-2.82-1.13-6.55-1.44-9.58-1.64-13.89-.88-25.17,13.71-27.95,16.7a7.72,7.72,0,0,0-.92,1.22C149.14,108.06,164.16,103.28,180.89,107.08Z"/><path class="cls-18" d="M180.55,88l-.29.1a3.06,3.06,0,0,0,1-1.88c-16.73-3.8-31.74,1-44.07,11.06a11.41,11.41,0,0,0-1.46,4.21l.9-.39c7.78-4.62,16.46-7.45,25.35-9.32,1.2-.4,2.4-.79,3.62-1.18,0,.16.07.31.11.46,4.21-.76,8.45-1.34,12.64-1.81l.15,0-.14,0,.82-.09-.82.09-.81.26.81-.26h0q-1.46.46-2.93.88a8.64,8.64,0,0,1,3.27.93A3.12,3.12,0,0,1,180.55,88Z"/><path class="cls-6" d="M125.77,102.13c32.65,27,54.89,22.12,59.69,21.88s7.6-1.44,8-.84-1.8,3.08-6.65,4.36-11.8,1.53-19,.47a92.16,92.16,0,0,1-20.44-5.49,79.91,79.91,0,0,1-10-4.83,39.24,39.24,0,0,1-7.95-6.33C125.8,107.75,123.85,102.6,125.77,102.13Z"/><path class="cls-19" d="M103.23,16.46a17.21,17.21,0,0,0-9.33,2.43c-6.61,3.78-10.11,6-15.45,11.57,20.08-15.21,35.08.75,35.47-4.9C114.55,16.52,105.47,16.5,103.23,16.46Z"/><path class="cls-20" d="M104.27,34.6c-14.12,3-28.64,7.17-40.41,15.78C76.52,43.24,91,40.23,104.27,34.6Z"/><path class="cls-21" d="M148.69,30.06c0-2.41-3.9-4-6.1-4.67-2.92-.86-6.66-.81-9.69-.72-13.91.44-23.75,16-26.23,19.29a7.72,7.72,0,0,0-.79,1.3C117.19,34.07,131.68,27.87,148.69,30.06Z"/><path class="cls-22" d="M146.54,11.07l-.28.13a3.06,3.06,0,0,0,.8-2c-17-2.18-31.5,4-42.82,15.21a11.41,11.41,0,0,0-1.06,4.33l.86-.48c7.31-5.34,15.68-9,24.35-11.7,1.16-.51,2.32-1,3.49-1.52,0,.16.1.3.15.44,4.12-1.16,8.28-2.14,12.41-3l.15-.06-.14.06.81-.17-.81.17-.78.33.78-.33h0q-1.41.6-2.83,1.15a8.64,8.64,0,0,1,3.35.61A3.12,3.12,0,0,1,146.54,11.07Z"/><path class="cls-6" d="M93.35,30.39c35.08,23.77,56.75,16.79,61.5,16.09s7.42-2.16,7.91-1.6-1.5,3.24-6.2,5-11.6,2.65-18.91,2.28a92.16,92.16,0,0,1-20.87-3.52,79.91,79.91,0,0,1-10.45-3.85,39.24,39.24,0,0,1-8.51-5.54C93.92,36,91.49,31,93.35,30.39Z"/></g></g></svg>