<svg xmlns="http://www.w3.org/2000/svg" viewBox="0 0 563.2 407.8"><defs><style>.cls-1{fill:#754c24;}.cls-2{fill:#8c6239;}.cls-3{fill:none;stroke:#8c6239;stroke-miterlimit:10;stroke-width:12px;}.cls-4{fill:#c69c6d;}</style></defs><title>Asset 4</title><g id="Layer_2" data-name="Layer 2"><g id="Layer_1-2" data-name="Layer 1"><g id="Layer_2-2" data-name="Layer 2"><path id="_Path_" data-name="&lt;Path&gt;" class="cls-1" d="M526.2,401.8c8.3,0,22-6.7,22-15h3c0-10.5,1.3-34.2-10.6-34.2L32.4,367.7c-11.9,0-20.6,8.6-20.6,19.1l16.5,8.9Z"/><path id="_Path_2" data-name="&lt;Path&gt;" class="cls-2" d="M530.2,371.4,22.5,390a10.44,10.44,0,0,1-10.8-10.2c-.2-10.6-.3-22.2-.3-31V331.9c0-11.9-1.3-38.6,10.6-38.6l508.2,17c11.9,0,21.1-9.2,21.1,2.6l.5,35.9C551.8,360.7,542.1,371.4,530.2,371.4Z"/><path id="_Path_3" data-name="&lt;Path&gt;" class="cls-1" d="M32.3,293.6l509.2,19c11.9,0,9.6-29.7,9.6-41.6V254.1c0-11.9,1.3-38.6-10.6-38.6l-508.2,17c-11.9,0-20.6,9.7-20.6,21.6v17C11.8,282.9,20.5,293.6,32.3,293.6Z"/><path id="_Compound_Path_" data-name="&lt;Compound Path&gt;" class="cls-2" d="M529.7,154.1l-508.2-17c-11.9,0-10.6,26.7-10.6,38.6v16.9c0,11.9.2,29,.6,41.6l518.2-19c11.9,0,21.6-10.7,21.6-22.6V175.7A21.64,21.64,0,0,0,529.7,154.1ZM61.3,226.2c-11.4,0-19.8-9.3-20.3-20.3s9.7-20.3,20.3-20.3c11.4,0,19.8,9.3,20.3,20.3S71.9,226.2,61.3,226.2Z"/><path id="_Path_4" data-name="&lt;Path&gt;" class="cls-1" d="M32.9,138.2l509.2,19c11.9,0,9.6-29.7,9.6-41.6V98.7c0-11.9,1.3-38.6-10.6-38.6L32.9,77.1A21.64,21.64,0,0,0,11.3,98.7v16.9C11.4,127.4,21.1,138.2,32.9,138.2Z"/><path id="_Path_5" data-name="&lt;Path&gt;" class="cls-2" d="M529.7,72.2,20.5,91.2c-11.9,0-9.6-29.7-9.6-41.6V32.7A21.64,21.64,0,0,1,32.5,11.1H529.7a21.64,21.64,0,0,1,21.6,21.6V49.6C551.3,61.5,541.6,72.2,529.7,72.2Z"/><path id="_Compound_Path_2" data-name="&lt;Compound Path&gt;" class="cls-3" d="M525.5,6H37.7A31.84,31.84,0,0,0,6,37.7V370.1a31.84,31.84,0,0,0,31.7,31.7H525.5a31.84,31.84,0,0,0,31.7-31.7V37.7A31.71,31.71,0,0,0,525.5,6ZM61.3,226.2c-11.4,0-19.8-9.3-20.3-20.3s9.7-20.3,20.3-20.3c11.4,0,19.8,9.3,20.3,20.3S71.9,226.2,61.3,226.2Z"/></g><g id="Layer_1-3" data-name="Layer 1"><g id="_Group_" data-name="&lt;Group&gt;"><g id="_Group_2" data-name="&lt;Group&gt;"><path id="_Compound_Path_3" data-name="&lt;Compound Path&gt;" class="cls-4" d="M551.1,89.7c-.5-.1-.8-.3-1.1-.2-31.8,4.7-63.5,9.6-95.3,14.2-23.4,3.4-46.8,6.8-70.3,9.7-20.2,2.5-40.5,4.1-59.8,11a75,75,0,0,0-18.3,9.8c-5.3,3.8-5,8.9-2,14.6,3.3,6.3,6.6,12.8,8.4,19.6,3.4,12.7-1.8,24.5-12.9,30.1a97.84,97.84,0,0,1-19.5,7.4c-18.1,4.3-30.5-2.7-36.9-20a53.8,53.8,0,0,0-2.4-5.5c-8.3-16.8-23-22.9-40.8-17-7.6,2.5-15.1,5.3-22.6,7.9-28.9,10-57.9,20-86.7,30.2-1.6.6-3.7,2.5-3.7,3.9-.4,11.1-5.2,19.4-15.5,23.6-10.1,4.1-19.2,1.7-27-5.9a5,5,0,0,0-4.2-1.1c-8.8,2.9-17.6,6.1-26.3,9.4a4.62,4.62,0,0,0-2.6,2.9c-.3,5.6-.1,11.3-.1,17.3,2.1-.3,3.8-.4,5.4-.7,18.6-4.3,37.5-7.7,55.9-13,32.4-9.3,64.6-19.8,96.8-29.7,9.1-2.8,18.4-4.7,28-2.7,8.1,1.7,13.7,6.3,16.2,14.5,2.4,8,.4,14.7-6.1,19.6-8.8,6.5-17.5,13.6-27.2,18.4-27.5,13.4-55.2,26.5-83.4,38.4-26.7,11.2-54,20.8-81,31.2-1.7.6-4.2,2-4.3,3.2-.5,4.8-.2,9.7-.2,15.1,2.4-.8,4-1.3,5.5-1.8,18.2-6.5,36.4-12.9,54.5-19.4q78.9-28.2,157.9-56.5c13.1-4.7,25.3-2.6,36.2,6,7.7,6,12.3,14.2,17,22.5,4.4,7.8,9.2,15.6,15.2,22.1,14.2,15.3,32,20.1,51.9,13.6a115.31,115.31,0,0,0,25.5-12.3c13-8.3,25.4-17.7,38-26.7,9.5-6.8,18.8-13.8,28.3-20.5s19.7-7.1,29.5-.7c8.5,5.6,16.4,12,24.5,18.1,3.4,2.5,4.8,5.7,2.1,9.4-2.2,3.1-6.1,2.8-10-.5-4.3-3.5-8.5-7-12.8-10.4-15.7-12.1-18.7-12.1-34.6-.6-17.4,12.6-34.6,25.5-52.2,37.8A170.58,170.58,0,0,1,364,340.1c-13,6.2-26.9,8.9-41.3,5.8-24.2-5.1-39.1-21.3-50.1-42.3-3-5.7-6.2-11.5-10.4-16.4-8.3-9.8-19.5-11.9-31.2-6.8-1.5.7-3.1,1.3-4.6,1.9q-52.35,18.6-104.9,37.3C86.2,332.2,51,344.7,15.8,357.4c-1.6.6-3.9,2-4,3.3-.5,4.5-.2,9.1-.2,14.2,11-3.8,21.2-7.4,31.4-10.9,40.2-14,80.4-28.1,120.7-41.9,19.4-6.7,36.5-4.3,51.6,11.5,21.3,22.2,43.7,43.5,65.7,65.1a11.58,11.58,0,0,0,6.8,2.9c15.3.3,30.7,0,46,.2a9,9,0,0,0,7.9-3.9c15.3-20,32.8-37.7,54.6-50.7,16.5-9.9,34.3-16.1,53.7-13.2,8.5,1.3,16.9,4.6,24.9,8,6.2,2.6,11.4,7.6,17.6,10.2,14.5,6,23.6,1.3,28.3-13.7,4.3-13.8,12.7-22.8,27.8-24.1a22.24,22.24,0,0,0,3.1-.7c0-16.8-.1-33.4.1-50.1.1-3.6-1.3-4.9-4.5-5.7-13.6-3.8-27-8.5-40.8-11.5-20.6-4.6-41.4-8.1-62.2-12-5.2-1-9.8.2-14.6,3a362.52,362.52,0,0,1-32.8,16.9c-11.7,5.4-23.9,9.1-36.9,10.1-13.9,1-26.1-4.6-29.8-15.3a51.89,51.89,0,0,1-2.8-21c1.2-15.3,10-26.8,21.5-36.4A126.3,126.3,0,0,1,393.1,168c28.3-8.6,56.9-16.3,85.5-24.1,24.2-6.6,48.5-13,72.9-19.5C551.1,112.2,551.1,100.9,551.1,89.7ZM38,209.7c-1.2-11.4,3.9-21,13.3-25.7,9.2-4.6,20.1-3.3,27.3,4,3.1,3.2,5.5,2.9,9.1,1.7,35.9-12.6,71.9-25,107.9-37.5,24.1-8.3,45.1.3,56.2,23.2a85.06,85.06,0,0,1,3.4,8.3c3.1,8.3,9.6,12.7,18.3,10.9a116.62,116.62,0,0,0,20.7-6.8c4.7-2,7.1-6.4,7.2-11.7.1-7.5-2.5-14-6.5-20.1-7.4-11.1-6.1-22.7,3.9-31.3a45.89,45.89,0,0,1,12.5-8c8.3-3.3,16.8-6.7,25.6-8.3,17.7-3.2,35.6-5,53.4-7.6Q458,91.05,525.7,81c8.5-1.2,16.9-2.7,25.5-4,0-15.6.1-30.6-.1-45.6a19.87,19.87,0,0,0-7.3-14.8,7.23,7.23,0,0,0-6-1.3q-110.1,37.35-220.1,75c-12.2,4.2-24.6,7.5-37.6,6.7-16.9-1.1-30.6-8.1-37.2-24.2-3.4-8.4-9-10.4-16.6-10.4a59.41,59.41,0,0,0-11.9,1.3c-18,3.4-34.7,10.3-51.2,17.9-49.4,22.9-95.1,52.1-140.5,82-9,5.9-12.9,12-11.9,22.8,1,10.6.2,21.5.2,32.7C20.6,215.8,29.2,212.8,38,209.7ZM11.6,157.1c1.9-1.3,3.5-2.2,4.9-3.2,37-25.6,75-49.5,115.1-70,24.5-12.5,49.3-24.2,76.3-30.2,10.4-2.3,21.1-3.9,31.6-.5,6.2,2,11,5.4,13,12.4,2.9,9.8,10,15.9,19.9,18.5,13.5,3.5,26.5.7,39.2-3.6q97.2-32.85,194.2-65.8c2.7-.9,5.4-1.9,8.2-2.9a4.11,4.11,0,0,0-2.6-.8q-45,0-90,.1a23.12,23.12,0,0,0-6.7,1.5c-26,8.3-51.8,17.1-77.9,24.8-21,6.2-42.1,7.2-63.9,1.1a282.35,282.35,0,0,0-75.5-10.3c-14.6,0-28.1,2.8-40.7,11.2C119.7,64.2,78.3,75.2,34.2,77c-7.6.3-15.1,1-22.6,1.5C11.6,105,11.6,130.7,11.6,157.1Zm539.6,88.7V136.2c-1.9.4-3.4.7-4.8,1.1q-53.25,14.25-106.5,28.4c-20.9,5.5-41.9,10.7-61.4,20.4-11,5.4-21.3,11.7-29.6,20.9-7.1,7.8-11.3,16.8-10.5,27.6s5.3,15.9,15.9,16.8a46.67,46.67,0,0,0,13.4-1c18-3.7,34.6-11.2,49.8-21.1,10.8-7.1,21.6-9.6,33.9-7.2,1.1.2,2.3.2,3.5.5,26.1,6,52.1,12,78.2,18.1,5.9,1.5,11.8,3.4,18.1,5.1M12.1,385.8c3.6,10.1,11.2,15.3,22.2,15.3H262.2a16.45,16.45,0,0,0,3.1-.4c-.5.4-1.1.7-1.6,1.1-21.1-22-42-44.2-63.5-65.7-3.5-3.5-9.8-5.4-14.9-5.7a49.4,49.4,0,0,0-19,2.9C130.9,345,95.7,357.2,60.5,369.2,44.5,374.7,28.5,380.2,12.1,385.8Zm539.2-60.3c-11.5,1.1-16.9,7.9-19.9,17.6-5.4,17.2-20.2,25.8-37.5,20.9a83.11,83.11,0,0,1-21.5-10.2c-11.2-7.4-23.3-10.2-36.1-8a94.8,94.8,0,0,0-25,8c-22.5,10.9-39.7,28.5-57.5,47.3H500.9c9,0,18,.1,27,0,12.5-.3,23.2-8.7,23.4-19.5.3-18.5,0-37,0-56.1M11.5,66.4c23.5-.9,46.3-2.4,69-6.7,26.3-5,49.7-16.8,71.9-31.1,12.1-7.8,25.1-11.1,39.2-11.5,33.1-1,65.2,6.1,97.2,13.3a56.29,56.29,0,0,0,18.3,1c24.9-2.8,48.7-10.5,72.5-18,1.5-.5,2.9-1.1,4.4-1.6-.1-.2-.1-.4-.2-.6H35.4c-1.3,0-2.7,0-4,.1-13.2,1.1-21.8,12-19.5,25,9.5-1.9,18.9-3.8,28.4-5.5,13.1-2.3,26.2-4.5,39.4-6.6,4.1-.7,7.1,1.4,7.3,5.6.2,3.9-2.4,5.8-6.3,6.4-12.7,2-25.3,4.1-37.9,6.3C32.4,44.4,22,46.7,11.5,48.8Zm0,249.4c1.9-.6,3.1-1,4.4-1.5,26.5-10.2,53.4-19.7,79.5-30.8,28.9-12.3,57.2-26,85.5-39.6,6.8-3.3,13-8.1,18.9-12.9,5.1-4.2,3.1-11.9-3.3-13.7a28.08,28.08,0,0,0-10.8-.7,132.91,132.91,0,0,0-17.9,4.1C130.2,231.9,92.7,243.5,55,254.4c-14.1,4.1-28.8,6.4-43.4,9.6C11.5,281,11.5,298.1,11.5,315.8Z"/></g><path id="_Path_6" data-name="&lt;Path&gt;" class="cls-4" d="M551.3,313a26,26,0,0,1-3.1.7c-15.1,1.3-23.5,10.3-27.8,24.1-4.7,15-13.7,19.7-28.3,13.7-6.2-2.6-11.4-7.5-17.6-10.2-8-3.4-16.4-6.8-24.9-8-19.5-2.9-37.2,3.4-53.7,13.2-21.8,13-39.3,30.8-54.6,50.7a8.74,8.74,0,0,1-7.9,3.9c-15.3-.2-30.7,0-46-.2a10.25,10.25,0,0,1-6.8-2.9c-22.1-21.5-44.4-42.8-65.7-65.1-15.1-15.7-32.2-18.1-51.6-11.5C123,335.2,82.8,349.3,42.6,363.3c-10.2,3.5-20.4,7.1-31.4,10.9,0-5.1-.3-9.7.2-14.2.1-1.3,2.4-2.7,4-3.3,35.2-12.7,70.5-25.2,105.7-37.8q52.35-18.6,104.9-37.3c1.6-.6,3.1-1.2,4.6-1.9,11.6-5.1,22.9-3,31.2,6.8a89.35,89.35,0,0,1,10.4,16.4c11,21,25.9,37.2,50.1,42.3,14.4,3,28.3.4,41.3-5.8a161.48,161.48,0,0,0,24.1-14.1c17.6-12.3,34.8-25.2,52.2-37.8,15.9-11.6,18.9-11.6,34.6.6,4.4,3.4,8.5,6.9,12.8,10.4,4,3.2,7.8,3.5,10,.5,2.7-3.8,1.3-6.9-2.1-9.4-8.1-6.1-16-12.5-24.5-18.1-9.7-6.4-19.9-6-29.5.7s-18.8,13.8-28.3,20.5c-12.6,9-25,18.4-38,26.7a115.31,115.31,0,0,1-25.5,12.3c-19.9,6.5-37.7,1.6-51.9-13.6-6-6.5-10.8-14.3-15.2-22.1-4.7-8.3-9.4-16.6-17-22.5-11-8.5-23.1-10.7-36.2-6Q150.2,295.7,71.2,324q-27.3,9.75-54.5,19.4c-1.5.6-3.1,1-5.5,1.8,0-5.3-.3-10.2.2-15.1.1-1.2,2.7-2.5,4.3-3.2,27-10.4,54.4-20,81-31.2,28.2-11.9,55.9-24.9,83.4-38.4,9.8-4.8,18.4-11.9,27.2-18.4,6.5-4.8,8.5-11.6,6.1-19.6-2.4-8.2-8-12.8-16.2-14.5-9.6-2.1-18.9-.1-28,2.7-32.3,9.9-64.4,20.4-96.8,29.7-18.4,5.3-37.2,8.8-55.9,13a35.71,35.71,0,0,1-5.4.7c0-6-.1-11.7.1-17.3,0-1,1.5-2.5,2.6-2.9,8.7-3.3,17.5-6.4,26.3-9.4a5,5,0,0,1,4.2,1.1c7.8,7.7,17,10,27,5.9,10.3-4.2,15.1-12.5,15.5-23.6,0-1.4,2.2-3.3,3.7-3.9,28.9-10.2,57.8-20.2,86.7-30.2,7.5-2.6,15.1-5.3,22.6-7.9,17.8-6,32.5.2,40.8,17a53.79,53.79,0,0,1,2.4,5.5c6.4,17.3,18.9,24.3,36.9,20a85.18,85.18,0,0,0,19.5-7.4c11.1-5.6,16.3-17.4,12.9-30.1-1.8-6.8-5-13.3-8.4-19.6-3.1-5.8-3.4-10.8,2-14.6a76.91,76.91,0,0,1,18.3-9.8c19.3-6.9,39.6-8.5,59.8-11,23.5-2.9,46.9-6.3,70.3-9.7,31.8-4.6,63.6-9.5,95.3-14.2a6.53,6.53,0,0,1,1.1.2v34c-24.4,6.5-48.7,12.8-72.9,19.5-28.5,7.8-57.2,15.5-85.5,24.1a124.69,124.69,0,0,0-44.2,23.7c-11.5,9.6-20.3,21.1-21.5,36.4a55.6,55.6,0,0,0,2.8,21c3.7,10.7,16,16.3,29.8,15.3,13-.9,25.2-4.7,36.9-10.1,11.2-5.1,22.2-10.8,32.8-16.9,4.8-2.8,9.4-4,14.6-3,20.7,3.9,41.6,7.4,62.2,12,13.8,3.1,27.2,7.7,40.8,11.5,3.2.9,4.5,2.1,4.5,5.7.2,17.3.3,34,.3,50.8"/><path id="_Path_7" data-name="&lt;Path&gt;" class="cls-4" d="M38,209.7c-8.8,3.1-17.4,6.2-26.7,9.5,0-11.3.8-22.1-.2-32.7S14,169.7,23,163.7c45.4-29.9,91-59.1,140.5-82,16.5-7.6,33.2-14.5,51.2-17.9a67.72,67.72,0,0,1,11.9-1.3c7.5,0,13.2,2,16.6,10.4C249.8,89,263.5,96,280.4,97.1c13,.8,25.4-2.5,37.6-6.7q110-37.65,220.1-75a7.23,7.23,0,0,1,6,1.3,19.87,19.87,0,0,1,7.3,14.8c.2,15,.1,30,.1,45.6-8.5,1.3-17,2.8-25.5,4L390.6,100.9c-17.8,2.6-35.7,4.4-53.4,7.6-8.7,1.6-17.2,4.9-25.6,8.3a45.89,45.89,0,0,0-12.5,8c-10,8.7-11.3,20.3-3.9,31.3,4,6.1,6.6,12.6,6.5,20.1-.1,5.3-2.5,9.7-7.2,11.7a109,109,0,0,1-20.7,6.8c-8.7,1.8-15.2-2.6-18.3-10.9-1.1-2.8-2.1-5.6-3.4-8.3-11.1-22.9-32.2-31.5-56.2-23.2-36,12.5-72,24.9-107.9,37.5-3.6,1.3-6,1.5-9.1-1.7-7.2-7.3-18.1-8.5-27.3-4C41.9,188.7,36.8,198.3,38,209.7Z"/><path id="_Path_8" data-name="&lt;Path&gt;" class="cls-4" d="M11.6,157.1V78.7c7.5-.5,15.1-1.2,22.6-1.5,44.1-1.9,85.5-12.8,122.5-37.6,12.5-8.4,26.1-11.3,40.7-11.2a282.35,282.35,0,0,1,75.5,10.3c21.8,6,42.9,5.1,63.9-1.1,26.1-7.7,51.9-16.5,77.9-24.8a23.12,23.12,0,0,1,6.7-1.5q45-.15,90-.1a4.11,4.11,0,0,1,2.6.8c-2.7,1-5.4,2-8.2,2.9Q408.75,47.75,311.6,80.7c-12.8,4.3-25.7,7.1-39.2,3.6-9.9-2.6-17-8.7-19.9-18.5-2.1-7-6.8-10.4-13-12.4-10.5-3.4-21.1-1.9-31.6.5-27,6.1-51.9,17.7-76.3,30.2-40.1,20.5-78.1,44.5-115.1,70A50.3,50.3,0,0,0,11.6,157.1Z"/><path id="_Path_9" data-name="&lt;Path&gt;" class="cls-4" d="M551.2,136.3V245.9c-6.3-1.8-12.2-3.7-18.2-5.1q-39-9.15-78.2-18.1c-1.1-.3-2.3-.3-3.5-.5-12.3-2.3-23.1.2-33.9,7.2-15.2,9.9-31.8,17.4-49.8,21.1a46.4,46.4,0,0,1-13.4,1c-10.6-.9-15.2-6.1-15.9-16.8s3.5-19.8,10.5-27.6c8.3-9.2,18.6-15.5,29.6-20.9,19.5-9.6,40.5-14.8,61.4-20.4q53.25-14.1,106.5-28.4C547.8,137,549.3,136.7,551.2,136.3Z"/><path id="_Path_10" data-name="&lt;Path&gt;" class="cls-4" d="M12.1,385.8c16.3-5.6,32.3-11.1,48.4-16.6,35.3-12,70.5-24.2,105.8-35.9a53.54,53.54,0,0,1,19-2.9c5.1.3,11.4,2.2,14.9,5.7,21.5,21.5,42.4,43.7,63.5,65.7.5-.4,1.1-.7,1.6-1.1-1,.1-2.1.4-3.1.4H34.3C23.3,401.1,15.7,395.9,12.1,385.8Z"/><path id="_Path_11" data-name="&lt;Path&gt;" class="cls-4" d="M551.3,325.5h0v0Z"/><path id="_Path_12" data-name="&lt;Path&gt;" class="cls-4" d="M551.2,325.5c-11.4,1.1-16.9,7.9-19.9,17.6-5.4,17.2-20.2,25.8-37.5,20.9a83.11,83.11,0,0,1-21.5-10.2c-11.2-7.4-23.3-10.2-36.1-8a94.8,94.8,0,0,0-25,8c-22.5,10.9-39.7,28.5-57.5,47.3H500.8c9,0,18,.1,27,0,9.9-.2,18.2-8.8,18.4-19.5.4-18.4,5.1-36.8,5.1-55.7A.76.76,0,0,1,551.2,325.5Z"/><path id="_Path_13" data-name="&lt;Path&gt;" class="cls-4" d="M11.5,66.4V48.7c10.5-2.1,20.8-4.4,31.3-6.3,12.6-2.3,25.3-4.3,37.9-6.3,3.8-.6,6.5-2.5,6.3-6.4-.2-4.2-3.2-6.2-7.3-5.6-13.1,2.1-26.3,4.3-39.4,6.6-9.5,1.7-18.9,3.7-28.4,5.5-2.3-13,6.3-23.9,19.5-25,1.3-.1,2.7-.1,4-.1H383.8c.1.2.1.4.2.6-1.5.5-2.9,1.1-4.4,1.6-23.8,7.5-47.6,15.3-72.5,18a56.29,56.29,0,0,1-18.3-1c-32-7.2-64-14.3-97.2-13.3-14.1.4-27.1,3.7-39.2,11.5-22.2,14.3-45.6,26.1-71.9,31.1C57.8,64,35,65.5,11.5,66.4Z"/><path id="_Path_14" data-name="&lt;Path&gt;" class="cls-4" d="M11.5,315.8V264.1c14.6-3.2,29.3-5.5,43.4-9.6,37.7-10.8,75.2-22.5,112.8-33.7a125.11,125.11,0,0,1,17.9-4.1,26.25,26.25,0,0,1,10.8.7c6.4,1.7,8.4,9.4,3.3,13.7-5.9,4.8-12.1,9.7-18.9,12.9-28.3,13.6-56.6,27.2-85.5,39.6-26.1,11.2-53,20.6-79.5,30.8C14.6,314.8,13.4,315.2,11.5,315.8Z"/></g></g></g></g></svg>