<?xml version="1.0" encoding="utf-8"?>
<!-- Generator: Adobe Illustrator 19.0.0, SVG Export Plug-In . SVG Version: 6.00 Build 0)  -->
<svg version="1.1" xmlns="http://www.w3.org/2000/svg" xmlns:xlink="http://www.w3.org/1999/xlink" x="0px" y="0px"
	 viewBox="0 0 792 1224" style="enable-background:new 0 0 792 1224;" xml:space="preserve">
<style type="text/css">
	.st0{fill:#754C24;}
	.st1{fill:#8C6239;}
	.st2{fill:none;stroke:#8C6239;stroke-width:12;stroke-miterlimit:10;}
	.st3{fill:#C69C6D;}
</style>
<g id="Layer_2">
	<path id="XMLID_9_" class="st0" d="M677.9,795.7c8.3,0,22-6.7,22-15h3c0-10.5,1.3-34.2-10.6-34.2l-508.2,15.1
		c-11.9,0-20.6,8.6-20.6,19.1l16.5,8.9L677.9,795.7z"/>
	<path id="XMLID_8_" class="st1" d="M681.9,765.3l-507.7,18.6c-5.8,0.2-10.7-4.4-10.8-10.2c-0.2-10.6-0.3-22.2-0.3-31v-16.9
		c0-11.9-1.3-38.6,10.6-38.6l508.2,17c11.9,0,21.1-9.2,21.1,2.6l0.5,35.9C703.5,754.6,693.8,765.3,681.9,765.3z"/>
	<path id="XMLID_5_" class="st0" d="M184,687.5l509.2,19c11.9,0,9.6-29.7,9.6-41.6V648c0-11.9,1.3-38.6-10.6-38.6l-508.2,17
		c-11.9,0-20.6,9.7-20.6,21.6V665C163.5,676.8,172.2,687.5,184,687.5z"/>
	<path id="XMLID_18_" class="st1" d="M681.4,548l-508.2-17c-11.9,0-10.6,26.7-10.6,38.6v16.9c0,11.9,0.2,29,0.6,41.6l518.2-19
		c11.9,0,21.6-10.7,21.6-22.6v-16.9C703,557.7,693.3,548,681.4,548z M213,620.1c-11.4,0-19.8-9.3-20.3-20.3
		c-0.5-10.9,9.7-20.3,20.3-20.3c11.4,0,19.8,9.3,20.3,20.3C233.7,610.8,223.6,620.1,213,620.1z"/>
	<path id="XMLID_3_" class="st0" d="M184.6,532.1l509.2,19c11.9,0,9.6-29.7,9.6-41.6v-16.9c0-11.9,1.3-38.6-10.6-38.6l-508.2,17
		c-11.9,0-21.6,9.7-21.6,21.6v16.9C163.1,521.3,172.8,532.1,184.6,532.1z"/>
	<path id="XMLID_2_" class="st1" d="M681.4,466.1l-509.2,19c-11.9,0-9.6-29.7-9.6-41.6v-16.9c0-11.9,9.7-21.6,21.6-21.6h497.2
		c11.9,0,21.6,9.7,21.6,21.6v16.9C703,455.4,693.3,466.1,681.4,466.1z"/>
	<path id="XMLID_20_" class="st2" d="M677.2,399.9H189.4c-17.4,0-31.7,14.3-31.7,31.7V764c0,17.4,14.3,31.7,31.7,31.7h487.8
		c17.4,0,31.7-14.3,31.7-31.7V431.6C708.9,414.1,694.7,399.9,677.2,399.9z M213,620.1c-11.4,0-19.8-9.3-20.3-20.3
		c-0.5-10.9,9.7-20.3,20.3-20.3c11.4,0,19.8,9.3,20.3,20.3C233.7,610.8,223.6,620.1,213,620.1z"/>
</g>
<g id="Layer_1">
	<g id="XMLID_1_">
		<g id="XMLID_342_">
			<path id="XMLID_63_" class="st3" d="M702.8,483.6c-0.5-0.1-0.8-0.3-1.1-0.2c-31.8,4.7-63.5,9.6-95.3,14.2
				c-23.4,3.4-46.8,6.8-70.3,9.7c-20.2,2.5-40.5,4.1-59.8,11c-6.5,2.3-12.7,5.8-18.3,9.8c-5.3,3.8-5,8.9-2,14.6
				c3.3,6.3,6.6,12.8,8.4,19.6c3.4,12.7-1.8,24.5-12.9,30.1c-6.2,3.1-12.8,5.7-19.5,7.4c-18.1,4.3-30.5-2.7-36.9-20
				c-0.7-1.9-1.5-3.7-2.4-5.5c-8.3-16.8-23-22.9-40.8-17c-7.6,2.5-15.1,5.3-22.6,7.9c-28.9,10-57.9,20-86.7,30.2
				c-1.6,0.6-3.7,2.5-3.7,3.9c-0.4,11.1-5.2,19.4-15.5,23.6c-10.1,4.1-19.2,1.7-27-5.9c-0.9-0.9-3-1.5-4.2-1.1
				c-8.8,2.9-17.6,6.1-26.3,9.4c-1.1,0.4-2.5,1.9-2.6,2.9c-0.3,5.6-0.1,11.3-0.1,17.3c2.1-0.3,3.8-0.4,5.4-0.7
				c18.6-4.3,37.5-7.7,55.9-13c32.4-9.3,64.6-19.8,96.8-29.7c9.1-2.8,18.4-4.7,28-2.7c8.1,1.7,13.7,6.3,16.2,14.5
				c2.4,8,0.4,14.7-6.1,19.6c-8.8,6.5-17.5,13.6-27.2,18.4c-27.5,13.4-55.2,26.5-83.4,38.4c-26.7,11.2-54,20.8-81,31.2
				c-1.7,0.6-4.2,2-4.3,3.2c-0.5,4.8-0.2,9.7-0.2,15.1c2.4-0.8,4-1.3,5.5-1.8c18.2-6.5,36.4-12.9,54.5-19.4
				c52.6-18.8,105.2-37.7,157.9-56.5c13.1-4.7,25.3-2.6,36.2,6c7.7,6,12.3,14.2,17,22.5c4.4,7.8,9.2,15.6,15.2,22.1
				c14.2,15.3,32,20.1,51.9,13.6c8.9-2.9,17.6-7.3,25.5-12.3c13-8.3,25.4-17.7,38-26.7c9.5-6.8,18.8-13.8,28.3-20.5
				c9.6-6.7,19.7-7.1,29.5-0.7c8.5,5.6,16.4,12,24.5,18.1c3.4,2.5,4.8,5.7,2.1,9.4c-2.2,3.1-6.1,2.8-10-0.5
				c-4.3-3.5-8.5-7-12.8-10.4c-15.7-12.1-18.7-12.1-34.6-0.6c-17.4,12.6-34.6,25.5-52.2,37.8c-7.6,5.3-15.7,10.1-24.1,14.1
				c-13,6.2-26.9,8.9-41.3,5.8c-24.2-5.1-39.1-21.3-50.1-42.3c-3-5.7-6.2-11.5-10.4-16.4c-8.3-9.8-19.5-11.9-31.2-6.8
				c-1.5,0.7-3.1,1.3-4.6,1.9c-34.9,12.4-69.9,24.8-104.9,37.3c-35.3,12.6-70.5,25.1-105.7,37.8c-1.6,0.6-3.9,2-4,3.3
				c-0.5,4.5-0.2,9.1-0.2,14.2c11-3.8,21.2-7.4,31.4-10.9c40.2-14,80.4-28.1,120.7-41.9c19.4-6.7,36.5-4.3,51.6,11.5
				c21.3,22.2,43.7,43.5,65.7,65.1c1.7,1.6,4.5,2.8,6.8,2.9c15.3,0.3,30.7,0,46,0.2c3.5,0,5.7-1.1,7.9-3.9
				c15.3-20,32.8-37.7,54.6-50.7c16.5-9.9,34.3-16.1,53.7-13.2c8.5,1.3,16.9,4.6,24.9,8c6.2,2.6,11.4,7.6,17.6,10.2
				c14.5,6,23.6,1.3,28.3-13.7c4.3-13.8,12.7-22.8,27.8-24.1c1-0.1,1.9-0.4,3.1-0.7c0-16.8-0.1-33.4,0.1-50.1
				c0.1-3.6-1.3-4.9-4.5-5.7c-13.6-3.8-27-8.5-40.8-11.5c-20.6-4.6-41.4-8.1-62.2-12c-5.2-1-9.8,0.2-14.6,3
				c-10.6,6.2-21.6,11.8-32.8,16.9c-11.7,5.4-23.9,9.1-36.9,10.1c-13.9,1-26.1-4.6-29.8-15.3c-2.3-6.6-3.4-14.1-2.8-21
				c1.2-15.3,10-26.8,21.5-36.4c13.1-10.9,28.1-18.8,44.2-23.7c28.3-8.6,56.9-16.3,85.5-24.1c24.2-6.6,48.5-13,72.9-19.5
				C702.8,506.1,702.8,494.8,702.8,483.6z M189.7,603.6c-1.2-11.4,3.9-21,13.3-25.7c9.2-4.6,20.1-3.3,27.3,4
				c3.1,3.2,5.5,2.9,9.1,1.7c35.9-12.6,71.9-25,107.9-37.5c24.1-8.3,45.1,0.3,56.2,23.2c1.3,2.7,2.4,5.5,3.4,8.3
				c3.1,8.3,9.6,12.7,18.3,10.9c7.1-1.5,14-4,20.7-6.8c4.7-2,7.1-6.4,7.2-11.7c0.1-7.5-2.5-14-6.5-20.1c-7.4-11.1-6.1-22.7,3.9-31.3
				c3.7-3.2,8-6.2,12.5-8c8.3-3.3,16.8-6.7,25.6-8.3c17.7-3.2,35.6-5,53.4-7.6c45.1-6.5,90.3-13.1,135.4-19.8
				c8.5-1.2,16.9-2.7,25.5-4c0-15.6,0.1-30.6-0.1-45.6c-0.1-5.9-2.9-11-7.3-14.8c-1.4-1.2-4.3-1.9-6-1.3
				c-73.4,24.9-146.7,49.9-220.1,75c-12.2,4.2-24.6,7.5-37.6,6.7c-16.9-1.1-30.6-8.1-37.2-24.2c-3.4-8.4-9-10.4-16.6-10.4
				c-4,0-8,0.5-11.9,1.3c-18,3.4-34.7,10.3-51.2,17.9c-49.4,22.9-95.1,52.1-140.5,82c-9,5.9-12.9,12-11.9,22.8
				c1,10.6,0.2,21.5,0.2,32.7C172.3,609.7,180.9,606.7,189.7,603.6z M163.3,551c1.9-1.3,3.5-2.2,4.9-3.2c37-25.6,75-49.5,115.1-70
				c24.5-12.5,49.3-24.2,76.3-30.2c10.4-2.3,21.1-3.9,31.6-0.5c6.2,2,11,5.4,13,12.4c2.9,9.8,10,15.9,19.9,18.5
				c13.5,3.5,26.5,0.7,39.2-3.6c64.8-21.9,129.5-43.8,194.2-65.8c2.7-0.9,5.4-1.9,8.2-2.9c-1-0.7-1.8-0.8-2.6-0.8c-30,0-60,0-90,0.1
				c-2.2,0-4.5,0.8-6.7,1.5c-26,8.3-51.8,17.1-77.9,24.8c-21,6.2-42.1,7.2-63.9,1.1c-24.5-6.8-49.9-10.3-75.5-10.3
				c-14.6,0-28.1,2.8-40.7,11.2c-37,24.8-78.4,35.8-122.5,37.6c-7.6,0.3-15.1,1-22.6,1.5C163.3,498.9,163.3,524.6,163.3,551z
				 M702.9,639.7c0-36.8,0-72.9,0-109.6c-1.9,0.4-3.4,0.7-4.8,1.1c-35.5,9.5-71,19-106.5,28.4c-20.9,5.5-41.9,10.7-61.4,20.4
				c-11,5.4-21.3,11.7-29.6,20.9c-7.1,7.8-11.3,16.8-10.5,27.6c0.7,10.7,5.3,15.9,15.9,16.8c4.4,0.4,9-0.1,13.4-1
				c18-3.7,34.6-11.2,49.8-21.1c10.8-7.1,21.6-9.6,33.9-7.2c1.1,0.2,2.3,0.2,3.5,0.5c26.1,6,52.1,12,78.2,18.1
				C690.7,636.1,696.6,638,702.9,639.7 M163.8,779.7c3.6,10.1,11.2,15.3,22.2,15.3c76,0,152,0,227.9,0c1,0,2.1-0.2,3.1-0.4
				c-0.5,0.4-1.1,0.7-1.6,1.1c-21.1-22-42-44.2-63.5-65.7c-3.5-3.5-9.8-5.4-14.9-5.7c-6.3-0.4-13,0.8-19,2.9
				c-35.4,11.7-70.6,23.9-105.8,35.9C196.2,768.6,180.2,774.1,163.8,779.7z M703,719.4c-11.5,1.1-16.9,7.9-19.9,17.6
				c-5.4,17.2-20.2,25.8-37.5,20.9c-7.5-2.2-14.9-5.9-21.5-10.2c-11.2-7.4-23.3-10.2-36.1-8c-8.6,1.5-17.2,4.2-25,8
				c-22.5,10.9-39.7,28.5-57.5,47.3c3,0,4.8,0,6.6,0c46.8,0,93.7,0,140.5,0c9,0,18,0.1,27,0c12.5-0.3,23.2-8.7,23.4-19.5
				C703.3,757,703,738.5,703,719.4 M163.2,460.3c23.5-0.9,46.3-2.4,69-6.7c26.3-5,49.7-16.8,71.9-31.1c12.1-7.8,25.1-11.1,39.2-11.5
				c33.1-1,65.2,6.1,97.2,13.3c5.9,1.3,12.3,1.7,18.3,1c24.9-2.8,48.7-10.5,72.5-18c1.5-0.5,2.9-1.1,4.4-1.6
				c-0.1-0.2-0.1-0.4-0.2-0.6c-1.3,0-2.6,0-4,0c-114.8,0-229.6,0-344.4,0c-1.3,0-2.7,0-4,0.1c-13.2,1.1-21.8,12-19.5,25
				c9.5-1.9,18.9-3.8,28.4-5.5c13.1-2.3,26.2-4.5,39.4-6.6c4.1-0.7,7.1,1.4,7.3,5.6c0.2,3.9-2.4,5.8-6.3,6.4
				c-12.7,2-25.3,4.1-37.9,6.3c-10.4,1.9-20.8,4.2-31.3,6.3C163.2,448.6,163.2,454.1,163.2,460.3z M163.2,709.7
				c1.9-0.6,3.1-1,4.4-1.5c26.5-10.2,53.4-19.7,79.5-30.8c28.9-12.3,57.2-26,85.5-39.6c6.8-3.3,13-8.1,18.9-12.9
				c5.1-4.2,3.1-11.9-3.3-13.7c-3.4-0.9-7.3-1.2-10.8-0.7c-6.1,0.9-12.1,2.4-17.9,4.1c-37.6,11.2-75.1,22.8-112.8,33.7
				c-14.1,4.1-28.8,6.4-43.4,9.6C163.2,674.9,163.2,692,163.2,709.7z"/>
		</g>
		<path id="XMLID_284_" class="st3" d="M703,706.9c-1.2,0.3-2.2,0.6-3.1,0.7c-15.1,1.3-23.5,10.3-27.8,24.1
			c-4.7,15-13.7,19.7-28.3,13.7c-6.2-2.6-11.4-7.5-17.6-10.2c-8-3.4-16.4-6.8-24.9-8c-19.5-2.9-37.2,3.4-53.7,13.2
			c-21.8,13-39.3,30.8-54.6,50.7c-2.1,2.8-4.3,3.9-7.9,3.9c-15.3-0.2-30.7,0-46-0.2c-2.3,0-5.2-1.2-6.8-2.9
			c-22.1-21.5-44.4-42.8-65.7-65.1c-15.1-15.7-32.2-18.1-51.6-11.5c-40.3,13.8-80.5,27.9-120.7,41.9c-10.2,3.5-20.4,7.1-31.4,10.9
			c0-5.1-0.3-9.7,0.2-14.2c0.1-1.3,2.4-2.7,4-3.3c35.2-12.7,70.5-25.2,105.7-37.8c34.9-12.4,69.9-24.9,104.9-37.3
			c1.6-0.6,3.1-1.2,4.6-1.9c11.6-5.1,22.9-3,31.2,6.8c4.1,4.9,7.4,10.6,10.4,16.4c11,21,25.9,37.2,50.1,42.3
			c14.4,3,28.3,0.4,41.3-5.8c8.4-4,16.5-8.7,24.1-14.1c17.6-12.3,34.8-25.2,52.2-37.8c15.9-11.6,18.9-11.6,34.6,0.6
			c4.4,3.4,8.5,6.9,12.8,10.4c4,3.2,7.8,3.5,10,0.5c2.7-3.8,1.3-6.9-2.1-9.4c-8.1-6.1-16-12.5-24.5-18.1c-9.7-6.4-19.9-6-29.5,0.7
			c-9.5,6.7-18.8,13.8-28.3,20.5c-12.6,9-25,18.4-38,26.7c-7.9,5-16.6,9.4-25.5,12.3c-19.9,6.5-37.7,1.6-51.9-13.6
			c-6-6.5-10.8-14.3-15.2-22.1c-4.7-8.3-9.4-16.6-17-22.5c-11-8.5-23.1-10.7-36.2-6c-52.6,18.8-105.3,37.6-157.9,56.5
			c-18.2,6.5-36.4,13-54.5,19.4c-1.5,0.6-3.1,1-5.5,1.8c0-5.3-0.3-10.2,0.2-15.1c0.1-1.2,2.7-2.5,4.3-3.2c27-10.4,54.4-20,81-31.2
			c28.2-11.9,55.9-24.9,83.4-38.4c9.8-4.8,18.4-11.9,27.2-18.4c6.5-4.8,8.5-11.6,6.1-19.6c-2.4-8.2-8-12.8-16.2-14.5
			c-9.6-2.1-18.9-0.1-28,2.7c-32.3,9.9-64.4,20.4-96.8,29.7c-18.4,5.3-37.2,8.8-55.9,13c-1.6,0.4-3.2,0.5-5.4,0.7
			c0-6-0.1-11.7,0.1-17.3c0-1,1.5-2.5,2.6-2.9c8.7-3.3,17.5-6.4,26.3-9.4c1.2-0.4,3.2,0.2,4.2,1.1c7.8,7.7,17,10,27,5.9
			c10.3-4.2,15.1-12.5,15.5-23.6c0-1.4,2.2-3.3,3.7-3.9c28.9-10.2,57.8-20.2,86.7-30.2c7.5-2.6,15.1-5.3,22.6-7.9
			c17.8-6,32.5,0.2,40.8,17c0.9,1.8,1.7,3.6,2.4,5.5c6.4,17.3,18.9,24.3,36.9,20c6.7-1.6,13.4-4.2,19.5-7.4
			c11.1-5.6,16.3-17.4,12.9-30.1c-1.8-6.8-5-13.3-8.4-19.6c-3.1-5.8-3.4-10.8,2-14.6c5.6-4,11.9-7.5,18.3-9.8
			c19.3-6.9,39.6-8.5,59.8-11c23.5-2.9,46.9-6.3,70.3-9.7c31.8-4.6,63.6-9.5,95.3-14.2c0.3,0,0.6,0.1,1.1,0.2c0,11.2,0,22.5,0,34
			c-24.4,6.5-48.7,12.8-72.9,19.5c-28.5,7.8-57.2,15.5-85.5,24.1c-16.1,4.9-31.1,12.7-44.2,23.7c-11.5,9.6-20.3,21.1-21.5,36.4
			c-0.5,6.9,0.6,14.4,2.8,21c3.7,10.7,16,16.3,29.8,15.3c13-0.9,25.2-4.7,36.9-10.1c11.2-5.1,22.2-10.8,32.8-16.9
			c4.8-2.8,9.4-4,14.6-3c20.7,3.9,41.6,7.4,62.2,12c13.8,3.1,27.2,7.7,40.8,11.5c3.2,0.9,4.5,2.1,4.5,5.7
			C702.9,673.4,703,690.1,703,706.9"/>
		<path id="XMLID_283_" class="st3" d="M189.7,603.6c-8.8,3.1-17.4,6.2-26.7,9.5c0-11.3,0.8-22.1-0.2-32.7
			c-1-10.7,2.9-16.8,11.9-22.8c45.4-29.9,91-59.1,140.5-82c16.5-7.6,33.2-14.5,51.2-17.9c3.9-0.7,7.9-1.3,11.9-1.3
			c7.5,0,13.2,2,16.6,10.4c6.6,16.1,20.3,23.1,37.2,24.2c13,0.8,25.4-2.5,37.6-6.7c73.3-25.1,146.7-50.1,220.1-75
			c1.7-0.6,4.6,0.1,6,1.3c4.4,3.8,7.2,8.9,7.3,14.8c0.2,15,0.1,30,0.1,45.6c-8.5,1.3-17,2.8-25.5,4c-45.1,6.6-90.3,13.2-135.4,19.8
			c-17.8,2.6-35.7,4.4-53.4,7.6c-8.7,1.6-17.2,4.9-25.6,8.3c-4.5,1.8-8.8,4.8-12.5,8c-10,8.7-11.3,20.3-3.9,31.3
			c4,6.1,6.6,12.6,6.5,20.1c-0.1,5.3-2.5,9.7-7.2,11.7c-6.7,2.8-13.6,5.4-20.7,6.8c-8.7,1.8-15.2-2.6-18.3-10.9
			c-1.1-2.8-2.1-5.6-3.4-8.3c-11.1-22.9-32.2-31.5-56.2-23.2c-36,12.5-72,24.9-107.9,37.5c-3.6,1.3-6,1.5-9.1-1.7
			c-7.2-7.3-18.1-8.5-27.3-4C193.6,582.6,188.5,592.2,189.7,603.6z"/>
		<path id="XMLID_282_" class="st3" d="M163.3,551c0-26.3,0-52.1,0-78.4c7.5-0.5,15.1-1.2,22.6-1.5c44.1-1.9,85.5-12.8,122.5-37.6
			c12.5-8.4,26.1-11.3,40.7-11.2c25.6,0,51,3.5,75.5,10.3c21.8,6,42.9,5.1,63.9-1.1c26.1-7.7,51.9-16.5,77.9-24.8
			c2.2-0.7,4.5-1.5,6.7-1.5c30-0.1,60-0.1,90-0.1c0.8,0,1.6,0.1,2.6,0.8c-2.7,1-5.4,2-8.2,2.9c-64.7,21.9-129.5,43.9-194.2,65.8
			c-12.8,4.3-25.7,7.1-39.2,3.6c-9.9-2.6-17-8.7-19.9-18.5c-2.1-7-6.8-10.4-13-12.4c-10.5-3.4-21.1-1.9-31.6,0.5
			c-27,6.1-51.9,17.7-76.3,30.2c-40.1,20.5-78.1,44.5-115.1,70C166.7,548.8,165.2,549.7,163.3,551z"/>
		<path id="XMLID_281_" class="st3" d="M702.9,530.2c0,36.7,0,72.8,0,109.6c-6.3-1.8-12.2-3.7-18.2-5.1c-26-6.1-52.1-12.1-78.2-18.1
			c-1.1-0.3-2.3-0.3-3.5-0.5c-12.3-2.3-23.1,0.2-33.9,7.2c-15.2,9.9-31.8,17.4-49.8,21.1c-4.3,0.9-9,1.4-13.4,1
			c-10.6-0.9-15.2-6.1-15.9-16.8c-0.7-10.8,3.5-19.8,10.5-27.6c8.3-9.2,18.6-15.5,29.6-20.9c19.5-9.6,40.5-14.8,61.4-20.4
			c35.5-9.4,71-18.9,106.5-28.4C699.5,530.9,701,530.6,702.9,530.2z"/>
		<path id="XMLID_280_" class="st3" d="M163.8,779.7c16.3-5.6,32.3-11.1,48.4-16.6c35.3-12,70.5-24.2,105.8-35.9
			c6-2,12.7-3.2,19-2.9c5.1,0.3,11.4,2.2,14.9,5.7c21.5,21.5,42.4,43.7,63.5,65.7c0.5-0.4,1.1-0.7,1.6-1.1c-1,0.1-2.1,0.4-3.1,0.4
			c-76,0-152,0-227.9,0C175,795,167.4,789.8,163.8,779.7z"/>
		<path id="XMLID_6_" class="st3" d="M703,719.4C702.9,719.4,702.9,719.4,703,719.4c0,0.1,0,0.2,0,0.3
			C703,719.6,703,719.5,703,719.4z"/>
		<path id="XMLID_7_" class="st3" d="M702.9,719.4c-11.4,1.1-16.9,7.9-19.9,17.6c-5.4,17.2-20.2,25.8-37.5,20.9
			c-7.5-2.2-14.9-5.9-21.5-10.2c-11.2-7.4-23.3-10.2-36.1-8c-8.6,1.5-17.2,4.2-25,8c-22.5,10.9-39.7,28.5-57.5,47.3c3,0,4.8,0,6.6,0
			c46.8,0,93.7,0,140.5,0c9,0,18,0.1,27,0c9.9-0.2,18.2-8.8,18.4-19.5c0.4-18.4,5.1-36.8,5.1-55.7
			C702.9,719.6,702.9,719.5,702.9,719.4z"/>
		<path id="XMLID_278_" class="st3" d="M163.2,460.3c0-6.2,0-11.6,0-17.7c10.5-2.1,20.8-4.4,31.3-6.3c12.6-2.3,25.3-4.3,37.9-6.3
			c3.8-0.6,6.5-2.5,6.3-6.4c-0.2-4.2-3.2-6.2-7.3-5.6c-13.1,2.1-26.3,4.3-39.4,6.6c-9.5,1.7-18.9,3.7-28.4,5.5
			c-2.3-13,6.3-23.9,19.5-25c1.3-0.1,2.7-0.1,4-0.1c114.8,0,229.6,0,344.4,0c1.3,0,2.6,0,4,0c0.1,0.2,0.1,0.4,0.2,0.6
			c-1.5,0.5-2.9,1.1-4.4,1.6c-23.8,7.5-47.6,15.3-72.5,18c-6,0.7-12.4,0.3-18.3-1c-32-7.2-64-14.3-97.2-13.3
			c-14.1,0.4-27.1,3.7-39.2,11.5c-22.2,14.3-45.6,26.1-71.9,31.1C209.5,457.9,186.7,459.4,163.2,460.3z"/>
		<path id="XMLID_277_" class="st3" d="M163.2,709.7c0-17.7,0-34.8,0-51.7c14.6-3.2,29.3-5.5,43.4-9.6
			c37.7-10.8,75.2-22.5,112.8-33.7c5.9-1.8,11.9-3.2,17.9-4.1c3.5-0.5,7.4-0.3,10.8,0.7c6.4,1.7,8.4,9.4,3.3,13.7
			c-5.9,4.8-12.1,9.7-18.9,12.9c-28.3,13.6-56.6,27.2-85.5,39.6c-26.1,11.2-53,20.6-79.5,30.8C166.3,708.7,165.1,709.1,163.2,709.7z
			"/>
	</g>
</g>
</svg>
