<svg xmlns="http://www.w3.org/2000/svg" xmlns:xlink="http://www.w3.org/1999/xlink" viewBox="0 0 146.15 104.9"><defs><style>.cls-1{fill:url(#linear-gradient);}.cls-2{fill:url(#linear-gradient-2);}.cls-3{fill:url(#linear-gradient-3);}.cls-4{fill:url(#linear-gradient-4);}.cls-5{fill:url(#linear-gradient-5);}.cls-6{fill:url(#linear-gradient-6);}.cls-7{fill:url(#linear-gradient-7);}.cls-8{fill:url(#linear-gradient-8);}.cls-9{fill:#ff7f00;}.cls-10{fill:#ffff1b;opacity:0.2;isolation:isolate;}.cls-11{fill:#f64500;}.cls-12{fill:#e66b2a;}.cls-13{fill:#ecc24f;}.cls-14{fill:url(#linear-gradient-9);}.cls-15{fill:url(#linear-gradient-10);}.cls-16{fill:url(#linear-gradient-11);}.cls-17{fill:url(#linear-gradient-12);}.cls-18{fill:url(#linear-gradient-13);}.cls-19{fill:url(#linear-gradient-14);}.cls-20{fill:url(#linear-gradient-15);}.cls-21{fill:url(#linear-gradient-16);}</style><linearGradient id="linear-gradient" x1="739.1" y1="-692.48" x2="701.92" y2="-702.9" gradientTransform="matrix(0.86, -0.51, -0.51, -0.86, -841.31, -192.39)" gradientUnits="userSpaceOnUse"><stop offset="0.01" stop-color="#e0ffcc"/><stop offset="0.17" stop-color="#cbec9d"/><stop offset="0.38" stop-color="#b2d666"/><stop offset="0.58" stop-color="#9fc43a"/><stop offset="0.75" stop-color="#91b81a"/><stop offset="0.9" stop-color="#88b007"/><stop offset="1" stop-color="#85ad00"/></linearGradient><linearGradient id="linear-gradient-2" x1="738.7" y1="-692.96" x2="704.46" y2="-702.56" gradientTransform="matrix(0.86, -0.51, -0.51, -0.86, -841.31, -192.39)" gradientUnits="userSpaceOnUse"><stop offset="0.01" stop-color="#528c33"/><stop offset="0.03" stop-color="#548d31"/><stop offset="0.21" stop-color="#6a9b1b"/><stop offset="0.42" stop-color="#79a50c"/><stop offset="0.66" stop-color="#82ab03"/><stop offset="1" stop-color="#85ad00"/></linearGradient><linearGradient id="linear-gradient-3" x1="715.06" y1="-691.09" x2="719.33" y2="-698.29" gradientTransform="matrix(0.86, -0.51, -0.51, -0.86, -841.31, -192.39)" gradientUnits="userSpaceOnUse"><stop offset="0.01" stop-color="#526133"/><stop offset="0.36" stop-color="#546331"/><stop offset="0.56" stop-color="#596b2c"/><stop offset="0.71" stop-color="#627923"/><stop offset="0.85" stop-color="#6f8d16"/><stop offset="0.97" stop-color="#80a605"/><stop offset="1" stop-color="#85ad00"/></linearGradient><linearGradient id="linear-gradient-4" x1="707.09" y1="-698.72" x2="737" y2="-683.15" xlink:href="#linear-gradient-2"/><linearGradient id="linear-gradient-5" x1="808.07" y1="-448.83" x2="812.69" y2="-456.6" gradientTransform="matrix(0.99, -0.14, -0.14, -0.99, -730.49, -285.58)" xlink:href="#linear-gradient-3"/><linearGradient id="linear-gradient-6" x1="798.34" y1="-456.67" x2="827.45" y2="-441.52" gradientTransform="matrix(0.99, -0.14, -0.14, -0.99, -730.49, -285.58)" xlink:href="#linear-gradient-2"/><linearGradient id="linear-gradient-7" x1="734.74" y1="-695.48" x2="700.37" y2="-705.11" xlink:href="#linear-gradient"/><linearGradient id="linear-gradient-8" x1="733" y1="-687" x2="697.81" y2="-696.87" xlink:href="#linear-gradient"/><linearGradient id="linear-gradient-9" x1="722.33" y1="-650.07" x2="685.15" y2="-660.5" xlink:href="#linear-gradient"/><linearGradient id="linear-gradient-10" x1="721.93" y1="-650.55" x2="687.68" y2="-660.15" xlink:href="#linear-gradient-2"/><linearGradient id="linear-gradient-11" x1="698.29" y1="-648.7" x2="702.56" y2="-655.89" xlink:href="#linear-gradient-3"/><linearGradient id="linear-gradient-12" x1="690.31" y1="-656.31" x2="720.22" y2="-640.74" xlink:href="#linear-gradient-2"/><linearGradient id="linear-gradient-13" x1="776.33" y1="-416.04" x2="780.95" y2="-423.81" gradientTransform="matrix(0.99, -0.14, -0.14, -0.99, -730.49, -285.58)" xlink:href="#linear-gradient-3"/><linearGradient id="linear-gradient-14" x1="766.7" y1="-423.86" x2="795.81" y2="-408.71" gradientTransform="matrix(0.99, -0.14, -0.14, -0.99, -730.49, -285.58)" xlink:href="#linear-gradient-2"/><linearGradient id="linear-gradient-15" x1="717.97" y1="-653.06" x2="683.6" y2="-662.7" xlink:href="#linear-gradient"/><linearGradient id="linear-gradient-16" x1="716.22" y1="-644.59" x2="681.03" y2="-654.46" xlink:href="#linear-gradient"/></defs><title>Asset 1</title><g id="Layer_2" data-name="Layer 2"><g id="Layer_1-2" data-name="Layer 1"><path class="cls-1" d="M126.23,47.67s12.18-9.45,14.3-18l2.83,2.1s2,9-16.74,21.25Z"/><path class="cls-2" d="M141.15,30.08c-1,3-5.25,14.17-14.78,19.42V50l.45.46s10.33-6,14.32-20.32Zm1.15.85c-.88,2.7-5.2,14.45-15.1,19.73l.75.78S138.36,45.37,142.32,31Zm-8.53,16.75a43.92,43.92,0,0,0,4.28-4.16A37.68,37.68,0,0,0,143.41,32v-.06C142.7,34,139.86,41.88,133.77,47.68Zm-5.48,4,.1.11,1.35-1A12,12,0,0,1,128.29,51.68Z"/><path class="cls-3" d="M119.86,50.22S130.93,38.54,133.31,28l4.1,2.91s-1,12.84-13.16,23.38Z"/><path class="cls-4" d="M122.33,52.47c11-9.64,12.83-21.17,13.06-23L133.32,28c-2.38,10.53-13.45,22.21-13.45,22.21Z"/><path class="cls-5" d="M122.31,52.36s14.85-5.92,21-14.32l2.89,4.24s-5.63,11-21.09,15.48Z"/><path class="cls-6" d="M123.85,55.4c14.1-4.11,20-13.64,20.86-15.22L143.25,38c-6.09,8.41-21,14.32-21,14.32Z"/><path class="cls-7" d="M143.26,38c-6.09,8.41-21,14.32-21,14.32l.07.14a28.11,28.11,0,0,0,3.9-.85c7.92-2.2,15.92-11.07,17.48-12.87Z"/><path class="cls-8" d="M134.09,28.56l-.78-.55c-2.38,10.53-13.45,22.21-13.45,22.21l.38.35A23.29,23.29,0,0,0,122.32,49C130.14,42.35,133.49,30.85,134.09,28.56Z"/><path class="cls-9" d="M112.23,40.68c-10.74.23-30.85,19.69-38.89,26.72S35.6,100.75,36,103.84s9-1,33-7,56.35-17.3,61.09-29.91S123,40.47,112.23,40.68Z"/><path class="cls-10" d="M120.18,53.85c2.26-9.38-6.12-12.38-11.4-10.38S81.91,62.15,74.21,68.88C69.44,73.05,57,84,47.83,92.88L43.31,97.5c1.11-.66,15.67-11,32.26-15.82S117.91,63.22,120.18,53.85Z"/><path class="cls-11" d="M127.46,54.16a16.71,16.71,0,0,1-2.06,16.77C119.17,79.52,91.26,87.2,91.26,87.2S125.16,73.85,127.46,54.16Z"/><path class="cls-12" d="M107.17,64.35s-1.73,6.45,5.14,7.71C112.3,72.06,108.62,70,107.17,64.35Z"/><path class="cls-13" d="M107.52,66.41s1.09,3.37,3,4.5A4.61,4.61,0,0,1,107.52,66.41Z"/><path class="cls-12" d="M117.59,47s-1.73,6.45,5.14,7.71C122.7,54.71,119.05,52.63,117.59,47Z"/><path class="cls-13" d="M117.94,49s1.09,3.37,3,4.5A4.6,4.6,0,0,1,117.94,49Z"/><path class="cls-12" d="M104.85,51.6s-1.73,6.45,5.14,7.71C110,59.31,106.31,57.24,104.85,51.6Z"/><path class="cls-13" d="M105.2,53.65s1.09,3.37,3,4.5A4.61,4.61,0,0,1,105.2,53.65Z"/><path class="cls-12" d="M97.14,65s-1.26,7.26,6.08,9.32C103.22,74.33,99.17,71.62,97.14,65Z"/><path class="cls-13" d="M97.7,67.41s1.45,4,3.59,5.45A6.39,6.39,0,0,1,97.7,67.41Z"/><path class="cls-12" d="M84.87,67.78S83.14,74.22,90,75.49C90,75.47,86.32,73.42,84.87,67.78Z"/><path class="cls-13" d="M85.22,69.84s1.09,3.37,3,4.5A4.6,4.6,0,0,1,85.22,69.84Z"/><path class="cls-12" d="M85.21,80a3.75,3.75,0,0,0,3.19,4.78A7.76,7.76,0,0,1,85.21,80Z"/><path class="cls-13" d="M85.42,81.28a5.89,5.89,0,0,0,1.88,2.8A2.86,2.86,0,0,1,85.42,81.28Z"/><path class="cls-12" d="M90.7,55.28a3.75,3.75,0,0,0,3.19,4.79A7.76,7.76,0,0,1,90.7,55.28Z"/><path class="cls-13" d="M90.92,56.55a5.89,5.89,0,0,0,1.88,2.8A2.86,2.86,0,0,1,90.92,56.55Z"/><path class="cls-12" d="M120.58,63a3.75,3.75,0,0,0,3.19,4.78A7.76,7.76,0,0,1,120.58,63Z"/><path class="cls-13" d="M120.8,64.32a5.87,5.87,0,0,0,1.88,2.79A2.85,2.85,0,0,1,120.8,64.32Z"/><path class="cls-12" d="M106.11,76.41a3.75,3.75,0,0,0,3.19,4.79A7.76,7.76,0,0,1,106.11,76.41Z"/><path class="cls-13" d="M106.33,77.68a5.88,5.88,0,0,0,1.88,2.79A2.86,2.86,0,0,1,106.33,77.68Z"/><path class="cls-12" d="M96.24,77.41a3.75,3.75,0,0,0,3.19,4.79A7.76,7.76,0,0,1,96.24,77.41Z"/><path class="cls-13" d="M96.46,78.69a5.88,5.88,0,0,0,1.88,2.8A2.86,2.86,0,0,1,96.46,78.69Z"/><path class="cls-12" d="M66.75,78.87a3.75,3.75,0,0,0,3.19,4.79A7.76,7.76,0,0,1,66.75,78.87Z"/><path class="cls-13" d="M67,80.15a5.87,5.87,0,0,0,1.88,2.79A2.86,2.86,0,0,1,67,80.15Z"/><path class="cls-12" d="M64.11,88.61A3.75,3.75,0,0,0,67.3,93.4,7.76,7.76,0,0,1,64.11,88.61Z"/><path class="cls-13" d="M64.33,89.89a5.89,5.89,0,0,0,1.88,2.79A2.86,2.86,0,0,1,64.33,89.89Z"/><path class="cls-12" d="M76.16,75.9a5.78,5.78,0,0,0,3.48,6.85A13,13,0,0,1,76.16,75.9Z"/><path class="cls-13" d="M76.36,77.52a9.82,9.82,0,0,0,2.06,4A4.7,4.7,0,0,1,76.36,77.52Z"/><path class="cls-12" d="M55.48,86.82A5.78,5.78,0,0,0,59,93.67,13,13,0,0,1,55.48,86.82Z"/><path class="cls-13" d="M55.7,88.47a9.84,9.84,0,0,0,2.06,4A4.7,4.7,0,0,1,55.7,88.47Z"/><path class="cls-14" d="M90.23,19.67s12.18-9.45,14.3-18l2.83,2.1s2,9-16.74,21.25Z"/><path class="cls-15" d="M105.15,2.08c-1,3-5.25,14.17-14.78,19.42V22l.45.46s10.33-6,14.32-20.32Zm1.15.85c-.88,2.7-5.2,14.45-15.1,19.73l.75.78S102.36,17.37,106.32,3ZM97.77,19.68a43.92,43.92,0,0,0,4.28-4.16A37.68,37.68,0,0,0,107.41,4V3.94C106.7,6,103.86,13.88,97.77,19.68Zm-5.48,4,.1.11,1.35-1A12,12,0,0,1,92.29,23.68Z"/><path class="cls-16" d="M83.86,22.22S94.93,10.54,97.31,0l4.1,2.91s-1,12.84-13.16,23.38Z"/><path class="cls-17" d="M86.33,24.47c11-9.64,12.83-21.17,13.06-23L97.32,0C94.94,10.53,83.87,22.21,83.87,22.21Z"/><path class="cls-18" d="M86.31,24.36s14.85-5.92,21-14.32l2.89,4.24s-5.63,11-21.09,15.48Z"/><path class="cls-19" d="M87.85,27.4c14.1-4.11,20-13.64,20.86-15.22L107.25,10c-6.09,8.41-21,14.32-21,14.32Z"/><path class="cls-20" d="M107.26,10c-6.09,8.41-21,14.32-21,14.32l.07.14a28.11,28.11,0,0,0,3.9-.85c7.92-2.2,15.92-11.07,17.48-12.87Z"/><path class="cls-21" d="M98.09.56,97.31,0C94.93,10.54,83.86,22.22,83.86,22.22l.38.35A23.29,23.29,0,0,0,86.32,21C94.14,14.35,97.49,2.85,98.09.56Z"/><path class="cls-9" d="M76.23,12.68c-10.74.23-30.85,19.69-38.89,26.72S-.4,72.75,0,75.84s9-1,33-7,56.35-17.3,61.09-29.91S87,12.47,76.23,12.68Z"/><path class="cls-10" d="M84.18,25.85c2.26-9.38-6.12-12.38-11.4-10.38S45.91,34.15,38.21,40.88C33.44,45.05,21,56,11.83,64.88L7.31,69.5c1.11-.66,15.67-11,32.26-15.82S81.91,35.22,84.18,25.85Z"/><path class="cls-11" d="M91.46,26.16A16.71,16.71,0,0,1,89.4,42.93C83.17,51.52,55.26,59.2,55.26,59.2S89.16,45.85,91.46,26.16Z"/><path class="cls-12" d="M71.17,36.35s-1.73,6.45,5.14,7.71C76.3,44.06,72.62,42,71.17,36.35Z"/><path class="cls-13" d="M71.52,38.41s1.09,3.37,3,4.5A4.61,4.61,0,0,1,71.52,38.41Z"/><path class="cls-12" d="M81.59,19s-1.73,6.45,5.14,7.71C86.7,26.71,83.05,24.63,81.59,19Z"/><path class="cls-13" d="M81.94,21s1.09,3.37,3,4.5A4.6,4.6,0,0,1,81.94,21Z"/><path class="cls-12" d="M68.85,23.6S67.12,30.05,74,31.31C74,31.31,70.31,29.24,68.85,23.6Z"/><path class="cls-13" d="M69.2,25.65s1.09,3.37,3,4.5A4.61,4.61,0,0,1,69.2,25.65Z"/><path class="cls-12" d="M61.14,37s-1.26,7.26,6.08,9.32C67.22,46.33,63.17,43.62,61.14,37Z"/><path class="cls-13" d="M61.7,39.41s1.45,4,3.59,5.45A6.39,6.39,0,0,1,61.7,39.41Z"/><path class="cls-12" d="M48.87,39.78S47.14,46.22,54,47.49C54,47.47,50.32,45.42,48.87,39.78Z"/><path class="cls-13" d="M49.22,41.84s1.09,3.37,3,4.5A4.6,4.6,0,0,1,49.22,41.84Z"/><path class="cls-12" d="M49.21,52a3.75,3.75,0,0,0,3.19,4.78A7.76,7.76,0,0,1,49.21,52Z"/><path class="cls-13" d="M49.42,53.28a5.89,5.89,0,0,0,1.88,2.8A2.86,2.86,0,0,1,49.42,53.28Z"/><path class="cls-12" d="M54.7,27.28a3.75,3.75,0,0,0,3.19,4.79A7.76,7.76,0,0,1,54.7,27.28Z"/><path class="cls-13" d="M54.92,28.55a5.89,5.89,0,0,0,1.88,2.8A2.86,2.86,0,0,1,54.92,28.55Z"/><path class="cls-12" d="M84.58,35a3.75,3.75,0,0,0,3.19,4.78A7.76,7.76,0,0,1,84.58,35Z"/><path class="cls-13" d="M84.8,36.32a5.87,5.87,0,0,0,1.88,2.79A2.85,2.85,0,0,1,84.8,36.32Z"/><path class="cls-12" d="M70.11,48.41A3.75,3.75,0,0,0,73.3,53.2,7.76,7.76,0,0,1,70.11,48.41Z"/><path class="cls-13" d="M70.33,49.68a5.88,5.88,0,0,0,1.88,2.79A2.86,2.86,0,0,1,70.33,49.68Z"/><path class="cls-12" d="M60.24,49.41a3.75,3.75,0,0,0,3.19,4.79A7.76,7.76,0,0,1,60.24,49.41Z"/><path class="cls-13" d="M60.46,50.69a5.88,5.88,0,0,0,1.88,2.8A2.86,2.86,0,0,1,60.46,50.69Z"/><path class="cls-12" d="M30.75,50.87a3.75,3.75,0,0,0,3.19,4.79A7.76,7.76,0,0,1,30.75,50.87Z"/><path class="cls-13" d="M31,52.15a5.87,5.87,0,0,0,1.88,2.79A2.86,2.86,0,0,1,31,52.15Z"/><path class="cls-12" d="M28.11,60.61A3.75,3.75,0,0,0,31.3,65.4,7.76,7.76,0,0,1,28.11,60.61Z"/><path class="cls-13" d="M28.33,61.89a5.89,5.89,0,0,0,1.88,2.79A2.86,2.86,0,0,1,28.33,61.89Z"/><path class="cls-12" d="M40.16,47.9a5.78,5.78,0,0,0,3.48,6.85A13,13,0,0,1,40.16,47.9Z"/><path class="cls-13" d="M40.36,49.52a9.82,9.82,0,0,0,2.06,4A4.7,4.7,0,0,1,40.36,49.52Z"/><path class="cls-12" d="M19.48,58.82A5.78,5.78,0,0,0,23,65.67,13,13,0,0,1,19.48,58.82Z"/><path class="cls-13" d="M19.7,60.47a9.84,9.84,0,0,0,2.06,4A4.7,4.7,0,0,1,19.7,60.47Z"/></g></g></svg>