<?xml version="1.0" encoding="utf-8"?>
<!-- Generator: Adobe Illustrator 19.0.0, SVG Export Plug-In . SVG Version: 6.00 Build 0)  -->
<svg version="1.1" id="Layer_1" xmlns="http://www.w3.org/2000/svg" xmlns:xlink="http://www.w3.org/1999/xlink" x="0px" y="0px"
	 viewBox="0 0 792 1224" style="enable-background:new 0 0 792 1224;" xml:space="preserve">
<style type="text/css">
	.st0{fill:#603813;}
	.st1{fill:#EFC49A;stroke:#A67C52;stroke-miterlimit:10;}
	.st2{fill:none;stroke:#A67C52;stroke-linecap:round;stroke-miterlimit:10;}
	.st3{fill:none;stroke:#000000;stroke-linecap:round;stroke-miterlimit:10;}
	.st4{fill:none;stroke:#A67C52;stroke-miterlimit:10;}
</style>
<g id="XMLID_1_">
	<path id="XMLID_334_" class="st0" d="M319.5,633.6c0.2-7.5,5.7-12.9,13.1-12.6c6.6,0.2,11.1,5.3,11,12.3
		c-0.1,7.5-5.4,12.8-12.6,12.5C323.8,645.5,319.3,640.8,319.5,633.6z"/>
	<path id="XMLID_333_" class="st0" d="M435.4,482.8c0.1,5.3-3.7,9.4-8.8,9.5c-4.8,0.1-8.3-3.5-8.3-8.6c0-5.1,3.2-8.5,8.2-8.7
		C431.9,474.7,435.3,477.7,435.4,482.8z"/>
	<path id="XMLID_331_" class="st0" d="M350.4,548.5c4.6,0,7.8,3.2,7.8,7.9c0,5.3-3.9,9.3-9,9.3c-4.6,0-7.8-3.2-7.8-7.8
		C341.4,552.6,345.3,548.5,350.4,548.5z"/>
	<path id="XMLID_261_" class="st0" d="M283.1,453.4c0-6.4,5.3-12,11.5-12.1c6.7-0.1,12.8,5.7,12.6,12.1c-0.1,6.1-5.9,11.9-11.9,12
		C288.9,465.4,283.1,459.7,283.1,453.4z"/>
	<path id="XMLID_260_" class="st0" d="M173.5,558.2c6.3,0.1,11,5.1,11.1,11.7c0.1,6.9-5.1,11.8-12.2,11.7c-6.4-0.1-10.9-5-10.7-11.9
		C161.9,562.8,166.7,558.1,173.5,558.2z"/>
	<path id="XMLID_259_" class="st0" d="M297.2,410.2c4,0,7.1,2.9,7.2,6.7c0,3.8-2.8,6.9-6.4,6.8c-3.8,0-7.3-3.6-7.2-7.4
		C290.8,412.7,293.4,410.2,297.2,410.2z"/>
	<path id="XMLID_258_" class="st0" d="M215,557c-3.8-0.1-7.1-3.2-6.9-7.1c0.2-3.8,2.3-6.2,6.2-6.6c3.7-0.3,6.9,3.5,6.8,7.7
		C220.8,554.7,218.4,557.1,215,557z"/>
</g>
<g id="XMLID_6_">
	<path id="XMLID_3_" class="st1" d="M225,471.3c-4.9,6.2-7.5,11.2-8.5,13.3c-0.3,0.7-0.6,1.3-1,1.9c-3,4.7-15.8,26,0.6,30.6
		c18.4,5.3,8.7,5.5,18.4,5.3c22.6-0.6-10.6-7.8,10.4-27.5c6.8-6.4,8.3-12.3,7.3-17.4C249.7,464.6,233.1,461.1,225,471.3z"/>
	<path id="XMLID_4_" class="st2" d="M217.4,495.7c-5.8,9.5,3.6,15.3,3.6,15.3"/>
	<path id="XMLID_5_" class="st2" d="M237.6,471.7c13.4,6.3,3,24.4,3,24.4"/>
	<path id="XMLID_2_" class="st2" d="M241.4,480c0,3.9-0.7,7.1-1.6,7.1"/>
</g>
<g id="XMLID_7_">
	<path id="XMLID_11_" class="st1" d="M448.2,572.5c0.1-7.9-1-13.5-1.5-15.7c-0.2-0.7-0.3-1.4-0.3-2.1c-0.5-5.5-3.4-30.2-19.2-23.8
		c-17.8,7.1-16.1-2.5-17.8,7.1c-2.1,12,13.2-0.4,8.6,28.2c-1.5,9.2-0.3,18.6,4.9,18.3C441.7,583,448.1,585.6,448.2,572.5z"/>
	<path id="XMLID_10_" class="st3" d="M439.3,548.6c-1.3-11.1-12.2-9.9-12.2-9.9"/>
	<path id="XMLID_9_" class="st3" d="M438,579.9c-14.5,3.2-17.3-17.4-17.3-17.4"/>
	<path id="XMLID_8_" class="st3" d="M435.8,575.1c1.4-2.5-2.3-11.2-9-6.1"/>
</g>
<g id="XMLID_23_">
	<g id="XMLID_12_">
		<path id="XMLID_16_" class="st1" d="M341,452.3c-4.9,6.2-7.5,11.2-8.5,13.3c-0.3,0.7-0.6,1.3-1,1.9c-3,4.7-15.8,26,0.6,30.6
			c18.4,5.3,8.7,5.5,18.4,5.3c22.6-0.6,18-17.6,10.4-27.5c-5.6-7.4,8.3-12.3,7.3-17.4C365.7,445.6,349.1,442.1,341,452.3z"/>
		<path id="XMLID_15_" class="st2" d="M333.4,476.7c-5.8,9.5,3.6,15.3,3.6,15.3"/>
		<path id="XMLID_14_" class="st2" d="M353.6,452.7c6.4,12.4,3.8,26.8-2.1,27.3"/>
		<path id="XMLID_19_" class="st3" d="M355.8,468.1"/>
		<path id="XMLID_18_" class="st3" d="M357.4,461"/>
	</g>
	<path id="XMLID_17_" class="st2" d="M349.4,490c1,3.5,0.1,5.7-1.6,7.1"/>
</g>
<g id="XMLID_24_">
	<path id="XMLID_20_" class="st1" d="M293.8,553.1c-4-4.9-11.5-4.9-15.5-0.1c-7.1,8.6-15.8,20.7-9.9,22.4c9.3,2.7,23.6-4.7,29.9-9.1
		C301.6,564.1,298,558.2,293.8,553.1z"/>
	<path id="XMLID_13_" class="st4" d="M273.5,569.9c0,0.7,3.5,1.3,7.7,1.3"/>
	<path id="XMLID_21_" class="st4" d="M281.2,555.7c0-1.8,2.7-3.2,6.1-3.2"/>
	<path id="XMLID_22_" class="st4" d="M286.1,566.1c0-4.2,3.2-7.5,7.1-7.5"/>
</g>
<g id="XMLID_25_">
	<path id="XMLID_29_" class="st1" d="M242.7,660.1c6.3-0.4,10.7-6.5,9-12.6c-2.9-10.7-7.8-24.9-12.6-21c-7.6,6-9.8,22-9.9,29.6
		C229.2,660.1,236.1,660.5,242.7,660.1z"/>
	<path id="XMLID_28_" class="st4" d="M240.7,633.7c-0.6-0.4-3,2.1-5.5,5.6"/>
	<path id="XMLID_27_" class="st4" d="M247.8,648.2c1.5,1,1,4.1-0.9,6.9"/>
	<path id="XMLID_26_" class="st4" d="M236.5,646.2c3.4,2.4,4.3,7,2,10.2"/>
</g>
<g id="XMLID_30_">
	<path id="XMLID_34_" class="st1" d="M412.3,661.5c-2.8,7.4-5.9,12.2-7.2,14c-0.4,0.6-0.8,1.2-1.1,1.9c-2.5,5-9.7,14.4-26.7,15
		c-7.4,0.3-18.7-4.8-13.9-13.2c3.3-5.8-2.1-2.7,18.4-23c8.1-8,6.4-13.4,11.3-15.1C405.5,636.8,417,649.3,412.3,661.5z"/>
	<path id="XMLID_33_" class="st2" d="M395.1,680.4c-5.3,9.8-15,4.7-15,4.7"/>
	<path id="XMLID_32_" class="st2" d="M405.6,650.8c-12.2-8.4-22.5,9.8-22.5,9.8"/>
	<path id="XMLID_31_" class="st2" d="M396.5,651.8c-3.4,2-5.8,4.2-5.3,5"/>
</g>
</svg>
