<svg xmlns="http://www.w3.org/2000/svg" xmlns:xlink="http://www.w3.org/1999/xlink" viewBox="0 0 115.89 73.04"><defs><style>.cls-1{fill:url(#linear-gradient);}.cls-2{fill:url(#linear-gradient-2);}.cls-3{fill:url(#linear-gradient-3);}.cls-4{fill:url(#linear-gradient-4);}.cls-5{fill:url(#linear-gradient-5);}.cls-6{fill:url(#linear-gradient-6);}.cls-7{fill:url(#linear-gradient-7);}.cls-8{fill:url(#linear-gradient-8);}.cls-9{fill:url(#linear-gradient-9);}.cls-10{fill:url(#linear-gradient-10);}.cls-11{fill:url(#linear-gradient-11);}.cls-12{fill:url(#linear-gradient-12);}.cls-13{fill:url(#linear-gradient-13);}.cls-14{fill:url(#linear-gradient-14);}.cls-15{fill:url(#linear-gradient-15);}.cls-16{fill:url(#linear-gradient-16);}.cls-17{fill:url(#linear-gradient-17);}.cls-18{fill:url(#linear-gradient-18);}.cls-19{fill:#304503;}.cls-20{fill:url(#linear-gradient-19);}.cls-21{fill:url(#linear-gradient-20);}.cls-22{fill:#407803;}.cls-23{fill:url(#linear-gradient-21);}.cls-24{fill:url(#linear-gradient-22);}.cls-25{fill:url(#linear-gradient-23);}.cls-26{fill:url(#linear-gradient-24);}.cls-27{fill:url(#linear-gradient-25);}.cls-28{fill:url(#linear-gradient-26);}.cls-29{fill:url(#linear-gradient-27);}.cls-30{fill:url(#linear-gradient-28);}.cls-31{fill:url(#linear-gradient-29);}.cls-32{fill:url(#linear-gradient-30);}.cls-33{fill:url(#linear-gradient-31);}.cls-34{fill:url(#linear-gradient-32);}.cls-35{fill:url(#linear-gradient-33);}.cls-36{fill:url(#linear-gradient-34);}.cls-37{fill:url(#linear-gradient-35);}.cls-38{fill:url(#linear-gradient-36);}.cls-39{fill:url(#linear-gradient-37);}.cls-40{fill:url(#linear-gradient-38);}.cls-41{fill:#577803;}.cls-42{fill:url(#linear-gradient-39);}.cls-43{fill:url(#linear-gradient-40);}.cls-44{fill:url(#linear-gradient-41);}.cls-45{fill:url(#linear-gradient-42);}.cls-46{fill:url(#linear-gradient-43);}.cls-47{fill:url(#linear-gradient-44);}.cls-48{fill:url(#linear-gradient-45);}.cls-49{fill:url(#linear-gradient-46);}.cls-50{fill:url(#linear-gradient-47);}.cls-51{fill:url(#linear-gradient-48);}.cls-52{fill:url(#linear-gradient-49);}.cls-53{fill:url(#linear-gradient-50);}.cls-54{fill:url(#linear-gradient-51);}.cls-55{fill:url(#linear-gradient-52);}.cls-56{fill:url(#linear-gradient-53);}.cls-57{fill:url(#linear-gradient-54);}.cls-58{fill:url(#linear-gradient-55);}.cls-59{fill:url(#linear-gradient-56);}.cls-60{fill:url(#linear-gradient-57);}.cls-61{fill:url(#linear-gradient-58);}.cls-62{fill:url(#linear-gradient-59);}.cls-63{fill:url(#linear-gradient-60);}.cls-64{fill:url(#linear-gradient-61);}.cls-65{fill:url(#linear-gradient-62);}.cls-66{fill:url(#linear-gradient-63);}.cls-67{fill:url(#linear-gradient-64);}.cls-68{fill:url(#linear-gradient-65);}.cls-69{fill:url(#linear-gradient-66);}.cls-70{fill:url(#linear-gradient-67);}.cls-71{fill:url(#linear-gradient-68);}.cls-72{fill:url(#linear-gradient-69);}.cls-73{fill:url(#linear-gradient-70);}.cls-74{fill:url(#linear-gradient-71);}.cls-75{fill:url(#linear-gradient-72);}.cls-76{fill:url(#linear-gradient-73);}.cls-77{fill:url(#linear-gradient-74);}.cls-78{fill:url(#linear-gradient-75);}.cls-79{fill:url(#linear-gradient-76);}.cls-80{fill:url(#linear-gradient-77);}.cls-81{fill:url(#linear-gradient-78);}.cls-82{fill:url(#linear-gradient-79);}.cls-83{fill:url(#linear-gradient-80);}.cls-84{fill:url(#linear-gradient-81);}.cls-85{fill:url(#linear-gradient-82);}.cls-86{fill:url(#linear-gradient-83);}.cls-87{fill:url(#linear-gradient-84);}.cls-88{fill:url(#linear-gradient-85);}.cls-89{fill:url(#linear-gradient-86);}.cls-90{fill:url(#linear-gradient-87);}.cls-91{fill:url(#linear-gradient-88);}.cls-92{fill:url(#linear-gradient-89);}.cls-93{fill:url(#linear-gradient-90);}.cls-94{fill:url(#linear-gradient-91);}.cls-95{fill:url(#linear-gradient-92);}.cls-96{fill:url(#linear-gradient-93);}.cls-97{fill:url(#linear-gradient-94);}.cls-98{fill:url(#linear-gradient-95);}.cls-99{fill:url(#linear-gradient-96);}.cls-100{fill:url(#linear-gradient-97);}.cls-101{fill:url(#linear-gradient-98);}.cls-102{fill:url(#linear-gradient-99);}.cls-103{fill:url(#linear-gradient-100);}.cls-104{fill:url(#linear-gradient-101);}.cls-105{fill:url(#linear-gradient-102);}.cls-106{fill:url(#linear-gradient-103);}.cls-107{fill:url(#linear-gradient-104);}.cls-108{fill:url(#linear-gradient-105);}.cls-109{fill:url(#linear-gradient-106);}</style><linearGradient id="linear-gradient" x1="677.23" y1="-61.23" x2="690.44" y2="-61.23" gradientTransform="matrix(1, 0.05, 0.05, -1, -588.1, -63.8)" gradientUnits="userSpaceOnUse"><stop offset="0.01" stop-color="#526133"/><stop offset="1" stop-color="#528c33"/></linearGradient><linearGradient id="linear-gradient-2" x1="-67.73" y1="422.86" x2="-58.41" y2="422.86" gradientTransform="matrix(0.21, -0.98, 0.98, 0.21, -309.19, -122.24)" gradientUnits="userSpaceOnUse"><stop offset="0.01" stop-color="#528c33"/><stop offset="1" stop-color="#85ad00"/></linearGradient><linearGradient id="linear-gradient-3" x1="-61.55" y1="428.09" x2="-57.48" y2="428.09" xlink:href="#linear-gradient-2"/><linearGradient id="linear-gradient-4" x1="-61.17" y1="428.12" x2="-57.45" y2="428.12" gradientTransform="matrix(0.21, -0.98, 0.98, 0.21, -309.19, -122.24)" gradientUnits="userSpaceOnUse"><stop offset="0" stop-color="#409633"/><stop offset="0.13" stop-color="#60a949"/><stop offset="0.31" stop-color="#88c165"/><stop offset="0.49" stop-color="#a7d37a"/><stop offset="0.67" stop-color="#bde08a"/><stop offset="0.84" stop-color="#cae893"/><stop offset="0.99" stop-color="#cfeb96"/></linearGradient><linearGradient id="linear-gradient-5" x1="-60.87" y1="428.27" x2="-57.75" y2="428.27" gradientTransform="matrix(0.21, -0.98, 0.98, 0.21, -309.19, -122.24)" xlink:href="#linear-gradient"/><linearGradient id="linear-gradient-6" x1="-1.23" y1="429.19" x2="1.98" y2="429.19" gradientTransform="matrix(0.22, -1.28, 0.94, 0.2, -311.06, -54.64)" xlink:href="#linear-gradient-4"/><linearGradient id="linear-gradient-7" x1="-66.34" y1="421.68" x2="-57.91" y2="421.68" xlink:href="#linear-gradient-4"/><linearGradient id="linear-gradient-8" x1="-61.55" y1="428.01" x2="-57.6" y2="428.01" xlink:href="#linear-gradient-4"/><linearGradient id="linear-gradient-9" x1="592.23" y1="-70.73" x2="685.05" y2="-70.73" gradientTransform="matrix(1, 0.05, 0.05, -1, -588.1, -63.8)" gradientUnits="userSpaceOnUse"><stop offset="0" stop-color="#a3de4b"/><stop offset="0.59" stop-color="#528c33"/></linearGradient><linearGradient id="linear-gradient-10" x1="747.42" y1="13.45" x2="829.7" y2="13.45" gradientTransform="matrix(0.91, 0.41, 0.41, -0.91, -678.1, -274.04)" gradientUnits="userSpaceOnUse"><stop offset="0.01" stop-color="#e0ffcc"/><stop offset="0.19" stop-color="#a7db6a"/><stop offset="0.22" stop-color="#a2d465"/><stop offset="0.36" stop-color="#89b350"/><stop offset="0.51" stop-color="#75993f"/><stop offset="0.66" stop-color="#678733"/><stop offset="0.82" stop-color="#5f7c2b"/><stop offset="1" stop-color="#5c7829"/></linearGradient><linearGradient id="linear-gradient-11" x1="743.19" y1="-5.47" x2="822.29" y2="47.2" gradientTransform="matrix(0.91, 0.41, 0.41, -0.91, -678.1, -274.04)" gradientUnits="userSpaceOnUse"><stop offset="0.01" stop-color="#e0ffcc"/><stop offset="0.31" stop-color="#a7db6a"/><stop offset="0.33" stop-color="#a2d465"/><stop offset="0.46" stop-color="#89b350"/><stop offset="0.58" stop-color="#75993f"/><stop offset="0.71" stop-color="#678733"/><stop offset="0.85" stop-color="#5f7c2b"/><stop offset="1" stop-color="#5c7829"/></linearGradient><linearGradient id="linear-gradient-12" x1="592.2" y1="-64.46" x2="683.15" y2="-64.46" gradientTransform="matrix(1, 0.05, 0.05, -1, -588.1, -63.8)" gradientUnits="userSpaceOnUse"><stop offset="0.01" stop-color="#e0ffcc"/><stop offset="0.14" stop-color="#baeb00"/><stop offset="0.16" stop-color="#b3e400"/><stop offset="0.31" stop-color="#87b403"/><stop offset="0.45" stop-color="#628d05"/><stop offset="0.6" stop-color="#466e06"/><stop offset="0.74" stop-color="#315907"/><stop offset="0.88" stop-color="#254b08"/><stop offset="1" stop-color="#214708"/></linearGradient><linearGradient id="linear-gradient-13" x1="592.23" y1="-75.33" x2="685.05" y2="-75.33" gradientTransform="matrix(1, 0.05, 0.05, -1, -588.1, -63.8)" gradientUnits="userSpaceOnUse"><stop offset="0" stop-color="#e0ffcc"/><stop offset="0.09" stop-color="#baeb00"/><stop offset="0.17" stop-color="#9fce01"/><stop offset="0.3" stop-color="#79a503"/><stop offset="0.43" stop-color="#598305"/><stop offset="0.57" stop-color="#406906"/><stop offset="0.71" stop-color="#2f5607"/><stop offset="0.85" stop-color="#244b08"/><stop offset="1" stop-color="#214708"/></linearGradient><linearGradient id="linear-gradient-14" x1="592.24" y1="-64.45" x2="680.61" y2="-64.45" gradientTransform="matrix(1, 0.05, 0.05, -1, -588.1, -63.8)" gradientUnits="userSpaceOnUse"><stop offset="0" stop-color="#e0ffcc"/><stop offset="0.13" stop-color="#d4f26e"/><stop offset="0.48" stop-color="#528c33"/><stop offset="0.62" stop-color="#4e872d"/><stop offset="0.8" stop-color="#42771d"/><stop offset="1" stop-color="#305f03"/></linearGradient><linearGradient id="linear-gradient-15" x1="592.47" y1="-77.35" x2="684.98" y2="-77.35" gradientTransform="matrix(1, 0.05, 0.05, -1, -588.1, -63.8)" gradientUnits="userSpaceOnUse"><stop offset="0" stop-color="#e0ffcc"/><stop offset="0.15" stop-color="#528c33"/><stop offset="0.17" stop-color="#498027"/><stop offset="0.22" stop-color="#3b6e13"/><stop offset="0.26" stop-color="#336307"/><stop offset="0.3" stop-color="#305f03"/><stop offset="1" stop-color="#1c3603"/></linearGradient><linearGradient id="linear-gradient-16" x1="595.78" y1="-81.92" x2="615.98" y2="-81.92" gradientTransform="matrix(1, 0.05, 0.05, -1, -588.1, -63.8)" gradientUnits="userSpaceOnUse"><stop offset="0" stop-color="#dff1c1"/><stop offset="0.6" stop-color="#c7e878"/><stop offset="0.8" stop-color="#8ecb57"/><stop offset="1" stop-color="#52ad33"/></linearGradient><linearGradient id="linear-gradient-17" x1="676.07" y1="-82.56" x2="668.59" y2="-73.07" gradientTransform="matrix(1, 0.05, 0.05, -1, -588.1, -63.8)" gradientUnits="userSpaceOnUse"><stop offset="0.01" stop-color="#75ab33"/><stop offset="0.15" stop-color="#70a52f"/><stop offset="0.33" stop-color="#619525"/><stop offset="0.54" stop-color="#487a14"/><stop offset="0.7" stop-color="#305f03"/><stop offset="0.92" stop-color="#305203"/></linearGradient><linearGradient id="linear-gradient-18" x1="782.18" y1="11.65" x2="785.65" y2="12.04" gradientTransform="matrix(0.85, 0.53, 0.53, -0.85, -630.96, -365.89)" gradientUnits="userSpaceOnUse"><stop offset="0" stop-color="#82b64b"/><stop offset="0.13" stop-color="#528c33"/><stop offset="0.45" stop-color="#3a6c11"/><stop offset="0.63" stop-color="#305f03"/><stop offset="1" stop-color="#304503"/></linearGradient><linearGradient id="linear-gradient-19" x1="784.86" y1="12.98" x2="786.02" y2="13.17" gradientTransform="matrix(0.85, 0.53, 0.53, -0.85, -632.85, -364.8)" gradientUnits="userSpaceOnUse"><stop offset="0" stop-color="#94c554"/><stop offset="0.45" stop-color="#528c33"/><stop offset="0.77" stop-color="#3a6c11"/><stop offset="0.96" stop-color="#305f03"/></linearGradient><linearGradient id="linear-gradient-20" x1="768.56" y1="6.35" x2="772.04" y2="6.75" gradientTransform="matrix(0.85, 0.53, 0.53, -0.85, -631.2, -363.97)" xlink:href="#linear-gradient-9"/><linearGradient id="linear-gradient-21" x1="770.11" y1="6.77" x2="771.27" y2="6.96" gradientTransform="matrix(0.85, 0.53, 0.53, -0.85, -631.08, -364.29)" xlink:href="#linear-gradient-19"/><linearGradient id="linear-gradient-22" x1="789.25" y1="15.57" x2="792.73" y2="15.97" gradientTransform="matrix(0.85, 0.53, 0.53, -0.85, -633.28, -363.69)" xlink:href="#linear-gradient-18"/><linearGradient id="linear-gradient-23" x1="792.14" y1="12.07" x2="793.3" y2="12.26" gradientTransform="matrix(0.85, 0.53, 0.53, -0.85, -632.27, -365.55)" xlink:href="#linear-gradient-19"/><linearGradient id="linear-gradient-24" x1="791.07" y1="18" x2="794.55" y2="18.39" gradientTransform="matrix(0.85, 0.53, 0.53, -0.85, -631.15, -367.31)" xlink:href="#linear-gradient-18"/><linearGradient id="linear-gradient-25" x1="791.19" y1="22.19" x2="792.35" y2="22.38" gradientTransform="matrix(0.85, 0.53, 0.53, -0.85, -632.07, -365.66)" xlink:href="#linear-gradient-19"/><linearGradient id="linear-gradient-26" x1="798.4" y1="24" x2="801.87" y2="24.4" gradientTransform="matrix(0.85, 0.53, 0.53, -0.85, -633.78, -365.33)" xlink:href="#linear-gradient-18"/><linearGradient id="linear-gradient-27" x1="801.31" y1="20.3" x2="802.47" y2="20.48" gradientTransform="matrix(0.85, 0.53, 0.53, -0.85, -632.64, -367.11)" xlink:href="#linear-gradient-19"/><linearGradient id="linear-gradient-28" x1="798.97" y1="25.07" x2="802.45" y2="25.46" gradientTransform="matrix(0.85, 0.53, 0.53, -0.85, -631.34, -368.9)" xlink:href="#linear-gradient-18"/><linearGradient id="linear-gradient-29" x1="799.12" y1="29.02" x2="800.28" y2="29.2" gradientTransform="matrix(0.85, 0.53, 0.53, -0.85, -632.2, -367.19)" xlink:href="#linear-gradient-19"/><linearGradient id="linear-gradient-30" x1="806.84" y1="20.62" x2="810.32" y2="21.02" gradientTransform="matrix(0.85, 0.53, 0.53, -0.85, -630.56, -369.2)" xlink:href="#linear-gradient-18"/><linearGradient id="linear-gradient-31" x1="808.2" y1="25.19" x2="809.36" y2="25.37" gradientTransform="matrix(0.85, 0.53, 0.53, -0.85, -633, -366.08)" xlink:href="#linear-gradient-19"/><linearGradient id="linear-gradient-32" x1="804.31" y1="17.69" x2="807.78" y2="18.08" gradientTransform="matrix(0.85, 0.53, 0.53, -0.85, -632.46, -365.42)" xlink:href="#linear-gradient-18"/><linearGradient id="linear-gradient-33" x1="806.02" y1="13.53" x2="807.17" y2="13.71" gradientTransform="matrix(0.85, 0.53, 0.53, -0.85, -629.61, -368.87)" xlink:href="#linear-gradient-19"/><linearGradient id="linear-gradient-34" x1="796.69" y1="13.06" x2="800.16" y2="13.46" gradientTransform="matrix(0.85, 0.53, 0.53, -0.85, -632.54, -364.39)" xlink:href="#linear-gradient-18"/><linearGradient id="linear-gradient-35" x1="798.43" y1="8.83" x2="799.58" y2="9.02" gradientTransform="matrix(0.85, 0.53, 0.53, -0.85, -629.76, -367.37)" xlink:href="#linear-gradient-19"/><linearGradient id="linear-gradient-36" x1="788.97" y1="1.6" x2="792.44" y2="2" gradientTransform="matrix(0.85, 0.53, 0.53, -0.85, -629.37, -366.05)" xlink:href="#linear-gradient-18"/><linearGradient id="linear-gradient-37" x1="790.51" y1="2.03" x2="791.66" y2="2.21" gradientTransform="matrix(0.85, 0.53, 0.53, -0.85, -629.26, -366.37)" xlink:href="#linear-gradient-19"/><linearGradient id="linear-gradient-38" x1="778.53" y1="-4.08" x2="782" y2="-3.69" gradientTransform="matrix(0.85, 0.53, 0.53, -0.85, -629.21, -364.72)" gradientUnits="userSpaceOnUse"><stop offset="0" stop-color="#82b64b"/><stop offset="0.47" stop-color="#528c33"/><stop offset="0.81" stop-color="#3a6c11"/><stop offset="1" stop-color="#305f03"/></linearGradient><linearGradient id="linear-gradient-39" x1="780.07" y1="-3.67" x2="781.22" y2="-3.48" gradientTransform="matrix(0.85, 0.53, 0.53, -0.85, -629.25, -364.8)" xlink:href="#linear-gradient-19"/><linearGradient id="linear-gradient-40" x1="814.28" y1="19.15" x2="817.75" y2="19.55" gradientTransform="matrix(0.85, 0.53, 0.53, -0.85, -629.84, -370.07)" xlink:href="#linear-gradient-18"/><linearGradient id="linear-gradient-41" x1="815.82" y1="19.53" x2="816.98" y2="19.71" gradientTransform="matrix(0.85, 0.53, 0.53, -0.85, -629.69, -370.38)" xlink:href="#linear-gradient-19"/><linearGradient id="linear-gradient-42" x1="809.53" y1="33.86" x2="813" y2="34.26" gradientTransform="matrix(0.85, 0.53, 0.53, -0.85, -631.71, -370.67)" xlink:href="#linear-gradient-18"/><linearGradient id="linear-gradient-43" x1="811.08" y1="34.27" x2="812.24" y2="34.45" gradientTransform="matrix(0.85, 0.53, 0.53, -0.85, -632.14, -370.02)" xlink:href="#linear-gradient-19"/><linearGradient id="linear-gradient-44" x1="818.07" y1="31.49" x2="821.55" y2="31.88" gradientTransform="matrix(0.85, 0.53, 0.53, -0.85, -630.9, -371.52)" xlink:href="#linear-gradient-18"/><linearGradient id="linear-gradient-45" x1="818.17" y1="36.65" x2="819.33" y2="36.83" gradientTransform="matrix(0.85, 0.53, 0.53, -0.85, -632.71, -368.91)" xlink:href="#linear-gradient-19"/><linearGradient id="linear-gradient-46" x1="797.61" y1="38.2" x2="801.09" y2="38.59" gradientTransform="matrix(0.85, 0.53, 0.53, -0.85, -633.63, -367.33)" xlink:href="#linear-gradient-18"/><linearGradient id="linear-gradient-47" x1="799.05" y1="38.55" x2="800.21" y2="38.74" gradientTransform="matrix(0.85, 0.53, 0.53, -0.85, -633.63, -367.39)" xlink:href="#linear-gradient-19"/><linearGradient id="linear-gradient-48" x1="868.23" y1="-108.19" x2="871.7" y2="-107.79" gradientTransform="matrix(0.85, 0.41, 0.53, -0.65, -632.58, -400.71)" xlink:href="#linear-gradient-18"/><linearGradient id="linear-gradient-49" x1="870.78" y1="-106.59" x2="871.94" y2="-106.41" gradientTransform="matrix(0.85, 0.41, 0.53, -0.65, -634.57, -399.54)" xlink:href="#linear-gradient-19"/><linearGradient id="linear-gradient-50" x1="853.53" y1="-119" x2="857" y2="-118.6" gradientTransform="matrix(0.85, 0.41, 0.53, -0.65, -632.29, -398.33)" xlink:href="#linear-gradient-18"/><linearGradient id="linear-gradient-51" x1="855.12" y1="-119.69" x2="856.27" y2="-119.51" gradientTransform="matrix(0.85, 0.41, 0.53, -0.65, -631.64, -399.08)" xlink:href="#linear-gradient-19"/><linearGradient id="linear-gradient-52" x1="865.37" y1="-114.37" x2="868.84" y2="-113.97" gradientTransform="matrix(0.85, 0.41, 0.53, -0.65, -632.44, -399.62)" xlink:href="#linear-gradient-18"/><linearGradient id="linear-gradient-53" x1="866.85" y1="-114.17" x2="868.01" y2="-113.98" gradientTransform="matrix(0.85, 0.41, 0.53, -0.65, -632.32, -399.9)" xlink:href="#linear-gradient-19"/><linearGradient id="linear-gradient-54" x1="371.13" y1="-399.68" x2="384.34" y2="-399.68" gradientTransform="matrix(0.84, -0.54, -0.54, -0.84, -423.51, -124.12)" xlink:href="#linear-gradient"/><linearGradient id="linear-gradient-55" x1="-449.79" y1="175.58" x2="-440.46" y2="175.58" gradientTransform="translate(-225.76 -335.35) rotate(-112.97)" xlink:href="#linear-gradient-2"/><linearGradient id="linear-gradient-56" x1="-443.61" y1="180.84" x2="-439.55" y2="180.84" gradientTransform="translate(-225.76 -335.35) rotate(-112.97)" xlink:href="#linear-gradient-2"/><linearGradient id="linear-gradient-57" x1="-443.22" y1="180.83" x2="-439.52" y2="180.83" gradientTransform="translate(-225.76 -335.35) rotate(-112.97)" xlink:href="#linear-gradient-4"/><linearGradient id="linear-gradient-58" x1="-442.92" y1="180.99" x2="-439.82" y2="180.99" gradientTransform="translate(-225.76 -335.35) rotate(-112.97)" xlink:href="#linear-gradient"/><linearGradient id="linear-gradient-59" x1="-297.1" y1="155.49" x2="-293.89" y2="155.49" gradientTransform="matrix(-0.56, -1.17, 0.88, -0.38, -190.1, -277.05)" xlink:href="#linear-gradient-4"/><linearGradient id="linear-gradient-60" x1="-448.4" y1="174.38" x2="-439.97" y2="174.38" gradientTransform="translate(-225.76 -335.35) rotate(-112.97)" xlink:href="#linear-gradient-4"/><linearGradient id="linear-gradient-61" x1="-443.61" y1="180.77" x2="-439.67" y2="180.77" gradientTransform="translate(-225.76 -335.35) rotate(-112.97)" xlink:href="#linear-gradient-4"/><linearGradient id="linear-gradient-62" x1="286.15" y1="-409.2" x2="378.96" y2="-409.2" gradientTransform="matrix(0.84, -0.54, -0.54, -0.84, -423.51, -124.12)" gradientUnits="userSpaceOnUse"><stop offset="0" stop-color="#dbf7ab"/><stop offset="0.23" stop-color="#a3de4b"/><stop offset="0.61" stop-color="#528c33"/></linearGradient><linearGradient id="linear-gradient-63" x1="587.31" y1="-412.9" x2="669.66" y2="-412.9" gradientTransform="matrix(0.98, -0.19, -0.19, -0.98, -618.09, -243.42)" xlink:href="#linear-gradient-10"/><linearGradient id="linear-gradient-64" x1="583" y1="-431.89" x2="662.09" y2="-379.22" gradientTransform="matrix(0.98, -0.19, -0.19, -0.98, -618.09, -243.42)" xlink:href="#linear-gradient-11"/><linearGradient id="linear-gradient-65" x1="286.15" y1="-402.89" x2="377.06" y2="-402.89" gradientTransform="matrix(0.84, -0.54, -0.54, -0.84, -423.51, -124.12)" xlink:href="#linear-gradient-12"/><linearGradient id="linear-gradient-66" x1="286.15" y1="-413.79" x2="378.96" y2="-413.79" gradientTransform="matrix(0.84, -0.54, -0.54, -0.84, -423.51, -124.12)" xlink:href="#linear-gradient-13"/><linearGradient id="linear-gradient-67" x1="286.15" y1="-402.89" x2="374.52" y2="-402.89" gradientTransform="matrix(0.84, -0.54, -0.54, -0.84, -423.51, -124.12)" xlink:href="#linear-gradient-14"/><linearGradient id="linear-gradient-68" x1="286.4" y1="-415.83" x2="378.89" y2="-415.83" gradientTransform="matrix(0.84, -0.54, -0.54, -0.84, -423.51, -124.12)" xlink:href="#linear-gradient-15"/><linearGradient id="linear-gradient-69" x1="289.7" y1="-420.38" x2="309.9" y2="-420.38" gradientTransform="matrix(0.84, -0.54, -0.54, -0.84, -423.51, -124.12)" xlink:href="#linear-gradient-16"/><linearGradient id="linear-gradient-70" x1="370.25" y1="-420.26" x2="362.77" y2="-410.76" gradientTransform="matrix(0.84, -0.54, -0.54, -0.84, -423.51, -124.12)" xlink:href="#linear-gradient-17"/><linearGradient id="linear-gradient-71" x1="621.94" y1="-410.19" x2="625.41" y2="-409.79" gradientTransform="matrix(0.85, 0.53, 0.53, -0.85, -239.06, -635.74)" xlink:href="#linear-gradient-18"/><linearGradient id="linear-gradient-72" x1="623.52" y1="-414.34" x2="624.68" y2="-414.16" gradientTransform="matrix(0.85, 0.53, 0.53, -0.85, -238.27, -637.95)" xlink:href="#linear-gradient-19"/><linearGradient id="linear-gradient-73" x1="608.33" y1="-415.52" x2="611.8" y2="-415.12" gradientTransform="matrix(0.85, 0.53, 0.53, -0.85, -237.03, -625.25)" xlink:href="#linear-gradient-9"/><linearGradient id="linear-gradient-74" x1="609.91" y1="-419.67" x2="611.07" y2="-419.49" gradientTransform="matrix(0.85, 0.53, 0.53, -0.85, -235.85, -627.61)" xlink:href="#linear-gradient-19"/><linearGradient id="linear-gradient-75" x1="629" y1="-411.64" x2="632.47" y2="-411.24" gradientTransform="matrix(0.85, 0.53, 0.53, -0.85, -236.8, -641.2)" xlink:href="#linear-gradient-18"/><linearGradient id="linear-gradient-76" x1="630.51" y1="-411.01" x2="631.67" y2="-410.83" gradientTransform="matrix(0.85, 0.53, 0.53, -0.85, -237.25, -641.49)" xlink:href="#linear-gradient-19"/><linearGradient id="linear-gradient-77" x1="630.63" y1="-404.39" x2="634.1" y2="-403.99" gradientTransform="matrix(0.85, 0.53, 0.53, -0.85, -241.83, -643.34)" xlink:href="#linear-gradient-18"/><linearGradient id="linear-gradient-78" x1="632.35" y1="-408.12" x2="633.51" y2="-407.94" gradientTransform="matrix(0.85, 0.53, 0.53, -0.85, -242, -645.11)" xlink:href="#linear-gradient-19"/><linearGradient id="linear-gradient-79" x1="638.18" y1="-403.39" x2="641.65" y2="-403" gradientTransform="matrix(0.85, 0.53, 0.53, -0.85, -241.54, -648.9)" xlink:href="#linear-gradient-18"/><linearGradient id="linear-gradient-80" x1="639.9" y1="-407.14" x2="641.06" y2="-406.95" gradientTransform="matrix(0.85, 0.53, 0.53, -0.85, -240.53, -651.24)" xlink:href="#linear-gradient-19"/><linearGradient id="linear-gradient-81" x1="638.71" y1="-401.44" x2="642.18" y2="-401.04" gradientTransform="matrix(0.85, 0.53, 0.53, -0.85, -245.07, -651.75)" xlink:href="#linear-gradient-18"/><linearGradient id="linear-gradient-82" x1="640.33" y1="-400.9" x2="641.48" y2="-400.71" gradientTransform="matrix(0.85, 0.53, 0.53, -0.85, -245.4, -652)" xlink:href="#linear-gradient-19"/><linearGradient id="linear-gradient-83" x1="646.65" y1="-405.78" x2="650.12" y2="-405.39" gradientTransform="matrix(0.85, 0.53, 0.53, -0.85, -240.72, -656.81)" xlink:href="#linear-gradient-18"/><linearGradient id="linear-gradient-84" x1="648.19" y1="-405.39" x2="649.35" y2="-405.21" gradientTransform="matrix(0.85, 0.53, 0.53, -0.85, -240.64, -657.29)" xlink:href="#linear-gradient-19"/><linearGradient id="linear-gradient-85" x1="644.27" y1="-413.23" x2="647.75" y2="-412.83" gradientTransform="matrix(0.85, 0.53, 0.53, -0.85, -236.02, -653.94)" xlink:href="#linear-gradient-18"/><linearGradient id="linear-gradient-86" x1="645.82" y1="-412.84" x2="646.98" y2="-412.66" gradientTransform="matrix(0.85, 0.53, 0.53, -0.85, -235.21, -654.76)" xlink:href="#linear-gradient-19"/><linearGradient id="linear-gradient-87" x1="636.68" y1="-418.13" x2="640.15" y2="-417.73" gradientTransform="matrix(0.85, 0.53, 0.53, -0.85, -233.14, -648)" xlink:href="#linear-gradient-18"/><linearGradient id="linear-gradient-88" x1="638.23" y1="-417.73" x2="639.39" y2="-417.55" gradientTransform="matrix(0.85, 0.53, 0.53, -0.85, -234.28, -647.93)" xlink:href="#linear-gradient-19"/><linearGradient id="linear-gradient-89" x1="628.7" y1="-424.93" x2="632.17" y2="-424.54" gradientTransform="matrix(0.85, 0.53, 0.53, -0.85, -228.98, -641.68)" xlink:href="#linear-gradient-18"/><linearGradient id="linear-gradient-90" x1="630.32" y1="-424.38" x2="631.48" y2="-424.2" gradientTransform="matrix(0.85, 0.53, 0.53, -0.85, -229.81, -641.7)" xlink:href="#linear-gradient-19"/><linearGradient id="linear-gradient-91" x1="618.33" y1="-430.49" x2="621.8" y2="-430.09" gradientTransform="matrix(0.85, 0.53, 0.53, -0.85, -226.65, -633.16)" xlink:href="#linear-gradient-38"/><linearGradient id="linear-gradient-92" x1="619.61" y1="-425.9" x2="620.77" y2="-425.72" gradientTransform="matrix(0.85, 0.53, 0.53, -0.85, -227.97, -631.67)" xlink:href="#linear-gradient-19"/><linearGradient id="linear-gradient-93" x1="653.83" y1="-403.2" x2="657.3" y2="-402.8" gradientTransform="matrix(0.85, 0.53, 0.53, -0.85, -239.59, -660.2)" xlink:href="#linear-gradient-18"/><linearGradient id="linear-gradient-94" x1="655.56" y1="-406.99" x2="656.71" y2="-406.8" gradientTransform="matrix(0.85, 0.53, 0.53, -0.85, -238.58, -662.54)" xlink:href="#linear-gradient-19"/><linearGradient id="linear-gradient-95" x1="649.09" y1="-388.54" x2="652.56" y2="-388.14" gradientTransform="matrix(0.85, 0.53, 0.53, -0.85, -250.78, -658.71)" xlink:href="#linear-gradient-18"/><linearGradient id="linear-gradient-96" x1="650.88" y1="-392.1" x2="652.03" y2="-391.91" gradientTransform="matrix(0.85, 0.53, 0.53, -0.85, -249.86, -660.98)" xlink:href="#linear-gradient-19"/><linearGradient id="linear-gradient-97" x1="657.81" y1="-395.03" x2="661.28" y2="-394.63" gradientTransform="matrix(0.85, 0.53, 0.53, -0.85, -247.17, -666.34)" xlink:href="#linear-gradient-18"/><linearGradient id="linear-gradient-98" x1="659.39" y1="-389.45" x2="660.55" y2="-389.27" gradientTransform="matrix(0.85, 0.53, 0.53, -0.85, -249.29, -664.33)" xlink:href="#linear-gradient-19"/><linearGradient id="linear-gradient-99" x1="638.74" y1="-392.17" x2="642.21" y2="-391.77" gradientTransform="matrix(0.85, 0.53, 0.53, -0.85, -251.57, -652.91)" xlink:href="#linear-gradient-18"/><linearGradient id="linear-gradient-100" x1="640.09" y1="-387.47" x2="641.24" y2="-387.29" gradientTransform="matrix(0.85, 0.53, 0.53, -0.85, -252.99, -651.24)" xlink:href="#linear-gradient-19"/><linearGradient id="linear-gradient-101" x1="754.9" y1="-606.66" x2="758.37" y2="-606.26" gradientTransform="matrix(0.85, 0.41, 0.53, -0.65, -247.83, -675.08)" xlink:href="#linear-gradient-18"/><linearGradient id="linear-gradient-102" x1="751.57" y1="-593.84" x2="752.73" y2="-593.66" gradientTransform="matrix(0.85, 0.41, 0.53, -0.66, -248.88, -670.81)" xlink:href="#linear-gradient-19"/><linearGradient id="linear-gradient-103" x1="740.32" y1="-617.03" x2="743.79" y2="-616.63" gradientTransform="matrix(0.85, 0.41, 0.53, -0.65, -242.7, -662.78)" xlink:href="#linear-gradient-18"/><linearGradient id="linear-gradient-104" x1="741.62" y1="-617.24" x2="742.77" y2="-617.06" gradientTransform="matrix(0.85, 0.41, 0.53, -0.65, -242.31, -663.53)" xlink:href="#linear-gradient-19"/><linearGradient id="linear-gradient-105" x1="747.42" y1="-601.06" x2="750.89" y2="-600.66" gradientTransform="matrix(0.85, 0.41, 0.53, -0.66, -244.78, -667.41)" xlink:href="#linear-gradient-18"/><linearGradient id="linear-gradient-106" x1="748.75" y1="-600.47" x2="749.9" y2="-600.29" gradientTransform="matrix(0.85, 0.41, 0.53, -0.66, -245.11, -667.65)" xlink:href="#linear-gradient-19"/></defs><title>Asset 1</title><g id="Layer_2" data-name="Layer 2"><g id="Layer_1-2" data-name="Layer 1"><path class="cls-1" d="M96.32,24.37c-1.72,2.71-7.28,4-10.79,6,.33.73.94,2.74,1.49,3.18a11.42,11.42,0,0,1,4.48-2.74c2.45-.69,7.34-2.17,7.34-2.17C95.94,27.75,96.32,24.37,96.32,24.37Z"/><path class="cls-2" d="M97.8,27.92a20.32,20.32,0,0,0-11.5,4.3c-.15-.18-.45-1.22-.58-1.43a3.73,3.73,0,0,1,1.07-.93c1.47-.81,8.89-3.6,9.4-5C96.19,24.83,96,27.67,97.8,27.92Z"/><path class="cls-3" d="M96.38,24.35c-1.2.65.07,3.55,2.21,4.21S99.07,22.9,96.38,24.35Z"/><path class="cls-4" d="M96.32,24.45a.82.82,0,0,0-.27.24.81.81,0,0,1,.35-.37c2.24-1.21,3.75,3,3,4C99.92,27.09,98.43,23.29,96.32,24.45Z"/><path class="cls-5" d="M96.92,24.75c-.82.84.78,2.83,1.55,3.09s1-.79.63-1.77S97.73,23.91,96.92,24.75Z"/><path class="cls-6" d="M96.54,28a15.1,15.1,0,0,0-7.66,2.64A34,34,0,0,1,96.54,28Z"/><path class="cls-7" d="M96.32,24.9c-1.88,2.55-7.23,3.8-10.64,5.76-.06-.11-.11-.21-.16-.32,3.51-2,9.09-3.29,10.81-6A4.31,4.31,0,0,0,96.32,24.9Z"/><path class="cls-8" d="M96.41,24.35a1.82,1.82,0,0,1,.51-.19l-.2.09c-1.2.64.07,3.55,2.21,4.21a.94.94,0,0,0,.31,0,.7.7,0,0,1-.62,0C96.48,27.91,95.22,25,96.41,24.35Z"/><path class="cls-9" d="M.2,40.2A15.36,15.36,0,0,0,10.76,50.93c7.18,2.08,27.63,6,52.92,1.37s31.94-17.13,28.89-24c0,0-3.47-9.6-19.94-9.15S36.45,26,25.27,25.85-1.78,30.67.2,40.2Z"/><path class="cls-10" d="M84.47,36c-5.17,1.84-23,6.31-29,6.9S33.66,45.6,22.32,44.49A111.76,111.76,0,0,1,.14,40.11v.09A15.36,15.36,0,0,0,10.7,50.93c7.18,2.08,27.63,6,52.92,1.37C87.87,47.86,95,36.19,92.83,29.17h0S89.63,34.21,84.47,36Z"/><path class="cls-11" d="M92,27.12c-1.54-2.55-6.47-8.32-19.34-8-16.47.45-36.18,6.82-47.36,6.7S-1.78,30.63.2,40.17v.15c.07-.1.13-.22.21-.36C3,35,14.22,31.26,23.27,32.74S57,31.1,65.1,28.86s13.14-4.14,17.58-4.74C86.23,23.67,90.39,26.09,92,27.12Z"/><path class="cls-12" d="M20.82,31.72c13,2.08,41.74-1.71,54.52-6.91,7.72-3.14,13.16-.69,16.26,1.75-1.89-2.74-7-7.73-19-7.4-16.47.45-36.18,6.82-47.36,6.7S-1.81,30.67.17,40.21C.2,40.2,7.84,29.6,20.82,31.72Z"/><path class="cls-13" d="M63.68,52.31C87.93,47.87,95,36.2,92.89,29.18,90.32,39.47,59.15,45,33.12,45.6c-24,.62-32-6.08-33.08-7.18a7.75,7.75,0,0,0,.17,1.75A15.36,15.36,0,0,0,10.77,50.9C17.94,53,38.39,56.94,63.68,52.31Z"/><path class="cls-14" d="M89.18,23.89c-2.86-2.45-7.92-5-16.54-4.74-16.47.45-36.18,6.82-47.36,6.7S-1.77,30.66.21,40.2h0a12.59,12.59,0,0,1,9-10.1c8.88-2.55,16.81-1.92,24.56-3.31S57.59,22,64.22,21.46C70.22,21,78.4,18.6,89.18,23.89Z"/><path class="cls-15" d="M63.68,52.31c20-3.66,28.34-12.24,29.44-19.07-6.8,10.23-26.44,19.15-55.8,18.93C3.88,53.65.19,40.17.19,40.17A15.36,15.36,0,0,0,10.75,50.9C17.94,53,38.39,56.94,63.68,52.31Z"/><path class="cls-16" d="M3.41,42.31s3.55,6.23,19.9,7C23.32,49.29,8,51.6,3.41,42.31Z"/><path class="cls-17" d="M89.44,36.18S82.32,45.76,66.24,48C66.24,48,83.06,43,89.44,36.18Z"/><ellipse class="cls-18" cx="41.42" cy="37.24" rx="1.74" ry="1.42" transform="translate(-4.53 5.77) rotate(-7.55)"/><ellipse class="cls-19" cx="41.58" cy="37.24" rx="1.12" ry="0.77" transform="translate(-4.55 5.82) rotate(-7.59)"/><ellipse class="cls-20" cx="40.51" cy="37.64" rx="0.7" ry="0.58" transform="translate(-4.56 5.59) rotate(-7.48)"/><ellipse class="cls-21" cx="26.83" cy="36.47" rx="1.74" ry="1.42" transform="translate(-4.56 3.84) rotate(-7.55)"/><ellipse class="cls-22" cx="25.55" cy="36.95" rx="1.12" ry="0.77" transform="translate(-4.59 3.64) rotate(-7.48)"/><ellipse class="cls-23" cx="27.37" cy="36.36" rx="0.7" ry="0.58" transform="translate(-4.55 3.92) rotate(-7.57)"/><ellipse class="cls-24" cx="46.25" cy="41.46" rx="1.74" ry="1.42" transform="translate(-5 6.37) rotate(-7.48)"/><ellipse class="cls-19" cx="47.84" cy="41.05" rx="1.12" ry="0.77" transform="translate(-4.98 6.64) rotate(-7.55)"/><ellipse class="cls-25" cx="46.73" cy="41.48" rx="0.7" ry="0.58" transform="translate(-5 6.44) rotate(-7.48)"/><ellipse class="cls-26" cx="52.13" cy="35.1" rx="1.74" ry="1.42" transform="translate(-4.16 7.15) rotate(-7.55)"/><ellipse class="cls-19" cx="50.84" cy="35.61" rx="1.12" ry="0.77" transform="translate(-4.2 6.92) rotate(-7.48)"/><ellipse class="cls-27" cx="52.68" cy="35.01" rx="0.7" ry="0.58" transform="translate(-4.15 7.24) rotate(-7.56)"/><ellipse class="cls-28" cx="58.07" cy="37.54" rx="1.74" ry="1.41" transform="translate(-4.39 7.88) rotate(-7.48)"/><ellipse class="cls-19" cx="59.61" cy="37.24" rx="1.12" ry="0.77" transform="translate(-4.39 8.18) rotate(-7.57)"/><ellipse class="cls-29" cx="58.48" cy="37.77" rx="0.7" ry="0.58" transform="translate(-4.42 7.94) rotate(-7.48)"/><ellipse class="cls-30" cx="62.24" cy="31.91" rx="1.74" ry="1.42" transform="translate(-3.66 8.48) rotate(-7.57)"/><ellipse class="cls-19" cx="62.4" cy="31.91" rx="1.12" ry="0.77" transform="translate(-3.66 8.49) rotate(-7.56)"/><ellipse class="cls-31" cx="62.78" cy="31.83" rx="0.7" ry="0.58" transform="translate(-3.65 8.55) rotate(-7.57)"/><ellipse class="cls-32" cx="67.6" cy="39.19" rx="1.74" ry="1.41" transform="translate(-4.56 9.21) rotate(-7.54)"/><ellipse class="cls-19" cx="67.75" cy="39.19" rx="1.12" ry="0.77" transform="translate(-4.56 9.24) rotate(-7.55)"/><ellipse class="cls-33" cx="66.38" cy="40.29" rx="0.7" ry="0.58" transform="translate(-4.68 8.99) rotate(-7.48)"/><ellipse class="cls-34" cx="60.77" cy="45.81" rx="1.74" ry="1.41" transform="translate(-5.45 8.3) rotate(-7.48)"/><ellipse class="cls-19" cx="62.53" cy="44.98" rx="1.12" ry="0.77" transform="translate(-5.35 8.58) rotate(-7.53)"/><ellipse class="cls-35" cx="62.89" cy="44.97" rx="0.7" ry="0.58" transform="translate(-5.38 8.68) rotate(-7.57)"/><ellipse class="cls-36" cx="51.97" cy="46.82" rx="1.74" ry="1.42" transform="translate(-5.65 7.16) rotate(-7.48)"/><ellipse class="cls-19" cx="52.17" cy="46.72" rx="1.12" ry="0.77" transform="translate(-5.64 7.19) rotate(-7.48)"/><ellipse class="cls-37" cx="53.93" cy="46.36" rx="0.7" ry="0.58" transform="translate(-5.62 7.49) rotate(-7.55)"/><ellipse class="cls-38" cx="43.49" cy="49.19" rx="1.74" ry="1.42" transform="translate(-6.09 6.14) rotate(-7.55)"/><ellipse class="cls-19" cx="43.66" cy="49.15" rx="1.12" ry="0.77" transform="translate(-6.09 6.17) rotate(-7.56)"/><ellipse class="cls-39" cx="44.03" cy="49.07" rx="0.7" ry="0.58" transform="translate(-6.08 6.23) rotate(-7.57)"/><ellipse class="cls-40" cx="31.63" cy="50.08" rx="1.74" ry="1.42" transform="translate(-6.32 4.6) rotate(-7.57)"/><ellipse class="cls-41" cx="30.32" cy="50.56" rx="1.12" ry="0.77" transform="translate(-6.32 4.38) rotate(-7.48)"/><ellipse class="cls-42" cx="32.17" cy="49.97" rx="0.7" ry="0.58" transform="translate(-6.3 4.67) rotate(-7.57)"/><ellipse class="cls-43" cx="73.77" cy="43.6" rx="1.74" ry="1.42" transform="translate(-5.09 10.07) rotate(-7.55)"/><ellipse class="cls-19" cx="73.93" cy="43.58" rx="1.12" ry="0.77" transform="translate(-5.11 10.15) rotate(-7.59)"/><ellipse class="cls-44" cx="74.3" cy="43.53" rx="0.7" ry="0.58" transform="translate(-5.09 10.17) rotate(-7.57)"/><ellipse class="cls-45" cx="75.48" cy="28.24" rx="1.74" ry="1.42" transform="translate(-3.06 10.19) rotate(-7.57)"/><ellipse class="cls-19" cx="75.67" cy="28.12" rx="1.12" ry="0.77" transform="translate(-3.04 10.19) rotate(-7.55)"/><ellipse class="cls-46" cx="76.03" cy="28.13" rx="0.7" ry="0.58" transform="translate(-3.02 10.18) rotate(-7.51)"/><ellipse class="cls-47" cx="82.29" cy="33.91" rx="1.74" ry="1.42" transform="translate(-3.75 11.14) rotate(-7.57)"/><ellipse class="cls-19" cx="82.5" cy="33.8" rx="1.12" ry="0.77" transform="translate(-3.73 11.15) rotate(-7.56)"/><ellipse class="cls-48" cx="82.82" cy="33.84" rx="0.7" ry="0.58" transform="translate(-3.72 11.13) rotate(-7.52)"/><ellipse class="cls-49" cx="65.95" cy="23.59" rx="1.74" ry="1.42" transform="translate(-2.53 8.87) rotate(-7.55)"/><ellipse class="cls-19" cx="64.44" cy="24.67" rx="1.12" ry="0.77" transform="translate(-2.66 8.6) rotate(-7.48)"/><ellipse class="cls-50" cx="66.47" cy="23.54" rx="0.7" ry="0.58" transform="translate(-2.52 8.94) rotate(-7.55)"/><ellipse class="cls-51" cx="49.75" cy="26.21" rx="1.74" ry="1.09" transform="translate(-3.02 6.77) rotate(-7.56)"/><ellipse class="cls-19" cx="49.96" cy="26.07" rx="1.12" ry="0.59" transform="translate(-3 6.8) rotate(-7.56)"/><ellipse class="cls-52" cx="48.93" cy="26.41" rx="0.7" ry="0.45" transform="translate(-3.02 6.6) rotate(-7.48)"/><ellipse class="cls-53" cx="31.89" cy="29.61" rx="1.74" ry="1.09" transform="translate(-3.62 4.45) rotate(-7.56)"/><ellipse class="cls-19" cx="32.09" cy="29.56" rx="1.12" ry="0.6" transform="translate(-3.62 4.5) rotate(-7.59)"/><ellipse class="cls-54" cx="32.43" cy="29.54" rx="0.7" ry="0.45" transform="translate(-3.62 4.55) rotate(-7.6)"/><ellipse class="cls-55" cx="44.31" cy="30.18" rx="1.74" ry="1.09" transform="translate(-3.58 6.08) rotate(-7.54)"/><ellipse class="cls-19" cx="44.5" cy="30.1" rx="1.12" ry="0.59" transform="matrix(0.99, -0.13, 0.13, 0.99, -3.57, 6.12)"/><ellipse class="cls-56" cx="44.88" cy="30" rx="0.7" ry="0.45" transform="translate(-3.55 6.16) rotate(-7.55)"/><path class="cls-57" d="M111.07,1c.17,3.2-3.64,7.45-5.33,11.13.68.4,2.35,1.69,3,1.73A11.43,11.43,0,0,1,110.8,9c1.6-2,4.73-6,4.73-6C112.75,4,111.07,1,111.07,1Z"/><path class="cls-58" d="M114.32,3a20.31,20.31,0,0,0-6.89,10.16c-.23-.06-1.07-.73-1.29-.83a3.72,3.72,0,0,1,.33-1.38c.73-1.51,5.16-8.08,4.75-9.55C111.25,1.45,112.71,3.9,114.32,3Z"/><path class="cls-59" d="M111.14.94c-.6,1.22,2.12,2.86,4.24,2.16S112.49-1.8,111.14.94Z"/><path class="cls-60" d="M111.11,1.08a.8.8,0,0,0-.08.35.81.81,0,0,1,.07-.51c1.13-2.28,4.77.24,4.76,1.55C115.61,1.14,112.19-1.11,111.11,1.08Z"/><path class="cls-61" d="M111.8,1c-.18,1.16,2.27,1.86,3,1.62s.39-1.24-.5-1.81S112-.19,111.8,1Z"/><path class="cls-62" d="M113.38,3.83a15.09,15.09,0,0,0-4.72,6.58A33.9,33.9,0,0,1,113.38,3.83Z"/><path class="cls-63" d="M111.37,1.46c-.06,3.17-3.7,7.28-5.34,10.85l-.32-.17C107.4,8.46,111.22,4.2,111,1A4.3,4.3,0,0,0,111.37,1.46Z"/><path class="cls-64" d="M111.16.93a1.78,1.78,0,0,1,.31-.45l-.11.19c-.6,1.22,2.12,2.86,4.24,2.16a.89.89,0,0,0,.28-.14.71.71,0,0,1-.48.4C113.32,3.79,110.56,2.15,111.16.93Z"/><path class="cls-65" d="M41.87,69.54a15.35,15.35,0,0,0,14.82,2.64c7.07-2.46,26-11.1,44-29.51s16.13-32.45,9.66-36.3c0,0-8.38-5.82-21.55,4.08S63.24,36.95,54,43.33,34.74,62.91,41.87,69.54Z"/><path class="cls-66" d="M108.18,17.37C105,21.86,93.1,35.81,88.56,39.76S72.32,54.6,62.43,60.21a112,112,0,0,1-20.62,9.27l.07.06A15.35,15.35,0,0,0,56.7,72.18c7.07-2.46,26-11.1,44-29.51C117.91,25,116.95,11.38,111.13,6.9h0S111.32,12.89,108.18,17.37Z"/><path class="cls-67" d="M109.14,5.76c-2.73-1.18-10.1-3-20.38,4.69C75.59,20.35,63.2,36.95,54,43.33S34.74,62.91,41.87,69.54l.12.11a4.09,4.09,0,0,0,0-.42c-.76-5.49,6.23-15.09,14.46-19.12S83,29.27,88.32,22.74s8.32-11,11.59-14C102.46,6.27,107.26,5.84,109.14,5.76Z"/><path class="cls-68" d="M53.78,50.69c11.79-5.81,33-25.55,40.46-37.19,4.48-7,10.34-8.18,14.28-8-3.13-1.14-10.17-2.26-19.75,4.94C75.6,20.34,63.21,36.94,54,43.32S34.75,62.9,41.88,69.53C41.87,69.54,42,56.5,53.78,50.69Z"/><path class="cls-69" d="M100.65,42.67C117.86,25,116.9,11.38,111.08,6.9c3.86,9.88-18.38,32.41-39.22,48C52.61,69.32,42.28,68.43,40.72,68.19a7.81,7.81,0,0,0,1.15,1.33,15.35,15.35,0,0,0,14.82,2.64C63.76,69.72,82.7,61.08,100.65,42.67Z"/><path class="cls-70" d="M105,4.74c-3.75-.35-9.34.53-16.23,5.71C75.59,20.35,63.2,36.95,54,43.33S34.74,62.91,41.87,69.54h0a12.59,12.59,0,0,1,1.45-13.43c5.76-7.22,12.6-11.29,18.11-16.91s16.63-17.72,21.74-22C87.86,13.35,93.15,6.67,105,4.74Z"/><path class="cls-71" d="M100.65,42.67c14.19-14.56,16-26.38,13-32.59C114,22.35,103.17,41,79.11,57.81,52.7,78.37,41.91,69.54,41.91,69.54a15.35,15.35,0,0,0,14.82,2.64C63.76,69.72,82.7,61.08,100.65,42.67Z"/><path class="cls-72" d="M45.71,69.4s6.5,3,20.27-5.82C66,63.6,54.87,74.31,45.71,69.4Z"/><path class="cls-73" d="M112.32,14.6s-.26,11.93-12,23.11C100.27,37.71,111,23.83,112.32,14.6Z"/><ellipse class="cls-74" cx="73.77" cy="43.31" rx="1.74" ry="1.42" transform="translate(-9.75 61.8) rotate(-42.9)"/><ellipse class="cls-19" cx="73.91" cy="43.21" rx="1.12" ry="0.77" transform="translate(-9.66 61.82) rotate(-42.87)"/><ellipse class="cls-75" cx="74.16" cy="42.91" rx="0.7" ry="0.58" transform="translate(-9.38 61.93) rotate(-42.88)"/><ellipse class="cls-76" cx="61.45" cy="51.13" rx="1.74" ry="1.42" transform="translate(-18.37 55.5) rotate(-42.9)"/><ellipse class="cls-22" cx="61.56" cy="50.97" rx="1.12" ry="0.77" transform="translate(-18.23 55.54) rotate(-42.9)"/><ellipse class="cls-77" cx="61.83" cy="50.76" rx="0.7" ry="0.58" transform="translate(-18.01 55.68) rotate(-42.91)"/><ellipse class="cls-78" cx="81.07" cy="42.72" rx="1.74" ry="1.42" transform="translate(-7.38 66.66) rotate(-42.93)"/><ellipse class="cls-19" cx="81.18" cy="42.58" rx="1.12" ry="0.77" transform="translate(-7.25 66.73) rotate(-42.95)"/><ellipse class="cls-79" cx="81.45" cy="42.3" rx="0.7" ry="0.58" transform="translate(-7 66.79) rotate(-42.92)"/><ellipse class="cls-80" cx="81.27" cy="35.28" rx="1.74" ry="1.42" transform="translate(-2.27 64.8) rotate(-42.93)"/><ellipse class="cls-19" cx="79.42" cy="35.05" rx="1.12" ry="0.77" transform="translate(-2.58 63.54) rotate(-42.97)"/><ellipse class="cls-81" cx="81.66" cy="34.87" rx="0.7" ry="0.58" transform="translate(-1.92 64.84) rotate(-42.85)"/><ellipse class="cls-82" cx="88.48" cy="32.86" rx="1.74" ry="1.42" transform="translate(1.32 69.07) rotate(-42.93)"/><ellipse class="cls-19" cx="88.61" cy="32.76" rx="1.12" ry="0.77" transform="translate(1.4 69.08) rotate(-42.9)"/><ellipse class="cls-83" cx="88.86" cy="32.45" rx="0.7" ry="0.58" transform="translate(1.71 69.24) rotate(-42.95)"/><ellipse class="cls-84" cx="87.66" cy="26.78" rx="1.74" ry="1.41" transform="translate(5.23 66.86) rotate(-42.92)"/><ellipse class="cls-19" cx="87.77" cy="26.66" rx="1.12" ry="0.77" transform="translate(5.31 66.85) rotate(-42.88)"/><ellipse class="cls-85" cx="88.05" cy="26.46" rx="0.7" ry="0.58" transform="translate(5.55 67.03) rotate(-42.91)"/><ellipse class="cls-86" cx="96.25" cy="29.74" rx="1.74" ry="1.42" transform="translate(5.52 73.52) rotate(-42.93)"/><ellipse class="cls-19" cx="96.38" cy="29.64" rx="1.12" ry="0.77" transform="translate(5.64 73.62) rotate(-42.95)"/><ellipse class="cls-87" cx="96.65" cy="29.37" rx="0.7" ry="0.58" transform="translate(5.9 73.72) rotate(-42.95)"/><ellipse class="cls-88" cx="95.37" cy="37.52" rx="1.74" ry="1.42" transform="translate(-0.03 74.95) rotate(-42.9)"/><ellipse class="cls-19" cx="95.47" cy="37.33" rx="1.12" ry="0.77" transform="translate(0.14 75.02) rotate(-42.93)"/><ellipse class="cls-89" cx="95.75" cy="37.14" rx="0.7" ry="0.58" transform="translate(0.38 75.25) rotate(-42.98)"/><ellipse class="cls-90" cx="88.85" cy="43.78" rx="1.74" ry="1.42" transform="translate(-6.02 72.24) rotate(-42.93)"/><ellipse class="cls-19" cx="88.99" cy="43.67" rx="1.12" ry="0.77" transform="translate(-5.91 72.29) rotate(-42.92)"/><ellipse class="cls-91" cx="89.24" cy="43.39" rx="0.7" ry="0.58" transform="translate(-5.69 72.27) rotate(-42.85)"/><ellipse class="cls-92" cx="82.36" cy="51.77" rx="1.74" ry="1.41" transform="translate(-13.19 70.01) rotate(-42.96)"/><ellipse class="cls-19" cx="82.48" cy="51.66" rx="1.12" ry="0.77" transform="translate(-13.09 70.01) rotate(-42.93)"/><ellipse class="cls-93" cx="82.75" cy="51.43" rx="0.7" ry="0.58" transform="translate(-12.88 70.1) rotate(-42.91)"/><ellipse class="cls-94" cx="73.22" cy="59.44" rx="1.74" ry="1.42" transform="translate(-20.87 65.79) rotate(-42.93)"/><ellipse class="cls-41" cx="73.35" cy="59.31" rx="1.12" ry="0.77" transform="translate(-20.75 65.83) rotate(-42.92)"/><ellipse class="cls-95" cx="73.6" cy="59" rx="0.7" ry="0.58" transform="translate(-20.48 65.92) rotate(-42.92)"/><ellipse class="cls-96" cx="103.83" cy="29.69" rx="1.74" ry="1.42" transform="translate(7.58 78.67) rotate(-42.93)"/><ellipse class="cls-19" cx="103.92" cy="29.52" rx="1.12" ry="0.77" transform="translate(7.75 78.72) rotate(-42.95)"/><ellipse class="cls-97" cx="104.2" cy="29.28" rx="0.7" ry="0.58" transform="translate(7.98 78.84) rotate(-42.95)"/><ellipse class="cls-98" cx="96.34" cy="16.19" rx="1.74" ry="1.42" transform="translate(14.77 69.96) rotate(-42.93)"/><ellipse class="cls-19" cx="96.47" cy="16.12" rx="1.12" ry="0.77" transform="translate(14.85 70.01) rotate(-42.92)"/><ellipse class="cls-99" cx="96.72" cy="15.81" rx="0.7" ry="0.58" transform="translate(15.16 70.14) rotate(-42.95)"/><ellipse class="cls-100" cx="105.15" cy="16.81" rx="1.74" ry="1.41" transform="translate(16.7 76.11) rotate(-42.92)"/><ellipse class="cls-19" cx="105.3" cy="16.77" rx="1.12" ry="0.77" transform="translate(16.77 76.2) rotate(-42.92)"/><ellipse class="cls-101" cx="105.56" cy="16.51" rx="0.7" ry="0.58" transform="translate(16.97 76.24) rotate(-42.88)"/><ellipse class="cls-102" cx="85.87" cy="17.91" rx="1.74" ry="1.42" transform="translate(10.8 63.28) rotate(-42.93)"/><ellipse class="cls-19" cx="86.01" cy="17.82" rx="1.12" ry="0.77" transform="translate(10.93 63.4) rotate(-42.97)"/><ellipse class="cls-103" cx="86.28" cy="17.59" rx="0.7" ry="0.58" transform="translate(11.11 63.45) rotate(-42.91)"/><ellipse class="cls-104" cx="74.19" cy="29.45" rx="1.74" ry="1.09" transform="translate(-0.2 58.39) rotate(-42.91)"/><ellipse class="cls-19" cx="74.28" cy="29.24" rx="1.12" ry="0.59" transform="translate(-0.01 58.44) rotate(-42.94)"/><ellipse class="cls-105" cx="74.57" cy="29.05" rx="0.7" ry="0.45" transform="translate(0.16 58.49) rotate(-42.87)"/><ellipse class="cls-106" cx="61.6" cy="42.58" rx="1.74" ry="1.09" transform="translate(-12.51 53.31) rotate(-42.89)"/><ellipse class="cls-19" cx="61.71" cy="42.4" rx="1.12" ry="0.59" transform="translate(-12.36 53.35) rotate(-42.9)"/><ellipse class="cls-107" cx="61.96" cy="42.09" rx="0.7" ry="0.45" transform="translate(-12.07 53.46) rotate(-42.92)"/><ellipse class="cls-108" cx="72.03" cy="35.76" rx="1.74" ry="1.09" transform="translate(-5.08 58.57) rotate(-42.88)"/><ellipse class="cls-19" cx="72.16" cy="35.66" rx="1.12" ry="0.59" transform="translate(-4.96 58.71) rotate(-42.94)"/><ellipse class="cls-109" cx="72.43" cy="35.43" rx="0.7" ry="0.45" transform="translate(-4.76 58.74) rotate(-42.87)"/></g></g></svg>