<?xml version="1.0" encoding="utf-8"?>
<!-- Generator: Adobe Illustrator 19.0.0, SVG Export Plug-In . SVG Version: 6.00 Build 0)  -->
<svg version="1.1" id="Layer_1" xmlns="http://www.w3.org/2000/svg" xmlns:xlink="http://www.w3.org/1999/xlink" x="0px" y="0px"
	 viewBox="0 0 792 1224" style="enable-background:new 0 0 792 1224;" xml:space="preserve">
<style type="text/css">
	.st0{fill:#E0E0E0;}
	.st1{fill:#191919;}
	.st2{fill:none;stroke:#FFFFFF;stroke-width:13;stroke-miterlimit:10;}
	.st3{fill:none;stroke:#FFFFFF;stroke-miterlimit:10;}
</style>
<g id="XMLID_19_">
	<g id="XMLID_38_">
		<path id="XMLID_352_" d="M546.6,868.8c-3.2,1.3-6.1,1.3-8.8-1.1c-6.7-6.2-13.5-12.2-20.1-18.6c-1.6-1.6-2.3-4.2-3.2-6.4
			c-3.8-9.5-6.6-19.6-11.4-28.6c-5.1-9.7-12.1-18.3-17.9-27.6c-17.9-28.7-38-55.9-53.8-85.9c-2.1-4-5-7.5-7.3-11.4
			c-2.9-4.8-7.1-7.6-12.5-7.9c-18.9-1.3-37.8-2.5-56.7-3.3c-4.2-0.2-6.6-1.2-8.6-5c-17.7-35.3-36.1-70.2-53.2-105.8
			c-22.8-47.3-43.2-95.7-57.6-146.4c-5.2-18.3-10.2-36.6-10.5-55.8c-0.1-3.6,1.4-7.2,2.2-10.8c3.4,1.3,7.3,2,10.3,4
			c15.6,10.3,27.8,24.2,39.7,38.3C309.6,435,337,477.1,365,518.9c30,44.8,54.8,92.9,86.3,136.9c41.1,57.5,77,118.4,112,179.7
			c2.9,5,3.9,9.4,1.3,13.1C560.3,858.1,555.5,865.3,546.6,868.8z M442.8,655.1c-5.3-7.8-11.5-16-16.7-24.8
			c-40.3-68.3-82.1-135.7-129.3-199.5c-15.3-20.6-31.1-40.8-50.2-58.1c-4.6-4.2-9.7-7.8-14.6-11.6c-0.4,0.3-0.9,0.5-1.3,0.8
			c0.4,4.9,0.4,9.9,1.1,14.8c4.2,28.1,12.7,55.2,22.2,81.9c23,64.3,52.9,125.6,84.4,186.1c4.1,7.8,8.3,15.6,12.3,23.5
			c1.4,2.7,2.9,3.7,6.1,3.7c19.3-0.1,38.6-0.1,57.6,4c2.6,0.6,5.1,1.4,6.7,1.9C428.6,669.9,435.6,662.6,442.8,655.1z M428.6,679.7
			c-0.8,1.3-0.6,3.9,0.2,5.3c24,38.4,47.8,76.9,72.4,114.9c8.6,13.3,16.7,26.4,19.5,42.2c0.2,1.1,0.8,2.3,1.6,3
			c5.9,5.6,11.7,11.3,17.9,16.5c1.3,1.1,4.5,1.3,6.1,0.5c7.5-3.8,11.1-10.8,13.4-18.4c0.3-1-0.3-2.6-1-3.7
			c-34.4-60.6-70.1-120.3-109.9-177.4c-0.4-0.5-0.9-1-1.4-1.7C439.3,665.4,433.3,672,428.6,679.7z"/>
		<path id="XMLID_295_" class="st0" d="M421.2,677.7c7.4-7.7,14.5-15.1,21.7-22.6c-5.3-7.8-11.5-16-16.7-24.8
			c-40.3-68.3-82.1-135.7-129.3-199.5c-15.3-20.6-31.1-40.8-50.2-58.1c-4.6-4.2-9.7-7.8-14.6-11.6c-0.4,0.3,0.8,0.5,0.3,0.7
			c0.4,4.9,3.5,9.5,4.2,14.4c4.2,28.1,15.1,52.9,24.7,79.6c23,64.3,52.9,125.6,84.4,186.1c4.1,7.8,8.3,15.6,12.3,23.5
			c1.4,2.7,2.9,3.7,6.1,3.7c19.3-0.1,31.4,2.6,50.4,6.8C417,676.3,419.5,677.2,421.2,677.7z"/>
		<path id="XMLID_291_" class="st1" d="M448.9,662.7c39.8,57.2,75.6,116.9,109.9,177.4c0.6,1.1,1.3,2.6,1,3.7
			c-2.4,7.6-5.9,14.6-13.4,18.4c-1.6,0.8-4.8,0.6-6.1-0.5c-6.2-5.2-12-10.9-17.9-16.5c-0.8-0.8-1.4-2-1.6-3
			c-2.7-15.8-10.9-29-19.5-42.2c-24.6-38-48.4-76.5-72.4-114.9c-0.8-1.3-1-4-0.2-5.3c4.7-7.8,10.7-14.3,18.9-18.7
			C448,661.7,448.5,662.1,448.9,662.7z M462.8,727c4.5,2.1,10.5-0.2,12.7-4.8c2.3-4.9,0-11-4.8-13.1c-4.5-1.9-10.5,0.5-12.6,5.2
			C456.1,718.8,458.4,724.9,462.8,727z M537,844.1c4,1.7,9-0.3,10.9-4.3c1.9-4.4-0.1-9.4-4.5-11.1c-4-1.6-9.1,0.6-10.8,4.6
			C531,837.2,533.1,842.4,537,844.1z"/>
		<path id="XMLID_281_" d="M458.1,714.2c-2,4.6,0.2,10.7,4.7,12.7c4.5,2.1,10.5-0.2,12.7-4.8c2.3-4.9,0-11-4.8-13.1
			C466.2,707.1,460.2,709.6,458.1,714.2z"/>
		<path id="XMLID_280_" d="M532.7,833.2c-1.6,4,0.5,9.2,4.4,10.9c4,1.7,9-0.3,10.9-4.3c1.9-4.4-0.1-9.4-4.5-11.1
			C539.4,827,534.3,829.2,532.7,833.2z"/>
	</g>
	<line id="XMLID_39_" class="st2" x1="309.9" y1="543" x2="372.1" y2="570.9"/>
	<line id="XMLID_41_" class="st2" x1="321.3" y1="592" x2="395.5" y2="615.5"/>
</g>
<line id="XMLID_1_" class="st3" x1="466.5" y1="56.3" x2="464.5" y2="442"/>
</svg>
