<svg xmlns="http://www.w3.org/2000/svg" xmlns:xlink="http://www.w3.org/1999/xlink" viewBox="0 0 93.26 87.2"><defs><style>.cls-1{fill:#e5e9d6;}.cls-2{fill:#3a8600;}.cls-3{fill:url(#linear-gradient);}.cls-4{fill:#3a8400;}.cls-5{fill:url(#linear-gradient-2);}.cls-6{fill:url(#linear-gradient-3);}.cls-7{fill:url(#linear-gradient-4);}.cls-8{fill:url(#linear-gradient-5);}.cls-9{fill:url(#linear-gradient-6);}.cls-10{fill:url(#linear-gradient-7);}.cls-11{fill:url(#linear-gradient-8);}.cls-12{fill:url(#linear-gradient-9);}.cls-13{fill:url(#linear-gradient-10);}.cls-14{fill:url(#linear-gradient-11);}.cls-15{fill:url(#linear-gradient-12);}.cls-16{fill:url(#linear-gradient-13);}.cls-17{fill:url(#linear-gradient-14);}.cls-18{fill:#004b00;}.cls-19{fill:#1f6f00;}.cls-20{fill:url(#linear-gradient-15);}.cls-21{fill:url(#linear-gradient-16);}.cls-22{fill:#3aa200;}.cls-23{fill:url(#linear-gradient-17);}.cls-24{fill:#003600;}.cls-25{fill:#189200;}.cls-26{fill:#80af6e;}.cls-27{fill:#1f9f00;}.cls-28{fill:#157900;}.cls-29{fill:url(#linear-gradient-18);}.cls-30{fill:url(#linear-gradient-19);}.cls-31{fill:url(#linear-gradient-20);}</style><linearGradient id="linear-gradient" x1="-2.02" y1="53.48" x2="42.23" y2="64.64" gradientUnits="userSpaceOnUse"><stop offset="0" stop-color="#e5e9d6"/><stop offset="0.14" stop-color="#b8d199"/><stop offset="0.65" stop-color="#659875"/><stop offset="0.7" stop-color="#5f8f6b"/><stop offset="0.79" stop-color="#4e7951"/><stop offset="0.89" stop-color="#335326"/><stop offset="0.94" stop-color="#254010"/></linearGradient><linearGradient id="linear-gradient-2" x1="63.19" y1="0.61" x2="53.95" y2="45.12" gradientUnits="userSpaceOnUse"><stop offset="0" stop-color="#e5e9d6"/><stop offset="0.57" stop-color="#b8d199"/><stop offset="0.58" stop-color="#a9c793"/><stop offset="0.6" stop-color="#8bb286"/><stop offset="0.63" stop-color="#76a47c"/><stop offset="0.65" stop-color="#699b77"/><stop offset="0.67" stop-color="#659875"/><stop offset="0.72" stop-color="#5f8f6b"/><stop offset="0.8" stop-color="#4e7951"/><stop offset="0.9" stop-color="#335326"/><stop offset="0.94" stop-color="#254010"/></linearGradient><linearGradient id="linear-gradient-3" x1="70.06" y1="2.04" x2="60.82" y2="46.55" xlink:href="#linear-gradient-2"/><linearGradient id="linear-gradient-4" x1="58.61" y1="-0.34" x2="49.37" y2="44.17" xlink:href="#linear-gradient-2"/><linearGradient id="linear-gradient-5" x1="57.65" y1="-0.54" x2="48.41" y2="43.97" xlink:href="#linear-gradient-2"/><linearGradient id="linear-gradient-6" x1="55.01" y1="-1.09" x2="45.78" y2="43.42" xlink:href="#linear-gradient-2"/><linearGradient id="linear-gradient-7" x1="71.12" y1="2.26" x2="61.89" y2="46.77" xlink:href="#linear-gradient-2"/><linearGradient id="linear-gradient-8" x1="70.55" y1="2.14" x2="61.32" y2="46.65" xlink:href="#linear-gradient-2"/><linearGradient id="linear-gradient-9" x1="70.27" y1="2.08" x2="61.03" y2="46.59" xlink:href="#linear-gradient-2"/><linearGradient id="linear-gradient-10" x1="77.73" y1="3.63" x2="68.49" y2="48.14" xlink:href="#linear-gradient-2"/><linearGradient id="linear-gradient-11" x1="76.88" y1="3.45" x2="67.65" y2="47.96" xlink:href="#linear-gradient-2"/><linearGradient id="linear-gradient-12" x1="41.95" y1="-3.8" x2="32.71" y2="40.72" xlink:href="#linear-gradient-2"/><linearGradient id="linear-gradient-13" x1="41.81" y1="-3.83" x2="32.57" y2="40.69" xlink:href="#linear-gradient-2"/><linearGradient id="linear-gradient-14" x1="38.93" y1="-4.43" x2="29.69" y2="40.1" xlink:href="#linear-gradient-2"/><linearGradient id="linear-gradient-15" x1="18.17" y1="80.31" x2="41.06" y2="59.24" gradientUnits="userSpaceOnUse"><stop offset="0.03" stop-color="#e5e9d6"/><stop offset="0.4" stop-color="#b8d199"/><stop offset="0.64" stop-color="#659850"/><stop offset="0.7" stop-color="#5e8e49"/><stop offset="0.8" stop-color="#4b7436"/><stop offset="0.92" stop-color="#2c4917"/><stop offset="0.94" stop-color="#254010"/></linearGradient><linearGradient id="linear-gradient-16" x1="28.91" y1="19.04" x2="40.84" y2="48.87" gradientUnits="userSpaceOnUse"><stop offset="0.03" stop-color="#e5e9d6"/><stop offset="0.19" stop-color="#b8d199"/><stop offset="0.46" stop-color="#659850"/><stop offset="0.55" stop-color="#5e8e49"/><stop offset="0.71" stop-color="#4b7436"/><stop offset="0.9" stop-color="#2c4917"/><stop offset="0.94" stop-color="#254010"/></linearGradient><linearGradient id="linear-gradient-17" x1="159.49" y1="63.92" x2="118.99" y2="36.02" gradientTransform="matrix(0.96, -0.13, 0.14, 1, -71.34, 25.02)" gradientUnits="userSpaceOnUse"><stop offset="0" stop-color="#e5e9d6"/><stop offset="0.76" stop-color="#659875"/><stop offset="0.79" stop-color="#5f8f6b"/><stop offset="0.85" stop-color="#4e7951"/><stop offset="0.91" stop-color="#335326"/><stop offset="0.94" stop-color="#254010"/></linearGradient><linearGradient id="linear-gradient-18" x1="45.93" y1="54.21" x2="38.43" y2="26.21" gradientUnits="userSpaceOnUse"><stop offset="0.47" stop-color="#e5e9d6"/><stop offset="1" stop-color="#b8d199"/></linearGradient><linearGradient id="linear-gradient-19" x1="56.34" y1="51.49" x2="70.02" y2="51.49" gradientUnits="userSpaceOnUse"><stop offset="0.01" stop-color="#e5e9d6"/><stop offset="0.58" stop-color="#659850"/><stop offset="0.68" stop-color="#63954e"/><stop offset="0.77" stop-color="#5c8b47"/><stop offset="0.85" stop-color="#4f7a3a"/><stop offset="0.92" stop-color="#3e6329"/><stop offset="0.99" stop-color="#284513"/><stop offset="1" stop-color="#254010"/></linearGradient><linearGradient id="linear-gradient-20" x1="34.88" y1="59.71" x2="26.6" y2="66.63" gradientUnits="userSpaceOnUse"><stop offset="0.03" stop-color="#e5e9d6"/><stop offset="0.19" stop-color="#e1e7d2"/><stop offset="0.35" stop-color="#d6e0c6"/><stop offset="0.51" stop-color="#c3d5b3"/><stop offset="0.67" stop-color="#a8c697"/><stop offset="0.83" stop-color="#86b274"/><stop offset="0.85" stop-color="#80af6e"/><stop offset="0.92" stop-color="#567c43"/><stop offset="1" stop-color="#254010"/></linearGradient></defs><title>Asset 6</title><g id="Layer_2" data-name="Layer 2"><g id="Layer_2-2" data-name="Layer 2"><path class="cls-1" d="M39,26.92c-4.88,1.24-11,2.81-15.76.74-3.49-1.5-5.42-2.68-9.31.21-3.15,2.34-2.11,4.55-3.06,7.8-1.13,3.88-4.51,4.45-7.45,6.78-5.49,4.36-3,7.83-1.56,13.24,1.26,4.72-2.87,9.48.29,14.06,2.06,3,6.21,3.5,8.58,6.23,1,1.12,1.2,2.74,2.13,3.8,2,2.3,5.16,2.57,8,3.13,3.38.66,8.16,2.53,11.62,2,4.28-.62,8.52-5.48,11.62-8.13,4.37-3.75,9.05-7.38,9.25-13.53.27-8.43-1.41-17.16-1.45-25.66Z"/><path class="cls-2" d="M39.35,27.5c-4.88,1.24-11,2.81-15.76.74-3.49-1.5-5.41-2.68-9.31.21-3.15,2.34-2.11,4.55-3.06,7.8C10.09,40.14,6.71,40.7,3.78,43c-5.49,4.35-3,7.82-1.56,13.24C3.48,61-.65,65.76,2.5,70.33c2.06,3,6.21,3.5,8.58,6.23,1,1.13,1.2,2.74,2.13,3.8,2,2.3,5.16,2.57,8,3.13,3.38.66,8.16,2.52,11.62,2,4.28-.63,8.52-5.48,11.62-8.14,4.37-3.75,9-7.38,9.25-13.53.27-8.43-1.41-17.16-1.45-25.66Z"/><path class="cls-3" d="M13.44,52.65c-.65-1.49-1.17-3.15-1.91-4.7.72-2,.61-5.4.35-7.25l-.19,0a18.81,18.81,0,0,1-.28,7,9.42,9.42,0,0,0-3.1-3.8C11,46,11.55,49.26,12.51,52.25a13.36,13.36,0,0,1-4.37-3,11.88,11.88,0,0,0-2.4-2.33A4.79,4.79,0,0,0,2,46.84a4.82,4.82,0,0,1,3.59.4,10,10,0,0,1,2,2.5,14.5,14.5,0,0,0,4.34,3.92l.57.34c-1.08,1-2,2-3.12,2.82-1.27,1-3,2.2-4.35,1.39,1.33.95,3.23-.15,4.57-1.07s2.38-1.89,3.56-2.76c3.11,1.69,6.51,2.91,9.07,4.84l1.63-2.61C20.32,54.67,16.66,54,13.44,52.65Zm.7,13.86c-1.05-.63-2-1.49-3.17-2.16a4.51,4.51,0,0,0-4-.63,4.3,4.3,0,0,1,3.78.95c1,.75,1.9,1.68,3,2.48a47.35,47.35,0,0,0-3.65,5.67c2-3.73,6-6,6.51-10.72h-1A8.77,8.77,0,0,1,14.14,66.51Z"/><path class="cls-1" d="M19,31c-.45-3.35-1.62-8.3.73-11.22,1.52-1.89,4.39-2.46,6.15-4.2,2.28-2.25,3.38-5.46,6.48-6.86,3.5-1.58,7,.09,10.53.11,8.15.05,14.84-12,23.36-8,3.54,1.64,4.63,6,6.64,9,2.36,3.53,6,6.06,8,9.82,3.52,6.51,1.94,14.8-2.3,20.59-7,9.63-20.12,11.77-31,13.87Z"/><path class="cls-4" d="M19.6,31.58c-.45-3.35-1.62-8.3.73-11.21,1.52-1.89,4.39-2.46,6.15-4.2C28.77,13.91,29.87,10.7,33,9.3c3.5-1.58,7,.09,10.53.11,8.15.05,14.83-12,23.36-8,3.54,1.65,4.63,6,6.64,9,2.36,3.53,6,6.06,8,9.82C85,26.73,83.46,35,79.22,40.8c-7,9.63-20.12,11.77-31,13.87Z"/><path class="cls-5" d="M56.14,32.3l-2.31-.06c.15-5.55,2.81-10.37,5.68-14.57,1.42-2.14,3-4.17,3.94-6.67a32.61,32.61,0,0,0,1.61-7.66A32.56,32.56,0,0,1,64,11.19c-.75,2.67-2.3,4.92-3.52,7.11C57.94,22.7,55.88,27.4,56.14,32.3Z"/><path class="cls-6" d="M60.51,17.07l.06-.77c2.49.12,5,.23,7.32-.9,1.14-.52,2-1.53,3.09-2.12s2.41-.56,3.56-1.37c-1.11.87-2.5.91-3.47,1.55s-1.82,1.67-3,2.3C65.71,17.05,63,17.06,60.51,17.07Z"/><path class="cls-7" d="M58.06,20.56l-.53.55c-3.67-3.53-3.28-8.62-4.45-13C54.45,12.45,54.49,17.6,58.06,20.56Z"/><path class="cls-8" d="M56.26,6c-.33,2.78-.67,5.66-2.06,8l.17.1c1.41-2.4,1.75-5.3,2.08-8.1l0-.4-.19,0Z"/><path class="cls-9" d="M48.56,12.19A15.11,15.11,0,0,0,55,16.84l.07-.18a14.91,14.91,0,0,1-6.31-4.59Z"/><path class="cls-10" d="M68.91,12.46a4,4,0,0,0-1.12,3H68a3.83,3.83,0,0,1,1.08-2.89,6.6,6.6,0,0,0,1-1.69l-.18-.07A6.46,6.46,0,0,1,68.91,12.46Z"/><path class="cls-11" d="M56.39,24.23l.35-.69a13.72,13.72,0,0,0,9.8.21,45.84,45.84,0,0,1,4.62-2.09,15.41,15.41,0,0,1,5-.4,15.2,15.2,0,0,0-5,.59,49.19,49.19,0,0,0-4.55,2.27A14.34,14.34,0,0,1,56.39,24.23Z"/><path class="cls-12" d="M66.55,21.17c-1.42,1-2.88,2-3.37,3.44l.18.06c.47-1.42,1.91-2.4,3.3-3.34a11.07,11.07,0,0,0,2.46-2L69,19.19A10.94,10.94,0,0,1,66.55,21.17Z"/><path class="cls-13" d="M75.46,18.83c-1.35.54-2.88,1.15-3.5,2.63l.18.07c.58-1.41,2-2,3.39-2.53.42-.17.81-.32,1.18-.5l-.08-.17C76.27,18.51,75.88,18.66,75.46,18.83Z"/><path class="cls-14" d="M68.76,23a6.26,6.26,0,0,0,7.62,2.54l-.06-.18a6.08,6.08,0,0,1-7.39-2.46Z"/><path class="cls-15" d="M40.86,23.05l-.64.43a24.37,24.37,0,0,1-3.25-7,36.12,36.12,0,0,1-1-3.69A8.39,8.39,0,0,0,34.8,9.06a8.57,8.57,0,0,1,1.37,3.71,36.12,36.12,0,0,0,1.17,3.62A23.83,23.83,0,0,0,40.86,23.05Z"/><path class="cls-16" d="M38.35,10.81c.51,1.88,0,3.17-.57,4.81l-.39,1.1.18.06L38,15.69a7.37,7.37,0,0,0,.57-4.93Z"/><path class="cls-17" d="M33.41,13.15c.29,1.21,1.39,1.8,3.36,1.81v-.19c-1.87,0-2.91-.55-3.18-1.66Z"/><path class="cls-18" d="M23.84,56.11c-3.09-1.14-4-3.37-4.3-6.43a21.27,21.27,0,0,0-2.82-9.4c-2-3.76-3.83-8.61.39-11.33,1.24-.8,2.74-.63,3.92-1.67,1.46-1.27,1.86-3.5,2.94-5,3.22-4.57,6.84-2.84,11.56-3.92,3.7-.84,6.16-4.46,10-2.77,5.63,2.46,17.92,15,6.54,18.55-2.63.82-5.6,0-8.3.68-3.82,1-6.71,3.81-9.19,6.76C31.39,45.37,29,51.69,24.41,54.09Z"/><path class="cls-19" d="M23.93,56.69c-3.09-1.14-4-3.37-4.3-6.43a21.25,21.25,0,0,0-2.81-9.4c-2-3.76-3.83-8.61.39-11.33,1.24-.8,2.74-.63,3.93-1.67,1.46-1.27,1.86-3.5,2.94-5,3.22-4.57,6.84-2.84,11.57-3.92,3.7-.85,6.16-4.46,10-2.77,5.62,2.46,17.92,15,6.54,18.55-2.63.82-5.6,0-8.3.68-3.82,1-6.71,3.81-9.19,6.76-3.21,3.82-5.59,10.14-10.19,12.55Z"/><path class="cls-18" d="M13.69,54.8c-2.29,6.3.14,6,4.32,10C15.95,70.72,13.78,76.56,19.78,81c3,2.26,5.23,1.2,8.71.48,4.34-.89,4.69-.07,7.69,2.42s11.66,4.44,15.44,2.44c9.48-5,3.19-13,.5-19.94-1.47-3.8-3.52-8.39-6.43-11.36C39.06,48.3,22.8,46.41,20,47.65A12.28,12.28,0,0,0,13.69,54.8Z"/><path class="cls-4" d="M14.46,54.13c-2.29,6.3.14,6,4.32,10C16.72,70,14.55,75.89,20.55,80.34c3,2.27,5.23,1.2,8.71.49,4.33-.89,4.69-.07,7.69,2.42s11.67,4.44,15.45,2.44c9.48-5,3.19-13,.5-19.94-1.47-3.81-3.52-8.39-6.43-11.36C39.83,47.63,25.4,45,21,47.17S15.65,50.84,14.46,54.13Z"/><path class="cls-20" d="M27.48,71a5.56,5.56,0,0,1-3.4-.78,14.28,14.28,0,0,1-3.32-2.44,14.05,14.05,0,0,0,3.09,2.77,7.27,7.27,0,0,0,2.73,1.14l-1,.77c-1.31,1.11-2.9,2.2-3.48,4.24C22.94,74.72,24.6,73.94,26,73c.94-.56,1.91-1,2.86-1.62a26.28,26.28,0,0,0-1.13,6.81c.44-2.62.94-5.42,2.26-7.61.18-.14.35-.29.53-.45l-1.18-1A11.81,11.81,0,0,1,27.48,71ZM37.58,80.6c.66-2.89,2.95-4.58,4.28-7.1l-.69-.33C40.18,75.6,38,77.66,37.58,80.6Zm8.85-1.87A11.53,11.53,0,0,1,45,77.68c-.62-1.57-1.62-3-1.77-4.56l-.77.06c.39,2.19,1.9,3.72,2.48,5.54.83,1.86-.73,3.56-.75,5.77.13-2.17,1.85-3.75,1.13-5.86,0-.2-.11-.39-.17-.58.34.29.74.56,1.15.84,1.13.77,2.3,1.57,2.51,2.78l.19,0C48.8,80.35,47.59,79.53,46.43,78.73ZM24,57.83l.06-.22-1.19-.25c-.78-.16-1.62-.34-2.46-.53h0a18.43,18.43,0,0,0-1.63-2.9,21.19,21.19,0,0,1-1.45-2.49l-.17.08A21.07,21.07,0,0,0,18.62,54a18.87,18.87,0,0,1,1.56,2.74A16.21,16.21,0,0,1,16,55.35l-.14.19c1.51.92,4.52,1.54,6.93,2Z"/><path class="cls-21" d="M22.27,37A20.09,20.09,0,0,1,21,33.36c-.19-.71-.38-1.37-.59-2l-.18.06c.22.64.4,1.3.59,2A21.87,21.87,0,0,0,22,36.78l-.25-.17A15.71,15.71,0,0,1,17.52,32a16,16,0,0,0,4,4.93,7.16,7.16,0,0,0,.86.58l0,.08,0,0a7.4,7.4,0,0,0,5.28.74l-.15-.75A6.82,6.82,0,0,1,22.27,37Zm10.28-7.69a20,20,0,0,0-5.47-7.94,18.77,18.77,0,0,1,4.13,7.93c-2.38-.06-5.09-.4-6.59-2.28,1.31,2.09,4.18,2.75,6.66,3l0-.42q.24.89.43,1.79l1.46-.48-.14-.37c.22-2.75,1.27-5.49,1.24-8.41C34.11,24.65,33.14,26.87,32.56,29.27Zm12.22-11.9c1,2,.18,4.12-.49,5.93-.16.42-.33.83-.51,1.24A10.68,10.68,0,0,1,42,19.8a11.14,11.14,0,0,0,1.31,5.41l.24-.14A17.29,17.29,0,0,0,42.2,29l.76.11a30.82,30.82,0,0,1,1.68-5.65C45.21,21.58,45.9,19.35,44.78,17.37Z"/><path class="cls-1" d="M52.26,80.45c3.2,2,8.55,6.38,12.52,5.95s4.05-5,6.35-7.68c4.32-5,18.22.12,18.92-8.13.4-4.63-3.24-7.5-1.38-12.6,1.55-4.26,5.27-6.91,4.48-11.79C91.51,36,86.81,28.52,76.72,26.94c-7.63-1.2-15,3-21.27,7.06C51.78,36.38,44.7,40.32,45.1,45.82Z"/><path class="cls-22" d="M51.3,80.65c3.2,2,8.55,6.38,12.52,5.95s4.06-5,6.35-7.68c4.32-5,18.21.12,18.92-8.13.39-4.63-3.24-7.51-1.39-12.6,1.55-4.26,5.27-6.91,4.48-11.79-1.64-10.16-6.34-17.67-16.43-19.26-7.63-1.2-15,3-21.27,7.06C50.82,36.58,43.74,40.51,44.13,46Z"/><path class="cls-23" d="M79.51,65.29a10.68,10.68,0,0,1-4-3c-.31-.32-.61-.66-.9-1,1-2,3.66-1.45,5.83-1a14.09,14.09,0,0,0,2,.31v-.2a14.06,14.06,0,0,1-2-.3c-2.21-.43-4.93-1-6,1.06a82,82,0,0,0-5.6-6.65l-1,1.15c2.51,2.06,4.54,4.85,7.09,7.2a19.2,19.2,0,0,0,2.35,1.86,7.93,7.93,0,0,0,1.34,3.78,5.82,5.82,0,0,0,.94,1c.76.67,1.48,1.31,1,2.34l.16.09c.58-1.17-.23-1.88-1-2.57a5.73,5.73,0,0,1-.91-.93,7.68,7.68,0,0,1-1.29-3.54,7.29,7.29,0,0,0,1.91.83c1.74.59,3.6,0,4.39,1.14C83.08,65.55,81.09,66,79.51,65.29Zm1.7-16a23.69,23.69,0,0,1,4.36-5.52l-.12-.15A23.8,23.8,0,0,0,81,49.29c-1.41.31-2.82.64-4.21,1.05-2.7.85-5.59,1.82-7.53,4.31l.57.5c1.6-2.31,4.41-3.48,7-4.43.75-.26,1.5-.49,2.26-.71l0,0c1,.84,1.89,1.76,2.77,2.64s1.59,1.59,2.42,2.33l.12-.15c-.83-.74-1.63-1.54-2.41-2.32S80.2,50.8,79.25,50c1.94-.56,3.92-1,5.88-1.61C83.83,48.68,82.52,49,81.21,49.24ZM67.87,46.35c.47-1.09.95-2.17,1.47-3.23a22.13,22.13,0,0,0,7-1.38l-.07-.18a21.68,21.68,0,0,1-6.81,1.36,27.2,27.2,0,0,1,1.82-3.13h.09v-.1c.2-.29.41-.57.62-.85a9.64,9.64,0,0,1,2-2,11.79,11.79,0,0,1,3.19.69c2.19.69,4.46,1.4,6.59-.69l-.13-.14c-2.05,2-4.17,1.35-6.41.65a12.92,12.92,0,0,0-3-.69,13.06,13.06,0,0,0,3.92-3.75c-1.66,2.63-4.62,3.35-6.45,5.61l-.43.52a25.51,25.51,0,0,1,.66-9.26,25.62,25.62,0,0,0-1.31,10h.08A40.1,40.1,0,0,0,67.22,46ZM77.2,46l-.11.12c-1.2,1.37-2.34,2.67-2.07,4.76l.19,0c-.26-2,.85-3.27,2-4.61l.11-.12A11.85,11.85,0,0,0,79,43.4c.22-.44.46-.89.74-1.38l-.16-.1c-.29.49-.52,1-.75,1.39A11.67,11.67,0,0,1,77.2,46ZM67.54,65.17a7.65,7.65,0,0,0,1.14,1.14,3.6,3.6,0,0,1,1.5,2.06l.18,0a3.73,3.73,0,0,0-1.56-2.18,6.23,6.23,0,0,1-1.29-1.37c-.08-1.24,0-2.53,0-3.81h-.75c.18,2.21-.09,4.76,1.12,6.92a26.34,26.34,0,0,1-.34,2.73c-.49,3.14-1.16,7.45.64,8.59l.09-.17c-1.69-1.08-1-5.31-.55-8.39.15-1,.28-1.82.33-2.47,1.21,2,2.92,3.69,3.24,5.9-.19-2.27-1.92-4.15-3-6.2A7,7,0,0,1,67.54,65.17Zm-7.77,9c.18-1.17.41-2.34.52-3.55l-.74-.07c0,1.76-.36,3.55-.36,5.4a7.37,7.37,0,0,0,1.72,5.23A7.16,7.16,0,0,1,59.56,76c0-.5.1-1,.17-1.5A12.34,12.34,0,0,0,62,77.05l.85.83.13-.14-.85-.84A11.32,11.32,0,0,1,59.77,74.17Z"/><circle class="cls-24" cx="46.03" cy="48.78" r="22.8"/><path class="cls-25" d="M46,71.58A22.81,22.81,0,0,0,68.24,54a3.19,3.19,0,0,0-.88-.57c-1.1-.48-2.29.68-3.32.44s-1.52-1-2.44-1.38c-3-1.1-3-.53-6.37.19-2.09.45-3.67-.38-5.63-.17-2.32.25-3.6,2.38-5.83,2.63s-3.86-1.72-6.07-1.49C34.52,54,32,57.7,29.87,59.75L27,52.24a7.44,7.44,0,0,0-2.78,3.13A22.81,22.81,0,0,0,46,71.58Z"/><path class="cls-26" d="M23.62,49.26a22.7,22.7,0,0,0,2.57,10.53c1.83,1,3.63,1.86,5.72,1.24,1.8-.54,3-2.75,4.79-3.17s1.92.36,3.46.61c4.16.66,4.35-.84,7.74-2.71,2.82-1.56,5-.68,6.31-4.14.56-1.52,0-3.07.85-4.62s2.51-2.24,3.36-3.66A14.7,14.7,0,0,0,60,35.69a13.64,13.64,0,0,0-3.63-6.94A22.81,22.81,0,0,0,23.62,49.26Z"/><path class="cls-27" d="M23.23,48.78a22.67,22.67,0,0,0,2.58,10.53c1.83,1,3.63,1.86,5.72,1.24,1.8-.54,3-2.75,4.79-3.17s1.92.37,3.46.61c4.16.66,4.35-.84,7.74-2.71,2.82-1.55,5-.68,6.31-4.14.56-1.52,0-3.07.85-4.62s2.51-2.23,3.36-3.65a14.72,14.72,0,0,0,1.58-7.66c-.28-2.33-.32-5.34-3.05-6.75A25.2,25.2,0,0,0,46,26,22.8,22.8,0,0,0,23.23,48.78Z"/><path class="cls-18" d="M25.83,43.24c.5,1.45,2.79,2.68,3.6,4.08s.35,2.83.54,4.44c.48,4,2.47,4.22,5,6.65,2.26,2.15,3.62,5.66,5.72,8,4.5,5.1,8.88,2.63,12.43,4.39S41.41,76.37,32.08,70s-9.9-16.54-9.61-21.43S24.65,36.5,25.2,37.93,25.34,41.79,25.83,43.24Z"/><path class="cls-28" d="M25.26,43.53c.5,1.45,2.79,2.68,3.6,4.09s.35,2.83.54,4.44c.48,4,2.47,4.22,5,6.65,2.26,2.14,3.62,5.66,5.72,8,4.5,5.1,8.88,2.63,12.43,4.39s-11.74,5.53-21.07-.84-9.89-16.54-9.61-21.43S25,35.12,25.29,38.51,24.76,42.08,25.26,43.53Z"/><path class="cls-18" d="M56.43,63c2.27-4.11-2.83-5.88-2.93-9.61-.16-6,13.67-6.33,7.86-14.29-2.12-2.9-6.15-10.22-3.13-9.6S66.62,39.43,68,44.38C70,52,69.79,59.71,64.56,66,62.14,68.93,58,72.6,53.95,72.56,53.95,72.56,48.64,70.72,56.43,63Z"/><path class="cls-19" d="M53.08,72.85c-1.69-6.78,1.53-5.58,4.21-10.42,2.27-4.1-2.83-5.88-2.93-9.61-.16-6,13.67-6.33,7.86-14.29C60.11,35.63,56.76,33,57.46,29c6.17.7,10,9.82,11.37,14.77,2.05,7.58,1.82,15.33-3.41,21.64C63,68.36,59.9,71.21,57.2,72.17A8.69,8.69,0,0,1,53.08,72.85Z"/><path class="cls-29" d="M43.39,37.64l0,0-.59-.6a19.74,19.74,0,0,1-2.31-2.68c-.65-.93-1-2.06-.6-2.7l-.19-.09a48.06,48.06,0,0,1,1.74-4.84l-.51-.2q-1,.24-2,.56a48.26,48.26,0,0,0-1.46,6.37c-4.14-.07-7.25,3.88-7.36,7.69.35-3.8,3.68-7.24,7.26-6.95q-.22,1.6-.31,3.21l0,0c-1.34,1.8-3.18,3.33-4.65,5.18s-2.92,4.26-1.83,6.7c-.94-2.48.62-4.8,2.11-6.43s3-2.76,4.38-4.29c0,.43,0,.87,0,1.3-.07,5,2.28,9.42,4.38,13.44-1.77-4.21-3.68-8.76-3.23-13.4.06-.78.14-1.56.25-2.33.95,2.42,1.91,4.84,2.92,7.24a17.88,17.88,0,0,0,1,2.16,13.46,13.46,0,0,1,1.11,2,43.56,43.56,0,0,1,1.48,4.4,44.91,44.91,0,0,0-1.3-4.46c-.57-1.43-1.5-2.71-2-4.22C40.58,41.87,39.59,39,38.6,36.1c.11-.6.23-1.2.37-1.8a7.94,7.94,0,0,0,.59.79,20.54,20.54,0,0,0,2.72,2.56c.28.24.56.46.85.69v0h0c1.6,1.26,3.31,2.46,4.24,3.94a13.92,13.92,0,0,0-3.1-3.74c1.59.13,3.1-.28,4.52-.14,1.8.11,3.22,1.5,5,2.27-1.74-.87-3-2.37-5-2.65S45,38.27,43.39,37.64ZM50.67,33c2,1.95,4.19,3.67,5.35,6-.92-2.41-3-4.4-4.78-6.48-1.62-1.87-3.16-4.1-3.12-6.35-.5-.05-1-.08-1.48-.1C46.81,28.94,48.87,31.2,50.67,33Z"/><path class="cls-30" d="M62.13,62.94h0c-.09,0-.16,0-.18.06v0c-1.87.87-3.62,2-5.47,2.7,1.78-.56,3.51-1.49,5.28-2.22a22.19,22.19,0,0,1-1.25,3.26c-.62,1.33-1.9,2-3.18,2.8,1.32-.71,2.71-1.23,3.51-2.58s1.23-2.66,1.91-3.86c1.54-.56,3.29-1.05,4.72-.6.12-.21.24-.43.35-.64C65.78,61.32,63.8,62.24,62.13,62.94Zm2.78-9.56a8.52,8.52,0,0,0-1.07-.67A7.1,7.1,0,0,0,61.13,48a6.93,6.93,0,0,1,2,4.36,17.13,17.13,0,0,0-6.75-1c2.81.23,5.92.65,8.06,2.57l.19.18a8.35,8.35,0,0,1-2.69,1.27,31.18,31.18,0,0,1-3.27.49A30.82,30.82,0,0,0,62,55.8a10.21,10.21,0,0,0,3.18-1.07l0,0a20.31,20.31,0,0,1,3.62,5c.21-.58.4-1.16.56-1.75A23.42,23.42,0,0,0,64.9,53.38Zm2-14.81c-.16-.36-.33-.71-.5-1.07-1.87-1.33-4-2.31-5.22-4.1C62.55,35.56,65.09,36.83,66.95,38.57Zm-1.1,7.17c.56,3.11,3.37,5.62,4.08,8.64q.07-.77.09-1.55C68.75,50.29,66.5,48.36,65.85,45.74Z"/><path class="cls-31" d="M41.84,72.52a14.38,14.38,0,0,1-2.46,0A35.66,35.66,0,0,1,35.51,72a23,23,0,0,0,3,.89h.84a14.89,14.89,0,0,0,2.51-.19,2.83,2.83,0,0,0,2.27-1.37A2.69,2.69,0,0,1,41.84,72.52Zm-9.09-7.11c-.68-.37-1.3-.77-2-1.15a5.15,5.15,0,0,1-1.21-.77l.38-.39c1.2-1.24,2.49-2.73,3.84-2.39-1.94-.68-3.93,1.69-5.84,2.89a7.22,7.22,0,0,1-.16-3.78c.4-1.37,1.4-2.63,1.63-4.25-.36,1.6-1.43,2.71-2,4.12A8.17,8.17,0,0,0,27.25,64a2.57,2.57,0,0,1-1.42.25q.42.63.9,1.25A3.79,3.79,0,0,0,27.8,65,8.52,8.52,0,0,0,29,64a5.42,5.42,0,0,0,1.45.79c.65.29,1.38.67,2.08,1A20.71,20.71,0,0,0,37,67.06,20.51,20.51,0,0,1,32.75,65.41ZM22,52.85c0,.52.1,1.05.18,1.6.48-3.16,2.15-6.25,5.16-7.42A8.75,8.75,0,0,0,22,52.85Z"/></g></g></svg>