<svg xmlns="http://www.w3.org/2000/svg" xmlns:xlink="http://www.w3.org/1999/xlink" viewBox="0 0 59.52 57.27"><defs><style>.cls-1{fill:#793d00;}.cls-2{fill:url(#linear-gradient);}.cls-3{fill:url(#linear-gradient-2);}.cls-4{fill:url(#linear-gradient-3);}.cls-5{fill:url(#linear-gradient-4);}.cls-6{fill:url(#linear-gradient-5);}.cls-7{fill:url(#linear-gradient-6);}.cls-8{fill:url(#linear-gradient-7);}.cls-9{fill:#fff;opacity:0.6;}</style><linearGradient id="linear-gradient" x1="-81.58" y1="344.37" x2="-40.29" y2="344.37" gradientTransform="matrix(0.93, 0.57, -0.62, 0.96, 298.04, -264.48)" gradientUnits="userSpaceOnUse"><stop offset="0" stop-color="#e4ad8a"/><stop offset="0.08" stop-color="#d6a07d"/><stop offset="0.26" stop-color="#b98562"/><stop offset="0.43" stop-color="#a77452"/><stop offset="0.54" stop-color="#a16e4c"/><stop offset="1" stop-color="#e4ad8a"/></linearGradient><linearGradient id="linear-gradient-2" x1="-112.6" y1="330.86" x2="-71.29" y2="330.86" gradientTransform="matrix(0.85, 0.53, -0.53, 0.85, 281.69, -198.92)" gradientUnits="userSpaceOnUse"><stop offset="0.03" stop-color="#b29c86"/><stop offset="0.42" stop-color="#d0b8a2"/><stop offset="0.77" stop-color="#e4cab4"/><stop offset="1" stop-color="#ebd0bb"/></linearGradient><linearGradient id="linear-gradient-3" x1="-106.53" y1="328.36" x2="-77.49" y2="328.36" gradientTransform="matrix(0.85, 0.53, -0.53, 0.85, 281.69, -198.92)" gradientUnits="userSpaceOnUse"><stop offset="0" stop-color="#c8a68d"/><stop offset="0.49" stop-color="#82512f"/><stop offset="0.58" stop-color="#885735"/><stop offset="0.69" stop-color="#964"/><stop offset="0.83" stop-color="#b4805e"/><stop offset="0.97" stop-color="#dba481"/><stop offset="1" stop-color="#e4ad8a"/></linearGradient><linearGradient id="linear-gradient-4" x1="-109.03" y1="341.22" x2="-77.81" y2="341.22" gradientTransform="matrix(0.85, 0.53, -0.53, 0.85, 281.69, -198.92)" gradientUnits="userSpaceOnUse"><stop offset="0.01" stop-color="#a48e77"/><stop offset="0.41" stop-color="#c9b6a4"/><stop offset="0.8" stop-color="#e7d7c9"/><stop offset="1" stop-color="#f3e4d7"/></linearGradient><linearGradient id="linear-gradient-5" x1="-82.78" y1="326.99" x2="-94.63" y2="360.11" gradientTransform="matrix(0.85, 0.53, -0.53, 0.85, 281.69, -198.92)" gradientUnits="userSpaceOnUse"><stop offset="0" stop-color="#fff"/><stop offset="0.08" stop-color="#fcf7f3"/><stop offset="0.29" stop-color="#f4e6db"/><stop offset="0.5" stop-color="#efdac9"/><stop offset="0.73" stop-color="#ecd2be"/><stop offset="1" stop-color="#ebd0bb"/></linearGradient><linearGradient id="linear-gradient-6" x1="-100.12" y1="326.3" x2="-111.11" y2="357" gradientTransform="matrix(0.85, 0.53, -0.53, 0.85, 281.69, -198.92)" gradientUnits="userSpaceOnUse"><stop offset="0" stop-color="#b29c86"/><stop offset="0.03" stop-color="#b19b85"/><stop offset="0.46" stop-color="#a7917a"/><stop offset="0.96" stop-color="#a48e77"/></linearGradient><linearGradient id="linear-gradient-7" x1="-103.38" y1="360.75" x2="-96.16" y2="352.01" gradientTransform="matrix(0.85, 0.53, -0.53, 0.85, 281.69, -198.92)" gradientUnits="userSpaceOnUse"><stop offset="0" stop-color="#a48e77"/><stop offset="0.29" stop-color="#ae9881"/><stop offset="0.69" stop-color="#ebd0bb"/><stop offset="1" stop-color="#fff"/></linearGradient></defs><title>Asset 5</title><g id="Layer_2" data-name="Layer 2"><g id="Layer_2-2" data-name="Layer 2"><path class="cls-1" d="M7.75,30.31C6,27.1-1.6,7.78,22.28,1.13S58.84,18.91,59.48,29.5,52,60.82,35,54.33,9.48,33.51,7.75,30.31Z"/><path class="cls-2" d="M44,49.47c-4.26,4-13.34-1.66-22.55-10.12S6.72,22.42,11,18.39s16.63-2.09,25.85,6.38S48.22,45.45,44,49.47Z"/><path class="cls-3" d="M42.4,48.44c-3.71,3.51-12-1.8-20.53-9.62S8.21,23.28,11.93,19.77s14.88-1.48,23.39,6.33S46.11,44.92,42.4,48.44Z"/><path class="cls-4" d="M32.69,28.41c-7.9-8.46-18.47-4-15.11-5.91s9.28-1,15.46,5.1c7.08,6.78,7.45,12.9,6,14.73C37.3,42.61,40.59,36.87,32.69,28.41Z"/><path class="cls-5" d="M33.61,28.73c-7.17-7.44-11.82-7.09-15.83-6.38-.06,0-.05.09,0,.3.28,2,3,13.51-16.34,20.35,0,0-3,7.22,14.19,13.58,0,0,11.71-21,23.38-14.74C39,41.84,40.79,36.17,33.61,28.73Z"/><path class="cls-6" d="M38,35c-3.54-.08-17.94.77-25.93,18.74a20.61,20.61,0,0,0,3.65,2.13C22.46,39.7,34.35,39.12,39.17,39.47A13,13,0,0,0,38,35Z"/><path class="cls-7" d="M21.2,22a18.57,18.57,0,0,0-3.41.35c-.06,0-.05.09,0,.3.28,2,3,13.51-16.34,20.35a3.89,3.89,0,0,0-.19,1.55l1.22-.39C24.67,36.88,21.91,24.31,21.2,22Z"/><path class="cls-8" d="M15.45,56.75c-1.53,1.49-6.12-.28-10.25-4S-1,44.9.5,43.41s6.12.28,10.25,4S17,55.25,15.45,56.75Z"/><path class="cls-9" d="M14.29,8.83S15,8.3,16.2,7.42C16.82,7,17.62,6.51,18.55,6a27.88,27.88,0,0,1,3.26-1.55,24,24,0,0,1,4.12-1.3,17.59,17.59,0,0,1,2.36-.39,18.32,18.32,0,0,1,2.52-.15A20.15,20.15,0,0,1,41.2,5.45a23,23,0,0,1,4.31,3.42A26.06,26.06,0,0,1,48.76,13a27.22,27.22,0,0,1,3.5,8.45c.15.65.27,1.27.37,1.87s.16,1.17.2,1.7a21.31,21.31,0,0,1,.07,2.77,15,15,0,0,1-.16,1.77l-.09.62-.11-.62c0-.4-.18-1-.32-1.71s-.39-1.6-.68-2.58-.7-2.07-1.16-3.22a39.92,39.92,0,0,0-1.75-3.61,35.05,35.05,0,0,0-2.39-3.71,30.43,30.43,0,0,0-3.08-3.47,23.2,23.2,0,0,0-3.75-2.85,18.68,18.68,0,0,0-4.25-1.92,21,21,0,0,0-6.68-.93c-.36,0-.73,0-1.08,0l-1.06.09c-.7,0-1.37.18-2,.26a19.1,19.1,0,0,0-1.91.37l-.9.2-.85.24c-.55.15-1.09.28-1.58.44-1,.34-1.84.58-2.55.85C15.11,8.56,14.29,8.83,14.29,8.83Z"/></g></g></svg>