<?xml version="1.0" encoding="utf-8"?>
<!-- Generator: Adobe Illustrator 19.0.0, SVG Export Plug-In . SVG Version: 6.00 Build 0)  -->
<svg version="1.1" id="Layer_1" xmlns="http://www.w3.org/2000/svg" xmlns:xlink="http://www.w3.org/1999/xlink" x="0px" y="0px"
	 viewBox="0 0 792 1224" style="enable-background:new 0 0 792 1224;" xml:space="preserve">
<style type="text/css">
	.st0{fill:#EDEDED;stroke:#000000;stroke-width:2;stroke-miterlimit:10;}
	.st1{fill:#E0E0E0;stroke:#000000;stroke-miterlimit:10;}
</style>
<path id="XMLID_2_" class="st0" d="M400.4,688.1h-3.3c-4.9,0-6.1-5.2-6-11.4l6.4-373.9c0-1.7,2-1.7,2,0l6.4,374.6
	C406,683.2,405.1,688.1,400.4,688.1z"/>
<path id="XMLID_3_" d="M399.1,922.7h-4.9c-4,0-7.2-3.6-7.2-8l-7.2-209.5c0-6.6,3.1-22,9-22h20.9c1.9,0,3.6,1.1,4.5,3
	c2.6,5.4,3.8,16.6,3.8,20l-8.1,204.5C409.8,917.3,405,922.7,399.1,922.7z"/>
<path id="XMLID_5_" class="st1" d="M399.2,302.7c0,0-25.1,330-15.1,350.1s5.6,30.3,5.6,30.3L399.2,302.7z"/>
</svg>
