<svg xmlns="http://www.w3.org/2000/svg" xmlns:xlink="http://www.w3.org/1999/xlink" viewBox="0 0 62.3 81.52"><defs><style>.cls-1{fill:url(#linear-gradient);}.cls-2{fill:url(#linear-gradient-2);}.cls-3{fill:url(#linear-gradient-3);}.cls-4{fill:url(#linear-gradient-4);}.cls-5{fill:url(#linear-gradient-5);}.cls-6{fill:url(#linear-gradient-6);}.cls-7{fill:url(#linear-gradient-7);}.cls-8{fill:url(#linear-gradient-8);}.cls-9{fill:url(#linear-gradient-9);}.cls-10{fill:url(#linear-gradient-10);}.cls-11{fill:url(#linear-gradient-11);}.cls-12{fill:url(#linear-gradient-12);}.cls-13{fill:url(#linear-gradient-13);}.cls-14{fill:url(#linear-gradient-14);}.cls-15{fill:url(#linear-gradient-15);}.cls-16{fill:url(#linear-gradient-16);}.cls-17{fill:url(#linear-gradient-17);}.cls-18{fill:url(#radial-gradient);}.cls-19{fill:url(#radial-gradient-2);}.cls-20{fill:url(#radial-gradient-3);}.cls-21{fill:url(#radial-gradient-4);}.cls-22{fill:url(#radial-gradient-5);}.cls-23{fill:url(#radial-gradient-6);}.cls-24{fill:url(#radial-gradient-7);}.cls-25{fill:url(#radial-gradient-8);}.cls-26{fill:url(#radial-gradient-9);}.cls-27{fill:url(#radial-gradient-10);}.cls-28{fill:url(#radial-gradient-11);}.cls-29{fill:url(#radial-gradient-12);}</style><linearGradient id="linear-gradient" x1="32.85" y1="9.99" x2="30.72" y2="9.99" gradientUnits="userSpaceOnUse"><stop offset="0.19" stop-color="#e65a00"/><stop offset="0.37" stop-color="#fc8300"/><stop offset="1" stop-color="#e65a00"/></linearGradient><linearGradient id="linear-gradient-2" x1="27.87" y1="73.25" x2="30.47" y2="73.25" gradientUnits="userSpaceOnUse"><stop offset="0" stop-color="#e85b0c"/><stop offset="1" stop-color="#771914"/></linearGradient><linearGradient id="linear-gradient-3" x1="32.91" y1="71.73" x2="37.02" y2="71.73" xlink:href="#linear-gradient-2"/><linearGradient id="linear-gradient-4" x1="36.18" y1="72.12" x2="39.52" y2="72.12" xlink:href="#linear-gradient-2"/><linearGradient id="linear-gradient-5" x1="31.03" y1="74.46" x2="32.97" y2="74.46" xlink:href="#linear-gradient-2"/><linearGradient id="linear-gradient-6" x1="25.33" y1="72.65" x2="27.19" y2="72.65" xlink:href="#linear-gradient-2"/><linearGradient id="linear-gradient-7" x1="21.53" y1="73.88" x2="24.93" y2="73.88" xlink:href="#linear-gradient-2"/><linearGradient id="linear-gradient-8" x1="27.68" y1="72.59" x2="29.03" y2="72.59" xlink:href="#linear-gradient-2"/><linearGradient id="linear-gradient-9" x1="24.55" y1="71.07" x2="26.02" y2="71.07" xlink:href="#linear-gradient-2"/><linearGradient id="linear-gradient-10" x1="31.22" y1="72.18" x2="35.93" y2="72.18" xlink:href="#linear-gradient-2"/><linearGradient id="linear-gradient-11" x1="33.58" y1="69.94" x2="38.6" y2="69.94" xlink:href="#linear-gradient-2"/><linearGradient id="linear-gradient-12" x1="38.28" y1="70.56" x2="41.16" y2="70.56" xlink:href="#linear-gradient-2"/><linearGradient id="linear-gradient-13" x1="20.02" y1="68.26" x2="23.45" y2="68.26" xlink:href="#linear-gradient-2"/><linearGradient id="linear-gradient-14" x1="17.53" y1="66.27" x2="21.81" y2="66.27" xlink:href="#linear-gradient-2"/><linearGradient id="linear-gradient-15" x1="21.51" y1="70.99" x2="25.02" y2="70.99" xlink:href="#linear-gradient-2"/><linearGradient id="linear-gradient-16" x1="30.32" y1="72.94" x2="31.4" y2="72.94" xlink:href="#linear-gradient-2"/><linearGradient id="linear-gradient-17" x1="37.28" y1="71.65" x2="38.91" y2="71.65" xlink:href="#linear-gradient-2"/><radialGradient id="radial-gradient" cx="-12.77" cy="-45.96" r="7.17" gradientTransform="translate(38.59 42.01) scale(0.75)" gradientUnits="userSpaceOnUse"><stop offset="0" stop-color="#fcbf7b"/><stop offset="0.37" stop-color="#fc8300"/><stop offset="1" stop-color="#e65a00"/></radialGradient><radialGradient id="radial-gradient-2" cx="-10.81" cy="77.42" r="9.88" gradientTransform="translate(38.59 -15.36) scale(0.75 1.03)" gradientUnits="userSpaceOnUse"><stop offset="0" stop-color="#fc8300"/><stop offset="1" stop-color="#f76100"/></radialGradient><radialGradient id="radial-gradient-3" cx="-9.9" cy="-6.77" r="39.77" gradientTransform="translate(38.59 42.01) scale(0.75)" gradientUnits="userSpaceOnUse"><stop offset="0" stop-color="#fccf7b"/><stop offset="0.37" stop-color="#fcb300"/><stop offset="0.99" stop-color="#ef7e00"/></radialGradient><radialGradient id="radial-gradient-4" cx="-19.64" cy="-6.94" r="27.08" gradientTransform="translate(38.59 42.01) scale(0.75)" gradientUnits="userSpaceOnUse"><stop offset="0" stop-color="#e37600"/><stop offset="1" stop-color="#e85b00"/></radialGradient><radialGradient id="radial-gradient-5" cx="290.29" cy="-6.94" r="27.08" gradientTransform="translate(-62.7 42.01) scale(0.32 0.75)" xlink:href="#radial-gradient-4"/><radialGradient id="radial-gradient-6" cx="-718.11" cy="-6.94" r="27.08" gradientTransform="matrix(-0.32, 0, 0, 0.75, -192.99, 42.01)" xlink:href="#radial-gradient-4"/><radialGradient id="radial-gradient-7" cx="-29.51" cy="-10.93" r="21.29" xlink:href="#radial-gradient-4"/><radialGradient id="radial-gradient-8" cx="-37.7" cy="-13.49" r="21.58" xlink:href="#radial-gradient-4"/><radialGradient id="radial-gradient-9" cx="-449.92" cy="-6.94" r="27.08" gradientTransform="matrix(-0.75, 0, 0, 0.75, -299.53, 42.01)" xlink:href="#radial-gradient-4"/><radialGradient id="radial-gradient-10" cx="-459.79" cy="-10.93" r="21.29" gradientTransform="matrix(-0.75, 0, 0, 0.75, -299.53, 42.01)" xlink:href="#radial-gradient-4"/><radialGradient id="radial-gradient-11" cx="-467.97" cy="-13.49" r="21.58" gradientTransform="matrix(-0.75, 0, 0, 0.75, -299.53, 42.01)" xlink:href="#radial-gradient-4"/><radialGradient id="radial-gradient-12" cx="13.34" cy="-39.82" r="3.46" gradientTransform="translate(38.59 42.01) scale(0.75)" gradientUnits="userSpaceOnUse"><stop offset="0" stop-color="#fc8300"/><stop offset="1" stop-color="#e65a00"/></radialGradient></defs><title>Asset 3</title><g id="Layer_2" data-name="Layer 2"><g id="Layer_2-2" data-name="Layer 2"><path class="cls-1" d="M29,7.16a6.46,6.46,0,0,1,1-1.91c.53-.53.75.68,1.14,1.07a15,15,0,0,0,1.49,1.14s1.21-2,1.21-1.42.32,6.39.32,6.39l-.68,2.12s-4.37.77-4.56,0S29,7.16,29,7.16Z"/><path class="cls-2" d="M28.79,79a.3.3,0,0,1,.15-.4h0a.85.85,0,0,0,.59-.83h0a4.14,4.14,0,0,0-1.23-2.26h0a2,2,0,0,1-.44-1.39h0a4.73,4.73,0,0,1,1.3-3.18h0a2.79,2.79,0,0,0,.69-2h0a5.06,5.06,0,0,0-.14-1.2h0a.31.31,0,0,1,.21-.38h0a.31.31,0,0,1,.38.21h0a5.69,5.69,0,0,1,.17,1.37h0a3.39,3.39,0,0,1-.87,2.44h0a4.14,4.14,0,0,0-1.12,2.75h0a1.4,1.4,0,0,0,.26,1h0a4.61,4.61,0,0,1,1.4,2.7h0a1.48,1.48,0,0,1-.95,1.39h0a.3.3,0,0,1-.13,0h0a.3.3,0,0,1-.28-.18Z"/><path class="cls-3" d="M36.41,76c0-.78-1.07-1.9-2.17-3h0a3.69,3.69,0,0,1-1.33-2.6h0a3.23,3.23,0,0,1,.16-1h0a3.94,3.94,0,0,0,.18-1.12h0a2.89,2.89,0,0,0-.05-.54h0a.9.9,0,0,0,0-.16h0a.31.31,0,0,1,.17-.4h0a.31.31,0,0,1,.4.17h0a2.69,2.69,0,0,1,.14.93h0a4.41,4.41,0,0,1-.21,1.31h0a2.61,2.61,0,0,0-.13.8h0a3.09,3.09,0,0,0,1.15,2.16h0C35.75,73.67,37,74.73,37,76h0a.31.31,0,0,1-.3.3h0a.31.31,0,0,1-.31-.3Z"/><path class="cls-4" d="M38.91,77.78c0-1-.31-2.85-.31-4h0a2.32,2.32,0,0,0-.71-1.31h0c-.37-.46-.82-.84-.85-1.42h0c0-.6-.85-4.53-.85-4.54h0a.3.3,0,0,1,.23-.37h0a.31.31,0,0,1,.36.23h0s.86,3.86.87,4.67h0c0,.13.3.57.71,1h0a2.82,2.82,0,0,1,.85,1.71h0c0,1,.31,2.92.31,4h0a.31.31,0,0,1-.31.31h0a.31.31,0,0,1-.31-.31Z"/><path class="cls-5" d="M31,81.21c0-.81,1.19-4.08,1.32-4.73h0v0h0s-.26-1-.54-2h0a14.11,14.11,0,0,1-.56-3.18h0c0-1.72.08-3.6.08-3.6h0a.3.3,0,0,1,.32-.29h0a.3.3,0,0,1,.29.32h0s-.08,1.87-.08,3.58h0a13.48,13.48,0,0,0,.54,3h0c.27,1.06.54,1.82.56,2.13h0a21.7,21.7,0,0,1-.68,2.32h0a16.21,16.21,0,0,0-.65,2.44h0a.31.31,0,0,1-.31.31h0a.31.31,0,0,1-.31-.31Z"/><path class="cls-6" d="M25.46,78.42a.31.31,0,0,1-.08-.43h0c.87-1.26,1.09-1.81,1.09-2.23h0c0-.68-.68-1.51-.68-4.46h0a15.58,15.58,0,0,1,.28-3.57h0c.15-.59.37-.88.72-.9h0a.44.44,0,0,1,.28.1h0a.31.31,0,0,1,0,.43h0a.31.31,0,0,1-.29.11h0a1.45,1.45,0,0,0-.16.42h0a14.93,14.93,0,0,0-.26,3.42h0c0,2.88.65,3.43.68,4.46h0a4.91,4.91,0,0,1-1.2,2.58h0a.3.3,0,0,1-.25.13h0a.3.3,0,0,1-.17-.05Z"/><path class="cls-7" d="M23.16,81a.31.31,0,0,1-.15-.41h0a4.69,4.69,0,0,0,.38-2h0a15.79,15.79,0,0,0-1.48-5.87h0A4.55,4.55,0,0,1,21.53,71h0c0-2.83,2.94-4.21,3-4.23h0a.31.31,0,0,1,.41.14h0a.31.31,0,0,1-.14.41h0a6.29,6.29,0,0,0-1.31,1h0A3.79,3.79,0,0,0,22.15,71h0a3.93,3.93,0,0,0,.34,1.54h0A16.32,16.32,0,0,1,24,78.62h0a5.27,5.27,0,0,1-.44,2.26h0a.31.31,0,0,1-.28.17h0a.28.28,0,0,1-.13,0Z"/><path class="cls-8" d="M27.91,78s-.22-2-.22-4.1h0A16.13,16.13,0,0,1,28,70.45h0a13,13,0,0,0,.42-2.8h0a2.35,2.35,0,0,0,0-.33h0a.28.28,0,0,0,0-.05h0a.31.31,0,0,1,.19-.39h0a.31.31,0,0,1,.39.2h0a2,2,0,0,1,.06.58h0a13.41,13.41,0,0,1-.44,2.94h0a15.83,15.83,0,0,0-.29,3.35h0c0,2.09.22,4,.22,4h0a.31.31,0,0,1-.27.34h0a.31.31,0,0,1-.31-.27Z"/><path class="cls-9" d="M24.55,76.22c0-1.63.39-2.3.39-5.07h0a31,31,0,0,1,.47-5.29h0a.3.3,0,0,1,.36-.24h0A.31.31,0,0,1,26,66h0a30.68,30.68,0,0,0-.46,5.17h0c0,2.84-.4,3.58-.39,5.07h0a.3.3,0,0,1-.3.3h0a.3.3,0,0,1-.31-.3Z"/><path class="cls-10" d="M35.32,77.78V77.6h0c0-.67,0-1.49-2.64-4.13h0A4.77,4.77,0,0,1,31.22,70h0a7.23,7.23,0,0,1,1.06-3.58h0a.31.31,0,0,1,.42-.09h0a.31.31,0,0,1,.09.42h0a6.08,6.08,0,0,0-.48,1h0A6.21,6.21,0,0,0,31.84,70h0a4.16,4.16,0,0,0,1.27,3h0c2.65,2.63,2.83,3.73,2.82,4.56h0v.18h0a.31.31,0,0,1-.31.31h0a.31.31,0,0,1-.31-.31Z"/><path class="cls-11" d="M38.09,73.71a.3.3,0,0,1-.27-.33h0c.09-.88.17-1.33.17-1.5h0v0h0l-.39-.17h0a8.75,8.75,0,0,1-2.42-1.86h0c-1.14-1.16-1.57-1.9-1.59-2.53h0a1,1,0,0,1,.74-1h0a2.49,2.49,0,0,1,.85-.14h.09a.31.31,0,0,1,.28.33h0a.31.31,0,0,1-.33.28h0a1.94,1.94,0,0,0-.63.1h0c-.23.1-.34.18-.34.4h0c0,.3.3,1,1.41,2.09h0a7.44,7.44,0,0,0,2.73,2h0a.61.61,0,0,1,.26.54h0c0,.29-.09.69-.17,1.56h0a.31.31,0,0,1-.3.28h0Z"/><path class="cls-12" d="M40.55,75.33s-.18-1-.5-2.19h0a7.82,7.82,0,0,0-1.22-2.87h0a2.49,2.49,0,0,1-.56-1.78h0a10.28,10.28,0,0,1,.48-2.75h0a.31.31,0,0,1,.39-.2h0a.31.31,0,0,1,.19.39h0a9.9,9.9,0,0,0-.45,2.55h0a1.92,1.92,0,0,0,.38,1.34h0c1.19,1.24,1.86,5.36,1.88,5.39h0a.3.3,0,0,1-.25.35h-.05a.31.31,0,0,1-.3-.25Z"/><path class="cls-13" d="M20,70.68c0-2.95,2.92-5.05,2.93-5.08h0a.31.31,0,0,1,.43.06h0a.31.31,0,0,1-.06.43h0A8.83,8.83,0,0,0,22,67.43h0a5.35,5.35,0,0,0-1.34,3.25h0a.31.31,0,0,1-.31.31h0a.31.31,0,0,1-.31-.31Z"/><path class="cls-14" d="M17.55,67.21a.3.3,0,0,1,.15-.4h0l3.67-1.64a.3.3,0,0,1,.4.15h0a.31.31,0,0,1-.15.4h0L18,67.37l-.12,0h0a.31.31,0,0,1-.28-.18Z"/><path class="cls-15" d="M21.73,76.28a.3.3,0,0,1-.21-.37h0a7.4,7.4,0,0,1,1.19-2.65h0a7.09,7.09,0,0,0,1.16-2.36h0a11.92,11.92,0,0,0,.54-3.55h0A8.41,8.41,0,0,0,24.32,66h0a.31.31,0,0,1,.25-.36h0a.31.31,0,0,1,.35.25h0a9,9,0,0,1,.09,1.4h0a12.67,12.67,0,0,1-.57,3.74h0A7.81,7.81,0,0,1,23.2,73.6h0a6.7,6.7,0,0,0-1.1,2.46h0a.31.31,0,0,1-.3.22h-.08Z"/><path class="cls-16" d="M30.41,79.79a.31.31,0,0,1,0-.43h0a1.72,1.72,0,0,0,.37-1.29h0c0-1-.3-2.61-.31-4.74h0v-7h0a.31.31,0,0,1,.31-.31h0a.31.31,0,0,1,.31.31h0v7h0c0,2.07.3,3.59.3,4.74h0a2.3,2.3,0,0,1-.55,1.72h0a.3.3,0,0,1-.22.09h0a.31.31,0,0,1-.22-.09Z"/><path class="cls-17" d="M37.5,77.23a18.62,18.62,0,0,0,.79-4.13h0a7,7,0,0,0-.38-2.33h0a9.91,9.91,0,0,1-.63-3.27h0a4,4,0,0,1,.25-1.57h0a.3.3,0,0,1,.41-.14h0a.3.3,0,0,1,.14.41h0a2.06,2.06,0,0,0-.09.29h0a4.48,4.48,0,0,0-.1,1h0a9.35,9.35,0,0,0,.59,3.07h0a7.58,7.58,0,0,1,.42,2.53h0a15.91,15.91,0,0,1-.79,4.13h0a.31.31,0,0,1-.31.3h0a.31.31,0,0,1-.3-.3Z"/><path class="cls-18" d="M27.93,14.89s-.61-4.6-.61-7S28,0,28,0a14,14,0,0,1,.35,2.69c0,1.25.92,1.21.92,1.85A4.8,4.8,0,0,0,29.59,6l1.08,2.56v5.25Z"/><ellipse class="cls-19" cx="30.46" cy="64.56" rx="10.19" ry="3.53"/><path class="cls-20" d="M44.58,24.61s-7.75-1.28-8.82-3.79a18.76,18.76,0,0,1-1.42-6.69,18.6,18.6,0,0,0-1.18-5.57c-.43-.69-2,.29-2,.29h0s-1.56-1-2-.29A18.59,18.59,0,0,0,28,14.12a18.74,18.74,0,0,1-1.41,6.69c-1.07,2.51-8.82,3.79-8.82,3.79C-.31,28.2,0,43.58,0,43.58c.62,23.14,30.83,22,31.15,21.94s30.53,1.2,31.15-21.94C62.3,43.58,62.61,28.2,44.58,24.61Z"/><path class="cls-21" d="M29.47,8.55a8.93,8.93,0,0,0-.66,2.06c0,3.64-.37,11-2.62,12.47-3,2-8.31,6.31-8,20.27.26,13.74,2.36,19.07,4.75,21.56l.79.12c-2.44-2.44-4.59-7.71-4.86-21.68s5-18.26,8-20.27S29.47,8.55,29.47,8.55Z"/><path class="cls-22" d="M31.91,8.55a18.69,18.69,0,0,0-.28,2.06c0,3.64-.16,11-1.1,12.47-1.27,2-3.51,6.31-3.4,20.27.11,13.74,1,19.07,2,21.56l.33.12c-1-2.44-1.94-7.71-2.05-21.68s2.12-18.26,3.4-20.27S31.91,8.55,31.91,8.55Z"/><path class="cls-23" d="M32.77,8.55A18.75,18.75,0,0,1,33,10.61c0,3.64.16,11,1.11,12.47,1.27,2,3.51,6.31,3.4,20.27-.11,13.74-1,19.07-2,21.56l-.33.12c1-2.44,1.94-7.71,2.05-21.68s-2.13-18.26-3.4-20.27S32.77,8.55,32.77,8.55Z"/><path class="cls-24" d="M10.38,43.35c0-12.66,10.42-19.41,10.46-19.44l-1.18.3c-2,1.43-10,8-10,19.14,0,11.84,4,18.05,7,20.2l1.39.4C15,62.27,10.38,56,10.38,43.35Z"/><path class="cls-25" d="M16.87,24.79c-.45.1-.88.21-1.3.33-2.13,1.22-9.05,6-10.75,17.69-1.5,10.26,2.91,15.76,5.3,17.92.68.4,1.38.77,2.09,1.11,0,0-8.74-5.2-6.73-19S16.82,24.81,16.87,24.79Z"/><path class="cls-26" d="M33.16,8.55a9.13,9.13,0,0,1,.65,2.06c0,3.64.37,11,2.61,12.47,3,2,8.31,6.31,8,20.27-.26,13.74-2.36,19.07-4.75,21.56l-.79.12c2.44-2.44,4.59-7.71,4.86-21.68s-5-18.26-8-20.27S33.16,8.55,33.16,8.55Z"/><path class="cls-27" d="M52.25,43.35c0-12.66-10.42-19.41-10.46-19.44l1.19.3c2,1.43,10,8,10,19.14,0,11.84-4,18.05-7,20.2l-1.39.4C47.64,62.27,52.25,56,52.25,43.35Z"/><path class="cls-28" d="M45.76,24.79c.45.1.88.21,1.3.33,2.13,1.22,9.05,6,10.76,17.69,1.5,10.26-2.92,15.76-5.3,17.92-.69.4-1.38.77-2.1,1.11,0,0,8.74-5.2,6.73-19S45.81,24.81,45.76,24.79Z"/><path class="cls-29" d="M28.17,6.1s.09,3.94.09,5.59a6.79,6.79,0,0,0,.76,3S28.85,7.43,28.17,6.1Z"/></g></g></svg>