<?xml version="1.0" encoding="utf-8"?>
<!-- Generator: Adobe Illustrator 19.0.0, SVG Export Plug-In . SVG Version: 6.00 Build 0)  -->
<svg version="1.1" id="Layer_1" xmlns="http://www.w3.org/2000/svg" xmlns:xlink="http://www.w3.org/1999/xlink" x="0px" y="0px"
	 viewBox="0 0 792 1224" style="enable-background:new 0 0 792 1224;" xml:space="preserve">
<style type="text/css">
	.st0{fill:url(#XMLID_4_);stroke:#FFFFFF;stroke-miterlimit:10;}
	.st1{fill:url(#XMLID_5_);stroke:#FFFFFF;stroke-miterlimit:10;}
	.st2{fill:#3D3D3D;}
</style>
<linearGradient id="XMLID_4_" gradientUnits="userSpaceOnUse" x1="431.7745" y1="850.6979" x2="460.2052" y2="850.6979">
	<stop  offset="0" style="stop-color:#C5C5C5"/>
	<stop  offset="0.7086" style="stop-color:#FAFAFA"/>
	<stop  offset="0.8078" style="stop-color:#F7F7F7"/>
	<stop  offset="0.8771" style="stop-color:#EEEEEE"/>
	<stop  offset="0.9373" style="stop-color:#DFDFDF"/>
	<stop  offset="0.992" style="stop-color:#C9C9C9"/>
	<stop  offset="1" style="stop-color:#C5C5C5"/>
</linearGradient>
<path id="XMLID_11_" class="st0" d="M431.8,739v223.3h28.4V739H431.8z M452.4,937.1c0,0.4,0.1,0.8,0.1,1.1c0,0.1,0.1,0.3,0.1,0.6
	c0.6,3.9-1,7.4-4.9,8.7c-3.4,1.1-8.1-1.3-8.7-4.9c-0.8-4.9-0.9-9.4,0-14.3c0.7-3.9,5.2-5.7,8.7-4.9c3.9,0.9,5.6,5.1,4.9,8.7
	c-0.1,0.3-0.1,0.6-0.2,0.9c0,0.1,0,0.2,0,0.4c0,0.6-0.1,1.2-0.1,1.9C452.3,935.8,452.4,936.5,452.4,937.1z"/>
<radialGradient id="XMLID_5_" cx="443.7017" cy="567.9398" r="175.4717" gradientUnits="userSpaceOnUse">
	<stop  offset="0" style="stop-color:#515151"/>
	<stop  offset="0.3344" style="stop-color:#4F4F4F"/>
	<stop  offset="0.5301" style="stop-color:#464646"/>
	<stop  offset="0.69" style="stop-color:#383838"/>
	<stop  offset="0.8306" style="stop-color:#242424"/>
	<stop  offset="0.9574" style="stop-color:#0A0A0A"/>
	<stop  offset="1" style="stop-color:#000000"/>
</radialGradient>
<circle id="XMLID_1_" class="st1" cx="443.7" cy="567.9" r="175.5"/>
<circle id="XMLID_2_" class="st2" cx="443.7" cy="567.9" r="122.8"/>
</svg>
