<svg xmlns="http://www.w3.org/2000/svg" xmlns:xlink="http://www.w3.org/1999/xlink" viewBox="0 0 352 570.9"><defs><style>.cls-1,.cls-2{stroke:#fff;stroke-miterlimit:10;}.cls-1{fill:url(#linear-gradient);}.cls-2{fill:url(#radial-gradient);}.cls-3{fill:#3d3d3d;}</style><linearGradient id="linear-gradient" x1="164.1" y1="-18.55" x2="192.53" y2="-18.55" gradientTransform="matrix(1, 0, 0, -1, 0, 440.2)" gradientUnits="userSpaceOnUse"><stop offset="0" stop-color="#c5c5c5"/><stop offset="0.71" stop-color="#fafafa"/><stop offset="0.81" stop-color="#f7f7f7"/><stop offset="0.88" stop-color="#eee"/><stop offset="0.94" stop-color="#dfdfdf"/><stop offset="0.99" stop-color="#c9c9c9"/><stop offset="1" stop-color="#c5c5c5"/></linearGradient><radialGradient id="radial-gradient" cx="176" cy="264.2" r="175.5" gradientTransform="matrix(1, 0, 0, -1, 0, 440.2)" gradientUnits="userSpaceOnUse"><stop offset="0" stop-color="#515151"/><stop offset="0.33" stop-color="#4f4f4f"/><stop offset="0.53" stop-color="#464646"/><stop offset="0.69" stop-color="#383838"/><stop offset="0.83" stop-color="#242424"/><stop offset="0.96" stop-color="#0a0a0a"/><stop offset="1"/></radialGradient></defs><title>Asset 1</title><g id="Layer_2" data-name="Layer 2"><g id="Layer_1-2" data-name="Layer 1"><path id="_Compound_Path_" data-name="&lt;Compound Path&gt;" class="cls-1" d="M164.1,347.1V570.4h28.4V347.1Zm20.6,198.1c0,.4.1.8.1,1.1a3.54,3.54,0,0,1,.1.6c.6,3.9-1,7.4-4.9,8.7-3.4,1.1-8.1-1.3-8.7-4.9a40.42,40.42,0,0,1,0-14.3c.7-3.9,5.2-5.7,8.7-4.9,3.9.9,5.6,5.1,4.9,8.7-.1.3-.1.6-.2.9v.4c0,.6-.1,1.2-.1,1.9C184.6,543.9,184.7,544.6,184.7,545.2Z"/><circle id="_Path_" data-name="&lt;Path&gt;" class="cls-2" cx="176" cy="176" r="175.5"/><circle id="_Path_2" data-name="&lt;Path&gt;" class="cls-3" cx="176" cy="176" r="122.8"/></g></g></svg>