<svg xmlns="http://www.w3.org/2000/svg" xmlns:xlink="http://www.w3.org/1999/xlink" viewBox="0 0 54.79 68.21"><defs><style>.cls-1,.cls-2,.cls-4{stroke:#8f0000;}.cls-1,.cls-2{stroke-width:2.2px;}.cls-1{fill:url(#radial-gradient);}.cls-2{fill:url(#radial-gradient-2);}.cls-3{fill:url(#linear-gradient);}.cls-10,.cls-4,.cls-5,.cls-6{stroke-width:0.55px;}.cls-4{fill:url(#linear-gradient-2);}.cls-5,.cls-6{stroke:#bf0000;}.cls-5{fill:url(#linear-gradient-3);}.cls-6{fill:url(#radial-gradient-3);}.cls-7{fill:url(#radial-gradient-4);}.cls-8{fill:url(#radial-gradient-5);}.cls-9{fill:url(#linear-gradient-4);}.cls-10{stroke:#00a33d;fill:url(#radial-gradient-6);}.cls-11{fill:#f95b30;}.cls-12{fill:#00bf32;}.cls-13{fill:#7c0404;}.cls-14{fill:#ff4000;}.cls-15{fill:url(#linear-gradient-5);}</style><radialGradient id="radial-gradient" cx="502.21" cy="-530.7" r="15.72" gradientTransform="matrix(2.01, 0.89, 0.89, -2.01, -514.05, -1491.44)" gradientUnits="userSpaceOnUse"><stop offset="0.12" stop-color="red"/><stop offset="1" stop-color="#8f0000"/></radialGradient><radialGradient id="radial-gradient-2" cx="818.82" cy="-854.73" r="10.04" gradientTransform="matrix(1, 0, 0, -1, -655.46, -280.27)" xlink:href="#radial-gradient"/><linearGradient id="linear-gradient" x1="892.35" y1="-540.64" x2="900.33" y2="-552.61" gradientTransform="matrix(0.91, 0.41, 0.41, -0.91, -571.06, -852.72)" xlink:href="#radial-gradient"/><linearGradient id="linear-gradient-2" x1="904.58" y1="-550.29" x2="917.55" y2="-537.72" gradientTransform="matrix(0.91, 0.41, 0.41, -0.91, -571.06, -852.72)" xlink:href="#radial-gradient"/><linearGradient id="linear-gradient-3" x1="878.45" y1="-555.12" x2="897.26" y2="-555.12" gradientTransform="matrix(0.91, 0.41, 0.41, -0.91, -571.06, -852.72)" xlink:href="#radial-gradient"/><radialGradient id="radial-gradient-3" cx="498.7" cy="-535.9" r="16.14" gradientTransform="matrix(2.01, 0.89, 0.89, -2.01, -514.05, -1491.44)" gradientUnits="userSpaceOnUse"><stop offset="0" stop-color="#ce0000"/><stop offset="0.54" stop-color="red"/><stop offset="0.62" stop-color="#fa0000"/><stop offset="0.71" stop-color="#ec0000"/><stop offset="0.81" stop-color="#d40000"/><stop offset="0.91" stop-color="#b20000"/><stop offset="1" stop-color="#8f0000"/></radialGradient><radialGradient id="radial-gradient-4" cx="823.36" cy="-850.67" r="2.76" gradientTransform="matrix(1, 0, 0, -1, -655.46, -280.27)" xlink:href="#radial-gradient"/><radialGradient id="radial-gradient-5" cx="503.73" cy="-525.99" r="4.3" gradientTransform="matrix(2.01, 0.89, 0.89, -2.01, -514.05, -1491.44)" gradientUnits="userSpaceOnUse"><stop offset="0.12" stop-color="#00a33d"/><stop offset="0.8" stop-color="#006b33"/></radialGradient><linearGradient id="linear-gradient-4" x1="893.17" y1="-547.63" x2="897.16" y2="-543.84" gradientTransform="matrix(0.91, 0.41, 0.41, -0.91, -571.06, -852.72)" xlink:href="#radial-gradient-5"/><radialGradient id="radial-gradient-6" cx="816.47" cy="-846.27" r="1.03" gradientTransform="matrix(1, 0, 0, -1, -655.46, -280.27)" xlink:href="#radial-gradient-5"/><linearGradient id="linear-gradient-5" x1="920.5" y1="-546.33" x2="920.5" y2="-540.58" gradientTransform="matrix(0.91, 0.41, 0.41, -0.91, -571.06, -852.72)" gradientUnits="userSpaceOnUse"><stop offset="0" stop-color="#8f0000"/><stop offset="0.07" stop-color="#900"/><stop offset="0.5" stop-color="#d00000"/><stop offset="0.83" stop-color="#f20000"/><stop offset="1" stop-color="red"/></linearGradient></defs><title>Asset 1</title><g id="Layer_2" data-name="Layer 2"><g id="Layer_1-2" data-name="Layer 1"><path class="cls-1" d="M2.94,19a17.27,17.27,0,0,0-1.41,9.54A78.45,78.45,0,0,0,6.89,50.29c2.66,6.29,6.52,16,14.17,16.75a18.8,18.8,0,0,0,5.53-.37c1.84-.41,3.22-2.51,5-2.11,1.35.3,2.82,0,5-.91a19.36,19.36,0,0,0,4.89-3.29c5-4.17,6.35-9.73,8.58-15.6C51.13,42,54.38,31,53.56,24.85c-.51-3.8-.23-5.18-4.33-7.61a58.77,58.77,0,0,0-8.42-3.62c-2.93-1.15-5.62-2.88-8.82-3-3.66-.11-7.52.75-11.19,1a30.34,30.34,0,0,1-6.07,0C5.77,10.27,3.85,16.92,2.94,19Z"/><path class="cls-2" d="M2.67,19.07a17.21,17.21,0,0,0-1.41,9.54c.9,7.56,1.62,11.67,4.62,18.74-6.16-24.43,14.39-32,9.34-34.57C7.15,8.68,3.55,17,2.67,19.07Z"/><path class="cls-3" d="M34.66,7.34a12,12,0,0,0-9.07-2.4c-3.28.41-8,1.51-10.62,4.63.82.83,2,1.39,3,2.24a25.22,25.22,0,0,1,2.83,3.76c1.34,1.89,1.5,1.49,3.68,1.12a16.38,16.38,0,0,0,4.76-1S31.38,7.88,34.66,7.34Z"/><path class="cls-4" d="M29.36,15.56c0-2.06,2-5.66,3.44-7.08,2.48-2.47,6.14-1.18,8.93.07a18.63,18.63,0,0,1,10.52,11.3c-1.31-.81-2.18-1.92-3.72-2.46a11.35,11.35,0,0,0-4.83-.18c-3.89.41-7.39,1.87-11,3.36-.55-.77-.48-1.92-1-2.78a12.5,12.5,0,0,0-2.28-2.34Z"/><path class="cls-5" d="M18.1,18.73c.52-1.17,1.55-2.44,1.92-3.61.48-1.5-.73-3.3-1.77-4.38a4,4,0,0,0-4-1.17,20.11,20.11,0,0,0-5.11,1.75c-3,1.76-2.79,5.94-.56,8.56,1.78,2.09,2,.1,3.52-1C14.67,17.07,18.1,18.73,18.1,18.73Z"/><path class="cls-6" d="M17.88,19.24c-2.1-4-6.36.07-8.17,2.29s-3.35,5.82-4.45,8.64c-5,13,5.5,28.13,7.51,31.68,1.67,2.94,5.66,5,9.57,5.31,7.17.46,13.4-9.94,14.32-11.38,5-7.8,6-17.63,3.4-26.44a20.16,20.16,0,0,0-3.3-6.93C35,20.21,33.2,20.23,30.53,21c-2.83.81-12.16,2.81-12.66-2Z"/><path class="cls-7" d="M20.75,13.17c-1.54,2.33-1.86,3.78-4.13,4.57,1.35,1.39,1.85,3.46,3.73,4.17a14.54,14.54,0,0,0,7.54.49c4-.5,8.92-1.64,11-4.64C33.17,15.29,31.26,11.3,30.7,12c-3.64,4.23-8.12.78-9.89,1.08Z"/><path class="cls-8" d="M21.4,13.93a24.55,24.55,0,0,1-3.58,4.37c1.2,1.23,1.57,2.77,3.23,3.39a12.94,12.94,0,0,0,6.7.43c3.56-.45,8.75-.59,9.26-5.13a8.84,8.84,0,0,1-3.83-1.7c-.79-.61-1.79-3.65-2.29-3.08-3.23,3.75-8.33,2-9.42,1.59Z"/><path class="cls-9" d="M17.33,5.57c5.3.24,6,7.42,4.24,10.9-.18.37-.77,1-.84,1.36-.1.61.44.92.93,1.21.94.57,8.37,2.53,9.36-2.41-1-.56-2.17-4.78-2.68-5.86s-1.11-2-1.6-3.09a20,20,0,0,0-2-2.78,19.55,19.55,0,0,0-4.48-3.72c-1.26-.55-1.74.22-2,1.32-.18.94-.87,1.82-.88,2.82Z"/><path class="cls-10" d="M19.78,1.49c.37-.6-.38-1-1-1.14C17.28,0,16.47,1,15.85,2.19,15,3.92,17.14,6,17.3,5.58A10.8,10.8,0,0,1,19.78,1.49Z"/><path class="cls-11" d="M28.8,29c-.21,2.09-2.07,3.48-5.23,3.4s-5.66-1.2-6.17-3.71c-.22-1.09,2.55.07,5.7.16S28.91,27.93,28.8,29Z"/><path class="cls-12" d="M23.89,18.5c-1.22-.48-.79-3-.87-3.35A18.08,18.08,0,0,0,22.46,9a7.13,7.13,0,0,0-2-3.44c-.83-.72-1.64-.89-1.62-1.1S19.75,4,21,4.6a7.41,7.41,0,0,1,3.27,3.65,17.61,17.61,0,0,1,1.52,7C26,15.49,25.43,19.06,23.89,18.5Z"/><path class="cls-13" d="M32.86,63.46c19-15,18.61-32,19-35.47s0-5.75.4-5.87,1.55,2.16,1.75,5.93a40.83,40.83,0,0,1-1.83,13.48,59.4,59.4,0,0,1-5.37,12.73A42.21,42.21,0,0,1,43,59.89a17.38,17.38,0,0,1-4.47,3.73C36.06,65.08,32.92,64.94,32.86,63.46Z"/><path class="cls-14" d="M9.44,19.73c-.27.35-1.07,0-1.63-.75a3.87,3.87,0,0,1-.73-1.85,5.94,5.94,0,0,1,.24-2.35,8.61,8.61,0,0,1,2.5-3.88A5.69,5.69,0,0,1,14,9.26c1.3.16,1.85.88,1.79.93A5.77,5.77,0,0,0,14,10a5.24,5.24,0,0,0-3.29,1.85,7.54,7.54,0,0,0-1.79,3.39,4.59,4.59,0,0,0-.06,1.72,5.34,5.34,0,0,0,.33,1.3C9.37,18.73,9.73,19.33,9.44,19.73Z"/><path class="cls-15" d="M53.47,24.06c-.11,2.38-1.11,2.66-2.38,1-.87-1.18-1.53-3.25-2.63-4.23a16,16,0,0,0-7.28-3.22S53.9,14.28,53.47,24.06Z"/></g></g></svg>