<svg xmlns="http://www.w3.org/2000/svg" viewBox="0 0 127.85 76.58"><defs><style>.cls-1{fill:#dc901a;}.cls-2{fill:#a96621;}.cls-3{fill:#dc9d21;}.cls-4{fill:#7a4a21;}</style></defs><title>Asset 1</title><g id="Layer_2" data-name="Layer 2"><g id="Layer_2-2" data-name="Layer 2"><path class="cls-1" d="M96.59,0C88.41-.35,79,1.6,73.65,9.23c-10.77,2.69-28.6,1.42-27.25,27.45C48.11,69.83,90.65,66.21,109,55.77S145,2.41,96.59,0Z"/><path class="cls-2" d="M127.47,28c-13.9,32.14-40.49,32.49-57,30.32-12.61-1.66-20.56-13.13-23.84-19C50.48,69.61,91.16,65.92,109,55.77,117.36,51,125.61,39.42,127.47,28Z"/><path class="cls-2" d="M59.69,44S64.32,61.39,82,60.39s23.59-7,30.33-18.95c0,0-11.85,16-28.25,16.38S59.69,44,59.69,44Z"/><path class="cls-2" d="M82,18.15s-2.89,2.51-1.87,4.28,4.69,2.35,6.36,1.8C86.52,24.23,78.9,23.1,82,18.15Z"/><path class="cls-2" d="M82,18.15s-1.55,4,4.69,6.1C86.72,24.25,76.67,24.66,82,18.15Z"/><path class="cls-2" d="M65.9,40.21S63,42.72,64,44.49s4.69,2.35,6.36,1.8C70.39,46.29,62.77,45.15,65.9,40.21Z"/><path class="cls-2" d="M65.9,40.21s-1.55,4,4.69,6.1C70.58,46.3,60.54,46.71,65.9,40.21Z"/><path class="cls-2" d="M89.95,40.5S87.06,43,88.08,44.78s4.69,2.35,6.36,1.8C94.44,46.58,86.82,45.45,89.95,40.5Z"/><path class="cls-2" d="M89.95,40.5s-1.55,4,4.69,6.09C94.63,46.6,84.59,47,89.95,40.5Z"/><path class="cls-2" d="M101.58,26.95s-3.14,2.39-1.84,4.3,5.56,2.77,7.44,2.32C107.19,33.57,98.34,31.85,101.58,26.95Z"/><path class="cls-2" d="M101.58,26.95s-1.49,4.07,5.83,6.65C107.41,33.6,95.9,33.3,101.58,26.95Z"/><path class="cls-2" d="M77.32,34.62s-1.85,3.18-.94,4.58,3.62.92,4.77-.06C81.15,39.14,75.53,40.18,77.32,34.62Z"/><path class="cls-2" d="M77.32,34.62s-.74,4.25,4,4.48C81.29,39.1,74.07,42.27,77.32,34.62Z"/><path class="cls-2" d="M61.71,26.34s-1.85,3.18-.94,4.57,3.62.92,4.77-.06C65.54,30.85,59.92,31.89,61.71,26.34Z"/><path class="cls-2" d="M61.71,26.34s-.74,4.25,4,4.47C65.68,30.81,58.46,34,61.71,26.34Z"/><path class="cls-3" d="M75.86,47.94c-1-7.85-9.1-13.45-17.72-16.62S43.07,19.79,27,26.07c-6.65,2.6-11.21,7.35-16,11.71C3.79,44.47-1.81,51.56.55,58.4c2.53,7.3,9.68,17,31.63,18.11,11.92.59,23-2.16,29.37-5.48C75.6,63.74,76.9,56.16,75.86,47.94Z"/><path class="cls-4" d="M72.23,50.28a1.53,1.53,0,0,0-.38,2.19c.79.88,2.72,0,2.69-1.13S72.91,49.84,72.23,50.28Z"/><path class="cls-4" d="M72.31,50.4c-.76.37-.3,1.58.77,1.35S73,50,72.31,50.4Z"/><path class="cls-4" d="M23.21,55.42A1.53,1.53,0,0,0,21,55.28c-.79.88.27,2.7,1.41,2.56S23.72,56,23.21,55.42Z"/><path class="cls-4" d="M23.1,55.51c-.45-.71-1.6-.13-1.26.92S23.53,56.2,23.1,55.51Z"/><path class="cls-4" d="M16.77,65.52c-.31.07-1.1.57-.8,1.34A1.2,1.2,0,0,0,18,66.8C18.3,66,17.33,65.4,16.77,65.52Z"/><path class="cls-4" d="M16.79,65.61c-.59.05-.59,1,.17,1.08S17.36,65.56,16.79,65.61Z"/><path class="cls-2" d="M58.14,31.32a41.4,41.4,0,0,1-5.48-2.62c-.61,2.56-3.45,5.75-3.45,5.75s7-1.38,9.57-2.89Z"/><path class="cls-2" d="M17.64,41.91c-2.22-2.72-2.18-6.17-1.77-8.54-1.63,1.45-3.2,2.95-4.79,4.41l-.1.1A13.22,13.22,0,0,0,16.48,44C23.52,48.62,29,45.8,29,45.8S21.4,46.53,17.64,41.91Z"/><path class="cls-2" d="M70.75,48.29a9,9,0,0,0,.42,5.35,3.83,3.83,0,0,0,3.25,2.62,12.32,12.32,0,0,1-4.53-.05C67.6,55.7,66.09,51.34,70.75,48.29Z"/><path class="cls-2" d="M27.86,69.85c9.51-1.12,18.44-2.27,28.25-4.32a46.14,46.14,0,0,0,16.34-6.81s-2.62,8.61-25.38,14.75c-13.59,3.67-27.58-.74-32.43-2.36s-6.77-3.68-6.77-3.68S13.43,71.55,27.86,69.85Z"/><path class="cls-4" d="M47.92,38a1.53,1.53,0,0,0-2.22-.14c-.79.88.27,2.7,1.41,2.56S48.43,38.6,47.92,38Z"/><path class="cls-4" d="M47.81,38.07c-.45-.72-1.6-.13-1.25.92S48.24,38.75,47.81,38.07Z"/><path class="cls-4" d="M57.43,56.31c-.31.07-1.1.57-.8,1.35a1.2,1.2,0,0,0,2.05-.07C59,56.84,58,56.19,57.43,56.31Z"/><path class="cls-4" d="M57.45,56.41c-.59.05-.59,1,.17,1.08S58,56.36,57.45,56.41Z"/><path class="cls-4" d="M42.93,48.31c-.31.07-1.1.57-.8,1.35a1.2,1.2,0,0,0,2.05-.07C44.46,48.84,43.49,48.19,42.93,48.31Z"/><path class="cls-4" d="M43,48.41c-.59.05-.59,1,.17,1.08S43.51,48.36,43,48.41Z"/><path class="cls-4" d="M59.43,39.31c-.31.07-1.1.57-.8,1.35a1.2,1.2,0,0,0,2.05-.07C61,39.84,60,39.19,59.43,39.31Z"/><path class="cls-4" d="M59.45,39.41c-.59.05-.59,1,.17,1.08S60,39.36,59.45,39.41Z"/><path class="cls-4" d="M51.07,49.14c-.31.07-1.1.57-.8,1.35a1.2,1.2,0,0,0,2.05-.07C52.59,49.66,51.62,49,51.07,49.14Z"/><path class="cls-4" d="M51.09,49.23c-.59.05-.59,1,.17,1.08S51.65,49.19,51.09,49.23Z"/><path class="cls-4" d="M66.57,46.64c-.31.07-1.1.57-.8,1.35a1.2,1.2,0,0,0,2.05-.07C68.09,47.16,67.12,46.52,66.57,46.64Z"/><path class="cls-4" d="M66.59,46.73c-.59.05-.59,1,.17,1.08S67.15,46.69,66.59,46.73Z"/><path class="cls-4" d="M48.89,60.56c-.31.07-1.1.57-.8,1.35a1.2,1.2,0,0,0,2.05-.07C50.42,61.08,49.45,60.44,48.89,60.56Z"/><path class="cls-4" d="M48.92,60.65c-.59.05-.59,1,.17,1.08S49.48,60.61,48.92,60.65Z"/><path class="cls-4" d="M33.89,64.06c-.31.07-1.1.57-.8,1.35a1.2,1.2,0,0,0,2.05-.07C35.42,64.58,34.45,63.94,33.89,64.06Z"/><path class="cls-4" d="M33.92,64.15c-.59.05-.59,1,.17,1.08S34.48,64.11,33.92,64.15Z"/><path class="cls-4" d="M21.57,36.64c-.31.07-1.1.57-.8,1.35a1.2,1.2,0,0,0,2.05-.07C23.09,37.16,22.12,36.52,21.57,36.64Z"/><path class="cls-4" d="M21.59,36.73c-.59.05-.59,1,.17,1.08S22.15,36.69,21.59,36.73Z"/><path class="cls-4" d="M32.57,30.14c-.31.07-1.1.57-.8,1.35a1.2,1.2,0,0,0,2.05-.07C34.09,30.66,33.12,30,32.57,30.14Z"/><path class="cls-4" d="M32.59,30.23c-.59.05-.59,1,.17,1.08S33.15,30.19,32.59,30.23Z"/><path class="cls-4" d="M8.07,46.14c-.31.07-1.1.57-.8,1.35a1.2,1.2,0,0,0,2.05-.07C9.59,46.66,8.62,46,8.07,46.14Z"/><path class="cls-4" d="M8.09,46.23c-.59.05-.59,1,.17,1.08S8.65,46.19,8.09,46.23Z"/><path class="cls-4" d="M6.89,58.06c-.31.07-1.1.57-.8,1.35a1.2,1.2,0,0,0,2.05-.07C8.42,58.58,7.45,57.94,6.89,58.06Z"/><path class="cls-4" d="M6.92,58.15c-.59.05-.59,1,.17,1.08S7.48,58.11,6.92,58.15Z"/><path class="cls-4" d="M41.93,57.81c-.31.07-1.1.57-.8,1.35a1.2,1.2,0,0,0,2.05-.07C43.46,58.34,42.49,57.69,41.93,57.81Z"/><path class="cls-4" d="M42,57.91c-.59.05-.59,1,.17,1.08S42.51,57.86,42,57.91Z"/><path class="cls-4" d="M31.93,39.81c-.31.07-1.1.57-.8,1.35a1.2,1.2,0,0,0,2.05-.07C33.46,40.34,32.49,39.69,31.93,39.81Z"/><path class="cls-4" d="M32,39.91c-.59.05-.59,1,.17,1.08S32.51,39.86,32,39.91Z"/><path class="cls-4" d="M11.57,52.14c-.31.07-1.1.57-.8,1.35a1.2,1.2,0,0,0,2.05-.07C13.09,52.66,12.12,52,11.57,52.14Z"/><path class="cls-4" d="M11.59,52.23c-.59.05-.59,1,.17,1.08S12.15,52.19,11.59,52.23Z"/><path class="cls-4" d="M28.39,60.06c-.31.07-1.1.57-.8,1.35a1.2,1.2,0,0,0,2.05-.07C29.92,60.58,29,59.94,28.39,60.06Z"/><path class="cls-4" d="M28.42,60.15c-.59.05-.59,1,.17,1.08S29,60.11,28.42,60.15Z"/><path class="cls-4" d="M32.07,50.64c-.31.07-1.1.57-.8,1.35a1.2,1.2,0,0,0,2.05-.07C33.59,51.16,32.62,50.52,32.07,50.64Z"/><path class="cls-4" d="M32.09,50.73c-.59.05-.59,1,.17,1.08S32.65,50.69,32.09,50.73Z"/><path class="cls-4" d="M90.89,31.06c-.31.07-1.1.57-.8,1.35a1.2,1.2,0,0,0,2.05-.07C92.42,31.58,91.45,30.94,90.89,31.06Z"/><path class="cls-4" d="M90.92,31.15c-.59.05-.59,1,.17,1.08S91.48,31.11,90.92,31.15Z"/><path class="cls-4" d="M98.89,38.56c-.31.07-1.1.57-.8,1.35a1.2,1.2,0,0,0,2.05-.07C100.42,39.08,99.45,38.44,98.89,38.56Z"/><path class="cls-4" d="M98.92,38.65c-.59.05-.59,1,.17,1.08S99.48,38.61,98.92,38.65Z"/><path class="cls-4" d="M97.39,47.56c-.31.07-1.1.57-.8,1.35a1.2,1.2,0,0,0,2.05-.07C98.92,48.08,98,47.44,97.39,47.56Z"/><path class="cls-4" d="M97.42,47.65c-.59.05-.59,1,.17,1.08S98,47.61,97.42,47.65Z"/><path class="cls-4" d="M85.39,52.56c-.31.07-1.1.57-.8,1.35a1.2,1.2,0,0,0,2.05-.07C86.92,53.08,86,52.44,85.39,52.56Z"/><path class="cls-4" d="M85.42,52.65c-.59.05-.59,1,.17,1.08S86,52.61,85.42,52.65Z"/><path class="cls-4" d="M81.57,44.14c-.31.07-1.1.57-.8,1.35a1.2,1.2,0,0,0,2.05-.07C83.09,44.66,82.12,44,81.57,44.14Z"/><path class="cls-4" d="M81.59,44.23c-.59.05-.59,1,.17,1.08S82.15,44.19,81.59,44.23Z"/><path class="cls-4" d="M94.23,19.56c-.31.07-1.1.57-.8,1.35a1.2,1.2,0,0,0,2.05-.07C95.75,20.08,94.78,19.44,94.23,19.56Z"/><path class="cls-4" d="M94.25,19.65c-.59.05-.59,1,.17,1.08S94.81,19.61,94.25,19.65Z"/><path class="cls-4" d="M68.23,23.56c-.31.07-1.1.57-.8,1.35a1.2,1.2,0,0,0,2.05-.07C69.75,24.08,68.78,23.44,68.23,23.56Z"/><path class="cls-4" d="M68.25,23.65c-.59.05-.59,1,.17,1.08S68.81,23.61,68.25,23.65Z"/><path class="cls-4" d="M86.89,11.56c-.31.07-1.1.57-.8,1.35a1.2,1.2,0,0,0,2.05-.07C88.42,12.08,87.45,11.44,86.89,11.56Z"/><path class="cls-4" d="M86.92,11.65c-.59.05-.59,1,.17,1.08S87.48,11.61,86.92,11.65Z"/><path class="cls-4" d="M93.39,33.56c-.31.07-1.1.57-.8,1.35a1.2,1.2,0,0,0,2.05-.07C94.92,34.08,94,33.44,93.39,33.56Z"/><path class="cls-4" d="M93.42,33.65c-.59.05-.59,1,.17,1.08S94,33.61,93.42,33.65Z"/><path class="cls-4" d="M111.39,22.56c-.31.07-1.1.57-.8,1.35a1.2,1.2,0,0,0,2.05-.07C112.92,23.08,112,22.44,111.39,22.56Z"/><path class="cls-4" d="M111.42,22.65c-.59.05-.59,1,.17,1.08S112,22.61,111.42,22.65Z"/><path class="cls-4" d="M105.07,10.14c-.31.07-1.1.57-.8,1.35a1.2,1.2,0,0,0,2.05-.07C106.59,10.66,105.62,10,105.07,10.14Z"/><path class="cls-4" d="M105.09,10.23c-.59.05-.59,1,.17,1.08S105.65,10.19,105.09,10.23Z"/><path class="cls-4" d="M106.57,42.14c-.31.07-1.1.57-.8,1.35a1.2,1.2,0,0,0,2.05-.07C108.09,42.66,107.12,42,106.57,42.14Z"/><path class="cls-4" d="M106.59,42.23c-.59.05-.59,1,.17,1.08S107.15,42.19,106.59,42.23Z"/></g></g></svg>