<?xml version="1.0" encoding="utf-8"?>
<!-- Generator: Adobe Illustrator 19.0.0, SVG Export Plug-In . SVG Version: 6.00 Build 0)  -->
<svg version="1.1" id="Layer_1" xmlns="http://www.w3.org/2000/svg" xmlns:xlink="http://www.w3.org/1999/xlink" x="0px" y="0px"
	 viewBox="0 0 792 1224" style="enable-background:new 0 0 792 1224;" xml:space="preserve">
<style type="text/css">
	.st0{fill:#FFFFFF;}
	.st1{fill:#E0E0E0;}
	.st2{fill:none;stroke:#000000;stroke-width:4;stroke-miterlimit:10;}
	.st3{fill:none;stroke:#000000;stroke-width:12;stroke-linecap:round;stroke-miterlimit:10;}
	.st4{opacity:0.6;fill:#FFFFFF;stroke:#FFFFFF;stroke-linecap:round;stroke-linejoin:round;stroke-miterlimit:10;}
	.st5{opacity:0.6;fill:#FFFFFF;}
</style>
<g id="XMLID_1_">
	<path id="XMLID_412_" d="M323.6,578.1c-10.3-4.1-12.6-8.6-10.3-19.3c1.3-6,2.5-12,3.7-18.1c-2-0.7-3.5-1.2-5-1.9
		c-6.3-2.8-10-7.5-10.3-14.6c-1.1-28.8,22.5-55.4,51.4-56.7c20.5-0.9,41-0.9,61.5,0c28.6,1.2,52.1,27.5,51.3,56.2
		c-0.2,7-4.3,12.9-10.8,15.4c-1.4,0.5-2.8,0.9-4.6,1.5c1.2,5.8,2.3,11.5,3.5,17.2c2.5,11.8,0.9,15-9.9,20
		c4.7,18.5,9.6,36.9,14.1,55.5c11.4,47.1,21.2,94.5,26.2,142.8c2.8,27,4.8,54.2-0.7,81.1c-1.8,8.6-5.3,17.2-9.4,25
		c-4.7,8.8-13.2,13.1-23.3,13.1c-44.7,0.1-89.3,0.2-134,0c-13.2-0.1-21.5-7.8-26.9-19.1c-7.4-15.7-8.8-32.7-9.2-49.7
		c-0.8-36.1,4.2-71.8,10.3-107.2C299.5,671.8,310.7,624.9,323.6,578.1z M436,577.6c-2.3,0-4.1,0-5.9,0c-30.7,0-61.3,0.1-92-0.1
		c-5.1,0-7.1,1.4-8.3,6.3c-14.3,54.9-27.2,110.2-35.3,166.4c-3.9,26.7-7,53.6-5.5,80.6c0.7,11.9,3.5,23.6,5.4,35.4
		c0.4,2.8,2.1,3.6,4.9,3.6c56.3-0.1,112.7-0.1,169,0c3.2,0,4.7-1.2,5.2-4c1.8-9.6,4.4-19.2,5.1-28.9c2-26.7-0.6-53.3-4.2-79.7
		c-6.6-48.2-17-95.7-28.8-142.8C442.6,602.1,439.3,590,436,577.6z M383.6,532.6c21.3,0,42.6,0,64,0c7.3,0,10.7-3.6,10.6-10.8
		c-0.5-23.6-18.8-44.7-42.3-46.1c-21.1-1.3-42.3-1.3-63.4-0.1c-23.6,1.4-41.7,21.6-42.8,45.1c-0.4,8.4,2.9,11.8,11.5,11.8
		C341.9,532.6,362.7,532.6,383.6,532.6z M442.7,540.7c-39.5,0-78.4,0-117.6,0c-1.7,8.1-3.4,16-4.9,24c-0.7,4,1.6,5.8,5.5,5.8
		c38.5,0,76.9,0,115.4,0c5,0,6.9-2.4,6-7.4C445.7,555.7,444.2,548.3,442.7,540.7z"/>
	<path id="XMLID_345_" class="st0" d="M436,577.6c3.2,12.4,6.6,24.5,9.6,36.8c11.8,47.2,22.2,94.6,28.8,142.8
		c3.6,26.4,6.2,53,4.2,79.7c-0.7,9.7-3.3,19.3-5.1,28.9c-0.5,2.8-2,4-5.2,4c-56.3-0.1-112.7-0.1-169,0c-2.8,0-4.5-0.8-4.9-3.6
		c-1.9-11.8-4.7-23.5-5.4-35.4c-1.5-27,1.6-53.9,5.5-80.6c8.1-56.3,21-111.5,35.3-166.4c1.3-4.9,3.2-6.4,8.3-6.3
		c30.7,0.3,61.3,0.1,92,0.1C432,577.6,433.8,577.6,436,577.6z M383.6,858.9c16.7,0,33.3-0.1,50,0c10,0.1,17.6-4.1,21.8-13
		c2.9-6.2,5.2-13,6.4-19.8c4.1-23.2,1.7-46.5-1.3-69.7c-6.2-47.4-17.3-93.8-30.4-139.8c-1-3.4-2.3-4.4-5.8-4.3c-27,0.2-54,0.2-81,0
		c-3.5,0-4.9,0.9-5.7,4.4c-8.4,35.9-17.7,71.7-25.4,107.8c-6,28.3-9.8,57.2-8.2,86.3c0.6,10.6,2.8,21.4,6,31.6
		c3.5,11.3,12.2,16.8,24.5,16.6C350.9,858.7,367.2,858.9,383.6,858.9z"/>
	<path id="XMLID_340_" class="st1" d="M383.6,532.6c-20.8,0-41.6,0-62.5,0c-8.6,0-11.9-3.4-11.5-11.8c1.1-23.5,19.2-43.7,42.8-45.1
		c21.1-1.3,42.3-1.2,63.4,0.1c23.5,1.4,41.8,22.5,42.3,46.1c0.2,7.2-3.3,10.8-10.6,10.8C426.2,532.6,404.9,532.6,383.6,532.6z
		 M405.9,487c0-3.7-2.8-6.7-6.6-6.5c-3.9,0.1-6.1,2.4-6.4,6.2c-0.3,3.6,2.8,6.8,6.3,6.9C402.9,493.7,405.9,490.7,405.9,487z
		 M374.1,486.8c-0.1-3.8-3.1-6.5-6.8-6.2c-3.9,0.3-6,2.7-6.2,6.4c-0.2,3.5,3.1,6.6,6.7,6.6C371.4,493.5,374.2,490.5,374.1,486.8z
		 M385.7,510.4c3.6-0.1,6.6-3.1,6.3-6.8c-0.2-3.9-2.4-6.1-6.3-6.2c-3.7-0.2-6.7,2.8-6.7,6.4C379,507.3,382.2,510.5,385.7,510.4z"/>
	<path id="XMLID_339_" class="st1" d="M442.7,540.7c1.5,7.7,3.1,15,4.4,22.3c0.9,5-1,7.4-6,7.4c-38.5,0.1-76.9,0-115.4,0
		c-3.9,0-6.2-1.8-5.5-5.8c1.4-8,3.2-15.9,4.9-24C364.3,540.7,403.2,540.7,442.7,540.7z"/>
	<path id="XMLID_318_" d="M383.6,858.9c-16.3,0-32.7-0.2-49,0.1c-12.3,0.2-21-5.3-24.5-16.6c-3.2-10.2-5.4-21-6-31.6
		c-1.6-29.1,2.2-57.9,8.2-86.3c7.6-36.1,16.9-71.8,25.4-107.8c0.8-3.4,2.3-4.4,5.7-4.4c27,0.2,54,0.2,81,0c3.5,0,4.8,1,5.8,4.3
		c13.1,46,24.2,92.4,30.4,139.8c3,23.1,5.4,46.4,1.3,69.7c-1.2,6.8-3.4,13.6-6.4,19.8c-4.2,8.9-11.8,13.1-21.8,13
		C416.9,858.8,400.2,858.9,383.6,858.9z M383.8,852.9c16.3,0,32.7-0.1,49,0.1c7.7,0.1,13.6-2.9,16.6-9.7c2.8-6.3,5.2-13,6.2-19.8
		c3.4-23,1-45.9-2.2-68.7c-6.2-44.1-16.6-87.3-28.3-130.2c-1.2-4.3-2.7-5.8-7.3-5.8c-22.8,0.2-45.7,0.3-68.5,0
		c-4.6-0.1-6.4,1.5-7.4,5.7c-8.2,36.3-17.6,72.5-24.5,109c-4.3,23-5.6,46.6-7.3,70c-0.9,12.4,0.6,25,5.7,36.7
		c3.7,8.5,9.7,12.9,19.4,12.7C351.5,852.7,367.7,852.9,383.8,852.9z"/>
	<path id="XMLID_317_" d="M405.9,487c0,3.7-3,6.6-6.7,6.5c-3.6-0.1-6.7-3.3-6.3-6.9c0.3-3.8,2.5-6,6.4-6.2
		C403.1,480.4,405.9,483.3,405.9,487z"/>
	<path id="XMLID_311_" class="st0" d="M383.8,852.9c-16.2,0-32.3-0.3-48.5,0.1c-9.7,0.2-15.7-4.3-19.4-12.7
		c-5.1-11.7-6.6-24.3-5.7-36.7c1.6-23.4,2.9-47,7.3-70c6.9-36.6,16.3-72.7,24.5-109c1-4.3,2.8-5.8,7.4-5.7c22.8,0.3,45.7,0.3,68.5,0
		c4.6,0,6.1,1.5,7.3,5.8c11.8,42.9,22.1,86.1,28.3,130.2c3.2,22.8,5.6,45.7,2.2,68.7c-1,6.8-3.4,13.5-6.2,19.8
		c-3,6.8-8.9,9.8-16.6,9.7C416.5,852.8,400.2,852.9,383.8,852.9z"/>
</g>
<line id="XMLID_2_" class="st2" x1="340.8" y1="539.3" x2="335.3" y2="572.8"/>
<line id="XMLID_3_" class="st2" x1="355.4" y1="540.7" x2="353.5" y2="570.5"/>
<line id="XMLID_4_" class="st2" x1="371" y1="540" x2="370.2" y2="571"/>
<line id="XMLID_5_" class="st2" x1="386" y1="540" x2="386" y2="572"/>
<line id="XMLID_6_" class="st2" x1="399.4" y1="539.3" x2="402.4" y2="572.8"/>
<line id="XMLID_7_" class="st2" x1="414" y1="539.3" x2="419.1" y2="572.8"/>
<line id="XMLID_8_" class="st2" x1="429.2" y1="539.3" x2="435.7" y2="572.8"/>
<line id="XMLID_9_" class="st3" x1="302.1" y1="777.9" x2="439.9" y2="634"/>
<line id="XMLID_10_" class="st3" x1="305.7" y1="855" x2="452.7" y2="701.6"/>
<path id="XMLID_11_" class="st4" d="M233.1,504.7c-6,12.4-35.9,13.7-35.9,13.7c-31-4.3-31.5-13.8-31.5-13.8L233.1,504.7z"/>
<path id="XMLID_15_" d="M367.7,493.6c-3.5,0.1-6.7-3.1-6.7-6.6c0-3.6,3-6.6,6.7-6.4c3.9,0.2,6.1,2.3,6.3,6.2
	C374.3,490.5,371.4,493.5,367.7,493.6z"/>
<path id="XMLID_17_" class="st5" d="M362.7,523.7c6.7,0.2,37.4,0.2,47.4,0.1c5.5,0,11.9-11.7,7-14.1c-9.6-4.7-45.8-2.8-53.4-1.8
	c-12.8,1.8-15.1,2.7-14.2,4.5c0.6,1.4,0.6,7.2,4.4,9.6C355.5,523.1,360.8,523.6,362.7,523.7z"/>
<path id="XMLID_14_" d="M385.7,510.4c-3.5,0.1-6.7-3.1-6.7-6.6c0-3.6,3-6.6,6.7-6.4c3.9,0.2,6.1,2.3,6.3,6.2
	C392.3,507.3,389.4,510.4,385.7,510.4z"/>
<path id="XMLID_12_" d="M353.8,510.2c-3.5,0.1-6.7-3.1-6.7-6.6c0-3.6,3-6.6,6.7-6.4c3.9,0.2,6.1,2.3,6.3,6.2
	C360.3,507.1,357.4,510.2,353.8,510.2z"/>
<path id="XMLID_13_" d="M416.7,510.2c-3.5,0.1-6.7-3.1-6.7-6.6c0-3.6,3-6.6,6.7-6.4c3.9,0.2,6.1,2.3,6.3,6.2
	C423.3,507.1,420.4,510.2,416.7,510.2z"/>
</svg>
