<?xml version="1.0" encoding="utf-8"?>
<!-- Generator: Adobe Illustrator 19.0.0, SVG Export Plug-In . SVG Version: 6.00 Build 0)  -->
<svg version="1.1" id="Layer_1" xmlns="http://www.w3.org/2000/svg" xmlns:xlink="http://www.w3.org/1999/xlink" x="0px" y="0px"
	 viewBox="0 0 792 1224" style="enable-background:new 0 0 792 1224;" xml:space="preserve">
<style type="text/css">
	.st0{fill:#FFFFFF;}
</style>
<g id="XMLID_1_">
	<path id="XMLID_513_" d="M482.9,779c0.1-10.8,9-19.7,19.7-19.7c10.8,0,19.6,8.9,19.7,19.7c0,11-9,20-20,19.9
		C491.6,798.8,482.8,789.9,482.9,779z M502.6,787c4.1,0,7.6-3.4,7.7-7.5c0.1-4.4-3.4-8.1-7.7-8c-4.1,0-7.6,3.4-7.7,7.6
		C494.8,783.3,498.3,787,502.6,787z"/>
	<path id="XMLID_510_" d="M320.2,500c0,10.1-7.9,18-18,18c-10.2,0-18-7.9-17.9-18.1c0.1-9.9,7.9-17.7,17.8-17.8
		C312,481.9,320.1,490,320.2,500z M302.4,506c3.7-0.2,5.7-2.1,5.7-5.9c0-3.9-2.2-5.9-5.9-5.9c-3.7,0-6,2.2-5.9,5.9
		C296.4,503.7,298.6,505.8,302.4,506z"/>
	<path id="XMLID_507_" d="M677.1,718c0,8.4-6.5,14.9-14.8,14.9c-8.3,0-15-6.6-15.1-14.8c-0.1-8.4,6.7-15.3,15.2-15.2
		C670.7,703.1,677.1,709.6,677.1,718z M662.1,713.8c-1.3,2-2.7,3.2-2.7,4.4c0,0.9,1.8,1.8,2.8,2.7c1-1.1,2.4-2,2.7-3.2
		C665,716.9,663.5,715.7,662.1,713.8z"/>
	<path id="XMLID_506_" d="M608.7,621.7c0.5-7.8,1.9-9.9,6.2-9.8c4.3,0.1,5.6,2.1,6.2,9.7c4.3,0.6,10.1-0.2,9.8,6.7
		c-0.3,6.2-5.5,5.5-9.8,5.9c-0.5,4.5,0.2,9.9-6.5,9.8c-6.3-0.1-5.8-5.2-5.8-9.7c-4.6-0.6-10.3,0.3-10-6.7
		C599,621.3,604.3,622.2,608.7,621.7z"/>
	<path id="XMLID_505_" d="M415.5,522.7c1.3-8.3,2.8-10.4,7-10.2c3.9,0.2,5.1,2.2,6,9.7c3.9,1.1,10.1-0.2,9.8,6.8
		c-0.3,6.2-5.6,5.5-9.8,6.2c-0.5,4.4,0,10-6.6,9.7c-5.8-0.2-5.7-5-5.9-9.5c-4.2-1-10.2-0.1-9.9-6.9
		C406.3,522.6,411,522.6,415.5,522.7z"/>
	<path id="XMLID_504_" d="M706.9,453.5c-2.8-3.4-7-6.6-2.6-11.4c2.8-3.1,5.5-2.5,11.2,2.6c3.6-2,7.4-6.7,11.8-1.5
		c3.7,4.4-0.1,7.5-3,10.7c2.8,3.6,7.3,7,2.5,11.5c-4.4,4.1-7.8,0.5-11-2.7c-3.6,2.9-7.1,7.2-11.6,2.5
		C699.7,460.4,704.5,457.1,706.9,453.5z"/>
	<path id="XMLID_503_" d="M305.1,324.2c3.5-3.2,7.1-7.2,11.5-2.6c4.2,4.4,0.4,7.8-2.7,11.1c2.9,3.5,7.1,6.9,2.5,11.4
		c-4.5,4.3-7.7,0.2-11.1-2.7c-3.5,3-7,7-11.5,2.4c-4.4-4.5,0-7.7,2.7-11.1c-2.8-3.5-7.2-6.9-2.4-11.4
		C298.4,317.3,301.9,320.9,305.1,324.2z"/>
	<path id="XMLID_502_" d="M609.3,291.2c3.2-2.9,6.5-5.1,10.2-1.5c3.5,3.6,1.6,6.9-1.3,10.1c2.6,3.1,5,6.5,1.5,10.1
		c-3.6,3.7-6.9,1.7-10.1-1.3c-3.1,2.5-6.4,5.3-10,1.5c-3.3-3.5-1.4-7.1,1.1-10.4c-2.9-3.1-4.9-6.5-1.3-10
		C602.9,286.1,606.3,288.1,609.3,291.2z"/>
	<path id="XMLID_501_" d="M206.8,706.2c-3.4,3-6.9,5.1-10.4,1.7c-3.4-3.3-1.1-6.7,1.6-9.7c-2.8-3.2-5.1-6.7-1.2-10.4
		c3.5-3.3,6.7-1.4,9.5,1.5c3-2.7,6.2-4.8,9.7-1.4c3.3,3.2,2.5,6.5-0.7,9.6c2.7,3.1,5.2,6.4,1.6,10.1
		C213.5,711.1,210.1,709.4,206.8,706.2z"/>
	<path id="XMLID_500_" d="M663.4,568.3c-6-1.1-12.2-2-18.4-3.3c-3.5-0.8-5.9-3.6-4.7-6.9c0.8-2.2,4.2-4.9,6.2-4.8
		c7.1,0.3,14.1,1.6,21.1,2.9c3.5,0.7,5.2,3.6,4.5,7.2C671.2,568,667.3,568,663.4,568.3z"/>
	<path id="XMLID_499_" d="M171.2,540.5c-1.2-1.1-3.5-2.4-4.1-4.2c-0.6-1.8,0-5,1.3-6.1c5.9-4.8,12.2-9.3,18.7-13.2
		c1.5-0.9,5.4,0.1,6.7,1.6c1.3,1.5,1.7,6,0.6,6.9c-6.3,5.1-13,9.6-19.7,14.2C174,540.3,173,540.2,171.2,540.5z"/>
	<path id="XMLID_498_" d="M491,252.6c-1.1,6.1-2.1,12.8-3.5,19.5c-0.7,3.6-3.4,5.4-7,4.8c-3.7-0.6-5.4-3.3-4.9-6.9
		c0.9-6.6,2.1-13.1,3.3-19.6c0.7-3.8,3-5.9,6.9-5.7C489.2,244.9,491.3,248,491,252.6z"/>
	<path id="XMLID_497_" d="M611.8,384.3c2.6,2,4.9,3,5.6,4.6c0.7,1.7,0.6,4.5-0.4,5.9c-2.3,3.2-5.3,5.9-8.3,8.5
		c-2.6,2.3-5.6,1.9-8-0.7c-2.2-2.4-2.4-5.2-0.2-7.6C604.1,391.5,607.8,388.2,611.8,384.3z"/>
	<path id="XMLID_496_" d="M252.1,639.4c0.1,4.1-3.3,7.4-7.2,7.3c-3.8-0.1-6.9-3.3-6.9-7.1c0-4,3.3-7.4,7.2-7.3
		C248.9,632.3,252,635.5,252.1,639.4z"/>
	<path id="XMLID_495_" d="M516.5,659.3c3.9,0.1,7.2,3.6,7,7.5c-0.1,3.7-3.4,6.9-7,7c-3.8,0.1-7.3-3.4-7.3-7.2
		C509.1,662.7,512.6,659.2,516.5,659.3z"/>
	<path id="XMLID_494_" d="M188.6,609.2c3.9,0,7.3,3.4,7.3,7.3c0,3.9-3.5,7.3-7.4,7.2c-3.8-0.1-6.9-3.2-7-7
		C181.5,612.7,184.7,609.2,188.6,609.2z"/>
	<path id="XMLID_493_" d="M225.5,340.2c-4,0-7.3-3.3-7.2-7.2c0.1-3.7,3.2-6.9,6.9-7c4-0.1,7.4,3,7.5,7
		C232.8,336.8,229.5,340.2,225.5,340.2z"/>
	<path id="XMLID_492_" d="M451,355.7c-3.9,0.1-7.2-3.2-7.2-7.2c0-3.8,3-7,6.7-7.2c3.9-0.2,7.4,3.1,7.5,7
		C458.1,352.3,454.9,355.7,451,355.7z"/>
	<path id="XMLID_491_" d="M415,413.3c-0.1,4.1-3.4,7.1-7.5,7c-4-0.2-6.8-3.2-6.7-7.2c0.1-3.9,3.1-7,6.9-7
		C411.7,405.9,415,409.3,415,413.3z"/>
	<path id="XMLID_490_" d="M407.4,792.8c4-0.1,7.4,3.2,7.4,7.1c0,3.9-3.4,7.2-7.3,7.1c-3.8-0.1-7-3.1-7.1-6.9
		C400.1,796.2,403.4,792.9,407.4,792.8z"/>
	<path id="XMLID_489_" d="M523.8,333.2c0,3.9-3.4,7.1-7.4,7c-3.8-0.1-6.9-3.1-7.1-6.9c-0.1-3.9,3.2-7.3,7.1-7.3
		C520.4,325.9,523.8,329.2,523.8,333.2z"/>
	<path id="XMLID_488_" d="M490.7,717.7c0.1,3.9-3.3,7.3-7.2,7.3c-3.9,0-7.3-3.4-7.2-7.3c0.1-3.7,3.2-6.8,7-6.9
		C487.3,710.6,490.6,713.8,490.7,717.7z"/>
	<path id="XMLID_487_" d="M366.9,752.2c3.8-0.1,7,3,7.2,6.8c0.2,4.1-2.9,7.5-7,7.6c-3.9,0.1-7-2.9-7.2-6.8
		C359.7,755.7,362.9,752.2,366.9,752.2z"/>
	<path id="XMLID_486_" d="M702.4,631.1c-4,0-7.4-3.3-7.3-7.3c0.1-3.8,3.3-6.9,7.2-6.9c4.1,0,7.4,3.2,7.2,7.3
		C709.5,628.1,706.3,631.1,702.4,631.1z"/>
	<path id="XMLID_485_" d="M374.8,260.6c0.1,3.9-3.2,7.3-7.1,7.4c-4,0.1-7.3-3.2-7.3-7.2c0-3.8,3-6.9,6.8-7.1
		C371.3,253.6,374.7,256.7,374.8,260.6z"/>
	<path id="XMLID_484_" d="M566.7,705.2c-3.9-0.3-6.8-3.5-6.6-7.4c0.2-4,3.7-7.1,7.7-6.8c4.1,0.3,6.9,3.8,6.5,7.9
		C573.9,702.8,570.7,705.5,566.7,705.2z"/>
	<path id="XMLID_483_" d="M422.3,705.5c-0.1,4-3.4,7.2-7.4,7.1c-3.8-0.1-6.9-3.3-6.9-7.1c-0.1-3.9,3.3-7.3,7.2-7.3
		C419.1,698.2,422.4,701.5,422.3,705.5z"/>
	<path id="XMLID_482_" d="M595.5,752.1c-0.1,4.1-3.4,7.2-7.5,6.9c-3.8-0.2-6.9-3.4-6.8-7.2c0.1-4,3.5-7.1,7.6-6.9
		C592.6,745.1,595.5,748.2,595.5,752.1z"/>
	<path id="XMLID_481_" d="M288,772c4,0.1,7.2,3.7,6.9,7.6c-0.3,3.8-3.5,6.7-7.4,6.6c-4.1-0.1-7.1-3.4-6.8-7.6
		C281,774.8,284.1,771.9,288,772z"/>
	<path id="XMLID_480_" d="M283.6,712.2c-3.9,0-7-3-7.2-6.8c-0.1-4,3.1-7.4,7.2-7.4c4,0,7.4,3.4,7.2,7.4
		C290.7,709.1,287.5,712.2,283.6,712.2z"/>
	<path id="XMLID_479_" d="M551.4,625.5c-3.9,0-7.3-3.3-7.3-7.2c0-3.9,3.5-7.3,7.3-7.2c3.7,0.1,6.8,3.2,7,7
		C558.5,622.2,555.4,625.5,551.4,625.5z"/>
	<path id="XMLID_478_" d="M588.4,453.8c-0.1,3.8-3.3,7-7.1,7c-3.9,0-7.3-3.5-7.2-7.4c0.1-4,3.6-7.2,7.6-7
		C585.6,446.7,588.5,449.9,588.4,453.8z"/>
	<path id="XMLID_477_" d="M685.6,362c0.1,4-3.1,7.3-7.1,7.3c-3.8,0-7-2.9-7.3-6.7c-0.3-3.9,3-7.4,6.9-7.6
		C682,354.8,685.4,358,685.6,362z"/>
	<path id="XMLID_476_" d="M295.1,413.5c-3.9,0-7-3-7.1-6.9c-0.1-4,3.1-7.5,7.1-7.5c4,0,7.2,3.4,7.1,7.4
		C302.1,410.5,299,413.5,295.1,413.5z"/>
	<path id="XMLID_475_" d="M629.1,685.9c0,4.1-3.3,7.3-7.4,7.1c-3.9-0.1-6.8-3.2-6.8-7.1c0-4.2,3.1-7.2,7.3-7.1
		C626.2,678.9,629.1,681.9,629.1,685.9z"/>
	<path id="XMLID_474_" d="M389.3,362c0,4-2.9,7-6.8,7.1c-4.1,0.1-7.4-3.1-7.4-7.1c0-4,3.4-7.2,7.4-7.1
		C386.4,355.1,389.3,358.1,389.3,362z"/>
	<path id="XMLID_472_" d="M429.3,288.9c0,4-2.8,7-6.8,7.2c-4.1,0.2-7.4-3-7.5-7c0-4,3.3-7.2,7.3-7.1
		C426.3,282,429.2,284.9,429.3,288.9z"/>
	<path id="XMLID_471_" d="M644,475.1c-0.1,4-3.4,7.2-7.5,7c-3.9-0.2-6.8-3.2-6.7-7.2c0.1-4.2,3.2-7.2,7.4-7
		C641.1,468.1,644,471.2,644,475.1z"/>
	<path id="XMLID_416_" class="st0" d="M502.6,787c-4.3,0-7.8-3.7-7.7-8c0.1-4.1,3.6-7.6,7.7-7.6c4.3,0,7.8,3.7,7.7,8
		C510.1,783.5,506.6,787,502.6,787z"/>
	<path id="XMLID_415_" class="st0" d="M225.5,441.3c-3.9-0.2-6-2.3-6.1-5.9c-0.1-3.7,2.2-5.9,5.9-5.9c3.6,0,5.9,2,5.9,5.9
		C231.2,439.2,229.2,441.1,225.5,441.3z"/>
	<path id="XMLID_414_" class="st0" d="M662.1,713.8c1.4,1.9,2.9,3.1,2.7,3.9c-0.2,1.2-1.7,2.1-2.7,3.2c-1-0.9-2.7-1.8-2.8-2.7
		C659.4,717,660.8,715.8,662.1,713.8z"/>
</g>
<path id="XMLID_4_" d="M534.8,579.1"/>
<path id="XMLID_5_" d="M232.3,554c3.9,0.1,7.2,3.6,7,7.5c-0.1,3.7-3.4,6.9-7,7c-3.8,0.1-7.3-3.4-7.3-7.2
	C224.9,557.4,228.5,553.9,232.3,554z"/>
<path id="XMLID_25_" d="M416.7,662.5"/>
<path id="XMLID_24_" d="M402.2,662.4"/>
<path id="XMLID_3_" d="M385.2,488.3c-3.9-0.3-6.8-3.5-6.6-7.4c0.2-4,3.7-7.1,7.7-6.8c4.1,0.3,6.9,3.8,6.5,7.9
	C392.4,485.9,389.2,488.5,385.2,488.3z"/>
<path id="XMLID_2_" d="M296.5,460.9c-3.9,0-7.3-3.3-7.3-7.2c0-3.9,3.5-7.3,7.3-7.2c3.7,0.1,6.8,3.2,7,7
	C303.6,457.5,300.5,460.9,296.5,460.9z"/>
<path id="XMLID_11_" d="M290.3,643.2c0.1-10.8,9-19.7,19.7-19.7c10.8,0,19.6,8.9,19.7,19.7c0,11-9,20-20,19.9
	C299,663,290.3,654.1,290.3,643.2z M310,651.1c4.1,0,7.6-3.4,7.7-7.5c0.1-4.4-3.4-8.1-7.7-8c-4.1,0-7.6,3.4-7.7,7.6
	C302.2,647.4,305.7,651.1,310,651.1z"/>
<path id="XMLID_10_" d="M298.1,581.9c0.1,3.9-3.3,7.3-7.2,7.3c-3.9,0-7.3-3.4-7.2-7.3c0.1-3.7,3.2-6.8,7-6.9
	C294.7,574.8,298,577.9,298.1,581.9z"/>
<path id="XMLID_9_" d="M374.1,569.4c-3.9-0.3-6.8-3.5-6.6-7.4c0.2-4,3.7-7.1,7.7-6.8c4.1,0.3,6.9,3.8,6.5,7.9
	C381.3,567,378.1,569.7,374.1,569.4z"/>
<path id="XMLID_8_" d="M402.9,616.3c-0.1,4.1-3.4,7.2-7.5,6.9c-3.8-0.2-6.9-3.4-6.8-7.2c0.1-4,3.5-7.1,7.6-6.9
	C400,609.3,402.9,612.4,402.9,616.3z"/>
<path id="XMLID_7_" class="st0" d="M310,651.1c-4.3,0-7.8-3.7-7.7-8c0.1-4.1,3.6-7.6,7.7-7.6c4.3,0,7.8,3.7,7.7,8
	C317.5,647.7,314,651.1,310,651.1z"/>
<path id="XMLID_16_" d="M503,397.6c2.6,2,4.9,3,5.6,4.6c0.7,1.7,0.6,4.5-0.4,5.9c-2.3,3.2-5.3,5.9-8.3,8.5c-2.6,2.3-5.6,1.9-8-0.7
	c-2.2-2.4-2.4-5.2-0.2-7.6C495.3,404.7,499,401.4,503,397.6"/>
<path id="XMLID_15_" d="M479.6,467.1c-0.1,3.8-3.3,7-7.1,7c-3.9,0-7.3-3.5-7.2-7.4c0.1-4,3.6-7.2,7.6-7
	C476.8,460,479.7,463.2,479.6,467.1z"/>
<path id="XMLID_14_" d="M535.2,488.4c-0.1,4-3.4,7.2-7.5,7c-3.9-0.2-6.8-3.2-6.7-7.2c0.1-4.2,3.2-7.2,7.4-7
	C532.3,481.3,535.3,484.5,535.2,488.4z"/>
<path id="XMLID_21_" d="M604.6,554.3c0,8.1-6,14.5-14,14.9c-8,0.5-15.2-5.7-15.9-13.7c-0.8-8.9,6.3-16.4,15.2-16.3
	C598.2,539.3,604.6,545.9,604.6,554.3z M589.7,550c-1.3,2-2.7,3.2-2.7,4.4c0,0.9,1.8,1.8,2.8,2.7c1-1.1,2.4-2,2.7-3.2
	C592.6,553.1,591,551.9,589.7,550z"/>
<path id="XMLID_20_" d="M198.4,446.7c-4.1-0.3-7.1-3.9-6.6-8c0.5-3.8,4.1-6.5,7.9-6.1c3.9,0.4,6.7,3.8,6.3,7.9
	C205.6,444.3,202.4,447,198.4,446.7z"/>
<path id="XMLID_19_" d="M523,588.1c0.1,4.3-3.3,7.5-7.5,7.3c-3.8-0.2-6.9-3.4-6.8-7.2c0.1-4.3,4.1-7.6,8.6-6.8
	C520.5,581.8,522.9,584.8,523,588.1z"/>
<path id="XMLID_18_" d="M260.7,426.3c0.6,4.6-2.9,8.4-7.3,8.2c-3.9-0.1-6.8-3.2-6.8-7.1c0-4,2.9-7,6.9-7.1
	C257.1,420.2,260.2,422.8,260.7,426.3z"/>
<path id="XMLID_17_" class="st0" d="M589.7,550c1.4,1.9,2.9,3.1,2.7,3.9c-0.2,1.2-1.7,2.1-2.7,3.2c-1-0.9-2.7-1.8-2.8-2.7
	C586.9,553.3,588.3,552.1,589.7,550z"/>
</svg>
