<?xml version="1.0" encoding="utf-8"?>
<!-- Generator: Adobe Illustrator 19.0.0, SVG Export Plug-In . SVG Version: 6.00 Build 0)  -->
<svg version="1.1" id="Layer_1" xmlns="http://www.w3.org/2000/svg" xmlns:xlink="http://www.w3.org/1999/xlink" x="0px" y="0px"
	 viewBox="0 0 792 1224" style="enable-background:new 0 0 792 1224;" xml:space="preserve">
<style type="text/css">
	.st0{fill:#966B3D;}
	.st1{opacity:0.4;fill:#42210B;}
	.st2{opacity:0.4;}
	.st3{opacity:0.1091;fill:#603813;}
	.st4{opacity:0.1091;fill:#42210B;}
	.st5{opacity:0.3;}
	.st6{fill:#42210B;}
	.st7{opacity:0.5;fill:#603813;}
	.st8{opacity:0.5;fill:#42210B;stroke:#603813;stroke-miterlimit:10;}
	.st9{opacity:0.3;fill:#42210B;}
</style>
<g id="XMLID_1_">
	<path id="XMLID_22_" d="M646.7,195.4c-6.7-26.7-28.8-42.5-63-42.4c-9.6,0.1-22.6,2.8-35.1,7.5c-41.2,15.3-73.9,41.9-100.9,76
		c-18.4,23.2-32.5,48.7-38.1,78.2c-2.1,10.9-2.6,22.1-7.1,32.5c-8.6,19.8-21.6,36.2-36.7,51.3C288.4,475.8,107.2,657,30,734.4
		c-3.9,3.9-7.4,8.8-9.3,13.9c-6.8,18.5,7,36.3,26.1,34.4c8.3-0.8,14.9-5,20.8-10.8c77.4-77.5,258.7-258.8,336.1-336.2
		c13.1-13.2,27.2-25.3,44.2-33.1c8.4-3.9,17.5-6.3,26.4-8.6c11.4-3,23.4-3.9,34.4-7.9c37.8-13.5,68.2-37.8,94.1-68
		c19.8-23.2,35.2-48.8,42.8-78.7C649.2,224.9,650.4,210.2,646.7,195.4z M630.4,221.1c-1.6,11.1-4.1,22.5-8.6,32.6
		c-24.1,54.1-63.5,93.2-118.6,115.3c-10.4,4.2-22.2,5.2-33.5,7.3c-23.7,4.4-43.5,16.1-61.7,31.2c-6,5-11.7,10.4-17.3,15.9
		C313.8,500.4,133,681.3,56,758.2c-2.3,2.3-5,4.9-7.9,5.8c-2.8,0.8-7.1,0.4-9-1.3c-1.7-1.6-2-5.9-1.3-8.6c0.8-2.8,3.2-5.4,5.4-7.6
		c77-77.1,258-258.1,335.1-335.1c11.7-11.7,22.5-24.2,31-38.4c9.2-15.3,15.1-31.5,17.3-49.5c1.5-12,5.2-24.3,10.4-35.2
		c24.8-51.6,63.4-89.1,116.8-110.6c10.9-4.4,22.3-6.7,34.1-6.6C617.6,170.9,634.8,190.7,630.4,221.1z"/>
	<path id="XMLID_14_" class="st0" d="M587.9,170.9c-11.8,0-23.3,2.3-34.1,6.6c-53.4,21.6-92,59-116.8,110.6
		c-5.3,10.9-8.9,23.2-10.4,35.2c-2.2,18-8.1,34.2-17.3,49.5c-8.6,14.2-19.3,26.7-31,38.4c-77.1,77.1-258.1,258-335.1,335.1
		c-2.2,2.2-4.6,4.7-5.4,7.6c-0.7,2.7-0.4,7.1,1.3,8.6c1.9,1.7,6.2,2.1,9,1.3c3-0.8,5.6-3.5,7.9-5.8c77-76.9,257.8-257.8,334.8-334.7
		c5.5-5.5,11.2-10.9,17.3-15.9c18.2-15.1,38-26.8,61.7-31.2c11.2-2.1,23-3.1,33.5-7.3c55.1-22.2,94.5-61.2,118.6-115.3
		c4.5-10.2,7-21.6,8.6-32.6C634.8,190.7,617.6,170.9,587.9,170.9z M555.2,330.3c-17.3,14.3-36.2,25.8-58.5,30
		c-7.9,1.5-16.3,1.8-24.2,0.7c-18.9-2.6-31.9-17.1-32.4-36.2c-0.2-9,0.7-18.4,3.1-27.1c6.8-25,21.8-45.3,40-64.1
		c2.3,2.3,4,4,6.2,6.2c-1.3,1.4-2.5,2.7-3.6,4c-16.1,17.5-29.5,36.7-35,60.2c-1.6,6.5-2.1,13.5-1.7,20.3
		c0.8,16.7,12.7,27.8,29.5,28.7c13.5,0.7,26-3,38.1-8.5c15.2-6.9,28.5-16.5,40.6-27.8c1.4-1.3,2.9-2.7,4.8-4.4
		c1.9,2.3,3.6,4.3,5.7,6.9C563.8,322.7,559.7,326.6,555.2,330.3z"/>
	<path id="XMLID_9_" d="M562,312.3c-1.9,1.7-3.3,3.1-4.8,4.4c-12.2,11.3-25.5,20.9-40.6,27.8c-12.1,5.5-24.6,9.2-38.1,8.5
		c-16.8-0.9-28.6-12-29.5-28.7c-0.3-6.7,0.2-13.7,1.7-20.3c5.6-23.5,19-42.7,35-60.2c1.2-1.3,2.4-2.6,3.6-4
		c-2.2-2.2-3.9-3.9-6.2-6.2c-18.2,18.7-33.2,39-40,64.1c-2.4,8.7-3.3,18.1-3.1,27.1c0.5,19.1,13.5,33.5,32.4,36.2
		c7.9,1.1,16.4,0.8,24.2-0.7c22.3-4.2,41.2-15.7,58.5-30c4.4-3.7,8.6-7.6,12.4-11.1C565.6,316.6,563.9,314.6,562,312.3z"/>
</g>
<ellipse id="XMLID_2_" transform="matrix(-0.879 -0.4767 0.4767 -0.879 946.2158 812.7069)" class="st1" cx="576.2" cy="286.3" rx="12.3" ry="20.3"/>
<g id="XMLID_5_" class="st2">
	<g id="XMLID_39_">
		<g id="XMLID_40_">
			<path id="XMLID_52_" class="st3" d="M613.1,287c1.4-1.9,2.7-4,3.9-6.1c0.4-2.1,0.9-4.2,1.3-6.3c1.1-5.8,1.6-11.9,1.3-17.8
				c-0.3-4.9-1.2-10.5-3.3-15c-1.9-4.2-4.6-8.3-8.5-10.9c-8.1-5.1-17.9-4.3-26.3-0.5c-10.9,5-19.8,13.4-26.8,23
				c-7.2,9.9-12.8,20.8-16.5,32.5c-3.3,10.7-5.2,22.6-3.1,33.8c1.5,8.3,6,17.7,14.6,20.7c1.8,0.6,3.7,1.2,5.6,1.7
				c3.2,0.8,6,0.3,9.1-0.5c0.4-0.1-2.4-3.2-1.7-2.5c-1.5-1.8-3-3.7-4.7-5.2c-0.4-0.5-0.9-0.9-1.5-1.3c-0.4,0-0.7,0-1.1,0
				c-1.2-0.3-2-1.2-2.8-2c-1.2-1.3-2.8-3-3.7-4.4c-1.7-2.5-2.6-6-3.1-9c-1.4-9.2,0.5-18.6,3.2-27.4c0.8-2.9,1.8-5.7,3-8.4
				c0.9-2.6,2.2-5.1,3.8-7.4c2.9-5,5.8-10,9.6-14.5c3.3-3.9,6.8-7.6,10.9-10.7c3.2-2.4,6.8-4.9,10.7-6.2c3.1-1,6.4-1.8,9.7-1.3
				c0.9,0.2,1.7,0.4,2.6,0.6c1.5,0.5,2.8,1.5,3.6,2.8c0.6,0.7,1.2,1.4,1.8,2.2c1,1.9,1.9,3.9,2.5,6c0.8,3.3,1.1,6.7,1,10
				c-0.1,5-0.7,9.7-1.9,14.6c-0.6,2.7-1.3,5.3-2.3,7.9c-1.3,1.8-2.6,3.5-4,5.2c0.5,0.1,1,0.1,1.5-0.1c1.7-0.4,3.5-0.8,5.2-1.3
				c1.7-0.4,3.5-0.9,5.2-1.4C612.3,287.5,612.7,287.3,613.1,287z"/>
			<path id="XMLID_51_" class="st3" d="M614,288.5c1.4-1.9,2.7-4,3.9-6.1c0.4-2.1,0.9-4.2,1.3-6.3c1-5.7,1.5-11.9,1.1-17.7
				c-0.3-4.9-1.2-10.4-3.4-14.9c-2-4.1-4.6-8.2-8.6-10.6c-8-5-17.6-4.2-25.9-0.6c-11,4.8-19.9,13.1-27,22.6
				c-7.3,9.8-13,20.8-16.7,32.5c-3.4,10.8-5.3,22.8-3.3,34c1.5,8.5,6,18.1,14.7,21.2c1.9,0.7,3.9,1.3,5.8,1.8
				c3.4,0.8,6.3,0.3,9.6-0.6c0.2,0-2.5-3.3-2.8-3.7c-0.9-1-1.8-2.1-2.8-3.1c-0.6-0.7-1.3-1.4-2-2c-0.7-0.6-1.5-0.9-2.4-0.7
				c-0.4-0.1-0.8-0.3-1.2-0.4c-1.2-0.5-2.3-1.8-3.2-2.7c-1.9-2-3.5-3.8-4.6-6.4c-1.4-3.4-2.3-7-2.4-10.6c-0.5-9.2,1.5-18.2,4.3-26.9
				c0.9-2.9,1.9-5.8,3.2-8.6c1.4-2.5,2.9-4.9,4.2-7.4c2.9-5.1,6.2-9.9,10-14.3c5.6-6.5,12.4-12.3,20.6-15.4
				c3.1-1.2,6.9-1.8,10.3-1.3c2.9,0.4,4.9,1.4,6.8,3.5c2.2,2.4,3.8,5.2,4.6,8.4c1,4,1.4,8.3,1.2,12.4c-0.2,4.2-0.8,8.4-1.8,12.5
				c-0.6,2.7-1.3,5.4-2.3,8c-1.2,1.8-2.6,3.5-4,5.2c0.4,0.2,0.9,0.2,1.4,0.1c1.7-0.2,3.4-0.3,5-0.6c1.7-0.2,3.4-0.4,5-0.7
				C613.2,288.9,613.6,288.8,614,288.5z"/>
			<path id="XMLID_50_" class="st3" d="M616.2,284.9c1.3-1.9,2.5-3.9,3.6-6c0.4-2.2,0.8-4.3,1.2-6.5c1.2-6.9,1.4-14,0.5-21
				c-0.7-5.3-2-10.3-4.6-15c-2.7-4.9-6.9-9.5-12.4-11.4c-5.1-1.8-10.7-2.3-16-1.2c-12.2,2.6-22.4,10.3-30.7,19.4
				c-9.2,10.2-16.3,22.5-20.9,35.4c-4.2,11.6-6.5,24.1-5.5,36.4c0.4,5.1,1.8,10.1,3.9,14.8c2.1,4.4,5.4,8,9.3,10.8
				c3.3,2.3,7.5,3.4,11.4,4.1c1.4,0.3,2.8,0.4,4.3,0.4c2.4-0.1,4.7-0.7,6.9-1.6c0.5-0.2,0-1.2-0.3-1.1c-3.2,0.9-6,1.6-9.4,1.2
				c-2.4-0.3-5.6-1-7.8-2c-3.6-1.5-6.5-3.9-9-6.9c-2.5-3-4.1-6.5-5.4-10.2c-1.6-4.9-1.9-10.2-1.9-15.3c0-5.8,0.9-12,2.3-17.6
				c3-12,7.9-23.4,14.8-33.6c3.1-4.6,6.4-8.9,10.2-12.9c4-4.2,9-8.7,14.1-11.5c4.8-2.6,9.9-4.9,15.4-5.4c4.2-0.4,8.1-0.1,12.1,1.3
				c2.1,0.5,4,1.5,5.7,3c1,0.9,2,1.9,3.1,2.8c2.6,2.8,4.2,6,4.8,9.8c1.8,3.6,2.8,7.5,2.9,11.5c0.4,5.7,0.1,11.7-0.9,17.3
				c-0.4,2.1-0.8,4.2-1.3,6.2c-1,1.9-2,3.8-3.2,5.5c-0.3,0.6,0.9,0.2,0.9,0.2C614.7,285.7,615.8,285.4,616.2,284.9z"/>
			<path id="XMLID_49_" class="st3" d="M617,290.9c1.1-2.1,2-4.2,2.8-6.4c0.8-2.2,1.2-4.4,1.3-6.8c1-6,1.4-12.3,0.9-18.4
				c-0.9-10.3-4.5-21.2-13.5-27.1c-6.1-4-13.7-4.6-20.7-3.1c-12,2.6-22.3,10.8-30.2,19.7c-10.5,11.9-18.4,26.6-22.8,41.9
				c-3.3,11.3-5.1,23.7-2.7,35.3c1.6,7.7,5.3,15.8,12.4,20c3.1,1.9,6.5,3.1,10,3.9c1.8,0.5,3.7,0.7,5.6,0.7c2.4-0.1,4.7-0.7,6.9-1.7
				c0.6-0.2-0.2-2.9-0.8-2.8c-2.6,0.5-5,1-7.7,0.7c-2.2-0.2-4.2-0.7-6.3-1.3c-11.3-3.4-17.4-14.7-18.3-26.3
				c-1.6-19.8,5.4-39.8,15.6-56.5c5-8.1,10.9-15.6,18.2-21.9c2.9-2.7,6.2-4.8,9.8-6.4c2.4-1.8,5-2.9,7.9-3.6
				c7.3-2.6,14.9-1.8,22.6,2.4c1.2,1,2.4,2.1,3.6,3.1c5.9,6.1,8.4,15.1,8.8,23.4c0.5,10.5-1.2,20.8-4.6,30.7
				C615.4,291.2,616.8,291.3,617,290.9z"/>
			<path id="XMLID_48_" class="st3" d="M612.9,289.1c1.4-1.9,2.7-3.9,3.9-6c0.4-2.1,0.9-4.2,1.3-6.3c1-5.7,1.5-11.8,1.1-17.6
				c-0.3-4.8-1.2-10.3-3.3-14.8c-1.9-4-4.5-8.1-8.4-10.5c-7.8-4.9-17.2-4.3-25.4-0.8c-11,4.7-19.9,12.9-27,22.3
				c-7.4,9.8-13.2,20.8-16.9,32.5c-3.5,10.8-5.4,22.8-3.4,34.1c0.8,4.3,2.3,9.4,4.9,13c2.5,3.5,5.9,6.9,10,8.2
				c1.9,0.6,3.9,1.2,5.8,1.6c3.4,0.8,6.2,0.2,9.5-0.8c0.2-0.1-2.5-4.2-2.8-4.6c-1.6-2.2-3.1-4.6-5-6.6c-0.2-0.3-0.5-0.5-0.8-0.7
				c-0.4,0-0.7,0-1.1,0c-1.1-0.2-2-1.1-2.7-2c-1.2-1.3-2.7-3-3.6-4.4c-1.7-2.6-2.5-6.1-3-9c-1.3-9.2,0.6-18.6,3.3-27.4
				c0.8-2.9,1.8-5.7,3-8.4c0.9-2.7,2.2-5.2,3.9-7.4c3-5,5.8-10,9.7-14.4c3.3-3.8,6.8-7.5,11-10.5c3.2-2.3,6.7-4.6,10.5-5.7
				c3-0.9,6.1-1.5,9.1-0.9c0.8,0.2,1.6,0.4,2.4,0.5c1.4,0.6,2.5,1.4,3.4,2.7c0.6,0.7,1.2,1.4,1.8,2.1c1,1.9,1.8,3.8,2.4,5.8
				c0.8,3.2,1,6.5,1,9.8c-0.1,4.9-0.8,9.6-1.9,14.4c-0.6,2.6-1.3,5.2-2.3,7.8c-1.2,1.8-2.6,3.4-3.9,5.1c0.5,0.2,0.9,0.3,1.4,0.2
				c1.8-0.1,3.6-0.2,5.4-0.4c1.8-0.1,3.6-0.3,5.4-0.5C612,289.6,612.5,289.4,612.9,289.1z"/>
			<path id="XMLID_47_" class="st3" d="M613.3,287.6c1.4-1.9,2.7-4,3.9-6.1c0.4-2.1,0.9-4.2,1.3-6.3c1.1-5.7,1.6-11.9,1.2-17.7
				c-0.3-4.9-1.2-10.4-3.3-14.9c-1.9-4.1-4.6-8.2-8.5-10.7c-8-5-17.7-4.2-26-0.5c-10.9,4.9-19.7,13.2-26.8,22.7
				c-7.3,9.8-12.9,20.8-16.6,32.4c-3.4,10.7-5.2,22.6-3.2,33.8c1.5,8.3,6,17.9,14.6,20.9c1.8,0.6,3.8,1.2,5.7,1.7
				c3.3,0.8,6,0.3,9.2-0.6c0.4-0.1-2.5-3.6-1.9-2.8c-1.6-2-3.2-4.2-5-6c-0.4-0.6-0.9-1-1.5-1.4c-0.4,0-0.7,0-1.1,0
				c-1.1-0.2-1.9-1.2-2.6-2c-1.1-1.3-2.6-3-3.6-4.3c-1.7-2.5-2.5-6-2.9-8.9c-1.3-9.1,0.6-18.5,3.3-27.2c0.8-2.9,1.8-5.7,3-8.4
				c0.9-2.6,2.2-5.1,3.8-7.3c2.9-5,5.8-9.9,9.6-14.3c3.3-3.8,6.8-7.5,10.8-10.5c3.2-2.3,6.7-4.7,10.5-5.9c3-0.9,6.2-1.7,9.3-1.1
				c0.8,0.2,1.7,0.4,2.5,0.5c1.5,0.5,2.6,1.5,3.5,2.7c0.6,0.7,1.2,1.4,1.8,2.1c1,1.9,1.8,3.8,2.4,5.9c0.8,3.2,1,6.6,1,9.9
				c-0.1,4.9-0.8,9.7-1.9,14.4c-0.6,2.7-1.4,5.3-2.3,7.8c-1.3,1.8-2.6,3.5-4,5.2c0.5,0.2,1,0.2,1.5,0c1.9-0.3,3.7-0.7,5.5-1
				c1.8-0.4,3.7-0.8,5.5-1.2C612.4,288.2,612.9,288,613.3,287.6z"/>
			<path id="XMLID_46_" class="st3" d="M614.2,289.7c1.4-1.9,2.7-3.9,3.9-6c0.4-2.1,0.9-4.3,1.3-6.4c1.1-5.8,1.5-12.1,1.1-18
				c-0.3-5-1.3-10.7-3.4-15.2c-2-4.3-4.7-8.5-8.7-11.1c-4.1-2.7-9.2-4.4-14.1-4.3c-4.7,0.2-9.2,1.3-13.5,3.1
				c-11.5,5-20.6,13.9-27.9,24c-7.3,10.1-13,21.4-16.6,33.3c-3.4,11-5.2,23.2-3.1,34.6c1.7,8.9,6.4,18.4,15.5,21.7
				c2.1,0.8,4.2,1.5,6.4,2c1.3,0.4,2.6,0.6,3.9,0.5c2.2,0,4.3-0.5,6.3-1.4c0.4-0.1-2.3-3.2-2.2-3.1c-0.6-0.6-1.8-2.5-2.8-2.6
				c-2-0.2-4-0.1-5.9-0.8c-1.6-0.6-3.1-1.4-4.5-2.3c-2-1.2-3.7-3.1-5.2-4.8c-2.3-2.7-3.9-7-4.7-10.4c-1.8-8.1-1.2-16.3,0.2-24.4
				c0.6-2.9,1.3-5.8,2.1-8.6c0.8-3.1,1.7-6.2,2.9-9.2c2.1-4.7,4.5-9.4,7-13.8c4.9-8.7,10.9-16.8,18.5-23.2c3.5-3,7.1-5.5,11.2-7.4
				c5.2-2.5,13.1-4.2,18.7-1.9c2.2,1.2,4.3,2.5,6.5,3.7c1.6,1.3,2.8,2.8,3.8,4.6c1.9,3.1,3.1,6.4,3.9,10c1.1,4.8,1.2,10.3,0.7,15.1
				c-0.7,8.1-2.1,16.1-7.4,22.8c-0.2,0.3,3.3,0.3,3.2,0.3C611.7,290.2,613.8,290.4,614.2,289.7z"/>
			<path id="XMLID_45_" class="st3" d="M616.6,286.6c1.3-1.9,2.5-3.9,3.6-6c0.6-2.2,1.1-4.5,1.3-6.7c0.9-6,1.4-12.1,1-18.2
				c-0.9-11.2-5.4-24.7-17.1-29c-5.2-1.9-10.7-2.3-16.1-1.3c-5.9,1.1-11.3,3.7-16.4,6.9c-7.2,4.4-13.5,11-18.6,17.7
				c-4.1,5.5-7.8,11.3-10.9,17.4c-4.6,9.1-8.1,18.7-9.9,28.7c-1.2,6.7-1.9,13.5-1.3,20.3c0.9,9.8,4.6,20,13.2,25.6
				c3,1.9,6.5,3,10,3.8c1.8,0.5,3.7,0.7,5.6,0.6c2.4-0.1,4.7-0.7,6.9-1.7c0.5-0.2-0.3-1.9-0.9-1.8c-2.1,0.6-4.1,1.1-6.3,1.3
				c-2.1,0.1-4.3-0.3-6.4-0.8c-0.8-0.2-1.7-0.4-2.5-0.7c-1.2-0.2-2.3-0.7-3.3-1.4c-2.7-1.5-4.9-3.3-6.9-5.7
				c-2.5-2.9-4.2-6.4-5.4-10.1c-0.4-1.6-0.7-3.2-1.1-4.7c2.6-15.6,5.1-31.1,7.7-46.7c4-9.1,9.3-17.8,15.8-25.3
				c5.3-6.1,11.3-11.8,18.6-15.5c4.1-2.1,8.3-3.9,13-4.3c3.4-0.3,6.7-0.2,10.1,0.7c3,0.8,5.8,2.1,8.1,4.1c2.2,1.8,3.9,4.1,5.4,6.5
				c2,3.2,3.1,7.1,3.8,10.8c1.4,5.9,0.9,11.9-1.5,18c1.5,7.1,0.3,13.2-3.7,18.3c-0.4,0.6,1.2,0.3,1.2,0.3
				C614.2,287.3,616.1,287.2,616.6,286.6z"/>
			<path id="XMLID_44_" class="st3" d="M614,290.1c1.4-1.9,2.7-3.9,3.8-6c0.4-2.1,0.8-4.2,1.3-6.3c1-5.7,1.4-11.9,1-17.8
				c-0.3-4.9-1.3-10.4-3.4-14.9c-1.9-4.1-4.5-8.2-8.4-10.7c-3.9-2.5-8.6-4.2-13.3-4.1c-4.4,0.1-8.8,1.1-12.9,2.8
				c-11.3,4.7-20.4,13.3-27.7,23.1c-7.4,10-13.1,21.1-16.9,33c-3.4,10.9-5.3,23.1-3.3,34.4c1.6,8.7,6.2,18.4,15.2,21.6
				c2,0.7,4.1,1.4,6.1,1.8c3.5,0.8,6.5,0.2,9.9-0.9c0.2-0.1-2.4-3.3-2.6-3.7c-0.9-1-1.7-2.1-2.6-3.1c-0.6-0.7-1.2-1.4-2-2
				c-0.9-0.6-1.9-0.8-2.9-0.7c-0.5-0.2-1-0.3-1.4-0.5c-1.3-0.5-2.8-1.8-3.8-2.8c-2-1.9-3.9-4.2-5.1-6.8c-1.6-3.4-2.5-7.2-2.8-11
				c-0.7-9.5,1.1-18.6,3.8-27.7c0.8-3,1.8-6,3-8.9c1.4-2.6,2.8-5.1,4.2-7.7c2.8-5.4,6.1-10.4,9.9-15.2c5.9-7.4,13.1-14,22-17.6
				c3.7-1.4,8.2-2.2,12.1-1.5c1.8,0.2,3.5,0.8,5,1.8c1.3,0.5,2.4,1.4,3.2,2.6c2.4,2.6,4.2,5.6,5.1,9.1c1.1,4.2,1.6,8.7,1.4,13.1
				c-0.2,4.4-0.8,8.7-1.7,13c-0.6,2.8-1.3,5.6-2.3,8.3c-1.2,1.7-2.5,3.4-3.8,5c0.3,0.2,0.6,0.3,1.1,0.3c1.3,0.1,2.7,0.1,4,0.1
				c1.3,0,2.7,0,4-0.1C613.3,290.5,613.7,290.4,614,290.1z"/>
			<path id="XMLID_43_" class="st3" d="M612.9,288.4c1.4-1.9,2.7-4,3.9-6c0.4-2.1,0.9-4.2,1.3-6.3c1.1-5.7,1.5-11.8,1.2-17.6
				c-0.3-4.9-1.2-10.4-3.3-14.8c-1.9-4.1-4.5-8.2-8.4-10.6c-7.9-5-17.4-4.3-25.7-0.7c-10.9,4.8-19.8,13-26.9,22.5
				c-7.3,9.8-13,20.8-16.8,32.5c-3.4,10.7-5.3,22.7-3.3,33.9c0.8,4.3,2.3,9.3,4.9,12.9c2.5,3.4,5.8,6.8,9.9,8.1
				c1.9,0.6,3.8,1.2,5.8,1.6c3.3,0.8,6.1,0.2,9.3-0.7c0.4-0.1-2.5-3.9-1.8-3c-1.6-2.2-3.2-4.6-5-6.6c-0.4-0.6-0.9-1.1-1.5-1.5
				c-0.4,0-0.7,0-1.1,0c-1.1-0.2-1.9-1.1-2.6-2c-1.1-1.3-2.7-3-3.6-4.4c-1.7-2.5-2.5-6-2.9-9c-1.3-9.1,0.6-18.5,3.3-27.3
				c0.8-2.9,1.8-5.6,3-8.4c0.9-2.7,2.2-5.1,3.9-7.4c3-5,5.8-9.9,9.6-14.4c3.3-3.8,6.8-7.5,10.9-10.5c3.2-2.3,6.7-4.6,10.5-5.8
				c3-0.9,6.1-1.6,9.2-1c0.8,0.2,1.6,0.4,2.5,0.5c1.4,0.6,2.6,1.5,3.4,2.7c0.6,0.7,1.2,1.4,1.8,2.1c1,1.9,1.8,3.8,2.4,5.9
				c0.8,3.2,1,6.6,1,9.8c-0.1,4.9-0.8,9.6-1.9,14.4c-0.6,2.7-1.3,5.2-2.3,7.8c-1.3,1.8-2.6,3.5-4,5.1c0.5,0.2,1,0.2,1.5,0.1
				c1.8-0.2,3.6-0.4,5.4-0.7c1.8-0.3,3.6-0.5,5.4-0.9C612,288.9,612.5,288.7,612.9,288.4z"/>
			<path id="XMLID_42_" class="st3" d="M614.6,289.4c1.4-1.9,2.7-3.9,3.8-6c0.4-2.1,0.8-4.2,1.3-6.4c1-5.8,1.5-12,1-17.8
				c-0.3-4.9-1.3-10.5-3.4-15c-2-4.1-4.6-8.3-8.5-10.8c-3.9-2.5-8.8-4.1-13.5-4c-4.5,0.1-8.8,1.2-12.9,2.9
				c-11.3,4.8-20.4,13.4-27.6,23.1c-7.4,9.9-13,21.1-16.7,32.9c-3.4,10.9-5.3,23-3.3,34.3c1.6,8.8,6.2,18.2,15.1,21.6
				c2,0.8,4,1.5,6.1,2c1.2,0.4,2.5,0.6,3.8,0.6c2.1,0,4.2-0.4,6.1-1.3c0.2-0.1-2.3-2.9-2.6-3.2c-0.9-0.9-1.7-1.8-2.6-2.6
				c-0.6-0.6-1.2-1.2-1.9-1.7c-1-0.5-2-0.8-3.1-0.7c-0.5-0.2-1-0.3-1.5-0.5c-1.4-0.5-3-1.8-4.2-2.8c-2.1-1.9-4.2-4.3-5.4-6.9
				c-1.7-3.5-2.6-7.3-3-11.1c-0.8-9.5,1-18.8,3.7-27.9c0.8-3.1,1.8-6.1,3-9c1.4-2.6,2.8-5.2,4.2-7.8c2.9-5.4,6.1-10.5,10-15.3
				c6-7.5,13.3-14.2,22.4-17.8c3.7-1.5,8.3-2.2,12.3-1.5c1.9,0.2,3.6,0.8,5.1,1.8c1.3,0.5,2.4,1.4,3.2,2.6c2.4,2.7,4.2,5.7,5.2,9.2
				c1.2,4.3,1.6,8.7,1.5,13.1c-0.2,4.4-0.7,8.8-1.7,13.1c-0.5,2.8-1.3,5.6-2.2,8.4c-1.2,1.8-2.5,3.5-3.9,5.1
				c0.3,0.2,0.7,0.3,1.1,0.2c1.3,0,2.7-0.1,4-0.2C610.2,290,614,290.2,614.6,289.4z"/>
			<path id="XMLID_41_" class="st3" d="M617.5,291.4c1.1-2.1,2-4.2,2.8-6.4c0.8-2.2,1.2-4.4,1.3-6.8c0.9-6,1.4-12.4,0.9-18.4
				c-0.9-10.2-4.5-21.1-13.4-27.1c-13.4-9-30.8-1.4-41.9,7.6c-12.1,9.9-21.2,23.6-27.3,37.9c-5.8,13.3-9.5,28.4-8.1,42.9
				c0.9,9.5,4.5,20.5,13.3,25.7c3.1,1.8,6.5,3,10,3.9c1.8,0.5,3.7,0.7,5.6,0.6c2.4-0.2,4.7-0.8,6.8-1.8c0.6-0.2-0.3-2.9-0.9-2.7
				c-2.1,0.5-4.1,1-6.2,1.1c-2.1,0.1-4.3-0.3-6.3-0.8c-2.1-0.5-3.9-1.1-5.8-2.1c-1.4-0.6-2.6-1.4-3.7-2.5c-3.2-2.2-5.1-5.3-5.8-9.5
				c-3-3.9-4.7-8.3-4.9-13.1c-0.1-1.8-0.2-3.6-0.3-5.3c0-3.8,0.3-7.7,0.8-11.5c1.4-9.7,4.4-19.1,8.5-28c3.7-8.1,8.3-15.8,13.8-22.7
				c3.3-4.1,6.8-8,10.9-11.3c1.6-1.2,3.2-2.5,4.7-3.7c14.3,1,28.6,2,42.9,3c3.8,5.8,5.2,12.9,5.7,19.7c0.4,4.9-0.1,10.1-0.8,15
				c-0.8,5.5-2,10.6-3.9,15.9C616,291.6,617.3,291.8,617.5,291.4z"/>
		</g>
	</g>
</g>
<g id="XMLID_4_" class="st2">
	<g id="XMLID_53_">
		<g id="XMLID_54_">
			<path id="XMLID_66_" class="st4" d="M622.6,278.5c2.6-2,5-4.2,7.4-6.5c1.8-3.1,3.5-6.3,4.9-9.5c3.3-7.1,5.9-14.4,7.5-22.1
				c2.1-10.6,2.1-21.9-3.4-31.6c-3.3-5.8-9.7-10.5-16.2-12.1c-5.6-1.4-11.3-1.6-16.9-0.8c-14.2,2-27.4,9.2-38.8,17.6
				c-13.3,9.9-24.8,22.4-33.9,36.2c-8,12.1-14.3,25.7-16.5,40.1c-1.6,10.9-0.8,23,7,31.5c2.4,2.6,5.3,4.5,8.2,6.4
				c1.5,1,3.1,1.8,4.9,2.3c2.2,0.5,4.4,0.6,6.7,0.3c0.4,0-1.8-5.3-1.8-5.2c-0.5-1.3-1.1-2.7-1.7-4c-0.1-0.4-0.4-0.7-0.7-0.9
				c-1.5-0.4-3.1-1.3-4.2-2.4c-0.6-0.5-1-1.1-1.4-1.7c-0.8-1.4-1.8-2.7-3-3.8c-1.9-2.9-2.9-6.6-3.2-10c-0.5-4.4,0.1-8.8,0.9-13.2
				c2.6-14.1,9.6-26.9,18.2-38.3c8.9-11.9,19.8-23,32.6-30.7c2.3-1.5,4.7-2.8,7.3-3.8c3.3-1.7,6.7-3.2,10.2-4.4
				c4.4-1.5,9.1-2.7,13.8-2.8c7.6-0.2,15.6,2.3,19.2,9.6c4.2,8.5,2.6,18.3,0.2,27.1c-1.6,5.9-3.5,11.5-6.4,16.9
				c-1.9,3.5-4.2,6.8-6.7,9.9c-2.3,2-4.7,3.9-7.2,5.7c0.4,0.3,0.9,0.4,1.4,0.3c1.7,0.1,3.4,0.1,5.2,0.1c1.7,0,3.4,0,5.2,0
				C621.7,278.9,622.2,278.8,622.6,278.5z"/>
			<path id="XMLID_65_" class="st4" d="M623.7,280.1c2.6-2,5-4.2,7.4-6.5c1.8-3.1,3.4-6.3,4.8-9.6c3.3-7.1,5.8-14.4,7.3-22.1
				c2-10.6,1.9-21.8-3.7-31.3c-6.7-11.3-20.8-14.2-32.9-12.6c-14.1,1.9-27.3,8.9-38.7,17.2c-13.4,9.8-25,22.3-34.2,36.1
				c-8.1,12.2-14.5,25.7-16.8,40.2c-1.7,11-1,23.2,6.8,31.8c2.4,2.7,5.4,4.7,8.3,6.6c1.6,1.1,3.2,1.9,5.1,2.4c2.3,0.5,4.6,0.6,7,0.3
				c0.3,0-2.1-5.6-2.1-5.5c-0.6-1.4-1.3-2.8-2-4.2c-0.1-0.4-0.4-0.8-0.8-1c-1.8-0.4-3.6-1.3-4.9-2.6c-0.6-0.5-1.2-1.1-1.6-1.8
				c-1-1.4-2.1-2.8-3.3-4c-4.7-6.9-4.1-16.1-2.7-23.9c2.5-14.3,9.5-27.3,18.1-38.8c9-12.1,20-23.5,33-31.4c2.4-1.6,4.9-2.9,7.6-3.9
				c3.4-1.8,6.8-3.3,10.4-4.5c4.6-1.5,9.4-2.8,14.2-2.9c8-0.3,16.4,2.4,20.2,9.9c4.4,8.6,3,18.6,0.6,27.6c-1.6,6-3.5,11.7-6.4,17.2
				c-1.9,3.6-4.1,6.9-6.5,10.1c-2.3,2-4.7,3.9-7.2,5.7c0.4,0.3,0.8,0.5,1.3,0.5c1.7,0.3,3.4,0.5,5,0.7c1.7,0.2,3.4,0.4,5.1,0.6
				C622.8,280.4,623.3,280.3,623.7,280.1z"/>
			<path id="XMLID_64_" class="st4" d="M626,277.4c2.5-2.1,4.9-4.4,7.1-6.7c2.4-4.3,4.5-8.8,6.3-13.3c2.5-6.1,4.5-12.6,5.6-19.1
				c1.6-9.2,1.8-19.2-2-28c-2.1-5-5.5-9.1-9.7-12.4c-6-4.7-14.5-6.6-21.9-6.3c-14.8,0.6-28.5,6.8-40.7,14.9
				c-14.1,9.3-26.3,21.6-36.3,35.3c-9.7,13.3-17.8,28.6-20.7,44.9c-2.3,12.5-1.4,26.8,7.8,36.5c2.7,2.8,6.2,5.2,9.5,7.1
				c1.8,1.1,3.8,1.9,5.8,2.5c2.7,0.4,5.3,0.4,8,0c0.5,0,0.3-1.2-0.2-1.2c-2.5,0.4-5,0.4-7.4-0.1c-1.5-0.4-2.9-1-4.2-1.7
				c-3-1.6-5.8-3.5-8.2-5.8c-4.4-4.1-7.5-9.3-8.8-15.2c-1.1-5.3-1.3-10.8-0.6-16.2c1.5-13.2,6.9-25.8,13.7-37.1
				c8.7-14.5,20.1-27.5,33.2-38.1c2.9-2.4,5.9-4.7,9-6.8c2.8-1.8,5.6-3.5,8.6-5c6.7-3.6,13.8-6.8,21.3-8.2c10.6-2,22.3-1.6,31.1,5.4
				c6.3,5,9.5,12.5,10.5,20.5c0.7,5.5,0.1,11-0.7,16.5c-1,6.3-3.1,12.3-5.4,18.2c-1.8,4.4-3.8,8.7-6.1,12.8
				c-2.2,2.3-4.5,4.6-6.9,6.7c-0.4,0.4,0.6,0.5,0.7,0.5C624.7,277.7,625.6,277.7,626,277.4z"/>
			<path id="XMLID_63_" class="st4" d="M625.8,283.3c2.5-2.2,4.9-4.4,7.1-6.8c1.6-2.1,2.7-4.4,3.5-6.9c3.9-8.3,7.1-17,8.7-26
				c2.2-12.7,1.5-27.2-7.9-37.1c-17.2-18.1-46.4-7.6-64.1,3.5c-15.3,9.6-28.4,22.8-39,37.4c-10.7,14.8-19.7,32.3-21.4,50.7
				c-0.8,9,0.2,18.5,5.3,26.3c3.2,4.8,7.8,8.3,12.7,11.2c1.8,1.1,3.7,1.9,5.8,2.4c2.7,0.5,5.3,0.5,8,0.1c0.5,0,0.1-3.2-0.6-3.2
				c-3.6,0-6.5-0.1-9.8-1.6c-2.4-1.1-5.2-2.8-7.2-4.5c-3.2-2.6-5.9-5.7-7.8-9.4c-3.6-6.9-4.3-14.7-3.7-22.3c0.5-6.1,2.1-12.1,4-18
				c2.1-6.5,5.2-13,8.6-18.9c7.1-12.3,15.8-23.5,26.1-33.4c4.5-4.3,9.2-8.4,14.1-12.1c5.4-4,11.6-7.9,17.8-10.7
				c2.1-0.9,4.1-1.7,6.2-2.6c8-3.3,16.2-4.6,24.5-3.7c6.5,3.1,13,6.3,19.5,9.4c1.9,1.9,3.3,4,4.3,6.4c4.6,9.3,4.6,19.9,2.6,29.9
				c-1.3,6.4-3.4,13-6,18.9c-1,2.2-2,4.3-3,6.5c-2.5,5.2-6,9.6-10.4,13.3C623.2,282.9,625.4,283.6,625.8,283.3z"/>
			<path id="XMLID_62_" class="st4" d="M622.7,280.7c2.6-2,5-4.2,7.3-6.5c1.8-3.1,3.4-6.2,4.8-9.5c3.2-7,5.8-14.3,7.3-22
				c2-10.5,1.9-21.6-3.6-31.1c-6.5-11.2-20.4-14.1-32.3-12.6c-14.1,1.8-27.3,8.7-38.6,16.9c-13.5,9.7-25.1,22.2-34.3,36
				c-8.1,12.2-14.5,25.7-16.9,40.2c-1.8,11-1,23.3,6.9,31.9c2.5,2.7,5.4,4.6,8.4,6.6c1.6,1.1,3.3,1.9,5.1,2.4c2.3,0.4,4.7,0.5,7,0.2
				c0.4,0-2-6.9-2-6.7c-0.6-1.7-1.2-3.5-1.9-5.2c-0.1-0.5-0.4-1-0.8-1.3c-1.5-0.4-3-1.2-4.1-2.4c-0.5-0.5-1-1.1-1.4-1.7
				c-0.8-1.4-1.8-2.7-2.9-3.8c-1.9-2.9-2.8-6.6-3.1-10c-0.4-4.4,0.1-8.8,0.9-13.1c0.9-3.5,1.8-7.1,2.9-10.5
				c1.2-3.9,2.7-7.6,4.7-11.1c3.1-5.7,6.6-11.2,10.6-16.4c9-11.8,19.9-23.1,32.8-30.5c2.4-1.5,4.8-2.7,7.5-3.7
				c3.3-1.7,6.6-3.1,10.1-4.2c4.3-1.3,8.8-2.4,13.4-2.4c3.6,0,7.2,0.5,10.4,2c3.5,1.5,6.2,4,7.9,7.4c4.1,8.4,2.5,18,0.1,26.6
				c-1.6,5.9-3.6,11.5-6.5,16.9c-1.9,3.4-4,6.6-6.5,9.7c-2.3,2-4.7,3.9-7.1,5.6c0.4,0.3,0.8,0.5,1.4,0.6c1.8,0.4,3.6,0.7,5.4,1.1
				c1.8,0.3,3.6,0.6,5.4,0.9C621.7,280.8,622.2,280.8,622.7,280.7z"/>
			<path id="XMLID_61_" class="st4" d="M622.9,279.2c2.6-2,5-4.2,7.3-6.5c1.8-3.1,3.5-6.3,4.9-9.5c3.3-7.1,5.9-14.4,7.4-22
				c2.1-10.6,2.1-21.8-3.5-31.4c-3.3-5.8-9.7-10.3-16.1-11.9c-5.5-1.4-11.2-1.5-16.8-0.7c-14.1,1.9-27.3,9-38.6,17.4
				c-13.3,9.8-24.9,22.3-34,36.1c-8,12.1-14.4,25.6-16.6,40.1c-1.7,10.9-0.9,23,6.9,31.5c2.4,2.6,5.3,4.5,8.2,6.4
				c1.5,1,3.2,1.8,4.9,2.3c2.2,0.5,4.5,0.6,6.8,0.3c0.3,0-2-6-1.9-5.8c-0.6-1.5-1.2-3-1.9-4.5c-0.1-0.5-0.4-0.8-0.8-1.1
				c-1.5-0.4-2.9-1.3-4-2.4c-0.5-0.5-1-1.1-1.3-1.7c-0.8-1.4-1.7-2.6-2.9-3.7c-1.9-2.8-2.8-6.6-3.1-9.9c-0.4-4.4,0.1-8.8,0.9-13.1
				c2.6-14.1,9.6-26.8,18.2-38.1c8.9-11.8,19.8-22.9,32.6-30.4c2.3-1.5,4.7-2.7,7.3-3.7c3.2-1.7,6.6-3.1,10.1-4.3
				c4.3-1.4,8.9-2.6,13.5-2.7c7.4-0.2,15.2,2.3,18.6,9.4c4.1,8.5,2.5,18.1,0.1,26.8c-1.6,5.9-3.5,11.5-6.4,16.8
				c-1.9,3.5-4.1,6.7-6.6,9.8c-2.3,2-4.7,3.9-7.2,5.7c0.4,0.3,0.9,0.4,1.4,0.4c1.8,0.2,3.7,0.3,5.5,0.4c1.8,0.1,3.7,0.2,5.5,0.3
				C621.9,279.5,622.4,279.4,622.9,279.2z"/>
			<path id="XMLID_60_" class="st4" d="M623.9,281.7c2.5-2,5-4.2,7.2-6.5c2.4-4.2,4.5-8.5,6.4-12.9c2.6-6.1,4.7-12.6,5.9-19.2
				c2.3-12.2,2-26.3-6.8-36.1c-9.4-10.5-24.6-11.5-37.5-8.3c-7.7,1.9-14.9,5.3-21.7,9.2c-5.1,3-10,6.2-14.6,9.9
				c-10.3,8.2-19.4,17.9-27.1,28.5c-9.6,13.1-17.6,28.1-20.6,44.2c-2.3,11.8-2.1,26.3,6.9,35.5c2.6,2.7,5.6,4.9,8.8,6.9
				c1.6,1.1,3.4,1.9,5.4,2.4c2.4,0.5,4.9,0.5,7.3,0.1c0.4,0-1.5-3.8-1.4-3.7c-0.3-0.6-1.2-3.2-2.1-3.4c-1.6-0.1-3.1-0.5-4.5-1.3
				c-0.6-0.3-1.3-0.6-1.9-1c-1.8-1.1-3.3-2.8-4.8-4.3c-2.1-1.9-3.8-4.1-5-6.6c-0.5-1.3-1.1-2.6-1.6-3.9c-1.6-4.3-1.7-9.1-1.5-13.7
				c0.2-5.5,1.6-11.1,3-16.4c1.7-6.3,4.4-12.1,7.4-17.8c3.3-6.3,7.3-12.2,11.6-17.9c10.6-14.2,24.2-26.5,39.5-35.3
				c10-5.7,21.8-10.4,33.6-9c5,0.6,9.4,2,13.5,5.1c3.8,2.8,6.3,6.3,8,10.6c3.9,9.8,2.3,20.6-0.4,30.5c-1.7,6.5-4.1,12.5-7.3,18.4
				c-1.5,2.9-3.1,5.7-5.1,8.3c-2.3,2.1-4.7,4-7.2,5.9c-0.3,0.2,3.3,1.2,3.2,1.2C621.1,281.4,623.3,282.2,623.9,281.7z"/>
			<path id="XMLID_59_" class="st4" d="M626.3,278.8c1.2-1.1,2.4-2.1,3.6-3.2c1.1-1.1,2.3-2.2,3.4-3.4c0.9-1.1,2.8-5.2,3.4-6.5
				c4.1-8.1,7.1-17.1,8.8-26.1c2.2-12.5,1.7-26.8-7.3-36.6c-5.1-5.6-12.4-8.8-19.9-9.7c-9.6-1.2-19.4,1-28.3,4.6
				c-14.8,5.8-28,15.7-39.2,26.9c-14.9,15-27.7,33.4-33.9,53.7c-3.6,11.8-5.5,25.4-0.4,37.1c1.4,3.2,3.4,6.2,5.8,8.8
				c2.4,2.5,5.3,4.4,8.2,6.3c1.8,1.1,3.6,2.1,5.6,2.7c3.2,1.1,6.2,0.8,9.6,0.5c0.5,0,0.1-1.9-0.5-1.9c-3.1,0.2-5.8,0.4-8.7-0.6
				c-2.3-0.8-4.3-2-6.4-3.3c-6.6-4.2-11.5-10.7-13.2-18.4c-0.8-3.4-1.1-7-1.1-10.5c0-8.5,2.4-16.5,7-24c1.4-7.9,4.3-15.1,8.7-21.6
				c2-3.3,4.1-6.4,6.4-9.5c12.9-12,25.9-24,38.8-36c4.9-2.9,9.9-5.4,15.2-7.3c8.6-3.1,17.6-4.7,26.7-3.2c8.2,1.4,15.8,6.4,19.9,13.8
				c2,3.5,3,7.4,3.6,11.3c0.9,4.5,0.6,9.1-0.9,13.7c0,6.1-1.1,12-3.2,17.7c-1.5,4.3-3.4,8.5-5.4,12.5c-1,3-2.7,5.5-5,7.5
				c-1.6,1.6-3.3,3.2-5.1,4.6c-0.5,0.5,0.9,0.5,1,0.5C624.1,279,625.8,279.3,626.3,278.8z"/>
			<path id="XMLID_58_" class="st4" d="M623.8,281.9c2.5-2,5-4.2,7.2-6.5c1.8-3.1,3.4-6.3,4.8-9.6c3.2-7.1,5.8-14.5,7.2-22.2
				c2-10.6,1.8-21.8-3.7-31.4c-6.6-11.5-20.8-14.7-33-13.2c-14.3,1.7-27.8,9-39.3,17.4c-13.5,9.9-25.2,22.5-34.4,36.5
				c-8.1,12.3-14.6,25.9-16.9,40.5c-1.8,11.1-0.9,23.6,7,32.4c2.5,2.7,5.5,4.8,8.6,6.8c1.6,1.1,3.4,1.9,5.3,2.4
				c2.4,0.5,4.8,0.5,7.2,0.2c0.3,0-2.1-5.7-2-5.5c-0.6-1.4-1.3-2.8-2-4.2c-0.1-0.4-0.4-0.8-0.8-1c-2.1-0.5-4-1.3-5.7-2.7
				c-0.7-0.6-1.3-1.2-1.9-1.9c-1.2-1.5-2.4-2.9-3.7-4.2c-5-7.1-4.8-16.6-3.5-24.8c2.3-14.6,9.1-27.9,17.6-39.7
				c9-12.6,20.1-24.3,33-32.8c2.5-1.7,5.1-3.2,7.8-4.4c3.5-2,7.2-3.7,11-5.2c5.1-1.8,10.3-3.3,15.7-3.5c9.1-0.4,18.5,2.8,22.9,11.2
				c4.7,9,3.4,19.5,1,29c-1.6,6.2-3.7,12.1-6.6,17.8c-1.9,3.6-4.1,7.1-6.5,10.3c-2.3,2-4.6,3.9-7,5.7c0.2,0.3,0.6,0.5,1,0.6
				c1.3,0.4,2.7,0.8,4.1,1.2c1.4,0.4,2.7,0.7,4.1,1C623,282.1,623.4,282.1,623.8,281.9z"/>
			<path id="XMLID_57_" class="st4" d="M622.6,279.9c2.6-2,5-4.2,7.3-6.5c1.8-3.1,3.4-6.2,4.9-9.5c3.3-7,5.9-14.3,7.3-22
				c2-10.5,2-21.7-3.5-31.2c-6.5-11.3-20.6-14.2-32.5-12.7c-14.1,1.8-27.3,8.8-38.7,17.1c-13.4,9.8-25,22.2-34.2,36.1
				c-8.1,12.1-14.5,25.7-16.7,40.1c-1.7,10.9-0.9,23.2,6.9,31.7c2.4,2.6,5.4,4.6,8.3,6.5c1.5,1,3.2,1.8,5,2.3
				c2.3,0.4,4.6,0.5,6.9,0.2c0.4,0-1.9-6.4-1.9-6.3c-0.6-1.6-1.2-3.2-1.8-4.8c-0.1-0.5-0.4-0.9-0.8-1.2c-1.5-0.4-2.9-1.2-4-2.4
				c-0.5-0.5-1-1.1-1.3-1.7c-0.8-1.4-1.7-2.6-2.9-3.8c-1.9-2.9-2.7-6.6-3.1-9.9c-0.4-4.4,0.1-8.8,0.9-13.1c0.9-3.5,1.8-7.1,2.9-10.5
				c1.2-3.9,2.7-7.6,4.8-11.1c3.1-5.7,6.6-11.2,10.6-16.4c8.9-11.8,19.8-23,32.7-30.5c2.3-1.5,4.8-2.7,7.4-3.7
				c3.3-1.7,6.6-3.1,10.1-4.2c4.3-1.4,8.9-2.5,13.4-2.5c7.3-0.1,15,2.4,18.4,9.4c4.1,8.4,2.4,18,0.1,26.7
				c-1.6,5.9-3.6,11.5-6.4,16.8c-1.9,3.4-4.1,6.7-6.6,9.7c-2.3,2-4.7,3.9-7.2,5.7c0.4,0.3,0.9,0.5,1.4,0.5c1.8,0.3,3.6,0.5,5.4,0.7
				c1.8,0.2,3.6,0.4,5.4,0.6C621.6,280.2,622.1,280.1,622.6,279.9z"/>
			<path id="XMLID_56_" class="st4" d="M624.3,281.2c2.5-2,5-4.2,7.3-6.5c1.8-3.1,3.4-6.3,4.8-9.6c3.3-7.1,5.8-14.5,7.3-22.2
				c2-10.6,1.8-21.9-3.8-31.5c-6.7-11.5-20.9-14.7-33.2-13.2c-14.4,1.8-27.8,9-39.3,17.5c-13.5,9.9-25.1,22.5-34.3,36.5
				c-8.1,12.3-14.5,25.9-16.8,40.5c-1.7,11.1-0.9,23.5,7,32.3c2.5,2.7,5.5,4.8,8.6,6.8c1.6,1.1,3.4,1.9,5.2,2.4
				c2.4,0.5,4.8,0.6,7.2,0.3c0.3,0-2.1-4.9-2.1-4.8c-0.6-1.2-1.3-2.4-2-3.6c-0.1-0.4-0.4-0.7-0.8-0.8c-2.2-0.5-4.3-1.3-6.1-2.8
				c-0.7-0.6-1.4-1.2-2-2c-1.3-1.5-2.5-2.9-3.8-4.3c-5.2-7.2-5-16.8-3.7-25.1c2.2-14.7,9.1-28.1,17.7-40.1
				c9-12.7,20.2-24.5,33.2-33.1c2.5-1.8,5.1-3.2,7.9-4.5c3.6-2,7.2-3.7,11.1-5.2c5.1-1.8,10.4-3.3,15.9-3.5
				c9.2-0.4,18.7,2.8,23.2,11.3c4.8,9,3.6,19.6,1.2,29.1c-1.6,6.2-3.6,12.1-6.5,17.8c-1.9,3.7-4.1,7.2-6.6,10.5
				c-2.3,2-4.6,3.9-7.1,5.7c0.3,0.3,0.6,0.5,1,0.5c1.4,0.3,2.7,0.6,4.1,0.9c1.4,0.3,2.7,0.5,4.1,0.7
				C623.6,281.4,624,281.4,624.3,281.2z"/>
			<path id="XMLID_55_" class="st4" d="M627.1,284.1c2.3-2.2,4.5-4.6,6.5-7.1c1.6-2,2.8-4.3,3.5-6.9c3.9-8.3,7-17,8.6-26
				c2.3-12.8,1.5-27.4-8-37.2c-17.3-18-46.3-7.6-64.1,3.6c-13,8.2-24.5,19.1-34.1,31.1c-11.9,14.8-21.9,32.3-25.4,51.2
				c-2,10.8-1.7,23,4.5,32.5c3.2,4.9,7.9,8.4,12.8,11.3c1.8,1.1,3.7,2,5.8,2.4c2.7,0.5,5.4,0.4,8,0c0.5,0,0.2-3.1-0.5-3
				c-3.5,0.2-6.7,0.3-9.9-1.2c-2.2-1-4.2-2.3-6.1-3.6c-3.3-2.1-5.9-5-8.2-8.1c-4.7-6.5-5.8-17-5-25c1.1-10.7,4.6-20.9,9.2-30.6
				c6-12.6,14.5-24.2,24-34.4c4.3-4.6,8.9-9.2,13.8-13.1c3.9-2.9,7.8-5.7,11.6-8.6c2.9-1.9,5.9-3.7,9.1-5.2
				c4.9-2.6,10.1-4.7,15.4-6.2c22.1-4.7,36.3,0.1,42.6,14.3c1.3,2.3,2.2,4.7,2.8,7.3c2.1,9.7,0.8,19.4-1.7,28.9
				c-1.7,6.6-4.4,13.3-7.5,19.3c-1.2,2.2-2.3,4.4-3.5,6.6c-1.8,2.5-3.7,4.8-5.7,7.1C625.2,283.8,626.8,284.4,627.1,284.1z"/>
		</g>
	</g>
</g>
<g id="XMLID_6_" class="st5">
	<path id="XMLID_30_" class="st6" d="M518,221.7c-31.8,38.4-52.5,74.3-40.1,92.5c12.4,18.1,5.7,49.1,22.6,52
		c5.5,0.9,11.1,0.8,16,0.1c8.9-1.2,13.6-11.2,8.9-18.9l-19.6-32c-0.5-0.8-0.9-1.7-1.2-2.6c-2.6-7.9-14.7-48.3,13.5-65
		c33.1-19.6,95.4-62.4,83.5-75.1C597.6,168.4,549.7,183.3,518,221.7z"/>
	<path id="XMLID_27_" class="st6" d="M518,221.7c0,0-1.3,1.6-3.8,4.7c-2.5,3-6,7.5-10.4,13.4c-4.3,5.9-9.5,13.1-14.8,21.8
		c-2.6,4.4-5.3,9.1-7.7,14.3c-2.4,5.2-4.6,10.8-6,16.9c-0.7,3.1-1.1,6.2-1,9.5c0.1,3.2,0.8,6.5,2.3,9.5c0.7,1.5,1.7,2.9,2.6,4.4
		c0.9,1.5,1.7,3.1,2.3,4.7c1.4,3.2,2.4,6.7,3.2,10.2c1.7,7,2.5,14.4,4.4,21.6c1,3.6,2.3,7.3,4.9,10c1.3,1.4,2.9,2.4,4.8,2.9
		c1.8,0.5,3.8,0.7,5.7,0.8c3.9,0.3,7.8,0.1,11.7-0.4c3.9-0.5,7.4-3,9.1-6.6c1.8-3.5,1.7-7.9-0.3-11.3c-2.1-3.5-4.3-7-6.4-10.5
		c-4.3-7-8.7-14.1-13-21.1c-0.5-0.9-1.1-1.8-1.5-2.8c-0.4-1-0.7-2-1-3c-0.6-2-1.1-4-1.6-6.1c-1-4.1-1.7-8.2-2.1-12.4
		c-0.4-4.2-0.5-8.4-0.2-12.6c0.3-4.2,1.1-8.4,2.4-12.3c1.3-4,3.3-7.8,5.9-11.1c2.6-3.3,5.8-6.1,9.3-8.3
		c14.1-8.4,27.7-17.2,40.5-26.3c6.4-4.5,12.6-9.1,18.4-13.8c5.9-4.7,11.5-9.5,16.5-14.7c2.5-2.6,4.8-5.2,6.8-8.1
		c1-1.4,1.9-2.9,2.6-4.5c0.3-0.8,0.6-1.6,0.8-2.4c0.2-0.8,0.3-1.7,0.1-2.5c-0.1-0.8-0.4-1.6-0.8-2.3c-0.1-0.2-0.2-0.3-0.4-0.5
		c-0.1-0.1-0.1-0.2-0.2-0.2c-0.1-0.1-0.2-0.2-0.2-0.2c-0.3-0.2-0.7-0.3-1.1-0.3c-1.6-0.2-3.3,0-4.9,0.3c-3.2,0.6-6.3,1.4-9.2,2.4
		c-5.9,2-11.5,4.4-16.6,6.9c-5.1,2.5-9.8,5.2-14.2,7.9c-8.6,5.4-15.7,10.9-21.2,15.7c-5.5,4.8-9.5,9-12.1,11.9
		c-1.3,1.4-2.3,2.6-2.9,3.4C518.3,221.3,518,221.7,518,221.7z M518,221.7c0,0,0.3-0.4,1-1.2c0.7-0.8,1.6-1.9,2.9-3.4
		c2.6-2.9,6.6-7.1,12.1-11.9c5.5-4.8,12.5-10.3,21.1-15.8c4.3-2.7,9-5.4,14.1-8c5.1-2.5,10.6-5,16.6-7c3-1,6.1-1.9,9.3-2.5
		c1.6-0.3,3.3-0.5,5-0.3c0.4,0.1,0.8,0.1,1.3,0.4c0.1,0.1,0.2,0.1,0.3,0.2c0.1,0.1,0.1,0.2,0.2,0.3c0.1,0.2,0.3,0.3,0.4,0.5
		c0.5,0.7,0.8,1.6,0.9,2.4c0.1,0.9,0,1.7-0.1,2.6c-0.2,0.9-0.5,1.7-0.8,2.5c-0.7,1.6-1.6,3.1-2.6,4.5c-2,2.9-4.3,5.6-6.8,8.2
		c-5,5.2-10.6,10-16.5,14.8c-5.9,4.7-12,9.4-18.4,13.9c-12.8,9.1-26.3,18-40.4,26.4c-3.5,2.2-6.6,4.9-9.1,8.1
		c-2.5,3.2-4.4,6.9-5.7,10.8c-1.3,3.9-2.1,8-2.3,12.1c-0.3,4.1-0.2,8.3,0.2,12.4c0.4,4.1,1.1,8.2,2,12.3c0.5,2,1,4,1.6,6
		c0.3,1,0.6,2,0.9,2.9c0.4,0.9,0.9,1.8,1.4,2.7c4.3,7.1,8.7,14.2,12.9,21.2c2.1,3.5,4.3,7,6.4,10.5c1,1.8,1.6,3.9,1.7,6
		c0,2.1-0.4,4.2-1.4,6c-0.9,1.9-2.3,3.5-4,4.7c-0.4,0.3-0.8,0.6-1.3,0.8c-0.5,0.2-0.9,0.5-1.4,0.7c-0.5,0.2-1,0.3-1.5,0.5l-1.5,0.3
		c-4,0.5-8,0.7-11.9,0.4c-2-0.2-3.9-0.4-5.8-0.9c-1.9-0.6-3.7-1.6-5-3.1c-2.7-2.9-4-6.7-5.1-10.3c-1-3.7-1.6-7.3-2.3-11
		c-0.6-3.6-1.3-7.2-2.1-10.7c-0.8-3.5-1.8-6.9-3.1-10.1c-0.7-1.6-1.4-3.2-2.3-4.6c-0.9-1.5-1.9-2.9-2.6-4.4
		c-1.5-3.1-2.2-6.4-2.3-9.7c-0.1-3.3,0.3-6.5,1-9.6c1.4-6.1,3.6-11.8,6.1-16.9c2.5-5.2,5.1-9.9,7.8-14.2
		c5.3-8.7,10.5-15.9,14.9-21.8c4.4-5.9,8-10.3,10.4-13.4C516.6,223.3,518,221.7,518,221.7z"/>
</g>
<path id="XMLID_7_" class="st7" d="M440.1,269.3c13,26.3,35.3,26,29.9,45c-5.4,19-34.7,28.8-29.9,43c4.8,14.2,15.1,27.2,15.1,27.2
	s-20.1,0-22.3-9.8c-2.2-9.8-3.3-52.3,7.6-55.6C451.5,315.8,440.1,269.3,440.1,269.3z"/>
<path id="XMLID_8_" class="st7" d="M378.2,411.3c-3.4,28.2-17.3,42.1-17.3,42.1L378.2,411.3z"/>
<path id="XMLID_10_" class="st8" d="M307.2,481.3c-3.4,28.2-17.3,42.1-17.3,42.1L307.2,481.3z"/>
<path id="XMLID_15_" class="st9" d="M255.1,525.4c0,9-2.9,17.7-8.6,24.6c-5,6-12.7,8.9-17.2,15.3c-4.5,6.3-4.6,14.5-7.1,21.7
	c-2.9,8.5-8.2,15.8-14.8,21.7c-3.4,3,1.6,7.9,4.9,4.9c6.5-5.8,11.7-12.9,15.1-21c3.3-7.9,3-19.1,9.3-25.3c3.1-3,7.1-5,10.3-7.9
	c3.1-2.7,5.8-6,8-9.5c4.7-7.3,7-15.8,7-24.5C262.1,520.9,255.1,520.9,255.1,525.4z"/>
<path id="XMLID_16_" class="st9" d="M163.7,614.3c-9.5,27.8-35.9,48.5-35.7,79.6c0,4.5,7,4.5,7,0c-0.2-29.8,26.3-50.9,35.4-77.8
	C171.9,611.9,165.2,610,163.7,614.3z"/>
<path id="XMLID_17_" class="st9" d="M120,698c-3.6-5.8-10.7-6.4-16.5-3.7c-4.2,2-7.6,5.4-12,7.1c-4.5,1.8-9.4,2.1-14.2,1.2
	c-4.4-0.9-6.3,5.9-1.9,6.7c6.6,1.3,13.2,0.9,19.4-1.8c4.1-1.7,15.2-12.3,19.1-6.1C116.4,705.4,122.4,701.9,120,698z"/>
<path id="XMLID_18_" class="st9" d="M312.1,475c-5.4,5.3-11.2,11.2-12.9,18.9c-1,4.5,0.2,8.7,0.1,13.2c-0.2,4.8-2.3,9.1-5.6,12.5
	c-3.1,3.3,1.8,8.2,4.9,4.9c5.5-5.8,8-13,7.5-21c-0.3-5.2-0.5-9.2,2.4-13.9c2.3-3.7,5.5-6.8,8.6-9.8
	C320.3,476.8,315.3,471.9,312.1,475z"/>
</svg>
