<svg xmlns="http://www.w3.org/2000/svg" xmlns:xlink="http://www.w3.org/1999/xlink" viewBox="0 0 753.8 672"><defs><style>.cls-1,.cls-4,.cls-5,.cls-8{fill:none;}.cls-2{clip-path:url(#clip-path);}.cls-3{fill:#e0e2df;}.cls-4,.cls-5,.cls-8{stroke:#35383d;stroke-miterlimit:10;}.cls-4{stroke-width:30px;}.cls-5{stroke-width:20px;}.cls-6,.cls-9{opacity:0.5;isolation:isolate;}.cls-6{fill:url(#radial-gradient);}.cls-7{fill:#35383d;}.cls-8{stroke-width:10px;}.cls-9{fill:url(#radial-gradient-2);}</style><clipPath id="clip-path"><rect class="cls-1" x="325" width="428.8" height="635.7"/></clipPath><radialGradient id="radial-gradient" cx="562.22" cy="395.26" r="61.1" gradientTransform="matrix(1.2, 0, 0, -1.07, -96.75, 619.59)" gradientUnits="userSpaceOnUse"><stop offset="0"/><stop offset="0.1" stop-color="#060606"/><stop offset="0.24" stop-color="#161716"/><stop offset="0.39" stop-color="#323231"/><stop offset="0.56" stop-color="#585857"/><stop offset="0.73" stop-color="#888988"/><stop offset="0.92" stop-color="#c3c5c2"/><stop offset="1" stop-color="#e0e2df"/></radialGradient><radialGradient id="radial-gradient-2" cx="562.22" cy="168.97" r="61.1" xlink:href="#radial-gradient"/></defs><title>Asset 1</title><g id="Layer_2" data-name="Layer 2"><g id="Layer_1-2" data-name="Layer 1"><path id="_Path_" data-name="&lt;Path&gt;" d="M589.5,659.1H538.8a10,10,0,0,1-10-10v-3.4a10,10,0,0,1,10-10h50.7a10,10,0,0,1,10,10v3.4A9.9,9.9,0,0,1,589.5,659.1Z"/><rect id="_Path_2" data-name="&lt;Path&gt;" x="552.2" y="659.1" width="23.9" height="12.9"/><g id="_Group_" data-name="&lt;Group&gt;"><g class="cls-2"><rect id="_Path_3" data-name="&lt;Path&gt;" class="cls-3" width="753.8" height="635.7"/></g><g class="cls-2"><rect id="_Path_4" data-name="&lt;Path&gt;" class="cls-4" x="200.9" y="75.2" width="485.5" height="485.5"/></g><g class="cls-2"><line id="_Path_5" data-name="&lt;Path&gt;" class="cls-5" x1="392" y1="75.3" x2="392" y2="560.3"/></g><g class="cls-2"><line id="_Path_6" data-name="&lt;Path&gt;" class="cls-5" x1="368" y1="78.3" x2="368" y2="563.3"/></g><g class="cls-2"><ellipse id="_Path_7" data-name="&lt;Path&gt;" class="cls-6" cx="576.9" cy="196.9" rx="71.3" ry="67"/></g><g class="cls-2"><circle id="_Path_8" data-name="&lt;Path&gt;" class="cls-3" cx="564.2" cy="205.3" r="51.9"/></g><g class="cls-2"><circle id="_Path_9" data-name="&lt;Path&gt;" class="cls-7" cx="566.4" cy="203.1" r="43.1"/></g><g class="cls-2"><line id="_Path_10" data-name="&lt;Path&gt;" class="cls-5" x1="325" y1="321.3" x2="686" y2="321.3"/></g><g class="cls-2"><line id="_Path_11" data-name="&lt;Path&gt;" class="cls-8" x1="566" y1="78.3" x2="566" y2="160.3"/></g><g class="cls-2"><line id="_Path_12" data-name="&lt;Path&gt;" class="cls-8" x1="566" y1="244.3" x2="566" y2="326.3"/></g><g class="cls-2"><line id="_Path_13" data-name="&lt;Path&gt;" class="cls-8" x1="605" y1="203.3" x2="673" y2="203.3"/></g><g class="cls-2"><line id="_Path_14" data-name="&lt;Path&gt;" class="cls-8" x1="325" y1="203.4" x2="523.2" y2="203"/></g><g class="cls-2"><ellipse id="_Path_15" data-name="&lt;Path&gt;" class="cls-9" cx="576.9" cy="438.9" rx="71.3" ry="67"/></g><g class="cls-2"><circle id="_Path_16" data-name="&lt;Path&gt;" class="cls-3" cx="564.2" cy="447.3" r="51.9"/></g><g class="cls-2"><circle id="_Path_17" data-name="&lt;Path&gt;" class="cls-7" cx="566.4" cy="445.1" r="43.1"/></g><g class="cls-2"><line id="_Path_18" data-name="&lt;Path&gt;" class="cls-8" x1="566" y1="320.3" x2="566" y2="402.3"/></g><g class="cls-2"><line id="_Path_19" data-name="&lt;Path&gt;" class="cls-8" x1="566" y1="486.3" x2="566" y2="568.3"/></g><g class="cls-2"><line id="_Path_20" data-name="&lt;Path&gt;" class="cls-8" x1="605" y1="445.3" x2="673" y2="445.3"/></g><g class="cls-2"><line id="_Path_21" data-name="&lt;Path&gt;" class="cls-8" x1="325" y1="445.4" x2="523.2" y2="445"/></g></g></g></g></svg>