<?xml version="1.0" encoding="utf-8"?>
<!-- Generator: Adobe Illustrator 19.0.0, SVG Export Plug-In . SVG Version: 6.00 Build 0)  -->
<svg version="1.1" id="Layer_1" xmlns="http://www.w3.org/2000/svg" xmlns:xlink="http://www.w3.org/1999/xlink" x="0px" y="0px"
	 viewBox="0 0 1224 792" style="enable-background:new 0 0 1224 792;" xml:space="preserve">
<style type="text/css">
	.st0{clip-path:url(#XMLID_2_);fill:#E0E2DF;}
	.st1{clip-path:url(#XMLID_2_);fill:none;stroke:#35383D;stroke-width:30;stroke-miterlimit:10;}
	.st2{clip-path:url(#XMLID_2_);fill:none;stroke:#35383D;stroke-width:20;stroke-miterlimit:10;}
	.st3{opacity:0.5;clip-path:url(#XMLID_2_);fill:url(#XMLID_3_);}
	.st4{clip-path:url(#XMLID_2_);fill:#35383D;}
	.st5{clip-path:url(#XMLID_2_);fill:none;stroke:#35383D;stroke-width:10;stroke-miterlimit:10;}
	.st6{opacity:0.5;clip-path:url(#XMLID_2_);fill:url(#XMLID_4_);}
</style>
<path id="XMLID_31_" d="M264.5,760.8h-50.7c-5.5,0-10-4.5-10-10v-3.4c0-5.5,4.5-10,10-10h50.7c5.5,0,10,4.5,10,10v3.4
	C274.6,756.3,270.1,760.8,264.5,760.8z"/>
<rect id="XMLID_35_" x="227.2" y="760.8" width="23.9" height="12.9"/>
<g id="XMLID_37_">
	<defs>
		<rect id="XMLID_36_" y="101.7" width="428.8" height="635.7"/>
	</defs>
	<clipPath id="XMLID_2_">
		<use xlink:href="#XMLID_36_"  style="overflow:visible;"/>
	</clipPath>
	<rect id="XMLID_17_" x="-325" y="101.7" class="st0" width="753.8" height="635.7"/>
	<rect id="XMLID_14_" x="-124.1" y="176.9" class="st1" width="485.5" height="485.5"/>
	<line id="XMLID_15_" class="st2" x1="67" y1="177" x2="67" y2="662"/>
	<line id="XMLID_16_" class="st2" x1="43" y1="180" x2="43" y2="665"/>
	
		<radialGradient id="XMLID_3_" cx="248.7899" cy="294.2924" r="61.1173" gradientTransform="matrix(1.1982 0 0 1.0694 -46.2131 -16.0797)" gradientUnits="userSpaceOnUse">
		<stop  offset="0" style="stop-color:#000000"/>
		<stop  offset="0.1017" style="stop-color:#060606"/>
		<stop  offset="0.2361" style="stop-color:#161716"/>
		<stop  offset="0.3889" style="stop-color:#323231"/>
		<stop  offset="0.5553" style="stop-color:#585857"/>
		<stop  offset="0.7326" style="stop-color:#888988"/>
		<stop  offset="0.9163" style="stop-color:#C3C5C2"/>
		<stop  offset="1" style="stop-color:#E0E2DF"/>
	</radialGradient>
	<ellipse id="XMLID_29_" class="st3" cx="251.9" cy="298.6" rx="71.3" ry="67"/>
	<circle id="XMLID_30_" class="st0" cx="239.2" cy="307" r="51.9"/>
	<circle id="XMLID_18_" class="st4" cx="241.4" cy="304.8" r="43.1"/>
	<line id="XMLID_20_" class="st2" x1="0" y1="423" x2="361" y2="423"/>
	<line id="XMLID_21_" class="st5" x1="241" y1="180" x2="241" y2="262"/>
	<line id="XMLID_22_" class="st5" x1="241" y1="346" x2="241" y2="428"/>
	<line id="XMLID_23_" class="st5" x1="280" y1="305" x2="348" y2="305"/>
	<line id="XMLID_24_" class="st5" x1="0" y1="305.1" x2="198.2" y2="304.7"/>
	
		<radialGradient id="XMLID_4_" cx="248.7899" cy="520.584" r="61.1173" gradientTransform="matrix(1.1982 0 0 1.0694 -46.2131 -16.0797)" gradientUnits="userSpaceOnUse">
		<stop  offset="0" style="stop-color:#000000"/>
		<stop  offset="0.1017" style="stop-color:#060606"/>
		<stop  offset="0.2361" style="stop-color:#161716"/>
		<stop  offset="0.3889" style="stop-color:#323231"/>
		<stop  offset="0.5553" style="stop-color:#585857"/>
		<stop  offset="0.7326" style="stop-color:#888988"/>
		<stop  offset="0.9163" style="stop-color:#C3C5C2"/>
		<stop  offset="1" style="stop-color:#E0E2DF"/>
	</radialGradient>
	<ellipse id="XMLID_34_" class="st6" cx="251.9" cy="540.6" rx="71.3" ry="67"/>
	<circle id="XMLID_33_" class="st0" cx="239.2" cy="549" r="51.9"/>
	<circle id="XMLID_32_" class="st4" cx="241.4" cy="546.8" r="43.1"/>
	<line id="XMLID_28_" class="st5" x1="241" y1="422" x2="241" y2="504"/>
	<line id="XMLID_27_" class="st5" x1="241" y1="588" x2="241" y2="670"/>
	<line id="XMLID_26_" class="st5" x1="280" y1="547" x2="348" y2="547"/>
	<line id="XMLID_25_" class="st5" x1="0" y1="547.1" x2="198.2" y2="546.7"/>
</g>
</svg>
