<svg xmlns="http://www.w3.org/2000/svg" xmlns:xlink="http://www.w3.org/1999/xlink" viewBox="0 0 71.49 74.43"><defs><style>.cls-1{fill:#e70000;}.cls-2{fill:#ab0f0f;}.cls-3{fill:url(#linear-gradient);}.cls-4{fill:url(#linear-gradient-2);}.cls-5{fill:url(#linear-gradient-3);}.cls-6{fill:url(#linear-gradient-4);}.cls-7{fill:url(#linear-gradient-5);}.cls-8{fill:url(#linear-gradient-6);}.cls-9{fill:url(#linear-gradient-7);}.cls-10{fill:url(#linear-gradient-8);}.cls-11{fill:url(#linear-gradient-9);}.cls-12{fill:url(#linear-gradient-10);}.cls-13{fill:url(#linear-gradient-11);}.cls-14{fill:url(#linear-gradient-12);}.cls-15{fill:url(#linear-gradient-13);}.cls-16{fill:url(#linear-gradient-14);}.cls-17{fill:url(#linear-gradient-15);}.cls-18{fill:url(#linear-gradient-16);}.cls-19{fill:url(#linear-gradient-17);}.cls-20{fill:url(#linear-gradient-18);}.cls-21{fill:url(#linear-gradient-19);}.cls-22{fill:url(#linear-gradient-20);}.cls-23{fill:#fff;opacity:0.5;}</style><linearGradient id="linear-gradient" x1="36.13" y1="23.27" x2="38.43" y2="14.33" gradientUnits="userSpaceOnUse"><stop offset="0" stop-color="#b50f0f"/><stop offset="1" stop-color="#910f0f"/></linearGradient><linearGradient id="linear-gradient-2" x1="36.56" y1="18.29" x2="38.19" y2="-2.7" gradientUnits="userSpaceOnUse"><stop offset="0.01" stop-color="#0a3800"/><stop offset="0.14" stop-color="#15460a"/><stop offset="0.5" stop-color="#2c6620"/><stop offset="0.79" stop-color="#3b792e"/><stop offset="1" stop-color="#408033"/></linearGradient><linearGradient id="linear-gradient-3" x1="19.53" y1="-15.95" x2="30.83" y2="-15.95" gradientTransform="matrix(-0.99, 0.13, 0.13, 0.99, 68.22, 21.79)" gradientUnits="userSpaceOnUse"><stop offset="0.01" stop-color="#0a3800"/><stop offset="1" stop-color="#408033"/></linearGradient><linearGradient id="linear-gradient-4" x1="9.53" y1="9.57" x2="16.81" y2="9.57" gradientTransform="matrix(-1, 0, 0, 1, 53.12, 0)" gradientUnits="userSpaceOnUse"><stop offset="0.01" stop-color="#006b33"/><stop offset="0.16" stop-color="#087433"/><stop offset="0.42" stop-color="#1f8d33"/><stop offset="0.74" stop-color="#44b633"/><stop offset="1" stop-color="#66db33"/></linearGradient><linearGradient id="linear-gradient-5" x1="15.49" y1="13.93" x2="10.36" y2="3.69" gradientTransform="matrix(-1, 0, 0, 1, 53.12, 0)" gradientUnits="userSpaceOnUse"><stop offset="0.01" stop-color="#006b33"/><stop offset="0.14" stop-color="#056e33"/><stop offset="0.29" stop-color="#137833"/><stop offset="0.45" stop-color="#2a8733"/><stop offset="0.57" stop-color="#409633"/><stop offset="0.99" stop-color="#c3de96"/></linearGradient><linearGradient id="linear-gradient-6" x1="17.49" y1="16.71" x2="10.92" y2="0.96" gradientTransform="matrix(-1, 0, 0, 1, 53.12, 0)" gradientUnits="userSpaceOnUse"><stop offset="0.01" stop-color="#006b33"/><stop offset="0.13" stop-color="#117633"/><stop offset="0.41" stop-color="#338d33"/><stop offset="0.57" stop-color="#409633"/><stop offset="0.99" stop-color="#c3de96"/></linearGradient><linearGradient id="linear-gradient-7" x1="18.27" y1="-22.72" x2="23.65" y2="-22.72" gradientTransform="matrix(-0.99, 0.13, 0.13, 0.99, 68.22, 21.79)" gradientUnits="userSpaceOnUse"><stop offset="0.01" stop-color="#0a3800"/><stop offset="1" stop-color="#409633"/></linearGradient><linearGradient id="linear-gradient-8" x1="6.64" y1="2.01" x2="11.12" y2="2.01" xlink:href="#linear-gradient-6"/><linearGradient id="linear-gradient-9" x1="11.12" y1="1.64" x2="5.96" y2="2.08" xlink:href="#linear-gradient-6"/><linearGradient id="linear-gradient-10" x1="39.03" y1="1.24" x2="37.08" y2="18.8" xlink:href="#linear-gradient-2"/><linearGradient id="linear-gradient-11" x1="33.44" y1="11.67" x2="34.37" y2="-0.27" gradientTransform="matrix(1, 0, 0, 1, 0, 0)" xlink:href="#linear-gradient-4"/><linearGradient id="linear-gradient-12" x1="36.46" y1="8.65" x2="32.19" y2="1.26" gradientUnits="userSpaceOnUse"><stop offset="0" stop-color="#409633"/><stop offset="0.54" stop-color="#c3de96"/></linearGradient><linearGradient id="linear-gradient-13" x1="50.26" y1="9.01" x2="48.89" y2="6.64" gradientTransform="matrix(1, 0, 0, 1, 0, 0)" xlink:href="#linear-gradient-4"/><linearGradient id="linear-gradient-14" x1="48.89" y1="8.59" x2="48.11" y2="7.23" xlink:href="#linear-gradient-12"/><linearGradient id="linear-gradient-15" x1="23.9" y1="13.13" x2="24.01" y2="8.04" gradientTransform="matrix(1, 0, 0, 1, 0, 0)" xlink:href="#linear-gradient-4"/><linearGradient id="linear-gradient-16" x1="24.88" y1="14.54" x2="25.03" y2="7.89" xlink:href="#linear-gradient-12"/><linearGradient id="linear-gradient-17" x1="51.74" y1="10.04" x2="40.86" y2="16.26" gradientUnits="userSpaceOnUse"><stop offset="0.01" stop-color="#0a3800"/><stop offset="0.13" stop-color="#124207"/><stop offset="0.71" stop-color="#336f27"/><stop offset="1" stop-color="#408033"/></linearGradient><linearGradient id="linear-gradient-18" x1="35.4" y1="18.41" x2="36.21" y2="12.54" xlink:href="#linear-gradient-17"/><linearGradient id="linear-gradient-19" x1="33.74" y1="14.13" x2="21.85" y2="1.25" gradientUnits="userSpaceOnUse"><stop offset="0" stop-color="#409633"/><stop offset="1" stop-color="#c3de96"/></linearGradient><linearGradient id="linear-gradient-20" x1="40.01" y1="16.27" x2="52.53" y2="8.53" gradientUnits="userSpaceOnUse"><stop offset="0" stop-color="#409633"/><stop offset="0.43" stop-color="#429734"/><stop offset="0.58" stop-color="#499b3a"/><stop offset="0.69" stop-color="#54a142"/><stop offset="0.78" stop-color="#65ab4f"/><stop offset="0.85" stop-color="#7bb760"/><stop offset="0.92" stop-color="#97c674"/><stop offset="0.98" stop-color="#b6d78c"/><stop offset="1" stop-color="#c3de96"/></linearGradient></defs><title>Asset 4</title><g id="Layer_2" data-name="Layer 2"><g id="Layer_2-2" data-name="Layer 2"><path class="cls-1" d="M63.74,18c-5-4.5-12.35-7.28-24.35-6.5C33.62,9.35,22.17,7.35,14,12.67S-5.78,31.78,3.3,54.71,41.07,76.15,51.83,71.92,69.2,55.62,71,45.61,68.75,22.47,63.74,18Z"/><path class="cls-2" d="M51.71,71.92C62.45,67.68,69,55.62,70.88,45.61A30.94,30.94,0,0,0,71,35.17c-.69,12-5.55,35.25-32.7,35.44C11.8,70.79,3.53,55.69,1,47.3A50.44,50.44,0,0,0,3.3,54.71C12.36,77.63,41,76.15,51.71,71.92Z"/><path class="cls-2" d="M13.38,55.1s6.75,17.25,24.26,17,20.5-16,20.5-16-4.75,12.5-20.5,12.25S13.38,55.1,13.38,55.1Z"/><path class="cls-3" d="M26.3,10.53s5.73,4-.69,6.89c0,0,11.81-1.6,6.51,3,0,0,7.29-4,12.68,1.43,0,0-2.26-5.21,6.08-5,0,0-8-.33-3-3.19a20.3,20.3,0,0,1-8.29,1.89C35.46,15.49,26.3,10.53,26.3,10.53Z"/><path class="cls-4" d="M34.1,13.57C34.53,14,32.76,1.87,29.83,0c0,0,7.93,4.23,8.17,11.83,0,0,1.34,3.61,4.63-.5A16,16,0,0,1,55.93,5.6a56.16,56.16,0,0,0-6.86,3.1c-2.76,1.58-5.71,7-5.71,7s-5.85,5.23-12.2-.12c-3.17-2.68-4.65-2.29-7.74-2.05s-4.72-1.87-4.52-4.63a36.91,36.91,0,0,0,3.48,2.2C24.58,12.32,27,6.47,34.1,13.57Z"/><path class="cls-5" d="M38.64,17.26S40.36,6,46,3.31c.15-.05-5.26.84-4.06-2.08,0,0-7.22,6.9-5.36,16.67Z"/><path class="cls-6" d="M43.59,3.34C42.09,5,37.69,7.47,37.27,17.69l-.66.21C34.76,8.13,42,1.23,42,1.23,41.38,2.68,42.41,3.19,43.59,3.34Z"/><path class="cls-7" d="M37.24,17.45h0c.41-10.23,4.82-12.71,6.31-14.35L43.13,3C41.65,4.72,37.45,7.31,37.24,17.45Z"/><path class="cls-8" d="M36.69,17.74l.18-.06C35.61,9.63,40.18,4.89,42,2.26A1.56,1.56,0,0,1,42,1.07S34.83,8,36.69,17.74Z"/><path class="cls-9" d="M44,.62c-3.77-.28-2.62,3.6.91,2.94C48.28,3.09,47.73.74,44,.62Z"/><path class="cls-10" d="M42.9.69c-1.28.8,0,2.86,2.55,2.39a5,5,0,0,0,1-.24,4.15,4.15,0,0,1-1.42.42C42.23,3.77,41,1.3,42.9.69Z"/><path class="cls-11" d="M44.9.9s2.24.25,2,1.29-2.42.62-2.42.62A1.25,1.25,0,0,0,44.9.9Z"/><path class="cls-12" d="M41,14.69C40,15.6,37.22,18.4,35,15s-3.74-3.57-6.11-5.63-5-7.73-5-7.73c-.69,7.68,10.84,16.44,10.84,16.44s2.61.27,5.53.84c2.73-.76,3.16-3.62,5.76-5a39.39,39.39,0,0,1,7.13-2.57C46.37,8.66,42,13.79,41,14.69Z"/><path class="cls-13" d="M31.5,1.42a19.33,19.33,0,0,1,5,5.83s-2.8.7-2,4.31C34.54,11.56,33.6,4.68,31.5,1.42Z"/><path class="cls-14" d="M32.09,2.15s3.27,2.72,4,5.05c0,0-.39-.08-.7.47A12.12,12.12,0,0,0,32.09,2.15Z"/><path class="cls-15" d="M44.45,9.93s2.1-.78,2.56,0a17.58,17.58,0,0,1,7.78-4S49.58,5.26,44.45,9.93Z"/><path class="cls-16" d="M52.92,6a16.34,16.34,0,0,0-8.71,4.12S49.34,6.74,52.92,6Z"/><path class="cls-17" d="M19,9.11s1.87,1.2,2.68,1.79a2.37,2.37,0,0,0,2.29.31c.78-.23-1,.89.93,1s3.54.39,3.89.89-1.75-.19-3.65-.08-3.23.43-4.51-.39A4.41,4.41,0,0,1,19,9.11Z"/><path class="cls-18" d="M19.18,9.31a4,4,0,0,0,1.52,3.22c1.59,1,2.88.39,4.24.27a8.54,8.54,0,0,1,5.75,2,6,6,0,0,0-2.72-2,10,10,0,0,0-4.78,0C21.86,13.15,20.43,12.8,19.18,9.31Z"/><path class="cls-19" d="M42.78,13.5a3.54,3.54,0,0,1,3.27.16s4.78-2.29,6.57-2.29C52.61,11.37,48.28,9.31,42.78,13.5Z"/><path class="cls-20" d="M43.77,15.84s-1.4,1.9-4.16.19L39.49,16c-1.29.84-3,1.31-4.52-.91a14.91,14.91,0,0,0-1.88-2.32c-.28.07-3,.71-4.82-.78l.21.25c.5.55,1.68,1.83,3.06,3.21,1.77,1.68,3.14,2.72,3.14,2.72s2.61.27,5.53.84c1.74-.48,2.54-1.82,3.57-3.09Z"/><path class="cls-21" d="M24,2.27s2.2,5.67,5.75,8.06,4,2.7,4.28,3.33a28.34,28.34,0,0,0-3.92-2.78A15.7,15.7,0,0,1,24,2.27Z"/><path class="cls-22" d="M39.36,16a6.25,6.25,0,0,0,2.25-1.4,22.45,22.45,0,0,1,4.31-3.07c1.75-.93,5.29-.62,5.29-.62l-.38-.21c-5.42-.92-8.91,3.16-9.8,4A11.71,11.71,0,0,1,39.36,16Z"/><path class="cls-23" d="M16.85,15.54C5.89,17,2,33.85,2.43,43c3.79.39,4.22-4.24,5.29-6.92,1.43-3.61,2.66-5.9,5.75-8.5,1.92-1.62,5.8-3.13,7-5.36,1.79-3.27-.21-7.23-4.14-6.64"/></g></g></svg>