<svg xmlns="http://www.w3.org/2000/svg" viewBox="0 0 341.11 813.37"><defs><style>.cls-1{fill:#e0e0e0;}.cls-2{fill:#191919;}.cls-3,.cls-4{fill:none;stroke:#fff;stroke-miterlimit:10;}.cls-3{stroke-width:13px;}</style></defs><title>Asset 1</title><g id="Layer_2" data-name="Layer 2"><g id="Layer_1-2" data-name="Layer 1"><g id="_Group_" data-name="&lt;Group&gt;"><g id="_Group_2" data-name="&lt;Group&gt;"><path id="_Compound_Path_" data-name="&lt;Compound Path&gt;" d="M321.6,812.5c-3.2,1.3-6.1,1.3-8.8-1.1-6.7-6.2-13.5-12.2-20.1-18.6-1.6-1.6-2.3-4.2-3.2-6.4-3.8-9.5-6.6-19.6-11.4-28.6-5.1-9.7-12.1-18.3-17.9-27.6-17.9-28.7-38-55.9-53.8-85.9-2.1-4-5-7.5-7.3-11.4-2.9-4.8-7.1-7.6-12.5-7.9-18.9-1.3-37.8-2.5-56.7-3.3-4.2-.2-6.6-1.2-8.6-5-17.7-35.3-36.1-70.2-53.2-105.8-22.8-47.3-43.2-95.7-57.6-146.4C5.3,346.2.3,327.9,0,308.7c-.1-3.6,1.4-7.2,2.2-10.8,3.4,1.3,7.3,2,10.3,4,15.6,10.3,27.8,24.2,39.7,38.3C84.6,378.7,112,420.8,140,462.6c30,44.8,54.8,92.9,86.3,136.9,41.1,57.5,77,118.4,112,179.7,2.9,5,3.9,9.4,1.3,13.1C335.3,801.8,330.5,809,321.6,812.5ZM217.8,598.8c-5.3-7.8-11.5-16-16.7-24.8C160.8,505.7,119,438.3,71.8,374.5c-15.3-20.6-31.1-40.8-50.2-58.1-4.6-4.2-9.7-7.8-14.6-11.6-.4.3-.9.5-1.3.8.4,4.9.4,9.9,1.1,14.8C11,348.5,19.5,375.6,29,402.3c23,64.3,52.9,125.6,84.4,186.1,4.1,7.8,8.3,15.6,12.3,23.5,1.4,2.7,2.9,3.7,6.1,3.7,19.3-.1,38.6-.1,57.6,4,2.6.6,5.1,1.4,6.7,1.9C203.6,613.6,210.6,606.3,217.8,598.8Zm-14.2,24.6c-.8,1.3-.6,3.9.2,5.3,24,38.4,47.8,76.9,72.4,114.9,8.6,13.3,16.7,26.4,19.5,42.2a5.5,5.5,0,0,0,1.6,3c5.9,5.6,11.7,11.3,17.9,16.5,1.3,1.1,4.5,1.3,6.1.5,7.5-3.8,11.1-10.8,13.4-18.4.3-1-.3-2.6-1-3.7-34.4-60.6-70.1-120.3-109.9-177.4-.4-.5-.9-1-1.4-1.7C214.3,609.1,208.3,615.7,203.6,623.4Z"/><path id="_Path_" data-name="&lt;Path&gt;" class="cls-1" d="M196.2,621.4l21.7-22.6c-5.3-7.8-11.5-16-16.7-24.8-40.3-68.3-82.1-135.7-129.3-199.5-15.3-20.6-31.1-40.8-50.2-58.1-4.6-4.2-9.7-7.8-14.6-11.6-.4.3.8.5.3.7.4,4.9,3.5,9.5,4.2,14.4,4.2,28.1,15.1,52.9,24.7,79.6,23,64.3,52.9,125.6,84.4,186.1,4.1,7.8,8.3,15.6,12.3,23.5,1.4,2.7,2.9,3.7,6.1,3.7,19.3-.1,31.4,2.6,50.4,6.8A52.46,52.46,0,0,1,196.2,621.4Z"/><path id="_Compound_Path_2" data-name="&lt;Compound Path&gt;" class="cls-2" d="M223.9,606.4c39.8,57.2,75.6,116.9,109.9,177.4.6,1.1,1.3,2.6,1,3.7-2.4,7.6-5.9,14.6-13.4,18.4-1.6.8-4.8.6-6.1-.5-6.2-5.2-12-10.9-17.9-16.5a6.29,6.29,0,0,1-1.6-3c-2.7-15.8-10.9-29-19.5-42.2-24.6-38-48.4-76.5-72.4-114.9a6.16,6.16,0,0,1-.2-5.3c4.7-7.8,10.7-14.3,18.9-18.7C223,605.4,223.5,605.8,223.9,606.4Zm13.9,64.3c4.5,2.1,10.5-.2,12.7-4.8a9.93,9.93,0,0,0-4.8-13.1c-4.5-1.9-10.5.5-12.6,5.2A10.22,10.22,0,0,0,237.8,670.7ZM312,787.8a8.67,8.67,0,0,0,10.9-4.3,8.26,8.26,0,0,0-4.5-11.1,8.34,8.34,0,0,0-6.4,15.4Z"/><path id="_Path_2" data-name="&lt;Path&gt;" d="M233.1,657.9c-2,4.6.2,10.7,4.7,12.7s10.5-.2,12.7-4.8a9.93,9.93,0,0,0-4.8-13.1C241.2,650.8,235.2,653.3,233.1,657.9Z"/><path id="_Path_3" data-name="&lt;Path&gt;" d="M307.7,776.9a8.84,8.84,0,0,0,4.4,10.9,8.67,8.67,0,0,0,10.9-4.3,8.26,8.26,0,0,0-4.5-11.1A8.5,8.5,0,0,0,307.7,776.9Z"/></g><line id="_Path_4" data-name="&lt;Path&gt;" class="cls-3" x1="84.9" y1="486.7" x2="147.1" y2="514.6"/><line id="_Path_5" data-name="&lt;Path&gt;" class="cls-3" x1="96.3" y1="535.7" x2="170.5" y2="559.2"/></g><line id="_Path_6" data-name="&lt;Path&gt;" class="cls-4" x1="241.5" x2="239.5" y2="385.7"/></g></g></svg>