<svg xmlns="http://www.w3.org/2000/svg" viewBox="0 0 38.2 622.18"><defs><style>.cls-1{fill:#ededed;stroke-width:2px;}.cls-1,.cls-2{stroke:#000;stroke-miterlimit:10;}.cls-2{fill:#e0e0e0;}</style></defs><title>Asset 1</title><g id="Layer_2" data-name="Layer 2"><g id="Layer_1-2" data-name="Layer 1"><path id="_Path_" data-name="&lt;Path&gt;" class="cls-1" d="M20.6,387.58H17.3c-4.9,0-6.1-5.2-6-11.4L17.7,2.28c0-1.7,2-1.7,2,0l6.4,374.6C26.2,382.68,25.3,387.58,20.6,387.58Z"/><path id="_Path_2" data-name="&lt;Path&gt;" d="M19.3,622.18H14.4c-4,0-7.2-3.6-7.2-8L0,404.68c0-6.6,3.1-22,9-22H29.9a5,5,0,0,1,4.5,3c2.6,5.4,3.8,16.6,3.8,20l-8.1,204.5C30,616.78,25.2,622.18,19.3,622.18Z"/><path id="_Path_3" data-name="&lt;Path&gt;" class="cls-2" d="M19.4,2.18s-25.1,330-15.1,350.1,5.6,30.3,5.6,30.3Z"/></g></g></svg>