<svg xmlns="http://www.w3.org/2000/svg" viewBox="0 0 321.98 428.59"><defs><style>.cls-1,.cls-5,.cls-6{fill:#fff;}.cls-2{fill:#e0e0e0;}.cls-3,.cls-4{fill:none;stroke:#000;stroke-miterlimit:10;}.cls-3{stroke-width:4px;}.cls-4,.cls-5{stroke-linecap:round;}.cls-4{stroke-width:12px;}.cls-5{stroke:#fff;stroke-linejoin:round;}.cls-5,.cls-6{opacity:0.6;isolation:isolate;}</style></defs><title>Asset 1</title><g id="Layer_2" data-name="Layer 2"><g id="Layer_1-2" data-name="Layer 1"><g id="_Group_" data-name="&lt;Group&gt;"><path id="_Compound_Path_" data-name="&lt;Compound Path&gt;" d="M158.4,111.27c-10.3-4.1-12.6-8.6-10.3-19.3,1.3-6,2.5-12,3.7-18.1-2-.7-3.5-1.2-5-1.9-6.3-2.8-10-7.5-10.3-14.6C135.4,28.58,159,2,187.9.67q30.75-1.35,61.5,0c28.6,1.2,52.1,27.5,51.3,56.2a16.68,16.68,0,0,1-10.8,15.4c-1.4.5-2.8.9-4.6,1.5,1.2,5.8,2.3,11.5,3.5,17.2,2.5,11.8.9,15-9.9,20,4.7,18.5,9.6,36.9,14.1,55.5,11.4,47.1,21.2,94.5,26.2,142.8,2.8,27,4.8,54.2-.7,81.1a98.13,98.13,0,0,1-9.4,25c-4.7,8.8-13.2,13.1-23.3,13.1-44.7.1-89.3.2-134,0-13.2-.1-21.5-7.8-26.9-19.1-7.4-15.7-8.8-32.7-9.2-49.7-.8-36.1,4.2-71.8,10.3-107.2C134.3,205,145.5,158.08,158.4,111.27Zm112.4-.5h-5.9c-30.7,0-61.3.1-92-.1-5.1,0-7.1,1.4-8.3,6.3-14.3,54.9-27.2,110.2-35.3,166.4-3.9,26.7-7,53.6-5.5,80.6.7,11.9,3.5,23.6,5.4,35.4.4,2.8,2.1,3.6,4.9,3.6q84.45-.15,169,0c3.2,0,4.7-1.2,5.2-4,1.8-9.6,4.4-19.2,5.1-28.9,2-26.7-.6-53.3-4.2-79.7-6.6-48.2-17-95.7-28.8-142.8C277.4,135.27,274.1,123.17,270.8,110.77Zm-52.4-45h64c7.3,0,10.7-3.6,10.6-10.8-.5-23.6-18.8-44.7-42.3-46.1a536.42,536.42,0,0,0-63.4-.1c-23.6,1.4-41.7,21.6-42.8,45.1-.4,8.4,2.9,11.8,11.5,11.8Q187,65.82,218.4,65.77Zm59.1,8.1H159.9c-1.7,8.1-3.4,16-4.9,24-.7,4,1.6,5.8,5.5,5.8H275.9c5,0,6.9-2.4,6-7.4C280.5,88.88,279,81.47,277.5,73.88Z"/><path id="_Compound_Path_2" data-name="&lt;Compound Path&gt;" class="cls-1" d="M270.8,110.77c3.2,12.4,6.6,24.5,9.6,36.8,11.8,47.2,22.2,94.6,28.8,142.8,3.6,26.4,6.2,53,4.2,79.7-.7,9.7-3.3,19.3-5.1,28.9-.5,2.8-2,4-5.2,4q-84.45-.15-169,0c-2.8,0-4.5-.8-4.9-3.6-1.9-11.8-4.7-23.5-5.4-35.4-1.5-27,1.6-53.9,5.5-80.6,8.1-56.3,21-111.5,35.3-166.4,1.3-4.9,3.2-6.4,8.3-6.3,30.7.3,61.3.1,92,.1Zm-52.4,281.3c16.7,0,33.3-.1,50,0,10,.1,17.6-4.1,21.8-13a80.43,80.43,0,0,0,6.4-19.8c4.1-23.2,1.7-46.5-1.3-69.7-6.2-47.4-17.3-93.8-30.4-139.8-1-3.4-2.3-4.4-5.8-4.3q-40.5.3-81,0c-3.5,0-4.9.9-5.7,4.4-8.4,35.9-17.7,71.7-25.4,107.8-6,28.3-9.8,57.2-8.2,86.3a131.67,131.67,0,0,0,6,31.6c3.5,11.3,12.2,16.8,24.5,16.6C185.7,391.88,202,392.08,218.4,392.08Z"/><path id="_Compound_Path_3" data-name="&lt;Compound Path&gt;" class="cls-2" d="M218.4,65.77H155.9c-8.6,0-11.9-3.4-11.5-11.8,1.1-23.5,19.2-43.7,42.8-45.1a515.82,515.82,0,0,1,63.4.1c23.5,1.4,41.8,22.5,42.3,46.1.2,7.2-3.3,10.8-10.6,10.8Q250.35,65.72,218.4,65.77Zm22.3-45.6a6.27,6.27,0,0,0-6.6-6.5c-3.9.1-6.1,2.4-6.4,6.2a6.51,6.51,0,1,0,13,.3ZM208.9,20a6.2,6.2,0,0,0-6.8-6.2c-3.9.3-6,2.7-6.2,6.4-.2,3.5,3.1,6.6,6.7,6.6A6.52,6.52,0,0,0,208.9,20Zm11.6,23.6a6.39,6.39,0,0,0,6.3-6.8c-.2-3.9-2.4-6.1-6.3-6.2a6.39,6.39,0,0,0-6.7,6.4A6.81,6.81,0,0,0,220.5,43.57Z"/><path id="_Path_" data-name="&lt;Path&gt;" class="cls-2" d="M277.5,73.88c1.5,7.7,3.1,15,4.4,22.3.9,5-1,7.4-6,7.4-38.5.1-76.9,0-115.4,0-3.9,0-6.2-1.8-5.5-5.8,1.4-8,3.2-15.9,4.9-24C199.1,73.88,238,73.88,277.5,73.88Z"/><path id="_Compound_Path_4" data-name="&lt;Compound Path&gt;" d="M218.4,392.08c-16.3,0-32.7-.2-49,.1-12.3.2-21-5.3-24.5-16.6a131.67,131.67,0,0,1-6-31.6c-1.6-29.1,2.2-57.9,8.2-86.3,7.6-36.1,16.9-71.8,25.4-107.8.8-3.4,2.3-4.4,5.7-4.4q40.5.3,81,0c3.5,0,4.8,1,5.8,4.3,13.1,46,24.2,92.4,30.4,139.8,3,23.1,5.4,46.4,1.3,69.7a76.43,76.43,0,0,1-6.4,19.8c-4.2,8.9-11.8,13.1-21.8,13C251.7,392,235,392.08,218.4,392.08Zm.2-6c16.3,0,32.7-.1,49,.1,7.7.1,13.6-2.9,16.6-9.7a77.2,77.2,0,0,0,6.2-19.8c3.4-23,1-45.9-2.2-68.7-6.2-44.1-16.6-87.3-28.3-130.2-1.2-4.3-2.7-5.8-7.3-5.8-22.8.2-45.7.3-68.5,0-4.6-.1-6.4,1.5-7.4,5.7-8.2,36.3-17.6,72.5-24.5,109-4.3,23-5.6,46.6-7.3,70-.9,12.4.6,25,5.7,36.7,3.7,8.5,9.7,12.9,19.4,12.7C186.3,385.88,202.5,386.08,218.6,386.08Z"/><path id="_Path_2" data-name="&lt;Path&gt;" d="M240.7,20.17a6.51,6.51,0,1,1-13-.4c.3-3.8,2.5-6,6.4-6.2A6.47,6.47,0,0,1,240.7,20.17Z"/><path id="_Path_3" data-name="&lt;Path&gt;" class="cls-1" d="M218.6,386.08c-16.2,0-32.3-.3-48.5.1-9.7.2-15.7-4.3-19.4-12.7-5.1-11.7-6.6-24.3-5.7-36.7,1.6-23.4,2.9-47,7.3-70,6.9-36.6,16.3-72.7,24.5-109,1-4.3,2.8-5.8,7.4-5.7,22.8.3,45.7.3,68.5,0,4.6,0,6.1,1.5,7.3,5.8,11.8,42.9,22.1,86.1,28.3,130.2,3.2,22.8,5.6,45.7,2.2,68.7a77.2,77.2,0,0,1-6.2,19.8c-3,6.8-8.9,9.8-16.6,9.7C251.3,386,235,386.08,218.6,386.08Z"/></g><line id="_Path_4" data-name="&lt;Path&gt;" class="cls-3" x1="175.6" y1="72.47" x2="170.1" y2="105.97"/><line id="_Path_5" data-name="&lt;Path&gt;" class="cls-3" x1="190.2" y1="73.88" x2="188.3" y2="103.67"/><line id="_Path_6" data-name="&lt;Path&gt;" class="cls-3" x1="205.8" y1="73.17" x2="205" y2="104.17"/><line id="_Path_7" data-name="&lt;Path&gt;" class="cls-3" x1="220.8" y1="73.17" x2="220.8" y2="105.17"/><line id="_Path_8" data-name="&lt;Path&gt;" class="cls-3" x1="234.2" y1="72.47" x2="237.2" y2="105.97"/><line id="_Path_9" data-name="&lt;Path&gt;" class="cls-3" x1="248.8" y1="72.47" x2="253.9" y2="105.97"/><line id="_Path_10" data-name="&lt;Path&gt;" class="cls-3" x1="264" y1="72.47" x2="270.5" y2="105.97"/><line id="_Path_11" data-name="&lt;Path&gt;" class="cls-4" x1="136.9" y1="311.08" x2="274.7" y2="167.17"/><line id="_Path_12" data-name="&lt;Path&gt;" class="cls-4" x1="140.5" y1="388.17" x2="287.5" y2="234.77"/><path id="_Path_13" data-name="&lt;Path&gt;" class="cls-5" d="M67.9,37.88c-6,12.4-35.9,13.7-35.9,13.7C1,47.28.5,37.78.5,37.78Z"/><path id="_Path_14" data-name="&lt;Path&gt;" d="M202.5,26.78a6.81,6.81,0,0,1-6.7-6.6,6.39,6.39,0,0,1,6.7-6.4c3.9.2,6.1,2.3,6.3,6.2A6.33,6.33,0,0,1,202.5,26.78Z"/><path id="_Path_15" data-name="&lt;Path&gt;" class="cls-6" d="M197.5,56.88c6.7.2,37.4.2,47.4.1,5.5,0,11.9-11.7,7-14.1-9.6-4.7-45.8-2.8-53.4-1.8-12.8,1.8-15.1,2.7-14.2,4.5.6,1.4.6,7.2,4.4,9.6C190.3,56.27,195.6,56.77,197.5,56.88Z"/><path id="_Path_16" data-name="&lt;Path&gt;" d="M220.5,43.57a6.81,6.81,0,0,1-6.7-6.6,6.39,6.39,0,0,1,6.7-6.4c3.9.2,6.1,2.3,6.3,6.2A6.28,6.28,0,0,1,220.5,43.57Z"/><path id="_Path_17" data-name="&lt;Path&gt;" d="M188.6,43.38a6.81,6.81,0,0,1-6.7-6.6,6.39,6.39,0,0,1,6.7-6.4c3.9.2,6.1,2.3,6.3,6.2A6.4,6.4,0,0,1,188.6,43.38Z"/><path id="_Path_18" data-name="&lt;Path&gt;" d="M251.5,43.38a6.81,6.81,0,0,1-6.7-6.6,6.39,6.39,0,0,1,6.7-6.4c3.9.2,6.1,2.3,6.3,6.2A6.28,6.28,0,0,1,251.5,43.38Z"/></g></g></svg>