<svg xmlns="http://www.w3.org/2000/svg" viewBox="0 0 630.01 629.84"><defs><style>.cls-1{fill:#966b3d;}.cls-10,.cls-2,.cls-5,.cls-7,.cls-9{fill:#42210b;}.cls-2,.cls-3{opacity:0.4;}.cls-10,.cls-2,.cls-4,.cls-5,.cls-8,.cls-9{isolation:isolate;}.cls-4,.cls-8{fill:#603813;}.cls-4,.cls-5{opacity:0.11;}.cls-10,.cls-6{opacity:0.3;}.cls-8,.cls-9{opacity:0.5;}.cls-9{stroke:#603813;stroke-miterlimit:10;}</style></defs><title>Asset 1</title><g id="Layer_2" data-name="Layer 2"><g id="Layer_1-2" data-name="Layer 1"><g id="_Group_" data-name="&lt;Group&gt;"><path id="_Compound_Path_" data-name="&lt;Compound Path&gt;" d="M627.76,42.4C621.06,15.7,599-.1,564.76,0c-9.6.1-22.6,2.8-35.1,7.5-41.2,15.3-73.9,41.9-100.9,76-18.4,23.2-32.5,48.7-38.1,78.2-2.1,10.9-2.6,22.1-7.1,32.5-8.6,19.8-21.6,36.2-36.7,51.3C269.46,322.8,88.26,504,11.06,581.4a40.46,40.46,0,0,0-9.3,13.9c-6.8,18.5,7,36.3,26.1,34.4,8.3-.8,14.9-5,20.8-10.8,77.4-77.5,258.7-258.8,336.1-336.2,13.1-13.2,27.2-25.3,44.2-33.1,8.4-3.9,17.5-6.3,26.4-8.6,11.4-3,23.4-3.9,34.4-7.9,37.8-13.5,68.2-37.8,94.1-68,19.8-23.2,35.2-48.8,42.8-78.7C630.26,71.9,631.46,57.2,627.76,42.4Zm-16.3,25.7c-1.6,11.1-4.1,22.5-8.6,32.6-24.1,54.1-63.5,93.2-118.6,115.3-10.4,4.2-22.2,5.2-33.5,7.3-23.7,4.4-43.5,16.1-61.7,31.2-6,5-11.7,10.4-17.3,15.9-76.9,77-257.7,257.9-334.7,334.8-2.3,2.3-5,4.9-7.9,5.8s-7.1.4-9-1.3c-1.7-1.6-2-5.9-1.3-8.6s3.2-5.4,5.4-7.6c77-77.1,258-258.1,335.1-335.1,11.7-11.7,22.5-24.2,31-38.4a123.62,123.62,0,0,0,17.3-49.5,117.06,117.06,0,0,1,10.4-35.2c24.8-51.6,63.4-89.1,116.8-110.6A88.49,88.49,0,0,1,569,18.1C598.66,17.9,615.86,37.7,611.46,68.1Z"/><path id="_Compound_Path_2" data-name="&lt;Compound Path&gt;" class="cls-1" d="M569,17.9a92,92,0,0,0-34.1,6.6c-53.4,21.6-92,59-116.8,110.6a114.26,114.26,0,0,0-10.4,35.2,123.63,123.63,0,0,1-17.3,49.5c-8.6,14.2-19.3,26.7-31,38.4-77.1,77.1-258.1,258-335.1,335.1-2.2,2.2-4.6,4.7-5.4,7.6-.7,2.7-.4,7.1,1.3,8.6,1.9,1.7,6.2,2.1,9,1.3,3-.8,5.6-3.5,7.9-5.8,77-76.9,257.8-257.8,334.8-334.7,5.5-5.5,11.2-10.9,17.3-15.9,18.2-15.1,38-26.8,61.7-31.2,11.2-2.1,23-3.1,33.5-7.3,55.1-22.2,94.5-61.2,118.6-115.3,4.5-10.2,7-21.6,8.6-32.6C615.86,37.7,598.66,17.9,569,17.9Zm-32.7,159.4c-17.3,14.3-36.2,25.8-58.5,30a75.66,75.66,0,0,1-24.2.7c-18.9-2.6-31.9-17.1-32.4-36.2a95.25,95.25,0,0,1,3.1-27.1c6.8-25,21.8-45.3,40-64.1l6.2,6.2c-1.3,1.4-2.5,2.7-3.6,4-16.1,17.5-29.5,36.7-35,60.2a68.92,68.92,0,0,0-1.7,20.3c.8,16.7,12.7,27.8,29.5,28.7,13.5.7,26-3,38.1-8.5,15.2-6.9,28.5-16.5,40.6-27.8,1.4-1.3,2.9-2.7,4.8-4.4,1.9,2.3,3.6,4.3,5.7,6.9C544.86,169.7,540.76,173.6,536.26,177.3Z"/><path id="_Path_" data-name="&lt;Path&gt;" d="M543.06,159.3c-1.9,1.7-3.3,3.1-4.8,4.4-12.2,11.3-25.5,20.9-40.6,27.8-12.1,5.5-24.6,9.2-38.1,8.5-16.8-.9-28.6-12-29.5-28.7a77.1,77.1,0,0,1,1.7-20.3c5.6-23.5,19-42.7,35-60.2,1.2-1.3,2.4-2.6,3.6-4l-6.2-6.2c-18.2,18.7-33.2,39-40,64.1a95.25,95.25,0,0,0-3.1,27.1c.5,19.1,13.5,33.5,32.4,36.2a75.58,75.58,0,0,0,24.2-.7c22.3-4.2,41.2-15.7,58.5-30,4.4-3.7,8.6-7.6,12.4-11.1C546.66,163.6,545,161.6,543.06,159.3Z"/></g><ellipse id="_Path_2" data-name="&lt;Path&gt;" class="cls-2" cx="557.27" cy="133.38" rx="20.3" ry="12.3" transform="translate(174.36 559.66) rotate(-61.53)"/><g id="_Group_2" data-name="&lt;Group&gt;" class="cls-3"><g id="_Group_3" data-name="&lt;Group&gt;"><g id="_Group_4" data-name="&lt;Group&gt;"><path id="_Path_3" data-name="&lt;Path&gt;" class="cls-4" d="M594.16,134a63.3,63.3,0,0,0,3.9-6.1c.4-2.1.9-4.2,1.3-6.3a75.91,75.91,0,0,0,1.3-17.8c-.3-4.9-1.2-10.5-3.3-15-1.9-4.2-4.6-8.3-8.5-10.9-8.1-5.1-17.9-4.3-26.3-.5-10.9,5-19.8,13.4-26.8,23a113.26,113.26,0,0,0-16.5,32.5c-3.3,10.7-5.2,22.6-3.1,33.8,1.5,8.3,6,17.7,14.6,20.7,1.8.6,3.7,1.2,5.6,1.7,3.2.8,6,.3,9.1-.5.4-.1-2.4-3.2-1.7-2.5a46.91,46.91,0,0,0-4.7-5.2,6.39,6.39,0,0,0-1.5-1.3h-1.1a6.29,6.29,0,0,1-2.8-2,37.52,37.52,0,0,1-3.7-4.4c-1.7-2.5-2.6-6-3.1-9-1.4-9.2.5-18.6,3.2-27.4a59.81,59.81,0,0,1,3-8.4,30.5,30.5,0,0,1,3.8-7.4,98.4,98.4,0,0,1,9.6-14.5,69,69,0,0,1,10.9-10.7c3.2-2.4,6.8-4.9,10.7-6.2,3.1-1,6.4-1.8,9.7-1.3l2.6.6a6.73,6.73,0,0,1,3.6,2.8c.6.7,1.2,1.4,1.8,2.2a31.65,31.65,0,0,1,2.5,6,37.76,37.76,0,0,1,1,10,65.67,65.67,0,0,1-1.9,14.6,54.85,54.85,0,0,1-2.3,7.9c-1.3,1.8-2.6,3.5-4,5.2a2.57,2.57,0,0,0,1.5-.1c1.7-.4,3.5-.8,5.2-1.3s3.5-.9,5.2-1.4C593.36,134.5,593.76,134.3,594.16,134Z"/><path id="_Path_4" data-name="&lt;Path&gt;" class="cls-4" d="M595.06,135.5a63.3,63.3,0,0,0,3.9-6.1c.4-2.1.9-4.2,1.3-6.3a75,75,0,0,0,1.1-17.7c-.3-4.9-1.2-10.4-3.4-14.9-2-4.1-4.6-8.2-8.6-10.6-8-5-17.6-4.2-25.9-.6-11,4.8-19.9,13.1-27,22.6a110.1,110.1,0,0,0-16.7,32.5c-3.4,10.8-5.3,22.8-3.3,34,1.5,8.5,6,18.1,14.7,21.2,1.9.7,3.9,1.3,5.8,1.8,3.4.8,6.3.3,9.6-.6a45.19,45.19,0,0,0-2.8-3.7c-.9-1-1.8-2.1-2.8-3.1a18.88,18.88,0,0,0-2-2,2.68,2.68,0,0,0-2.4-.7c-.4-.1-.8-.3-1.2-.4a11.8,11.8,0,0,1-3.2-2.7,20.9,20.9,0,0,1-4.6-6.4,30.25,30.25,0,0,1-2.4-10.6c-.5-9.2,1.5-18.2,4.3-26.9a68.58,68.58,0,0,1,3.2-8.6c1.4-2.5,2.9-4.9,4.2-7.4a89.35,89.35,0,0,1,10-14.3c5.6-6.5,12.4-12.3,20.6-15.4a21.16,21.16,0,0,1,10.3-1.3,10.27,10.27,0,0,1,6.8,3.5,19.27,19.27,0,0,1,4.6,8.4,43.19,43.19,0,0,1,1.2,12.4,66.1,66.1,0,0,1-1.8,12.5,56.13,56.13,0,0,1-2.3,8,65.4,65.4,0,0,1-4,5.2,2.2,2.2,0,0,0,1.4.1c1.7-.2,3.4-.3,5-.6s3.4-.4,5-.7A4.54,4.54,0,0,0,595.06,135.5Z"/><path id="_Path_5" data-name="&lt;Path&gt;" class="cls-4" d="M597.26,131.9a59.52,59.52,0,0,0,3.6-6c.4-2.2.8-4.3,1.2-6.5a70.37,70.37,0,0,0,.5-21,41.56,41.56,0,0,0-4.6-15c-2.7-4.9-6.9-9.5-12.4-11.4a30.07,30.07,0,0,0-16-1.2c-12.2,2.6-22.4,10.3-30.7,19.4A106.61,106.61,0,0,0,518,125.6c-4.2,11.6-6.5,24.1-5.5,36.4a45.05,45.05,0,0,0,3.9,14.8,28.57,28.57,0,0,0,9.3,10.8c3.3,2.3,7.5,3.4,11.4,4.1a17.87,17.87,0,0,0,11.2-1.2c.5-.2,0-1.2-.3-1.1-3.2.9-6,1.6-9.4,1.2a29.83,29.83,0,0,1-7.8-2,23.4,23.4,0,0,1-9-6.9,32.25,32.25,0,0,1-5.4-10.2c-1.6-4.9-1.9-10.2-1.9-15.3a74.53,74.53,0,0,1,2.3-17.6,105.43,105.43,0,0,1,14.8-33.6,98,98,0,0,1,10.2-12.9c4-4.2,9-8.7,14.1-11.5,4.8-2.6,9.9-4.9,15.4-5.4a27.6,27.6,0,0,1,12.1,1.3,13.11,13.11,0,0,1,5.7,3c1,.9,2,1.9,3.1,2.8a18.17,18.17,0,0,1,4.8,9.8,27.18,27.18,0,0,1,2.9,11.5,71.55,71.55,0,0,1-.9,17.3c-.4,2.1-.8,4.2-1.3,6.2a49.4,49.4,0,0,1-3.2,5.5c-.3.6.9.2.9.2A4.13,4.13,0,0,0,597.26,131.9Z"/><path id="_Path_6" data-name="&lt;Path&gt;" class="cls-4" d="M598.06,137.9a51.71,51.71,0,0,0,2.8-6.4,22.17,22.17,0,0,0,1.3-6.8,75.54,75.54,0,0,0,.9-18.4c-.9-10.3-4.5-21.2-13.5-27.1-6.1-4-13.7-4.6-20.7-3.1-12,2.6-22.3,10.8-30.2,19.7a109.92,109.92,0,0,0-22.8,41.9c-3.3,11.3-5.1,23.7-2.7,35.3,1.6,7.7,5.3,15.8,12.4,20a33,33,0,0,0,10,3.9,21,21,0,0,0,5.6.7,18.44,18.44,0,0,0,6.9-1.7c.6-.2-.2-2.9-.8-2.8a24.88,24.88,0,0,1-7.7.7,33.56,33.56,0,0,1-6.3-1.3c-11.3-3.4-17.4-14.7-18.3-26.3-1.6-19.8,5.4-39.8,15.6-56.5a93.13,93.13,0,0,1,18.2-21.9,35.27,35.27,0,0,1,9.8-6.4,21,21,0,0,1,7.9-3.6c7.3-2.6,14.9-1.8,22.6,2.4,1.2,1,2.4,2.1,3.6,3.1,5.9,6.1,8.4,15.1,8.8,23.4a82.15,82.15,0,0,1-4.6,30.7C596.46,138.2,597.86,138.3,598.06,137.9Z"/><path id="_Path_7" data-name="&lt;Path&gt;" class="cls-4" d="M594,136.1a61.74,61.74,0,0,0,3.9-6c.4-2.1.9-4.2,1.3-6.3a74.12,74.12,0,0,0,1.1-17.6A42.4,42.4,0,0,0,597,91.4c-1.9-4-4.5-8.1-8.4-10.5-7.8-4.9-17.2-4.3-25.4-.8-11,4.7-19.9,12.9-27,22.3a108.32,108.32,0,0,0-16.9,32.5c-3.5,10.8-5.4,22.8-3.4,34.1.8,4.3,2.3,9.4,4.9,13s5.9,6.9,10,8.2c1.9.6,3.9,1.2,5.8,1.6,3.4.8,6.2.2,9.5-.8.2-.1-2.5-4.2-2.8-4.6a63.56,63.56,0,0,0-5-6.6,2.7,2.7,0,0,0-.8-.7h-1.1a4.85,4.85,0,0,1-2.7-2,36.5,36.5,0,0,1-3.6-4.4c-1.7-2.6-2.5-6.1-3-9-1.3-9.2.6-18.6,3.3-27.4a59.81,59.81,0,0,1,3-8.4,25,25,0,0,1,3.9-7.4c3-5,5.8-10,9.7-14.4a64.45,64.45,0,0,1,11-10.5c3.2-2.3,6.7-4.6,10.5-5.7a19,19,0,0,1,9.1-.9,20.48,20.48,0,0,0,2.4.5,7.47,7.47,0,0,1,3.4,2.7l1.8,2.1a32.28,32.28,0,0,1,2.4,5.8,40.28,40.28,0,0,1,1,9.8,70.19,70.19,0,0,1-1.9,14.4,57.51,57.51,0,0,1-2.3,7.8c-1.2,1.8-2.6,3.4-3.9,5.1a2.3,2.3,0,0,0,1.4.2c1.8-.1,3.6-.2,5.4-.4s3.6-.3,5.4-.5A1.68,1.68,0,0,0,594,136.1Z"/><path id="_Path_8" data-name="&lt;Path&gt;" class="cls-4" d="M594.36,134.6a63.3,63.3,0,0,0,3.9-6.1c.4-2.1.9-4.2,1.3-6.3a70.07,70.07,0,0,0,1.2-17.7c-.3-4.9-1.2-10.4-3.3-14.9-1.9-4.1-4.6-8.2-8.5-10.7-8-5-17.7-4.2-26-.5-10.9,4.9-19.7,13.2-26.8,22.7a110.52,110.52,0,0,0-16.6,32.4c-3.4,10.7-5.2,22.6-3.2,33.8,1.5,8.3,6,17.9,14.6,20.9,1.8.6,3.8,1.2,5.7,1.7,3.3.8,6,.3,9.2-.6.4-.1-2.5-3.6-1.9-2.8a72.23,72.23,0,0,0-5-6,5,5,0,0,0-1.5-1.4h-1.1a5.12,5.12,0,0,1-2.6-2c-1.1-1.3-2.6-3-3.6-4.3-1.7-2.5-2.5-6-2.9-8.9-1.3-9.1.6-18.5,3.3-27.2a59.81,59.81,0,0,1,3-8.4,28.18,28.18,0,0,1,3.8-7.3,91.62,91.62,0,0,1,9.6-14.3,71.44,71.44,0,0,1,10.8-10.5c3.2-2.3,6.7-4.7,10.5-5.9,3-.9,6.2-1.7,9.3-1.1a22.12,22.12,0,0,0,2.5.5,7.25,7.25,0,0,1,3.5,2.7l1.8,2.1a30.42,30.42,0,0,1,2.4,5.9,41.1,41.1,0,0,1,1,9.9,69.29,69.29,0,0,1-1.9,14.4,64.08,64.08,0,0,1-2.3,7.8c-1.3,1.8-2.6,3.5-4,5.2a2,2,0,0,0,1.5,0c1.9-.3,3.7-.7,5.5-1l5.5-1.2A10.14,10.14,0,0,0,594.36,134.6Z"/><path id="_Path_9" data-name="&lt;Path&gt;" class="cls-4" d="M595.26,136.7a61.74,61.74,0,0,0,3.9-6c.4-2.1.9-4.3,1.3-6.4a72.39,72.39,0,0,0,1.1-18,43.69,43.69,0,0,0-3.4-15.2c-2-4.3-4.7-8.5-8.7-11.1a25.42,25.42,0,0,0-14.1-4.3,39.09,39.09,0,0,0-13.5,3.1c-11.5,5-20.6,13.9-27.9,24a112.93,112.93,0,0,0-16.6,33.3c-3.4,11-5.2,23.2-3.1,34.6,1.7,8.9,6.4,18.4,15.5,21.7a47.46,47.46,0,0,0,6.4,2,10.48,10.48,0,0,0,3.9.5,15.23,15.23,0,0,0,6.3-1.4c.4-.1-2.3-3.2-2.2-3.1-.6-.6-1.8-2.5-2.8-2.6-2-.2-4-.1-5.9-.8a22.3,22.3,0,0,1-9.7-7.1c-2.3-2.7-3.9-7-4.7-10.4-1.8-8.1-1.2-16.3.2-24.4.6-2.9,1.3-5.8,2.1-8.6a75.44,75.44,0,0,1,2.9-9.2c2.1-4.7,4.5-9.4,7-13.8,4.9-8.7,10.9-16.8,18.5-23.2A48.34,48.34,0,0,1,563,82.9c5.2-2.5,13.1-4.2,18.7-1.9,2.2,1.2,4.3,2.5,6.5,3.7a15.34,15.34,0,0,1,3.8,4.6,32.06,32.06,0,0,1,3.9,10,48,48,0,0,1,.7,15.1c-.7,8.1-2.1,16.1-7.4,22.8-.2.3,3.3.3,3.2.3C592.76,137.2,594.86,137.4,595.26,136.7Z"/><path id="_Path_10" data-name="&lt;Path&gt;" class="cls-4" d="M597.66,133.6a59.52,59.52,0,0,0,3.6-6,39.62,39.62,0,0,0,1.3-6.7,85.2,85.2,0,0,0,1-18.2c-.9-11.2-5.4-24.7-17.1-29a30.46,30.46,0,0,0-16.1-1.3A47.41,47.41,0,0,0,554,79.3c-7.2,4.4-13.5,11-18.6,17.7a120.74,120.74,0,0,0-10.9,17.4,105,105,0,0,0-9.9,28.7,76.85,76.85,0,0,0-1.3,20.3c.9,9.8,4.6,20,13.2,25.6a31.86,31.86,0,0,0,10,3.8,17.53,17.53,0,0,0,5.6.6,18.44,18.44,0,0,0,6.9-1.7c.5-.2-.3-1.9-.9-1.8a33.56,33.56,0,0,1-6.3,1.3,30.47,30.47,0,0,1-8.9-1.5,8.06,8.06,0,0,1-3.3-1.4,23.64,23.64,0,0,1-6.9-5.7,29,29,0,0,1-5.4-10.1c-.4-1.6-.7-3.2-1.1-4.7,2.6-15.6,5.1-31.1,7.7-46.7a100.48,100.48,0,0,1,15.8-25.3C545,89.7,551,84,558.26,80.3c4.1-2.1,8.3-3.9,13-4.3a28.76,28.76,0,0,1,10.1.7,20.07,20.07,0,0,1,8.1,4.1,26,26,0,0,1,5.4,6.5,31.64,31.64,0,0,1,3.8,10.8,29.54,29.54,0,0,1-1.5,18c1.5,7.1.3,13.2-3.7,18.3-.4.6,1.2.3,1.2.3C595.26,134.3,597.16,134.2,597.66,133.6Z"/><path id="_Path_11" data-name="&lt;Path&gt;" class="cls-4" d="M595.06,137.1a46.71,46.71,0,0,0,3.8-6c.4-2.1.8-4.2,1.3-6.3a75.45,75.45,0,0,0,1-17.8,42.57,42.57,0,0,0-3.4-14.9c-1.9-4.1-4.5-8.2-8.4-10.7a24.25,24.25,0,0,0-13.3-4.1,36,36,0,0,0-12.9,2.8c-11.3,4.7-20.4,13.3-27.7,23.1a113.34,113.34,0,0,0-16.9,33c-3.4,10.9-5.3,23.1-3.3,34.4,1.6,8.7,6.2,18.4,15.2,21.6a46.91,46.91,0,0,0,6.1,1.8c3.5.8,6.5.2,9.9-.9.2-.1-2.4-3.3-2.6-3.7-.9-1-1.7-2.1-2.6-3.1a12.61,12.61,0,0,0-2-2,4.35,4.35,0,0,0-2.9-.7c-.5-.2-1-.3-1.4-.5a12.9,12.9,0,0,1-3.8-2.8,22.92,22.92,0,0,1-5.1-6.8,31.87,31.87,0,0,1-2.8-11c-.7-9.5,1.1-18.6,3.8-27.7a71.62,71.62,0,0,1,3-8.9c1.4-2.6,2.8-5.1,4.2-7.7a94.33,94.33,0,0,1,9.9-15.2c5.9-7.4,13.1-14,22-17.6a23.9,23.9,0,0,1,12.1-1.5,11.18,11.18,0,0,1,5,1.8,6.76,6.76,0,0,1,3.2,2.6,21.07,21.07,0,0,1,5.1,9.1,44.28,44.28,0,0,1,1.4,13.1,81.17,81.17,0,0,1-1.7,13,60.06,60.06,0,0,1-2.3,8.3c-1.2,1.7-2.5,3.4-3.8,5a1.8,1.8,0,0,0,1.1.3c1.3.1,2.7.1,4,.1s2.7,0,4-.1C594.36,137.5,594.76,137.4,595.06,137.1Z"/><path id="_Path_12" data-name="&lt;Path&gt;" class="cls-4" d="M594,135.4c1.4-1.9,2.7-4,3.9-6,.4-2.1.9-4.2,1.3-6.3a74.17,74.17,0,0,0,1.2-17.6c-.3-4.9-1.2-10.4-3.3-14.8-1.9-4.1-4.5-8.2-8.4-10.6-7.9-5-17.4-4.3-25.7-.7-10.9,4.8-19.8,13-26.9,22.5a112.8,112.8,0,0,0-16.8,32.5c-3.4,10.7-5.3,22.7-3.3,33.9.8,4.3,2.3,9.3,4.9,12.9,2.5,3.4,5.8,6.8,9.9,8.1a55,55,0,0,0,5.8,1.6c3.3.8,6.1.2,9.3-.7.4-.1-2.5-3.9-1.8-3a81.61,81.61,0,0,0-5-6.6,5.36,5.36,0,0,0-1.5-1.5h-1.1a4.64,4.64,0,0,1-2.6-2,49.43,49.43,0,0,1-3.6-4.4c-1.7-2.5-2.5-6-2.9-9-1.3-9.1.6-18.5,3.3-27.3a64.7,64.7,0,0,1,3-8.4,26.25,26.25,0,0,1,3.9-7.4c3-5,5.8-9.9,9.6-14.4a67.71,67.71,0,0,1,10.9-10.5,38.51,38.51,0,0,1,10.5-5.8c3-.9,6.1-1.6,9.2-1a18.43,18.43,0,0,0,2.5.5,7.61,7.61,0,0,1,3.4,2.7l1.8,2.1a30.42,30.42,0,0,1,2.4,5.9,40.79,40.79,0,0,1,1,9.8,70.19,70.19,0,0,1-1.9,14.4,53.58,53.58,0,0,1-2.3,7.8c-1.3,1.8-2.6,3.5-4,5.1a2.57,2.57,0,0,0,1.5.1c1.8-.2,3.6-.4,5.4-.7s3.6-.5,5.4-.9C593.06,135.9,593.56,135.7,594,135.4Z"/><path id="_Path_13" data-name="&lt;Path&gt;" class="cls-4" d="M595.66,136.4a46.71,46.71,0,0,0,3.8-6c.4-2.1.8-4.2,1.3-6.4a71,71,0,0,0,1-17.8,43.11,43.11,0,0,0-3.4-15c-2-4.1-4.6-8.3-8.5-10.8a24.8,24.8,0,0,0-13.5-4,35.65,35.65,0,0,0-12.9,2.9c-11.3,4.8-20.4,13.4-27.6,23.1a109.88,109.88,0,0,0-16.7,32.9c-3.4,10.9-5.3,23-3.3,34.3,1.6,8.8,6.2,18.2,15.1,21.6a43.5,43.5,0,0,0,6.1,2,12.09,12.09,0,0,0,3.8.6,14.24,14.24,0,0,0,6.1-1.3c.2-.1-2.3-2.9-2.6-3.2-.9-.9-1.7-1.8-2.6-2.6a15.37,15.37,0,0,0-1.9-1.7,5.66,5.66,0,0,0-3.1-.7c-.5-.2-1-.3-1.5-.5a16.21,16.21,0,0,1-4.2-2.8,22.66,22.66,0,0,1-5.4-6.9,33.3,33.3,0,0,1-3-11.1c-.8-9.5,1-18.8,3.7-27.9a67.84,67.84,0,0,1,3-9l4.2-7.8a95.78,95.78,0,0,1,10-15.3c6-7.5,13.3-14.2,22.4-17.8a23.47,23.47,0,0,1,12.3-1.5,11.15,11.15,0,0,1,5.1,1.8,6.76,6.76,0,0,1,3.2,2.6,23.39,23.39,0,0,1,5.2,9.2,44.72,44.72,0,0,1,1.5,13.1,72.3,72.3,0,0,1-1.7,13.1,65,65,0,0,1-2.2,8.4,49.06,49.06,0,0,1-3.9,5.1,1.39,1.39,0,0,0,1.1.2c1.3,0,2.7-.1,4-.2C591.26,137,595.06,137.2,595.66,136.4Z"/><path id="_Path_14" data-name="&lt;Path&gt;" class="cls-4" d="M598.56,138.4a51.71,51.71,0,0,0,2.8-6.4,22.17,22.17,0,0,0,1.3-6.8,81.16,81.16,0,0,0,.9-18.4c-.9-10.2-4.5-21.1-13.4-27.1-13.4-9-30.8-1.4-41.9,7.6-12.1,9.9-21.2,23.6-27.3,37.9-5.8,13.3-9.5,28.4-8.1,42.9.9,9.5,4.5,20.5,13.3,25.7a39.22,39.22,0,0,0,10,3.9,17.53,17.53,0,0,0,5.6.6,19.56,19.56,0,0,0,6.8-1.8c.6-.2-.3-2.9-.9-2.7a33.63,33.63,0,0,1-6.2,1.1,22.23,22.23,0,0,1-6.3-.8,23.67,23.67,0,0,1-5.8-2.1,11.52,11.52,0,0,1-3.7-2.5,13.59,13.59,0,0,1-5.8-9.5,22.75,22.75,0,0,1-4.9-13.1c-.1-1.8-.2-3.6-.3-5.3a88.9,88.9,0,0,1,.8-11.5,101.89,101.89,0,0,1,8.5-28,109.24,109.24,0,0,1,13.8-22.7,72.85,72.85,0,0,1,10.9-11.3c1.6-1.2,3.2-2.5,4.7-3.7l42.9,3c3.8,5.8,5.2,12.9,5.7,19.7a68.68,68.68,0,0,1-.8,15,80.26,80.26,0,0,1-3.9,15.9C597.06,138.6,598.36,138.8,598.56,138.4Z"/></g></g></g><g id="_Group_5" data-name="&lt;Group&gt;" class="cls-3"><g id="_Group_6" data-name="&lt;Group&gt;"><g id="_Group_7" data-name="&lt;Group&gt;"><path id="_Path_15" data-name="&lt;Path&gt;" class="cls-5" d="M603.66,125.5a90.56,90.56,0,0,0,7.4-6.5,95,95,0,0,0,4.9-9.5,101.05,101.05,0,0,0,7.5-22.1c2.1-10.6,2.1-21.9-3.4-31.6a26.8,26.8,0,0,0-16.2-12.1,43.83,43.83,0,0,0-16.9-.8c-14.2,2-27.4,9.2-38.8,17.6a144.13,144.13,0,0,0-33.9,36.2c-8,12.1-14.3,25.7-16.5,40.1-1.6,10.9-.8,23,7,31.5a42.12,42.12,0,0,0,8.2,6.4,16.94,16.94,0,0,0,4.9,2.3,18.81,18.81,0,0,0,6.7.3c.4,0-1.8-5.3-1.8-5.2-.5-1.3-1.1-2.7-1.7-4a1.6,1.6,0,0,0-.7-.9,9.83,9.83,0,0,1-4.2-2.4,7.46,7.46,0,0,1-1.4-1.7,15.72,15.72,0,0,0-3-3.8,22.24,22.24,0,0,1-3.2-10,45.23,45.23,0,0,1,.9-13.2c2.6-14.1,9.6-26.9,18.2-38.3,8.9-11.9,19.8-23,32.6-30.7a38.9,38.9,0,0,1,7.3-3.8,76.51,76.51,0,0,1,10.2-4.4,46.43,46.43,0,0,1,13.8-2.8c7.6-.2,15.6,2.3,19.2,9.6,4.2,8.5,2.6,18.3.2,27.1a78.41,78.41,0,0,1-6.4,16.9,66.19,66.19,0,0,1-6.7,9.9q-3.45,3-7.2,5.7a1.74,1.74,0,0,0,1.4.3c1.7.1,3.4.1,5.2.1h5.2A1.11,1.11,0,0,0,603.66,125.5Z"/><path id="_Path_16" data-name="&lt;Path&gt;" class="cls-5" d="M604.76,127.1a90.56,90.56,0,0,0,7.4-6.5A85.94,85.94,0,0,0,617,111a95.52,95.52,0,0,0,7.3-22.1c2-10.6,1.9-21.8-3.7-31.3-6.7-11.3-20.8-14.2-32.9-12.6-14.1,1.9-27.3,8.9-38.7,17.2a143.21,143.21,0,0,0-34.2,36.1c-8.1,12.2-14.5,25.7-16.8,40.2-1.7,11-1,23.2,6.8,31.8a40.16,40.16,0,0,0,8.3,6.6,15.92,15.92,0,0,0,5.1,2.4,20.51,20.51,0,0,0,7,.3c.3,0-2.1-5.6-2.1-5.5-.6-1.4-1.3-2.8-2-4.2a1.59,1.59,0,0,0-.8-1,10.16,10.16,0,0,1-4.9-2.6,6.9,6.9,0,0,1-1.6-1.8,31.89,31.89,0,0,0-3.3-4c-4.7-6.9-4.1-16.1-2.7-23.9,2.5-14.3,9.5-27.3,18.1-38.8,9-12.1,20-23.5,33-31.4a36.39,36.39,0,0,1,7.6-3.9,68,68,0,0,1,10.4-4.5,49.86,49.86,0,0,1,14.2-2.9c8-.3,16.4,2.4,20.2,9.9,4.4,8.6,3,18.6.6,27.6a80.87,80.87,0,0,1-6.4,17.2,75.62,75.62,0,0,1-6.5,10.1q-3.45,3-7.2,5.7a2.11,2.11,0,0,0,1.3.5c1.7.3,3.4.5,5,.7l5.1.6A3.51,3.51,0,0,0,604.76,127.1Z"/><path id="_Path_17" data-name="&lt;Path&gt;" class="cls-5" d="M607.06,124.4a90.46,90.46,0,0,0,7.1-6.7,115.09,115.09,0,0,0,6.3-13.3,91,91,0,0,0,5.6-19.1c1.6-9.2,1.8-19.2-2-28a31.09,31.09,0,0,0-9.7-12.4c-6-4.7-14.5-6.6-21.9-6.3-14.8.6-28.5,6.8-40.7,14.9-14.1,9.3-26.3,21.6-36.3,35.3-9.7,13.3-17.8,28.6-20.7,44.9-2.3,12.5-1.4,26.8,7.8,36.5a43.61,43.61,0,0,0,9.5,7.1,24.8,24.8,0,0,0,5.8,2.5,26.82,26.82,0,0,0,8,0c.5,0,.3-1.2-.2-1.2a20.42,20.42,0,0,1-7.4-.1,19.44,19.44,0,0,1-4.2-1.7,36.8,36.8,0,0,1-8.2-5.8,29.36,29.36,0,0,1-8.8-15.2,48.94,48.94,0,0,1-.6-16.2c1.5-13.2,6.9-25.8,13.7-37.1a145.89,145.89,0,0,1,33.2-38.1c2.9-2.4,5.9-4.7,9-6.8a91.73,91.73,0,0,1,8.6-5c6.7-3.6,13.8-6.8,21.3-8.2,10.6-2,22.3-1.6,31.1,5.4,6.3,5,9.5,12.5,10.5,20.5.7,5.5.1,11-.7,16.5a88.58,88.58,0,0,1-5.4,18.2,115.57,115.57,0,0,1-6.1,12.8c-2.2,2.3-4.5,4.6-6.9,6.7-.4.4.6.5.7.5C605.76,124.7,606.66,124.7,607.06,124.4Z"/><path id="_Path_18" data-name="&lt;Path&gt;" class="cls-5" d="M606.86,130.3a91.6,91.6,0,0,0,7.1-6.8,22.48,22.48,0,0,0,3.5-6.9,104.71,104.71,0,0,0,8.7-26c2.2-12.7,1.5-27.2-7.9-37.1-17.2-18.1-46.4-7.6-64.1,3.5-15.3,9.6-28.4,22.8-39,37.4-10.7,14.8-19.7,32.3-21.4,50.7-.8,9,.2,18.5,5.3,26.3,3.2,4.8,7.8,8.3,12.7,11.2a19.75,19.75,0,0,0,5.8,2.4,23.88,23.88,0,0,0,8,.1c.5,0,.1-3.2-.6-3.2-3.6,0-6.5-.1-9.8-1.6a33.47,33.47,0,0,1-7.2-4.5,29.52,29.52,0,0,1-7.8-9.4c-3.6-6.9-4.3-14.7-3.7-22.3a80.64,80.64,0,0,1,4-18,100.65,100.65,0,0,1,8.6-18.9,150.51,150.51,0,0,1,26.1-33.4,160.9,160.9,0,0,1,14.1-12.1A100.07,100.07,0,0,1,567.06,51c2.1-.9,4.1-1.7,6.2-2.6a49.53,49.53,0,0,1,24.5-3.7c6.5,3.1,13,6.3,19.5,9.4a19.51,19.51,0,0,1,4.3,6.4c4.6,9.3,4.6,19.9,2.6,29.9a94.53,94.53,0,0,1-6,18.9c-1,2.2-2,4.3-3,6.5a39.7,39.7,0,0,1-10.4,13.3C604.26,129.9,606.46,130.6,606.86,130.3Z"/><path id="_Path_19" data-name="&lt;Path&gt;" class="cls-5" d="M603.76,127.7a75.27,75.27,0,0,0,7.3-6.5,84.52,84.52,0,0,0,4.8-9.5,98,98,0,0,0,7.3-22c2-10.5,1.9-21.6-3.6-31.1-6.5-11.2-20.4-14.1-32.3-12.6-14.1,1.8-27.3,8.7-38.6,16.9a139.83,139.83,0,0,0-34.3,36c-8.1,12.2-14.5,25.7-16.9,40.2-1.8,11-1,23.3,6.9,31.9a44.43,44.43,0,0,0,8.4,6.6,17,17,0,0,0,5.1,2.4,23.49,23.49,0,0,0,7,.2c.4,0-2-6.9-2-6.7-.6-1.7-1.2-3.5-1.9-5.2a2.22,2.22,0,0,0-.8-1.3,8.6,8.6,0,0,1-4.1-2.4,11.51,11.51,0,0,1-1.4-1.7,18.19,18.19,0,0,0-2.9-3.8,22.11,22.11,0,0,1-3.1-10,48,48,0,0,1,.9-13.1c.9-3.5,1.8-7.1,2.9-10.5a54.43,54.43,0,0,1,4.7-11.1A123.92,123.92,0,0,1,527.76,98c9-11.8,19.9-23.1,32.8-30.5a40.23,40.23,0,0,1,7.5-3.7,63.34,63.34,0,0,1,10.1-4.2,46.61,46.61,0,0,1,13.4-2.4,24.43,24.43,0,0,1,10.4,2,15.41,15.41,0,0,1,7.9,7.4c4.1,8.4,2.5,18,.1,26.6a78.72,78.72,0,0,1-6.5,16.9,68.42,68.42,0,0,1-6.5,9.7c-2.3,2-4.7,3.9-7.1,5.6a3,3,0,0,0,1.4.6c1.8.4,3.6.7,5.4,1.1l5.4.9A15.44,15.44,0,0,1,603.76,127.7Z"/><path id="_Path_20" data-name="&lt;Path&gt;" class="cls-5" d="M604,126.2a75.27,75.27,0,0,0,7.3-6.5,95,95,0,0,0,4.9-9.5,96.62,96.62,0,0,0,7.4-22c2.1-10.6,2.1-21.8-3.5-31.4A26.57,26.57,0,0,0,604,44.9a43.21,43.21,0,0,0-16.8-.7c-14.1,1.9-27.3,9-38.6,17.4a142.42,142.42,0,0,0-34,36.1c-8,12.1-14.4,25.6-16.6,40.1-1.7,10.9-.9,23,6.9,31.5a42.12,42.12,0,0,0,8.2,6.4A18.27,18.27,0,0,0,518,178a19.37,19.37,0,0,0,6.8.3c.3,0-2-6-1.9-5.8-.6-1.5-1.2-3-1.9-4.5a1.78,1.78,0,0,0-.8-1.1,9.15,9.15,0,0,1-4-2.4,7,7,0,0,1-1.3-1.7,14.83,14.83,0,0,0-2.9-3.7,21.71,21.71,0,0,1-3.1-9.9,48,48,0,0,1,.9-13.1c2.6-14.1,9.6-26.8,18.2-38.1,8.9-11.8,19.8-22.9,32.6-30.4a38.5,38.5,0,0,1,7.3-3.7A69.65,69.65,0,0,1,578,59.6a47.63,47.63,0,0,1,13.5-2.7c7.4-.2,15.2,2.3,18.6,9.4,4.1,8.5,2.5,18.1.1,26.8a75.68,75.68,0,0,1-6.4,16.8,64.67,64.67,0,0,1-6.6,9.8q-3.45,3-7.2,5.7a2.3,2.3,0,0,0,1.4.4c1.8.2,3.7.3,5.5.4l5.5.3A4.14,4.14,0,0,0,604,126.2Z"/><path id="_Path_21" data-name="&lt;Path&gt;" class="cls-5" d="M605,128.7a74.1,74.1,0,0,0,7.2-6.5,128.87,128.87,0,0,0,6.4-12.9,90.83,90.83,0,0,0,5.9-19.2c2.3-12.2,2-26.3-6.8-36.1-9.4-10.5-24.6-11.5-37.5-8.3a84.86,84.86,0,0,0-21.7,9.2,120.77,120.77,0,0,0-14.6,9.9,146.38,146.38,0,0,0-27.1,28.5c-9.6,13.1-17.6,28.1-20.6,44.2-2.3,11.8-2.1,26.3,6.9,35.5a45.43,45.43,0,0,0,8.8,6.9,16.51,16.51,0,0,0,5.4,2.4,19.91,19.91,0,0,0,7.3.1c.4,0-1.5-3.8-1.4-3.7-.3-.6-1.2-3.2-2.1-3.4a10.18,10.18,0,0,1-4.5-1.3,17.38,17.38,0,0,1-1.9-1,27.89,27.89,0,0,1-4.8-4.3,21.37,21.37,0,0,1-5-6.6c-.5-1.3-1.1-2.6-1.6-3.9-1.6-4.3-1.7-9.1-1.5-13.7.2-5.5,1.6-11.1,3-16.4a86.84,86.84,0,0,1,7.4-17.8,130.34,130.34,0,0,1,11.6-17.9,132,132,0,0,1,39.5-35.3c10-5.7,21.8-10.4,33.6-9a26.63,26.63,0,0,1,13.5,5.1,23.27,23.27,0,0,1,8,10.6c3.9,9.8,2.3,20.6-.4,30.5a81.15,81.15,0,0,1-7.3,18.4,54.36,54.36,0,0,1-5.1,8.3c-2.3,2.1-4.7,4-7.2,5.9-.3.2,3.3,1.2,3.2,1.2C602.16,128.4,604.36,129.2,605,128.7Z"/><path id="_Path_22" data-name="&lt;Path&gt;" class="cls-5" d="M607.36,125.8c1.2-1.1,2.4-2.1,3.6-3.2s2.3-2.2,3.4-3.4a50.1,50.1,0,0,0,3.4-6.5,99.2,99.2,0,0,0,8.8-26.1c2.2-12.5,1.7-26.8-7.3-36.6-5.1-5.6-12.4-8.8-19.9-9.7-9.6-1.2-19.4,1-28.3,4.6-14.8,5.8-28,15.7-39.2,26.9-14.9,15-27.7,33.4-33.9,53.7-3.6,11.8-5.5,25.4-.4,37.1a32,32,0,0,0,5.8,8.8,45.82,45.82,0,0,0,8.2,6.3,24.08,24.08,0,0,0,5.6,2.7c3.2,1.1,6.2.8,9.6.5.5,0,.1-1.9-.5-1.9-3.1.2-5.8.4-8.7-.6a32.34,32.34,0,0,1-6.4-3.3A29.52,29.52,0,0,1,498,156.7a46.24,46.24,0,0,1-1.1-10.5,45.24,45.24,0,0,1,7-24,55.29,55.29,0,0,1,8.7-21.6c2-3.3,4.1-6.4,6.4-9.5,12.9-12,25.9-24,38.8-36A88.4,88.4,0,0,1,573,47.8c8.6-3.1,17.6-4.7,26.7-3.2a28.26,28.26,0,0,1,19.9,13.8,32.49,32.49,0,0,1,3.6,11.3,26.75,26.75,0,0,1-.9,13.7,50.85,50.85,0,0,1-3.2,17.7,107,107,0,0,1-5.4,12.5,16.86,16.86,0,0,1-5,7.5,55.71,55.71,0,0,1-5.1,4.6c-.5.5.9.5,1,.5C605.16,126,606.86,126.3,607.36,125.8Z"/><path id="_Path_23" data-name="&lt;Path&gt;" class="cls-5" d="M604.86,128.9a74.1,74.1,0,0,0,7.2-6.5,85.94,85.94,0,0,0,4.8-9.6,96.05,96.05,0,0,0,7.2-22.2c2-10.6,1.8-21.8-3.7-31.4-6.6-11.5-20.8-14.7-33-13.2-14.3,1.7-27.8,9-39.3,17.4a142.25,142.25,0,0,0-34.4,36.5c-8.1,12.3-14.6,25.9-16.9,40.5-1.8,11.1-.9,23.6,7,32.4a43.66,43.66,0,0,0,8.6,6.8,17,17,0,0,0,5.3,2.4,21.78,21.78,0,0,0,7.2.2c.3,0-2.1-5.7-2-5.5-.6-1.4-1.3-2.8-2-4.2a1.59,1.59,0,0,0-.8-1,13.65,13.65,0,0,1-5.7-2.7,17,17,0,0,1-1.9-1.9,50.43,50.43,0,0,0-3.7-4.2c-5-7.1-4.8-16.6-3.5-24.8,2.3-14.6,9.1-27.9,17.6-39.7,9-12.6,20.1-24.3,33-32.8a50.18,50.18,0,0,1,7.8-4.4,85.15,85.15,0,0,1,11-5.2,53.32,53.32,0,0,1,15.7-3.5c9.1-.4,18.5,2.8,22.9,11.2,4.7,9,3.4,19.5,1,29a86.52,86.52,0,0,1-6.6,17.8,77.82,77.82,0,0,1-6.5,10.3c-2.3,2-4.6,3.9-7,5.7a1.7,1.7,0,0,0,1,.6c1.3.4,2.7.8,4.1,1.2s2.7.7,4.1,1A3.2,3.2,0,0,0,604.86,128.9Z"/><path id="_Path_24" data-name="&lt;Path&gt;" class="cls-5" d="M603.66,126.9a75.27,75.27,0,0,0,7.3-6.5,106.37,106.37,0,0,0,4.9-9.5,88.87,88.87,0,0,0,7.3-22c2-10.5,2-21.7-3.5-31.2-6.5-11.3-20.6-14.2-32.5-12.7-14.1,1.8-27.3,8.8-38.7,17.1a141.55,141.55,0,0,0-34.2,36.1c-8.1,12.1-14.5,25.7-16.7,40.1-1.7,10.9-.9,23.2,6.9,31.7a43.27,43.27,0,0,0,8.3,6.5,17.53,17.53,0,0,0,5,2.3,22.83,22.83,0,0,0,6.9.2c.4,0-1.9-6.4-1.9-6.3l-1.8-4.8a2,2,0,0,0-.8-1.2,8.3,8.3,0,0,1-4-2.4,7,7,0,0,1-1.3-1.7,17.42,17.42,0,0,0-2.9-3.8c-1.9-2.9-2.7-6.6-3.1-9.9a48,48,0,0,1,.9-13.1c.9-3.5,1.8-7.1,2.9-10.5a49.69,49.69,0,0,1,4.8-11.1,123.92,123.92,0,0,1,10.6-16.4c8.9-11.8,19.8-23,32.7-30.5a39.35,39.35,0,0,1,7.4-3.7,63.34,63.34,0,0,1,10.1-4.2,44.1,44.1,0,0,1,13.4-2.5c7.3-.1,15,2.4,18.4,9.4,4.1,8.4,2.4,18,.1,26.7a80.94,80.94,0,0,1-6.4,16.8,63.77,63.77,0,0,1-6.6,9.7q-3.45,3-7.2,5.7a2.39,2.39,0,0,0,1.4.5c1.8.3,3.6.5,5.4.7l5.4.6A2,2,0,0,0,603.66,126.9Z"/><path id="_Path_25" data-name="&lt;Path&gt;" class="cls-5" d="M605.36,128.2a89.26,89.26,0,0,0,7.3-6.5,85.94,85.94,0,0,0,4.8-9.6,96.3,96.3,0,0,0,7.3-22.2c2-10.6,1.8-21.9-3.8-31.5-6.7-11.5-20.9-14.7-33.2-13.2-14.4,1.8-27.8,9-39.3,17.5a141.87,141.87,0,0,0-34.3,36.5c-8.1,12.3-14.5,25.9-16.8,40.5-1.7,11.1-.9,23.5,7,32.3a43.66,43.66,0,0,0,8.6,6.8,17.51,17.51,0,0,0,5.2,2.4,21.81,21.81,0,0,0,7.2.3c.3,0-2.1-4.9-2.1-4.8-.6-1.2-1.3-2.4-2-3.6a1.09,1.09,0,0,0-.8-.8,14.16,14.16,0,0,1-6.1-2.8,12.61,12.61,0,0,1-2-2c-1.3-1.5-2.5-2.9-3.8-4.3-5.2-7.2-5-16.8-3.7-25.1,2.2-14.7,9.1-28.1,17.7-40.1,9-12.7,20.2-24.5,33.2-33.1a47.37,47.37,0,0,1,7.9-4.5,86.45,86.45,0,0,1,11.1-5.2,53.9,53.9,0,0,1,15.9-3.5c9.2-.4,18.7,2.8,23.2,11.3,4.8,9,3.6,19.6,1.2,29.1a86.21,86.21,0,0,1-6.5,17.8,71.26,71.26,0,0,1-6.6,10.5c-2.3,2-4.6,3.9-7.1,5.7a1.39,1.39,0,0,0,1,.5l4.1.9c1.4.3,2.7.5,4.1.7A1.45,1.45,0,0,0,605.36,128.2Z"/><path id="_Path_26" data-name="&lt;Path&gt;" class="cls-5" d="M608.16,131.1a73,73,0,0,0,6.5-7.1,18.78,18.78,0,0,0,3.5-6.9,104.46,104.46,0,0,0,8.6-26c2.3-12.8,1.5-27.4-8-37.2-17.3-18-46.3-7.6-64.1,3.6a140.21,140.21,0,0,0-34.1,31.1c-11.9,14.8-21.9,32.3-25.4,51.2-2,10.8-1.7,23,4.5,32.5,3.2,4.9,7.9,8.4,12.8,11.3a17.39,17.39,0,0,0,5.8,2.4,23.87,23.87,0,0,0,8,0c.5,0,.2-3.1-.5-3-3.5.2-6.7.3-9.9-1.2a40.77,40.77,0,0,1-6.1-3.6,31.58,31.58,0,0,1-8.2-8.1c-4.7-6.5-5.8-17-5-25,1.1-10.7,4.6-20.9,9.2-30.6,6-12.6,14.5-24.2,24-34.4A131.24,131.24,0,0,1,543.56,67c3.9-2.9,7.8-5.7,11.6-8.6a73.9,73.9,0,0,1,9.1-5.2,78.75,78.75,0,0,1,15.4-6.2q33.15-7,42.6,14.3a26.92,26.92,0,0,1,2.8,7.3c2.1,9.7.8,19.4-1.7,28.9a94.17,94.17,0,0,1-7.5,19.3c-1.2,2.2-2.3,4.4-3.5,6.6-1.8,2.5-3.7,4.8-5.7,7.1C606.26,130.8,607.86,131.4,608.16,131.1Z"/></g></g></g><g id="_Group_8" data-name="&lt;Group&gt;" class="cls-6"><path id="_Path_27" data-name="&lt;Path&gt;" class="cls-7" d="M499.06,68.7c-31.8,38.4-52.5,74.3-40.1,92.5s5.7,49.1,22.6,52a53.72,53.72,0,0,0,16,.1,12.48,12.48,0,0,0,8.9-18.9l-19.6-32a12.27,12.27,0,0,1-1.2-2.6c-2.6-7.9-14.7-48.3,13.5-65,33.1-19.6,95.4-62.4,83.5-75.1C578.66,15.4,530.76,30.3,499.06,68.7Z"/><path id="_Compound_Path_3" data-name="&lt;Compound Path&gt;" class="cls-7" d="M499.06,68.7l-3.8,4.7c-2.5,3-6,7.5-10.4,13.4s-9.5,13.1-14.8,21.8a158.3,158.3,0,0,0-7.7,14.3,86.41,86.41,0,0,0-6,16.9,37.4,37.4,0,0,0-1,9.5,22.88,22.88,0,0,0,2.3,9.5,50.59,50.59,0,0,0,2.6,4.4,29.18,29.18,0,0,1,2.3,4.7,57.64,57.64,0,0,1,3.2,10.2c1.7,7,2.5,14.4,4.4,21.6,1,3.6,2.3,7.3,4.9,10a9.9,9.9,0,0,0,4.8,2.9,27,27,0,0,0,5.7.8,57.29,57.29,0,0,0,11.7-.4,11.79,11.79,0,0,0,9.1-6.6,11.92,11.92,0,0,0-.3-11.3c-2.1-3.5-4.3-7-6.4-10.5-4.3-7-8.7-14.1-13-21.1a24.87,24.87,0,0,1-1.5-2.8c-.4-1-.7-2-1-3-.6-2-1.1-4-1.6-6.1a86.79,86.79,0,0,1-2.1-12.4,75.76,75.76,0,0,1-.2-12.6,50.58,50.58,0,0,1,2.4-12.3,36,36,0,0,1,5.9-11.1,36.74,36.74,0,0,1,9.3-8.3c14.1-8.4,27.7-17.2,40.5-26.3,6.4-4.5,12.6-9.1,18.4-13.8a167.62,167.62,0,0,0,16.5-14.7,64.85,64.85,0,0,0,6.8-8.1,25.09,25.09,0,0,0,2.6-4.5,22.51,22.51,0,0,0,.8-2.4,5.3,5.3,0,0,0,.1-2.5,6.31,6.31,0,0,0-.8-2.3,1.76,1.76,0,0,0-.4-.5c-.1-.1-.1-.2-.2-.2l-.2-.2a2,2,0,0,0-1.1-.3,16.19,16.19,0,0,0-4.9.3,65.19,65.19,0,0,0-9.2,2.4,140.19,140.19,0,0,0-16.6,6.9c-5.1,2.5-9.8,5.2-14.2,7.9a169.37,169.37,0,0,0-21.2,15.7,138.37,138.37,0,0,0-12.1,11.9c-1.3,1.4-2.3,2.6-2.9,3.4A11.6,11.6,0,0,1,499.06,68.7Zm0,0s.3-.4,1-1.2,1.6-1.9,2.9-3.4a138.37,138.37,0,0,1,12.1-11.9,177.5,177.5,0,0,1,21.1-15.8c4.3-2.7,9-5.4,14.1-8a133.55,133.55,0,0,1,16.6-7,70.62,70.62,0,0,1,9.3-2.5,16.65,16.65,0,0,1,5-.3,3.82,3.82,0,0,1,1.3.4c.1.1.2.1.3.2s.1.2.2.3.3.3.4.5a5.42,5.42,0,0,1,.9,2.4,11.33,11.33,0,0,1-.1,2.6,18.29,18.29,0,0,1-.8,2.5,25.09,25.09,0,0,1-2.6,4.5,65.73,65.73,0,0,1-6.8,8.2A182.35,182.35,0,0,1,557.46,55c-5.9,4.7-12,9.4-18.4,13.9-12.8,9.1-26.3,18-40.4,26.4a35.31,35.31,0,0,0-9.1,8.1,36.07,36.07,0,0,0-5.7,10.8,45.44,45.44,0,0,0-2.3,12.1,73.38,73.38,0,0,0,.2,12.4,105,105,0,0,0,2,12.3c.5,2,1,4,1.6,6,.3,1,.6,2,.9,2.9s.9,1.8,1.4,2.7c4.3,7.1,8.7,14.2,12.9,21.2,2.1,3.5,4.3,7,6.4,10.5a13.86,13.86,0,0,1,1.7,6,12.34,12.34,0,0,1-1.4,6,12.14,12.14,0,0,1-4,4.7,5.67,5.67,0,0,1-1.3.8c-.5.2-.9.5-1.4.7s-1,.3-1.5.5l-1.5.3a59.5,59.5,0,0,1-11.9.4,36.89,36.89,0,0,1-5.8-.9,10.87,10.87,0,0,1-5-3.1c-2.7-2.9-4-6.7-5.1-10.3s-1.6-7.3-2.3-11-1.3-7.2-2.1-10.7a65.83,65.83,0,0,0-3.1-10.1A32.9,32.9,0,0,0,460,163a50.59,50.59,0,0,1-2.6-4.4,23.78,23.78,0,0,1-2.3-9.7,38.19,38.19,0,0,1,1-9.6,78.52,78.52,0,0,1,6.1-16.9,143.73,143.73,0,0,1,7.8-14.2c5.3-8.7,10.5-15.9,14.9-21.8s8-10.3,10.4-13.4C497.66,70.3,499.06,68.7,499.06,68.7Z"/></g><path id="_Path_28" data-name="&lt;Path&gt;" class="cls-8" d="M421.16,116.3c13,26.3,35.3,26,29.9,45s-34.7,28.8-29.9,43,15.1,27.2,15.1,27.2-20.1,0-22.3-9.8-3.3-52.3,7.6-55.6S421.16,116.3,421.16,116.3Z"/><path id="_Path_29" data-name="&lt;Path&gt;" class="cls-8" d="M359.26,258.3c-3.4,28.2-17.3,42.1-17.3,42.1Z"/><path id="_Path_30" data-name="&lt;Path&gt;" class="cls-9" d="M288.26,328.3c-3.4,28.2-17.3,42.1-17.3,42.1Z"/><path id="_Path_31" data-name="&lt;Path&gt;" class="cls-10" d="M236.16,372.4a38.41,38.41,0,0,1-8.6,24.6c-5,6-12.7,8.9-17.2,15.3s-4.6,14.5-7.1,21.7a51.71,51.71,0,0,1-14.8,21.7c-3.4,3,1.6,7.9,4.9,4.9a58.5,58.5,0,0,0,15.1-21c3.3-7.9,3-19.1,9.3-25.3,3.1-3,7.1-5,10.3-7.9a42.94,42.94,0,0,0,8-9.5,45.05,45.05,0,0,0,7-24.5C243.16,367.9,236.16,367.9,236.16,372.4Z"/><path id="_Path_32" data-name="&lt;Path&gt;" class="cls-10" d="M144.76,461.3c-9.5,27.8-35.9,48.5-35.7,79.6,0,4.5,7,4.5,7,0-.2-29.8,26.3-50.9,35.4-77.8C153,458.9,146.26,457,144.76,461.3Z"/><path id="_Path_33" data-name="&lt;Path&gt;" class="cls-10" d="M101.06,545c-3.6-5.8-10.7-6.4-16.5-3.7-4.2,2-7.6,5.4-12,7.1a25.44,25.44,0,0,1-14.2,1.2c-4.4-.9-6.3,5.9-1.9,6.7a32.23,32.23,0,0,0,19.4-1.8c4.1-1.7,15.2-12.3,19.1-6.1C97.46,552.4,103.46,548.9,101.06,545Z"/><path id="_Path_34" data-name="&lt;Path&gt;" class="cls-10" d="M293.16,322c-5.4,5.3-11.2,11.2-12.9,18.9-1,4.5.2,8.7.1,13.2a19,19,0,0,1-5.6,12.5c-3.1,3.3,1.8,8.2,4.9,4.9a27.14,27.14,0,0,0,7.5-21c-.3-5.2-.5-9.2,2.4-13.9,2.3-3.7,5.5-6.8,8.6-9.8S296.36,318.9,293.16,322Z"/></g></g></svg>